<?xml version="1.0" encoding="UTF-8"?>
<svg xmlns="http://www.w3.org/2000/svg" style="stroke-dasharray:none; shape-rendering:auto; font-family:'Arial'; text-rendering:auto; fill-opacity:1; color-interpolation:auto; color-rendering:auto; font-size:12; fill:black; stroke:black; image-rendering:auto; stroke-miterlimit:10; stroke-linecap:square; stroke-linejoin:miter; font-style:normal; stroke-width:1; stroke-dashoffset:0; font-weight:normal; stroke-opacity:1;" contentScriptType="text/ecmascript" preserveAspectRatio="xMidYMid meet" zoomAndPan="magnify" version="1.0" contentStyleType="text/css" xml:xlink="http://www.w3.org/1999/xlink" width="1371" height="1001"><rect x="10" y="10" width="1361" height="991" ry="0" rx="0" style="stroke:#000000; fill:#FFFFFF" /><rect x="40" y="10" width="1331" height="198" ry="0" rx="0" style="stroke:#000000; fill:#D6E0D0" /><g componentSequence="6"><text x="-109" y="47" transform="rotate(270)" text-anchor="middle" style="font-weight:bold;font-size:10px;stroke:none; fill:#434343"><tspan dy="14" x="-109">Compradores</tspan></text></g><rect x="40" y="802" width="1331" height="199" ry="0" rx="0" style="stroke:#000000; fill:#D0DAAE" /><g componentSequence="5"><text x="-901" y="47" transform="rotate(270)" text-anchor="middle" style="font-weight:bold;font-size:10px;stroke:none; fill:#434343"><tspan dy="14" x="-901">Diretoria Nacional</tspan></text></g><rect x="40" y="604" width="1331" height="198" ry="0" rx="0" style="stroke:#000000; fill:#ADC9AC" /><g componentSequence="4"><text x="-703" y="47" transform="rotate(270)" text-anchor="middle" style="font-weight:bold;font-size:10px;stroke:none; fill:#434343"><tspan dy="14" x="-703">Comitê</tspan></text></g><rect x="40" y="406" width="1331" height="198" ry="0" rx="0" style="stroke:#000000; fill:#82B0B7" /><g componentSequence="3"><text x="-505" y="47" transform="rotate(270)" text-anchor="middle" style="font-weight:bold;font-size:10px;stroke:none; fill:#434343"><tspan dy="14" x="-505">Diretoria Financeira</tspan></text></g><rect x="40" y="208" width="1331" height="198" ry="0" rx="0" style="stroke:#000000; fill:#C0C0C0" /><g componentSequence="2"><text x="-307" y="47" transform="rotate(270)" text-anchor="middle" style="font-weight:bold;font-size:10px;stroke:none; fill:#434343"><tspan dy="14" x="-307">Gerência de Administração</tspan></text></g><g componentSequence="1"><text x="-505" y="17" transform="rotate(270)" text-anchor="middle" style="font-weight:bold;font-size:10px;stroke:none; fill:#434343"><tspan dy="14" x="-505">Alçada de aprovação de compras e serviços</tspan></text></g><g sequence="5"><rect x="200" y="253" width="106" height="56" ry="5" rx="5" style="fill:url(#linearGradientF8FBFEEDF5FCDEEDFAD4E7F8E2E5E9_497209502);" stroke="191970" /></g><g componentSequence="5"><text x="253" y="270" text-anchor="middle" style="font-weight:bold;font-size:10px;stroke:none; fill:#333399"><tspan dy="14" x="253">Aprovar</tspan></text></g><g sequence="11"><rect x="470" y="620" width="106" height="84" ry="5" rx="5" style="fill:url(#linearGradientF8FBFEEDF5FCDEEDFAD4E7F8E2E5E9_325401946);" stroke="191970" /></g><g componentSequence="11"><text x="523" y="635" text-anchor="middle" style="font-weight:bold;font-size:10px;stroke:none; fill:#333399"><tspan dy="14" x="523">Aprovar-</tspan><tspan dy="14" x="523">Diretoria de</tspan><tspan dy="14" x="523">Suporte</tspan></text></g><g sequence="13"><rect x="630" y="620" width="106" height="84" ry="5" rx="5" style="fill:url(#linearGradientF8FBFEEDF5FCDEEDFAD4E7F8E2E5E9_391822318);" stroke="191970" /></g><g componentSequence="13"><text x="683" y="635" text-anchor="middle" style="font-weight:bold;font-size:10px;stroke:none; fill:#333399"><tspan dy="14" x="683">Aprovar-</tspan><tspan dy="14" x="683">Diretoria de</tspan><tspan dy="14" x="683">Ministério</tspan></text></g><g sequence="15"><rect x="770" y="620" width="106" height="84" ry="5" rx="5" style="fill:url(#linearGradientF8FBFEEDF5FCDEEDFAD4E7F8E2E5E9_1381513057);" stroke="191970" /></g><g componentSequence="15"><text x="823" y="635" text-anchor="middle" style="font-weight:bold;font-size:10px;stroke:none; fill:#333399"><tspan dy="14" x="823">Aprovar-</tspan><tspan dy="14" x="823">Diretoria de MKT</tspan></text></g><g sequence="18"><rect x="930" y="620" width="106" height="84" ry="5" rx="5" style="fill:url(#linearGradientF8FBFEEDF5FCDEEDFAD4E7F8E2E5E9_1509243796);" stroke="191970" /></g><g componentSequence="18"><text x="983" y="635" text-anchor="middle" style="font-weight:bold;font-size:10px;stroke:none; fill:#333399"><tspan dy="14" x="983">Aprovar-</tspan><tspan dy="14" x="983">Diretoria de</tspan><tspan dy="14" x="983">Advocacy</tspan></text></g><g sequence="25"><polygon points=" 720 883 750 853 780 883 750 913 720 883" style="fill:url(#linearGradientFAFBFCFFFFCC_1665155613);" stroke="000000" /></g><g componentSequence="25"><text x="750" y="923" text-anchor="middle" style="font-weight:bold;font-size:10px;stroke:none; fill:#333399"><tspan dy="14" x="750">aprovad</tspan><tspan dy="14" x="750">o?</tspan></text></g><g sequence="27"><rect x="970" y="862" width="106" height="84" ry="5" rx="5" style="fill:url(#linearGradientF8FBFEEDF5FCDEEDFAD4E7F8E2E5E9_554111056);" stroke="191970" /></g><g componentSequence="27"><text x="1023" y="877" text-anchor="middle" style="font-weight:bold;font-size:10px;stroke:none; fill:#333399"><tspan dy="14" x="1023">Aprovar-</tspan><tspan dy="14" x="1023">Diretoria</tspan><tspan dy="14" x="1023">Nacional</tspan></text></g><g sequence="33"><polygon points=" 360 260 390 230 420 260 390 290 360 260" style="fill:url(#linearGradientFAFBFCFFFFCC_846710830);" stroke="000000" /></g><g componentSequence="33"><text x="390" y="300" text-anchor="middle" style="font-weight:bold;font-size:10px;stroke:none; fill:#333399"><tspan dy="14" x="390">aprovad</tspan><tspan dy="14" x="390">o?</tspan></text></g><g sequence="35"><rect x="340" y="450" width="106" height="56" ry="5" rx="5" style="fill:url(#linearGradientF8FBFEEDF5FCDEEDFAD4E7F8E2E5E9_1110338671);" stroke="191970" /></g><g componentSequence="35"><text x="393" y="467" text-anchor="middle" style="font-weight:bold;font-size:10px;stroke:none; fill:#333399"><tspan dy="14" x="393">Aprovar</tspan></text></g><g sequence="37"><polygon points=" 490 460 520 430 550 460 520 490 490 460" style="fill:url(#linearGradientFAFBFCFFFFCC_597659293);" stroke="000000" /></g><g componentSequence="37"><text x="520" y="500" text-anchor="middle" style="font-weight:bold;font-size:10px;stroke:none; fill:#333399"><tspan dy="14" x="520">aprovad</tspan><tspan dy="14" x="520">o?</tspan></text></g><g sequence="56"><ellipse cx="137" cy="47" rx="17" ry="17" stroke-width="1" style="fill:url(#linearGradient66FF6696FF96B6FFB6_973315886);" stroke="336633" /></g><g sequence="58"><ellipse cx="1287" cy="277" rx="17" ry="17" stroke-width="3" style="fill:url(#linearGradientFF6666FF9696FFB6B6_909711096);" stroke="993333" /></g><g sequence="61"><polygon points=" 110 130 140 100 170 130 140 160 110 130" style="fill:url(#linearGradientFAFBFCFFFFCC_130369860);" stroke="000000" /></g><g componentSequence="61"><text x="140" y="170" text-anchor="middle" style="font-weight:bold;font-size:10px;stroke:none; fill:#333399"><tspan dy="14" x="140">Verifica</tspan><tspan dy="14" x="140">orçada</tspan></text></g><g sequence="74"><polygon points=" 720 780 750 750 780 780 750 810 720 780" style="fill:url(#linearGradientFAFBFCFFFFCC_1492243527);" stroke="000000" /></g><path style="fill:none; stroke-width:6; stroke:#000000;" d="M740.0 780.0 L760.0 780.0" /><path style="fill:none; stroke-width:6; stroke:#000000;" d="M750.0 770.0 L750.0 790.0" /><g componentSequence="74"><text x="750" y="813" text-anchor="middle" style="font-weight:bold;font-size:10px;stroke:none; fill:#333399"><tspan dy="14" x="750">Join</tspan></text></g><g sequence="86"><polygon points=" 1120 883 1150 853 1180 883 1150 913 1120 883" style="fill:url(#linearGradientFAFBFCFFFFCC_2116930200);" stroke="000000" /></g><g componentSequence="86"><text x="1150" y="923" text-anchor="middle" style="font-weight:bold;font-size:10px;stroke:none; fill:#333399"><tspan dy="14" x="1150">aprovad</tspan><tspan dy="14" x="1150">o?</tspan></text></g><g sequence="90"><ellipse cx="1232" cy="967" rx="17" ry="17" stroke-width="3" style="fill:url(#linearGradientFF6666FF9696FFB6B6_6135155);" stroke="993333" /></g><g sequence="90"><polygon points=" 1223 963 1228 958 1233 963 1238 958 1243 963 1238 968 1243 973 1238 978 1233 973 1228 978 1223 973 1228 968" style="stroke:none; fill:#993333" /></g><g sequence="94"><ellipse cx="577" cy="903" rx="17" ry="17" stroke-width="3" style="fill:url(#linearGradientFF6666FF9696FFB6B6_763325269);" stroke="993333" /></g><g sequence="94"><polygon points=" 568 899 573 894 578 899 583 894 588 899 583 904 588 909 583 914 578 909 573 914 568 909 573 904" style="stroke:none; fill:#993333" /></g><g sequence="97"><ellipse cx="551" cy="573" rx="17" ry="17" stroke-width="3" style="fill:url(#linearGradientFF6666FF9696FFB6B6_2080035153);" stroke="993333" /></g><g sequence="97"><polygon points=" 542 569 547 564 552 569 557 564 562 569 557 574 562 579 557 584 552 579 547 584 542 579 547 574" style="stroke:none; fill:#993333" /></g><g sequence="100"><ellipse cx="307" cy="357" rx="17" ry="17" stroke-width="3" style="fill:url(#linearGradientFF6666FF9696FFB6B6_1804844476);" stroke="993333" /></g><g sequence="100"><polygon points=" 298 353 303 348 308 353 313 348 318 353 313 358 318 363 313 368 308 363 303 368 298 363 303 358" style="stroke:none; fill:#993333" /></g><g sequence="101"><polygon points=" 710 460 740 430 770 460 740 490 710 460" style="fill:url(#linearGradientFAFBFCFFFFCC_122229688);" stroke="000000" /></g><path style="fill:none; stroke-width:6; stroke:#000000;" d="M730.0 460.0 L750.0 460.0" /><path style="fill:none; stroke-width:6; stroke:#000000;" d="M740.0 450.0 L740.0 470.0" /><g componentSequence="101"><text x="740" y="500" text-anchor="middle" style="font-weight:bold;font-size:10px;stroke:none; fill:#333399"><tspan dy="14" x="740">Evento</tspan><tspan dy="14" x="740">Paralelo</tspan></text></g><g componentSequence="28"><text x="885" y="904" style="font-size:10px;font-weight:none;stroke:none; fill:#333399" text-anchor="left"><tspan dy="14" x="885">&gt;50.000</tspan></text></g><g componentSequence="34"><text x="343" y="281" style="font-size:10px;font-weight:none;stroke:none; fill:#333399" text-anchor="left" /></g><g componentSequence="36"><text x="401" y="391" style="font-size:10px;font-weight:none;stroke:none; fill:#333399" text-anchor="left"><tspan dy="14" x="401">&gt;3.500</tspan></text></g><g componentSequence="38"><text x="478" y="480" style="font-size:10px;font-weight:none;stroke:none; fill:#333399" text-anchor="left" /></g><g componentSequence="52"><text x="450" y="260" style="font-size:10px;font-weight:none;stroke:none; fill:#333399" text-anchor="left"><tspan dy="14" x="450">&lt;3.500</tspan></text></g><g componentSequence="53"><text x="520" y="340" style="font-size:10px;font-weight:none;stroke:none; fill:#333399" text-anchor="left"><tspan dy="14" x="520">&lt;35.000</tspan></text></g><g componentSequence="54"><text x="1210" y="700" style="font-size:10px;font-weight:none;stroke:none; fill:#333399" text-anchor="left"><tspan dy="14" x="1210">&lt;50.000</tspan></text></g><g componentSequence="62"><text x="149" y="82" style="font-size:10px;font-weight:none;stroke:none; fill:#333399" text-anchor="left" /></g><g componentSequence="63"><text x="263" y="160" style="font-size:10px;font-weight:none;stroke:none; fill:#333399" text-anchor="left"><tspan dy="14" x="263">&lt;3.500</tspan></text></g><g componentSequence="64"><text x="149" y="440" style="font-size:10px;font-weight:none;stroke:none; fill:#333399" text-anchor="left"><tspan dy="14" x="149">&gt;35.000</tspan></text></g><g componentSequence="70"><text x="651" y="563" style="font-size:10px;font-weight:none;stroke:none; fill:#333399" text-anchor="left" /></g><g componentSequence="71"><text x="720" y="576" style="font-size:10px;font-weight:none;stroke:none; fill:#333399" text-anchor="left" /></g><g componentSequence="72"><text x="793" y="576" style="font-size:10px;font-weight:none;stroke:none; fill:#333399" text-anchor="left" /></g><g componentSequence="73"><text x="860" y="563" style="font-size:10px;font-weight:none;stroke:none; fill:#333399" text-anchor="left" /></g><g componentSequence="76"><text x="726" y="727" style="font-size:10px;font-weight:none;stroke:none; fill:#333399" text-anchor="left" /></g><g componentSequence="77"><text x="797" y="727" style="font-size:10px;font-weight:none;stroke:none; fill:#333399" text-anchor="left" /></g><g componentSequence="78"><text x="865" y="734" style="font-size:10px;font-weight:none;stroke:none; fill:#333399" text-anchor="left" /></g><g componentSequence="80"><text x="640" y="481" style="font-size:10px;font-weight:none;stroke:none; fill:#333399" text-anchor="left"><tspan dy="14" x="640">&gt;35.000</tspan></text></g><g componentSequence="82"><text x="760" y="845" style="font-size:10px;font-weight:none;stroke:none; fill:#333399" text-anchor="left" /></g><g componentSequence="87"><text x="1108" y="904" style="font-size:10px;font-weight:none;stroke:none; fill:#333399" text-anchor="left" /></g><g componentSequence="89"><text x="1207" y="940" style="font-size:10px;font-weight:none;stroke:none; fill:#333399" text-anchor="left" /></g><g componentSequence="91"><text x="1297" y="653" style="font-size:10px;font-weight:none;stroke:none; fill:#333399" text-anchor="left" /></g><g componentSequence="93"><text x="667" y="903" style="font-size:10px;font-weight:none;stroke:none; fill:#333399" text-anchor="left" /></g><g componentSequence="96"><text x="551" y="544" style="font-size:10px;font-weight:none;stroke:none; fill:#333399" text-anchor="left" /></g><g componentSequence="99"><text x="352" y="325" style="font-size:10px;font-weight:none;stroke:none; fill:#333399" text-anchor="left" /></g><g componentSequence="102"><text x="658" y="735" style="font-size:10px;font-weight:none;stroke:none; fill:#333399" text-anchor="left" /></g><path style="fill:none; stroke:#000000;stroke-width:1" d="M306.0 281.0 L359.0 281.0" /><polygon style="fill:#000000; stroke:#000000;" points=" 349 276 359 281 349 286 351 281" /><path style="fill:none; stroke:#000000;stroke-width:1" d="M170.0 150.0 L253.0 150.0 L253.0 252.0" /><polygon style="fill:#000000; stroke:#000000;" points=" 258 242 253 252 248 242 253 244" /><path style="fill:none; stroke:#000000;stroke-width:1" d="M576.0 693.0 L719.0 776.0" /><polygon style="fill:#000000; stroke:#000000;" points=" 713 767 719 776 708 775 712 772" /><path style="fill:none; stroke:#000000;stroke-width:1" d="M709.0 506.0 L574.0 619.0" /><polygon style="fill:#000000; stroke:#000000;" points=" 585 616 574 619 578 609 580 614" /><path style="fill:none; stroke:#000000;stroke-width:1" d="M704.0 704.0 L727.0 749.0" /><polygon style="fill:#000000; stroke:#000000;" points=" 727 738 727 749 718 742 723 742" /><path style="fill:none; stroke:#000000;stroke-width:1" d="M723.0 532.0 L696.0 619.0" /><polygon style="fill:#000000; stroke:#000000;" points=" 704 611 696 619 694 608 698 611" /><path style="fill:none; stroke:#000000;stroke-width:1" d="M799.0 704.0 L774.0 749.0" /><polygon style="fill:#000000; stroke:#000000;" points=" 783 743 774 749 774 738 778 742" /><path style="fill:none; stroke:#000000;stroke-width:1" d="M763.0 532.0 L803.0 619.0" /><polygon style="fill:#000000; stroke:#000000;" points=" 803 608 803 619 794 612 800 612" /><path style="fill:none; stroke:#000000;stroke-width:1" d="M929.0 692.0 L780.0 776.0" /><polygon style="fill:#000000; stroke:#000000;" points=" 791 775 780 776 786 767 787 772" /><path style="fill:none; stroke:#000000;stroke-width:1" d="M770.0 503.0 L929.0 622.0" /><polygon style="fill:#000000; stroke:#000000;" points=" 924 612 929 622 918 620 923 617" /><path style="fill:none; stroke:#000000;stroke-width:1" d="M780.0 904.0 L969.0 904.0" /><polygon style="fill:#000000; stroke:#000000;" points=" 959 899 969 904 959 909 961 904" /><path style="fill:none; stroke:#000000;stroke-width:1" d="M780.0 890.0 L1287.0 660.0 L1287.0 295.0" /><polygon style="fill:#000000; stroke:#000000;" points=" 1282 305 1287 295 1292 305 1287 303" /><path style="fill:none; stroke:#000000;stroke-width:1" d="M719.0 903.0 L594.0 903.0" /><polygon style="fill:#000000; stroke:#000000;" points=" 604 908 594 903 604 898 602 903" /><path style="fill:none; stroke:#000000;stroke-width:1" d="M750.0 838.0 L750.0 852.0" /><polygon style="fill:#000000; stroke:#000000;" points=" 755 842 750 852 745 842 750 844" /><path style="fill:none; stroke:#000000;stroke-width:1" d="M1076.0 904.0 L1119.0 904.0" /><polygon style="fill:#000000; stroke:#000000;" points=" 1109 899 1119 904 1109 909 1111 904" /><path style="fill:none; stroke:#000000;stroke-width:1" d="M390.0 332.0 L392.0 449.0" /><polygon style="fill:#000000; stroke:#000000;" points=" 397 439 392 449 387 439 392 441" /><path style="fill:none; stroke:#000000;stroke-width:1" d="M420.0 280.0 L1270.0 277.0" /><polygon style="fill:#000000; stroke:#000000;" points=" 1260 272 1270 277 1260 282 1262 277" /><path style="fill:none; stroke:#000000;stroke-width:1" d="M359.0 309.0 L320.0 345.0" /><polygon style="fill:#000000; stroke:#000000;" points=" 331 342 320 345 324 335 326 340" /><path style="fill:none; stroke:#000000;stroke-width:1" d="M446.0 479.0 L489.0 480.0" /><polygon style="fill:#000000; stroke:#000000;" points=" 479 475 489 480 479 485 481 480" /><path style="fill:none; stroke:#000000;stroke-width:1" d="M139.0 202.0 L139.0 478.0 L339.0 478.0" /><polygon style="fill:#000000; stroke:#000000;" points=" 329 473 339 478 329 483 331 478" /><path style="fill:none; stroke:#000000;stroke-width:1" d="M520.0 429.0 L520.0 277.0 L1269.0 277.0" /><polygon style="fill:#000000; stroke:#000000;" points=" 1259 272 1269 277 1259 282 1261 277" /><path style="fill:none; stroke:#000000;stroke-width:1" d="M550.0 481.0 L709.0 481.0" /><polygon style="fill:#000000; stroke:#000000;" points=" 699 476 709 481 699 486 701 481" /><path style="fill:none; stroke:#000000;stroke-width:1" d="M537.0 532.0 L546.0 556.0" /><polygon style="fill:#000000; stroke:#000000;" points=" 547 545 546 556 538 548 543 549" /><path style="fill:none; stroke:#000000;stroke-width:1" d="M137.0 64.0 L138.0 99.0" /><polygon style="fill:#000000; stroke:#000000;" points=" 143 89 138 99 133 89 138 91" /><path style="fill:none; stroke:#000000;stroke-width:1" d="M1180.0 904.0 L1287.0 904.0 L1287.0 295.0" /><polygon style="fill:#000000; stroke:#000000;" points=" 1282 305 1287 295 1292 305 1287 303" /><path style="fill:none; stroke:#000000;stroke-width:1" d="M1180.0 927.0 L1218.0 957.0" /><polygon style="fill:#000000; stroke:#000000;" points=" 1213 947 1218 957 1207 955 1212 952" /><defs><linearGradient xmlns:xlink="http://www.w3.org/1999/xlink" xlink:href="#linearGradientF8FBFEEDF5FCDEEDFAD4E7F8E2E5E9" id="linearGradientF8FBFEEDF5FCDEEDFAD4E7F8E2E5E9_497209502" x1="0" y1="253.0" x2="0" y2="359.0" gradientUnits="userSpaceOnUse" xlink:type="simple" xlink:actuate="onLoad" xlink:show="other" /><linearGradient id="linearGradientF8FBFEEDF5FCDEEDFAD4E7F8E2E5E9"><stop style="stop-color:#F8FBFE;stop-opacity:1;" offset="0.0" id="stopF8FBFE" /><stop style="stop-color:#EDF5FC;stop-opacity:1;" offset="0.25" id="stopEDF5FC" /><stop style="stop-color:#DEEDFA;stop-opacity:1;" offset="0.5" id="stopDEEDFA" /><stop style="stop-color:#D4E7F8;stop-opacity:1;" offset="0.75" id="stopD4E7F8" /><stop style="stop-color:#E2E5E9;stop-opacity:1;" offset="1.0" id="stopE2E5E9" /></linearGradient><linearGradient xmlns:xlink="http://www.w3.org/1999/xlink" xlink:href="#linearGradientF8FBFEEDF5FCDEEDFAD4E7F8E2E5E9" id="linearGradientF8FBFEEDF5FCDEEDFAD4E7F8E2E5E9_325401946" x1="0" y1="620.0" x2="0" y2="726.0" gradientUnits="userSpaceOnUse" xlink:type="simple" xlink:actuate="onLoad" xlink:show="other" /><linearGradient xmlns:xlink="http://www.w3.org/1999/xlink" xlink:href="#linearGradientF8FBFEEDF5FCDEEDFAD4E7F8E2E5E9" id="linearGradientF8FBFEEDF5FCDEEDFAD4E7F8E2E5E9_391822318" x1="0" y1="620.0" x2="0" y2="726.0" gradientUnits="userSpaceOnUse" xlink:type="simple" xlink:actuate="onLoad" xlink:show="other" /><linearGradient xmlns:xlink="http://www.w3.org/1999/xlink" xlink:href="#linearGradientF8FBFEEDF5FCDEEDFAD4E7F8E2E5E9" id="linearGradientF8FBFEEDF5FCDEEDFAD4E7F8E2E5E9_1381513057" x1="0" y1="620.0" x2="0" y2="726.0" gradientUnits="userSpaceOnUse" xlink:type="simple" xlink:actuate="onLoad" xlink:show="other" /><linearGradient xmlns:xlink="http://www.w3.org/1999/xlink" xlink:href="#linearGradientF8FBFEEDF5FCDEEDFAD4E7F8E2E5E9" id="linearGradientF8FBFEEDF5FCDEEDFAD4E7F8E2E5E9_1509243796" x1="0" y1="620.0" x2="0" y2="726.0" gradientUnits="userSpaceOnUse" xlink:type="simple" xlink:actuate="onLoad" xlink:show="other" /><linearGradient xmlns:xlink="http://www.w3.org/1999/xlink" xlink:href="#linearGradientFAFBFCFFFFCC" id="linearGradientFAFBFCFFFFCC_1665155613" x1="0" y1="853.0" x2="0" y2="913.0" gradientUnits="userSpaceOnUse" xlink:type="simple" xlink:actuate="onLoad" xlink:show="other" /><linearGradient id="linearGradientFAFBFCFFFFCC"><stop style="stop-color:#FAFBFC;stop-opacity:1;" offset="0.0" id="stopFAFBFC" /><stop style="stop-color:#FFFFCC;stop-opacity:1;" offset="1.0" id="stopFFFFCC" /></linearGradient><linearGradient xmlns:xlink="http://www.w3.org/1999/xlink" xlink:href="#linearGradientF8FBFEEDF5FCDEEDFAD4E7F8E2E5E9" id="linearGradientF8FBFEEDF5FCDEEDFAD4E7F8E2E5E9_554111056" x1="0" y1="862.0" x2="0" y2="968.0" gradientUnits="userSpaceOnUse" xlink:type="simple" xlink:actuate="onLoad" xlink:show="other" /><linearGradient xmlns:xlink="http://www.w3.org/1999/xlink" xlink:href="#linearGradientFAFBFCFFFFCC" id="linearGradientFAFBFCFFFFCC_846710830" x1="0" y1="230.0" x2="0" y2="290.0" gradientUnits="userSpaceOnUse" xlink:type="simple" xlink:actuate="onLoad" xlink:show="other" /><linearGradient xmlns:xlink="http://www.w3.org/1999/xlink" xlink:href="#linearGradientF8FBFEEDF5FCDEEDFAD4E7F8E2E5E9" id="linearGradientF8FBFEEDF5FCDEEDFAD4E7F8E2E5E9_1110338671" x1="0" y1="450.0" x2="0" y2="556.0" gradientUnits="userSpaceOnUse" xlink:type="simple" xlink:actuate="onLoad" xlink:show="other" /><linearGradient xmlns:xlink="http://www.w3.org/1999/xlink" xlink:href="#linearGradientFAFBFCFFFFCC" id="linearGradientFAFBFCFFFFCC_597659293" x1="0" y1="430.0" x2="0" y2="490.0" gradientUnits="userSpaceOnUse" xlink:type="simple" xlink:actuate="onLoad" xlink:show="other" /><linearGradient xmlns:xlink="http://www.w3.org/1999/xlink" xlink:href="#linearGradient66FF6696FF96B6FFB6" id="linearGradient66FF6696FF96B6FFB6_973315886" x1="0" y1="30.0" x2="0" y2="65.0" gradientUnits="userSpaceOnUse" xlink:type="simple" xlink:actuate="onLoad" xlink:show="other" /><linearGradient id="linearGradient66FF6696FF96B6FFB6"><stop style="stop-color:#66FF66;stop-opacity:1;" offset="0.0" id="stop66FF66" /><stop style="stop-color:#96FF96;stop-opacity:1;" offset="0.5" id="stop96FF96" /><stop style="stop-color:#B6FFB6;stop-opacity:1;" offset="1.0" id="stopB6FFB6" /></linearGradient><linearGradient xmlns:xlink="http://www.w3.org/1999/xlink" xlink:href="#linearGradientFF6666FF9696FFB6B6" id="linearGradientFF6666FF9696FFB6B6_909711096" x1="0" y1="260.0" x2="0" y2="295.0" gradientUnits="userSpaceOnUse" xlink:type="simple" xlink:actuate="onLoad" xlink:show="other" /><linearGradient id="linearGradientFF6666FF9696FFB6B6"><stop style="stop-color:#FF6666;stop-opacity:1;" offset="0.0" id="stopFF6666" /><stop style="stop-color:#FF9696;stop-opacity:1;" offset="0.5" id="stopFF9696" /><stop style="stop-color:#FFB6B6;stop-opacity:1;" offset="1.0" id="stopFFB6B6" /></linearGradient><linearGradient xmlns:xlink="http://www.w3.org/1999/xlink" xlink:href="#linearGradientFAFBFCFFFFCC" id="linearGradientFAFBFCFFFFCC_130369860" x1="0" y1="100.0" x2="0" y2="160.0" gradientUnits="userSpaceOnUse" xlink:type="simple" xlink:actuate="onLoad" xlink:show="other" /><linearGradient xmlns:xlink="http://www.w3.org/1999/xlink" xlink:href="#linearGradientFAFBFCFFFFCC" id="linearGradientFAFBFCFFFFCC_1492243527" x1="0" y1="750.0" x2="0" y2="810.0" gradientUnits="userSpaceOnUse" xlink:type="simple" xlink:actuate="onLoad" xlink:show="other" /><linearGradient xmlns:xlink="http://www.w3.org/1999/xlink" xlink:href="#linearGradientFAFBFCFFFFCC" id="linearGradientFAFBFCFFFFCC_2116930200" x1="0" y1="853.0" x2="0" y2="913.0" gradientUnits="userSpaceOnUse" xlink:type="simple" xlink:actuate="onLoad" xlink:show="other" /><linearGradient xmlns:xlink="http://www.w3.org/1999/xlink" xlink:href="#linearGradientFF6666FF9696FFB6B6" id="linearGradientFF6666FF9696FFB6B6_6135155" x1="0" y1="950.0" x2="0" y2="985.0" gradientUnits="userSpaceOnUse" xlink:type="simple" xlink:actuate="onLoad" xlink:show="other" /><linearGradient xmlns:xlink="http://www.w3.org/1999/xlink" xlink:href="#linearGradientFF6666FF9696FFB6B6" id="linearGradientFF6666FF9696FFB6B6_763325269" x1="0" y1="886.0" x2="0" y2="921.0" gradientUnits="userSpaceOnUse" xlink:type="simple" xlink:actuate="onLoad" xlink:show="other" /><linearGradient xmlns:xlink="http://www.w3.org/1999/xlink" xlink:href="#linearGradientFF6666FF9696FFB6B6" id="linearGradientFF6666FF9696FFB6B6_2080035153" x1="0" y1="556.0" x2="0" y2="591.0" gradientUnits="userSpaceOnUse" xlink:type="simple" xlink:actuate="onLoad" xlink:show="other" /><linearGradient xmlns:xlink="http://www.w3.org/1999/xlink" xlink:href="#linearGradientFF6666FF9696FFB6B6" id="linearGradientFF6666FF9696FFB6B6_1804844476" x1="0" y1="340.0" x2="0" y2="375.0" gradientUnits="userSpaceOnUse" xlink:type="simple" xlink:actuate="onLoad" xlink:show="other" /><linearGradient xmlns:xlink="http://www.w3.org/1999/xlink" xlink:href="#linearGradientFAFBFCFFFFCC" id="linearGradientFAFBFCFFFFCC_122229688" x1="0" y1="430.0" x2="0" y2="490.0" gradientUnits="userSpaceOnUse" xlink:type="simple" xlink:actuate="onLoad" xlink:show="other" /></defs></svg>
