<?xml version="1.0" encoding="UTF-8"?>
<svg xmlns="http://www.w3.org/2000/svg" style="stroke-dasharray:none; shape-rendering:auto; font-family:'Arial'; text-rendering:auto; fill-opacity:1; color-interpolation:auto; color-rendering:auto; font-size:12; fill:black; stroke:black; image-rendering:auto; stroke-miterlimit:10; stroke-linecap:square; stroke-linejoin:miter; font-style:normal; stroke-width:1; stroke-dashoffset:0; font-weight:normal; stroke-opacity:1;" contentScriptType="text/ecmascript" preserveAspectRatio="xMidYMid meet" zoomAndPan="magnify" version="1.0" contentStyleType="text/css" xml:xlink="http://www.w3.org/1999/xlink" width="1371" height="1001"><rect x="10" y="10" width="1361" height="991" ry="0" rx="0" style="stroke:#000000; fill:#FFFFFF" /><rect x="40" y="10" width="1331" height="198" ry="0" rx="0" style="stroke:#000000; fill:#D6E0D0" /><g componentSequence="6"><text x="-109" y="47" transform="rotate(270)" text-anchor="middle" style="font-weight:bold;font-size:10px;stroke:none; fill:#434343"><tspan dy="14" x="-109">Compradores</tspan></text></g><rect x="40" y="802" width="1331" height="199" ry="0" rx="0" style="stroke:#000000; fill:#D0DAAE" /><g componentSequence="5"><text x="-901" y="47" transform="rotate(270)" text-anchor="middle" style="font-weight:bold;font-size:10px;stroke:none; fill:#434343"><tspan dy="14" x="-901">Diretoria Nacional</tspan></text></g><rect x="40" y="604" width="1331" height="198" ry="0" rx="0" style="stroke:#000000; fill:#ADC9AC" /><g componentSequence="4"><text x="-703" y="47" transform="rotate(270)" text-anchor="middle" style="font-weight:bold;font-size:10px;stroke:none; fill:#434343"><tspan dy="14" x="-703">Comitê</tspan></text></g><rect x="40" y="406" width="1331" height="198" ry="0" rx="0" style="stroke:#000000; fill:#82B0B7" /><g componentSequence="3"><text x="-505" y="47" transform="rotate(270)" text-anchor="middle" style="font-weight:bold;font-size:10px;stroke:none; fill:#434343"><tspan dy="14" x="-505">Diretoria Financeira</tspan></text></g><rect x="40" y="208" width="1331" height="198" ry="0" rx="0" style="stroke:#000000; fill:#C0C0C0" /><g componentSequence="2"><text x="-307" y="47" transform="rotate(270)" text-anchor="middle" style="font-weight:bold;font-size:10px;stroke:none; fill:#434343"><tspan dy="14" x="-307">Gerência de Administração</tspan></text></g><g componentSequence="1"><text x="-505" y="17" transform="rotate(270)" text-anchor="middle" style="font-weight:bold;font-size:10px;stroke:none; fill:#434343"><tspan dy="14" x="-505">Alçada de aprovação de compras e serviços</tspan></text></g><g sequence="5"><rect x="200" y="253" width="106" height="56" ry="5" rx="5" style="fill:url(#linearGradientF8FBFEEDF5FCDEEDFAD4E7F8E2E5E9_1750415240);" stroke="191970" /></g><g componentSequence="5"><text x="253" y="270" text-anchor="middle" style="font-weight:bold;font-size:10px;stroke:none; fill:#333399"><tspan dy="14" x="253">Aprovar</tspan></text></g><g sequence="11"><rect x="470" y="620" width="106" height="84" ry="5" rx="5" style="fill:url(#linearGradientF8FBFEEDF5FCDEEDFAD4E7F8E2E5E9_1720898802);" stroke="191970" /></g><g componentSequence="11"><text x="523" y="635" text-anchor="middle" style="font-weight:bold;font-size:10px;stroke:none; fill:#333399"><tspan dy="14" x="523">Aprovar-</tspan><tspan dy="14" x="523">Diretoria de</tspan><tspan dy="14" x="523">Suporte</tspan></text></g><g sequence="13"><rect x="630" y="620" width="106" height="84" ry="5" rx="5" style="fill:url(#linearGradientF8FBFEEDF5FCDEEDFAD4E7F8E2E5E9_1655528696);" stroke="191970" /></g><g componentSequence="13"><text x="683" y="635" text-anchor="middle" style="font-weight:bold;font-size:10px;stroke:none; fill:#333399"><tspan dy="14" x="683">Aprovar-</tspan><tspan dy="14" x="683">Diretoria de</tspan><tspan dy="14" x="683">Ministério</tspan></text></g><g sequence="15"><rect x="770" y="620" width="106" height="84" ry="5" rx="5" style="fill:url(#linearGradientF8FBFEEDF5FCDEEDFAD4E7F8E2E5E9_665837257);" stroke="191970" /></g><g componentSequence="15"><text x="823" y="635" text-anchor="middle" style="font-weight:bold;font-size:10px;stroke:none; fill:#333399"><tspan dy="14" x="823">Aprovar-</tspan><tspan dy="14" x="823">Diretoria de MKT</tspan></text></g><g sequence="18"><rect x="930" y="620" width="106" height="84" ry="5" rx="5" style="fill:url(#linearGradientF8FBFEEDF5FCDEEDFAD4E7F8E2E5E9_1711752387);" stroke="191970" /></g><g componentSequence="18"><text x="983" y="635" text-anchor="middle" style="font-weight:bold;font-size:10px;stroke:none; fill:#333399"><tspan dy="14" x="983">Aprovar-</tspan><tspan dy="14" x="983">Diretoria de</tspan><tspan dy="14" x="983">Advocacy</tspan></text></g><g sequence="25"><polygon points=" 1080 640 1110 610 1140 640 1110 670 1080 640" style="fill:url(#linearGradientFAFBFCFFFFCC_381827509);" stroke="000000" /></g><g componentSequence="25"><text x="1110" y="680" text-anchor="middle" style="font-weight:bold;font-size:10px;stroke:none; fill:#333399"><tspan dy="14" x="1110">aprovad</tspan><tspan dy="14" x="1110">o</tspan></text></g><g sequence="27"><rect x="1060" y="862" width="106" height="84" ry="5" rx="5" style="fill:url(#linearGradientF8FBFEEDF5FCDEEDFAD4E7F8E2E5E9_511769865);" stroke="191970" /></g><g componentSequence="27"><text x="1113" y="877" text-anchor="middle" style="font-weight:bold;font-size:10px;stroke:none; fill:#333399"><tspan dy="14" x="1113">Aprovar-</tspan><tspan dy="14" x="1113">Diretoria</tspan><tspan dy="14" x="1113">Nacional</tspan></text></g><g sequence="33"><polygon points=" 360 260 390 230 420 260 390 290 360 260" style="fill:url(#linearGradientFAFBFCFFFFCC_1199579526);" stroke="000000" /></g><g componentSequence="33"><text x="390" y="300" text-anchor="middle" style="font-weight:bold;font-size:10px;stroke:none; fill:#333399"><tspan dy="14" x="390">aprovad</tspan><tspan dy="14" x="390">o</tspan></text></g><g sequence="35"><rect x="340" y="450" width="106" height="56" ry="5" rx="5" style="fill:url(#linearGradientF8FBFEEDF5FCDEEDFAD4E7F8E2E5E9_469583081);" stroke="191970" /></g><g componentSequence="35"><text x="393" y="467" text-anchor="middle" style="font-weight:bold;font-size:10px;stroke:none; fill:#333399"><tspan dy="14" x="393">Aprovar</tspan></text></g><g sequence="37"><polygon points=" 490 460 520 430 550 460 520 490 490 460" style="fill:url(#linearGradientFAFBFCFFFFCC_477481394);" stroke="000000" /></g><g componentSequence="37"><text x="520" y="500" text-anchor="middle" style="font-weight:bold;font-size:10px;stroke:none; fill:#333399"><tspan dy="14" x="520">aprovad</tspan><tspan dy="14" x="520">o</tspan></text></g><g sequence="56"><ellipse cx="137" cy="47" rx="17" ry="17" stroke-width="1" style="fill:url(#linearGradient66FF6696FF96B6FFB6_92542848);" stroke="336633" /></g><g sequence="58"><ellipse cx="1287" cy="277" rx="17" ry="17" stroke-width="3" style="fill:url(#linearGradientFF6666FF9696FFB6B6_1137613479);" stroke="993333" /></g><g sequence="61"><polygon points=" 110 130 140 100 170 130 140 160 110 130" style="fill:url(#linearGradientFAFBFCFFFFCC_845497403);" stroke="000000" /></g><g componentSequence="61"><text x="140" y="170" text-anchor="middle" style="font-weight:bold;font-size:10px;stroke:none; fill:#333399"><tspan dy="14" x="140">Verifica</tspan><tspan dy="14" x="140">orçada</tspan></text></g><g sequence="68"><ellipse cx="757" cy="847" rx="17" ry="17" stroke-width="3" style="fill:url(#linearGradientFF6666FF9696FFB6B6_15672220);" stroke="993333" /></g><g sequence="68"><polygon points=" 748 843 753 838 758 843 763 838 768 843 763 848 768 853 763 858 758 853 753 858 748 853 753 848" style="stroke:none; fill:#993333" /></g><g componentSequence="14"><text x="613" y="662" style="font-size:10px;font-weight:none;stroke:none; fill:#333399" text-anchor="left" /></g><g componentSequence="16"><text x="763" y="662" style="font-size:10px;font-weight:none;stroke:none; fill:#333399" text-anchor="left" /></g><g componentSequence="19"><text x="913" y="662" style="font-size:10px;font-weight:none;stroke:none; fill:#333399" text-anchor="left" /></g><g componentSequence="21"><text x="616" y="789" style="font-size:10px;font-weight:none;stroke:none; fill:#333399" text-anchor="left" /></g><g componentSequence="23"><text x="795" y="767" style="font-size:10px;font-weight:none;stroke:none; fill:#333399" text-anchor="left" /></g><g componentSequence="24"><text x="790" y="850" style="font-size:10px;font-weight:none;stroke:none; fill:#333399" text-anchor="left"><tspan dy="14" x="790">reprovado</tspan></text></g><g componentSequence="26"><text x="1068" y="661" style="font-size:10px;font-weight:none;stroke:none; fill:#333399" text-anchor="left" /></g><g componentSequence="28"><text x="1121" y="787" style="font-size:10px;font-weight:none;stroke:none; fill:#333399" text-anchor="left"><tspan dy="14" x="1121">&gt;50.000</tspan></text></g><g componentSequence="34"><text x="343" y="281" style="font-size:10px;font-weight:none;stroke:none; fill:#333399" text-anchor="left" /></g><g componentSequence="36"><text x="401" y="391" style="font-size:10px;font-weight:none;stroke:none; fill:#333399" text-anchor="left"><tspan dy="14" x="401">&gt;3.500</tspan></text></g><g componentSequence="38"><text x="478" y="480" style="font-size:10px;font-weight:none;stroke:none; fill:#333399" text-anchor="left" /></g><g componentSequence="39"><text x="531" y="576" style="font-size:10px;font-weight:none;stroke:none; fill:#333399" text-anchor="left"><tspan dy="14" x="531">&gt;35.000</tspan></text></g><g componentSequence="44"><text x="899" y="904" style="font-size:10px;font-weight:none;stroke:none; fill:#333399" text-anchor="left" /></g><g componentSequence="45"><text x="263" y="821" style="font-size:10px;font-weight:none;stroke:none; fill:#333399" text-anchor="left" /></g><g componentSequence="46"><text x="405" y="847" style="font-size:10px;font-weight:none;stroke:none; fill:#333399" text-anchor="left" /></g><g componentSequence="52"><text x="450" y="260" style="font-size:10px;font-weight:none;stroke:none; fill:#333399" text-anchor="left"><tspan dy="14" x="450">&lt;3.500</tspan></text></g><g componentSequence="53"><text x="520" y="340" style="font-size:10px;font-weight:none;stroke:none; fill:#333399" text-anchor="left"><tspan dy="14" x="520">&lt;35.000</tspan></text></g><g componentSequence="54"><text x="1297" y="551" style="font-size:10px;font-weight:none;stroke:none; fill:#333399" text-anchor="left"><tspan dy="14" x="1297">&lt;50.000</tspan></text></g><g componentSequence="55"><text x="1297" y="660" style="font-size:10px;font-weight:none;stroke:none; fill:#333399" text-anchor="left" /></g><g componentSequence="62"><text x="149" y="82" style="font-size:10px;font-weight:none;stroke:none; fill:#333399" text-anchor="left" /></g><g componentSequence="63"><text x="263" y="160" style="font-size:10px;font-weight:none;stroke:none; fill:#333399" text-anchor="left"><tspan dy="14" x="263">&lt;3.500</tspan></text></g><g componentSequence="64"><text x="149" y="440" style="font-size:10px;font-weight:none;stroke:none; fill:#333399" text-anchor="left"><tspan dy="14" x="149">&gt;35.000</tspan></text></g><g componentSequence="66"><text x="735" y="767" style="font-size:10px;font-weight:none;stroke:none; fill:#333399" text-anchor="left" /></g><path style="fill:none; stroke:#000000;stroke-width:1" d="M306.0 281.0 L359.0 281.0" /><polygon style="fill:#000000; stroke:#000000;" points=" 349 276 359 281 349 286 351 281" /><path style="fill:none; stroke:#000000;stroke-width:1" d="M253.0 309.0 L253.0 847.0 L739.0 847.0" /><polygon style="fill:#000000; stroke:#000000;" points=" 729 842 739 847 729 852 731 847" /><path style="fill:none; stroke:#000000;stroke-width:1" d="M170.0 150.0 L253.0 150.0 L253.0 252.0" /><polygon style="fill:#000000; stroke:#000000;" points=" 258 242 253 252 248 242 253 244" /><path style="fill:none; stroke:#000000;stroke-width:1" d="M576.0 662.0 L629.0 662.0" /><polygon style="fill:#000000; stroke:#000000;" points=" 619 657 629 662 619 667 621 662" /><path style="fill:none; stroke:#000000;stroke-width:1" d="M523.0 704.0 L523.0 757.0 L741.0 841.0" /><polygon style="fill:#000000; stroke:#000000;" points=" 733 833 741 841 730 842 734 838" /><path style="fill:none; stroke:#000000;stroke-width:1" d="M520.0 532.0 L522.0 619.0" /><polygon style="fill:#000000; stroke:#000000;" points=" 527 609 522 619 517 609 522 611" /><path style="fill:none; stroke:#000000;stroke-width:1" d="M736.0 662.0 L769.0 662.0" /><polygon style="fill:#000000; stroke:#000000;" points=" 759 657 769 662 759 667 761 662" /><path style="fill:none; stroke:#000000;stroke-width:1" d="M700.0 704.0 L751.0 831.0" /><polygon style="fill:#000000; stroke:#000000;" points=" 752 820 751 831 743 824 748 824" /><path style="fill:none; stroke:#000000;stroke-width:1" d="M876.0 662.0 L929.0 662.0" /><polygon style="fill:#000000; stroke:#000000;" points=" 919 657 929 662 919 667 921 662" /><path style="fill:none; stroke:#000000;stroke-width:1" d="M807.0 704.0 L763.0 831.0" /><polygon style="fill:#000000; stroke:#000000;" points=" 771 823 763 831 762 820 766 823" /><path style="fill:none; stroke:#000000;stroke-width:1" d="M983.0 704.0 L983.0 757.0 L773.0 841.0" /><polygon style="fill:#000000; stroke:#000000;" points=" 784 842 773 841 780 833 780 838" /><path style="fill:none; stroke:#000000;stroke-width:1" d="M1036.0 661.0 L1079.0 661.0" /><polygon style="fill:#000000; stroke:#000000;" points=" 1069 656 1079 661 1069 666 1071 661" /><path style="fill:none; stroke:#000000;stroke-width:1" d="M1110.0 712.0 L1112.0 861.0" /><polygon style="fill:#000000; stroke:#000000;" points=" 1117 851 1112 861 1107 851 1112 853" /><path style="fill:none; stroke:#000000;stroke-width:1" d="M1140.0 660.0 L1287.0 660.0 L1287.0 295.0" /><polygon style="fill:#000000; stroke:#000000;" points=" 1282 305 1287 295 1292 305 1287 303" /><path style="fill:none; stroke:#000000;stroke-width:1" d="M1059.0 904.0 L757.0 904.0 L757.0 865.0" /><polygon style="fill:#000000; stroke:#000000;" points=" 752 875 757 865 762 875 757 873" /><path style="fill:none; stroke:#000000;stroke-width:1" d="M1166.0 903.0 L1287.0 903.0 L1287.0 295.0" /><polygon style="fill:#000000; stroke:#000000;" points=" 1282 305 1287 295 1292 305 1287 303" /><path style="fill:none; stroke:#000000;stroke-width:1" d="M390.0 332.0 L392.0 449.0" /><polygon style="fill:#000000; stroke:#000000;" points=" 397 439 392 449 387 439 392 441" /><path style="fill:none; stroke:#000000;stroke-width:1" d="M420.0 280.0 L1270.0 277.0" /><polygon style="fill:#000000; stroke:#000000;" points=" 1260 272 1270 277 1260 282 1262 277" /><path style="fill:none; stroke:#000000;stroke-width:1" d="M446.0 479.0 L489.0 480.0" /><polygon style="fill:#000000; stroke:#000000;" points=" 479 475 489 480 479 485 481 480" /><path style="fill:none; stroke:#000000;stroke-width:1" d="M392.0 506.0 L392.0 567.0 L392.0 847.0 L739.0 847.0" /><polygon style="fill:#000000; stroke:#000000;" points=" 729 842 739 847 729 852 731 847" /><path style="fill:none; stroke:#000000;stroke-width:1" d="M139.0 202.0 L139.0 478.0 L339.0 478.0" /><polygon style="fill:#000000; stroke:#000000;" points=" 329 473 339 478 329 483 331 478" /><path style="fill:none; stroke:#000000;stroke-width:1" d="M520.0 429.0 L520.0 277.0 L1269.0 277.0" /><polygon style="fill:#000000; stroke:#000000;" points=" 1259 272 1269 277 1259 282 1261 277" /><path style="fill:none; stroke:#000000;stroke-width:1" d="M137.0 64.0 L138.0 99.0" /><polygon style="fill:#000000; stroke:#000000;" points=" 143 89 138 99 133 89 138 91" /><defs><linearGradient xmlns:xlink="http://www.w3.org/1999/xlink" xlink:href="#linearGradientF8FBFEEDF5FCDEEDFAD4E7F8E2E5E9" id="linearGradientF8FBFEEDF5FCDEEDFAD4E7F8E2E5E9_1750415240" x1="0" y1="253.0" x2="0" y2="359.0" gradientUnits="userSpaceOnUse" xlink:type="simple" xlink:actuate="onLoad" xlink:show="other" /><linearGradient id="linearGradientF8FBFEEDF5FCDEEDFAD4E7F8E2E5E9"><stop style="stop-color:#F8FBFE;stop-opacity:1;" offset="0.0" id="stopF8FBFE" /><stop style="stop-color:#EDF5FC;stop-opacity:1;" offset="0.25" id="stopEDF5FC" /><stop style="stop-color:#DEEDFA;stop-opacity:1;" offset="0.5" id="stopDEEDFA" /><stop style="stop-color:#D4E7F8;stop-opacity:1;" offset="0.75" id="stopD4E7F8" /><stop style="stop-color:#E2E5E9;stop-opacity:1;" offset="1.0" id="stopE2E5E9" /></linearGradient><linearGradient xmlns:xlink="http://www.w3.org/1999/xlink" xlink:href="#linearGradientF8FBFEEDF5FCDEEDFAD4E7F8E2E5E9" id="linearGradientF8FBFEEDF5FCDEEDFAD4E7F8E2E5E9_1720898802" x1="0" y1="620.0" x2="0" y2="726.0" gradientUnits="userSpaceOnUse" xlink:type="simple" xlink:actuate="onLoad" xlink:show="other" /><linearGradient xmlns:xlink="http://www.w3.org/1999/xlink" xlink:href="#linearGradientF8FBFEEDF5FCDEEDFAD4E7F8E2E5E9" id="linearGradientF8FBFEEDF5FCDEEDFAD4E7F8E2E5E9_1655528696" x1="0" y1="620.0" x2="0" y2="726.0" gradientUnits="userSpaceOnUse" xlink:type="simple" xlink:actuate="onLoad" xlink:show="other" /><linearGradient xmlns:xlink="http://www.w3.org/1999/xlink" xlink:href="#linearGradientF8FBFEEDF5FCDEEDFAD4E7F8E2E5E9" id="linearGradientF8FBFEEDF5FCDEEDFAD4E7F8E2E5E9_665837257" x1="0" y1="620.0" x2="0" y2="726.0" gradientUnits="userSpaceOnUse" xlink:type="simple" xlink:actuate="onLoad" xlink:show="other" /><linearGradient xmlns:xlink="http://www.w3.org/1999/xlink" xlink:href="#linearGradientF8FBFEEDF5FCDEEDFAD4E7F8E2E5E9" id="linearGradientF8FBFEEDF5FCDEEDFAD4E7F8E2E5E9_1711752387" x1="0" y1="620.0" x2="0" y2="726.0" gradientUnits="userSpaceOnUse" xlink:type="simple" xlink:actuate="onLoad" xlink:show="other" /><linearGradient xmlns:xlink="http://www.w3.org/1999/xlink" xlink:href="#linearGradientFAFBFCFFFFCC" id="linearGradientFAFBFCFFFFCC_381827509" x1="0" y1="610.0" x2="0" y2="670.0" gradientUnits="userSpaceOnUse" xlink:type="simple" xlink:actuate="onLoad" xlink:show="other" /><linearGradient id="linearGradientFAFBFCFFFFCC"><stop style="stop-color:#FAFBFC;stop-opacity:1;" offset="0.0" id="stopFAFBFC" /><stop style="stop-color:#FFFFCC;stop-opacity:1;" offset="1.0" id="stopFFFFCC" /></linearGradient><linearGradient xmlns:xlink="http://www.w3.org/1999/xlink" xlink:href="#linearGradientF8FBFEEDF5FCDEEDFAD4E7F8E2E5E9" id="linearGradientF8FBFEEDF5FCDEEDFAD4E7F8E2E5E9_511769865" x1="0" y1="862.0" x2="0" y2="968.0" gradientUnits="userSpaceOnUse" xlink:type="simple" xlink:actuate="onLoad" xlink:show="other" /><linearGradient xmlns:xlink="http://www.w3.org/1999/xlink" xlink:href="#linearGradientFAFBFCFFFFCC" id="linearGradientFAFBFCFFFFCC_1199579526" x1="0" y1="230.0" x2="0" y2="290.0" gradientUnits="userSpaceOnUse" xlink:type="simple" xlink:actuate="onLoad" xlink:show="other" /><linearGradient xmlns:xlink="http://www.w3.org/1999/xlink" xlink:href="#linearGradientF8FBFEEDF5FCDEEDFAD4E7F8E2E5E9" id="linearGradientF8FBFEEDF5FCDEEDFAD4E7F8E2E5E9_469583081" x1="0" y1="450.0" x2="0" y2="556.0" gradientUnits="userSpaceOnUse" xlink:type="simple" xlink:actuate="onLoad" xlink:show="other" /><linearGradient xmlns:xlink="http://www.w3.org/1999/xlink" xlink:href="#linearGradientFAFBFCFFFFCC" id="linearGradientFAFBFCFFFFCC_477481394" x1="0" y1="430.0" x2="0" y2="490.0" gradientUnits="userSpaceOnUse" xlink:type="simple" xlink:actuate="onLoad" xlink:show="other" /><linearGradient xmlns:xlink="http://www.w3.org/1999/xlink" xlink:href="#linearGradient66FF6696FF96B6FFB6" id="linearGradient66FF6696FF96B6FFB6_92542848" x1="0" y1="30.0" x2="0" y2="65.0" gradientUnits="userSpaceOnUse" xlink:type="simple" xlink:actuate="onLoad" xlink:show="other" /><linearGradient id="linearGradient66FF6696FF96B6FFB6"><stop style="stop-color:#66FF66;stop-opacity:1;" offset="0.0" id="stop66FF66" /><stop style="stop-color:#96FF96;stop-opacity:1;" offset="0.5" id="stop96FF96" /><stop style="stop-color:#B6FFB6;stop-opacity:1;" offset="1.0" id="stopB6FFB6" /></linearGradient><linearGradient xmlns:xlink="http://www.w3.org/1999/xlink" xlink:href="#linearGradientFF6666FF9696FFB6B6" id="linearGradientFF6666FF9696FFB6B6_1137613479" x1="0" y1="260.0" x2="0" y2="295.0" gradientUnits="userSpaceOnUse" xlink:type="simple" xlink:actuate="onLoad" xlink:show="other" /><linearGradient id="linearGradientFF6666FF9696FFB6B6"><stop style="stop-color:#FF6666;stop-opacity:1;" offset="0.0" id="stopFF6666" /><stop style="stop-color:#FF9696;stop-opacity:1;" offset="0.5" id="stopFF9696" /><stop style="stop-color:#FFB6B6;stop-opacity:1;" offset="1.0" id="stopFFB6B6" /></linearGradient><linearGradient xmlns:xlink="http://www.w3.org/1999/xlink" xlink:href="#linearGradientFAFBFCFFFFCC" id="linearGradientFAFBFCFFFFCC_845497403" x1="0" y1="100.0" x2="0" y2="160.0" gradientUnits="userSpaceOnUse" xlink:type="simple" xlink:actuate="onLoad" xlink:show="other" /><linearGradient xmlns:xlink="http://www.w3.org/1999/xlink" xlink:href="#linearGradientFF6666FF9696FFB6B6" id="linearGradientFF6666FF9696FFB6B6_15672220" x1="0" y1="830.0" x2="0" y2="865.0" gradientUnits="userSpaceOnUse" xlink:type="simple" xlink:actuate="onLoad" xlink:show="other" /></defs></svg>
