<?xml version="1.0" encoding="UTF-8"?>
<svg xmlns="http://www.w3.org/2000/svg" style="stroke-dasharray:none; shape-rendering:auto; font-family:'Arial'; text-rendering:auto; fill-opacity:1; color-interpolation:auto; color-rendering:auto; font-size:12; fill:black; stroke:black; image-rendering:auto; stroke-miterlimit:10; stroke-linecap:square; stroke-linejoin:miter; font-style:normal; stroke-width:1; stroke-dashoffset:0; font-weight:normal; stroke-opacity:1;" contentScriptType="text/ecmascript" preserveAspectRatio="xMidYMid meet" zoomAndPan="magnify" version="1.0" contentStyleType="text/css" xml:xlink="http://www.w3.org/1999/xlink" width="1151" height="621"><rect x="10" y="10" width="1141" height="611" ry="0" rx="0" style="stroke:#000000; fill:#FFFFFF" /><rect x="40" y="162" width="1111" height="152" ry="0" rx="0" style="stroke:#000000; fill:#ADC9AC" /><g componentSequence="28"><text x="-238" y="47" transform="rotate(270)" text-anchor="middle" style="font-weight:bold;font-size:10px;stroke:none; fill:#434343"><tspan dy="14" x="-238">Gestor imediato</tspan></text></g><rect x="40" y="466" width="1111" height="155" ry="0" rx="0" style="stroke:#000000; fill:#82B0B7" /><g componentSequence="9"><text x="-543" y="47" transform="rotate(270)" text-anchor="middle" style="font-weight:bold;font-size:10px;stroke:none; fill:#434343"><tspan dy="14" x="-543">Tesouraria</tspan></text></g><rect x="40" y="314" width="1111" height="152" ry="0" rx="0" style="stroke:#000000; fill:#C0C0C0" /><g componentSequence="3"><text x="-390" y="47" transform="rotate(270)" text-anchor="middle" style="font-weight:bold;font-size:10px;stroke:none; fill:#434343"><tspan dy="14" x="-390">Administração</tspan></text></g><rect x="40" y="10" width="1111" height="152" ry="0" rx="0" style="stroke:#000000; fill:#9F9F9F" /><g componentSequence="2"><text x="-86" y="47" transform="rotate(270)" text-anchor="middle" style="font-weight:bold;font-size:10px;stroke:none; fill:#434343"><tspan dy="14" x="-86">Solicitante</tspan></text></g><g componentSequence="1"><text x="-315" y="17" transform="rotate(270)" text-anchor="middle" style="font-weight:bold;font-size:10px;stroke:none; fill:#434343"><tspan dy="14" x="-315">Medição de Contrato de Serviço</tspan></text></g><g sequence="4"><ellipse cx="167" cy="57" rx="17" ry="17" stroke-width="1" style="fill:url(#linearGradient66FF6696FF96B6FFB6_579378728);" stroke="336633" /></g><g sequence="13"><rect x="490" y="350" width="106" height="70" ry="5" rx="5" style="fill:url(#linearGradientF8FBFEEDF5FCDEEDFAD4E7F8E2E5E9_743404553);" stroke="191970" /></g><g componentSequence="13"><text x="543" y="365" text-anchor="middle" style="font-weight:bold;font-size:10px;stroke:none; fill:#333399"><tspan dy="14" x="543">Aguardar</tspan><tspan dy="14" x="543">aprovação</tspan></text></g><g sequence="16"><polygon points=" 300 219 330 189 360 219 330 249 300 219" style="fill:url(#linearGradientFAFBFCFFFFCC_678491480);" stroke="000000" /></g><g componentSequence="16"><text x="330" y="259" text-anchor="middle" style="font-weight:bold;font-size:10px;stroke:none; fill:#333399"><tspan dy="14" x="330">aprovad</tspan><tspan dy="14" x="330">o?</tspan></text></g><g sequence="29"><rect x="120" y="198" width="106" height="84" ry="5" rx="5" style="fill:url(#linearGradientF8FBFEEDF5FCDEEDFAD4E7F8E2E5E9_1836219954);" stroke="191970" /></g><g componentSequence="29"><text x="173" y="213" text-anchor="middle" style="font-weight:bold;font-size:10px;stroke:none; fill:#333399"><tspan dy="14" x="173">Validar</tspan><tspan dy="14" x="173">informações</tspan><tspan dy="14" x="173">financeira</tspan></text></g><g sequence="32"><rect x="280" y="33" width="106" height="56" ry="5" rx="5" style="fill:url(#linearGradientF8FBFEEDF5FCDEEDFAD4E7F8E2E5E9_200135786);" stroke="191970" /></g><g componentSequence="32"><text x="333" y="50" text-anchor="middle" style="font-weight:bold;font-size:10px;stroke:none; fill:#333399"><tspan dy="14" x="333">Corrigir</tspan></text></g><g sequence="49"><rect x="740" y="350" width="106" height="70" ry="5" rx="5" style="fill:url(#linearGradientF8FBFEEDF5FCDEEDFAD4E7F8E2E5E9_1549080098);" stroke="191970" /></g><g componentSequence="49"><text x="793" y="374" text-anchor="middle" style="font-weight:bold;font-size:10px;stroke:none; fill:#333399"><tspan dy="14" x="793">Lançar pré-nota</tspan></text></g><g sequence="51"><rect x="740" y="520" width="106" height="70" ry="5" rx="5" style="fill:url(#linearGradientF8FBFEEDF5FCDEEDFAD4E7F8E2E5E9_1931535045);" stroke="191970" /></g><g componentSequence="51"><text x="793" y="535" text-anchor="middle" style="font-weight:bold;font-size:10px;stroke:none; fill:#333399"><tspan dy="14" x="793">Classificar Nota</tspan><tspan dy="14" x="793">fiscal</tspan></text></g><g sequence="53"><ellipse cx="957" cy="557" rx="17" ry="17" stroke-width="3" style="fill:url(#linearGradientFF6666FF9696FFB6B6_224231805);" stroke="993333" /></g><g sequence="63"><ellipse cx="463" cy="236" rx="17" ry="17" stroke-width="3" style="fill:url(#linearGradientFF6666FF9696FFB6B6_1760975416);" stroke="993333" /></g><g sequence="63"><polygon points=" 454 232 459 227 464 232 469 227 474 232 469 237 474 242 469 247 464 242 459 247 454 242 459 237" style="stroke:none; fill:#993333" /></g><g sequence="65"><rect x="280" y="340" width="105" height="84" ry="5" rx="5" style="fill:url(#linearGradientF8FBFEEDF5FCDEEDFAD4E7F8E2E5E9_476493058);" stroke="191970" /></g><g componentSequence="65"><text x="332" y="355" text-anchor="middle" style="font-weight:bold;font-size:10px;stroke:none; fill:#333399"><tspan dy="14" x="332">Anexar relatório</tspan><tspan dy="14" x="332">de atividade</tspan></text></g><g componentSequence="30"><text x="180" y="136" style="font-size:10px;font-weight:none;stroke:none; fill:#333399" text-anchor="left" /></g><g componentSequence="31"><text x="273" y="240" style="font-size:10px;font-weight:none;stroke:none; fill:#333399" text-anchor="left" /></g><g componentSequence="33"><text x="342" y="139" style="font-size:10px;font-weight:none;stroke:none; fill:#333399" text-anchor="left" /></g><g componentSequence="34"><text x="269" y="143" style="font-size:10px;font-weight:none;stroke:none; fill:#333399" text-anchor="left" /></g><g componentSequence="52"><text x="803" y="470" style="font-size:10px;font-weight:none;stroke:none; fill:#333399" text-anchor="left" /></g><g componentSequence="54"><text x="903" y="556" style="font-size:10px;font-weight:none;stroke:none; fill:#333399" text-anchor="left" /></g><g componentSequence="62"><text x="413" y="238" style="font-size:10px;font-weight:none;stroke:none; fill:#333399" text-anchor="left" /></g><g componentSequence="68"><text x="678" y="385" style="font-size:10px;font-weight:none;stroke:none; fill:#333399" text-anchor="left" /></g><g componentSequence="66"><text x="341" y="315" style="font-size:10px;font-weight:none;stroke:none; fill:#333399" text-anchor="left" /></g><g componentSequence="67"><text x="447" y="383" style="font-size:10px;font-weight:none;stroke:none; fill:#333399" text-anchor="left" /></g><path style="fill:none; stroke:#000000;stroke-width:1" d="M167.0 74.0 L171.0 197.0" /><polygon style="fill:#000000; stroke:#000000;" points=" 176 187 171 197 166 187 171 189" /><path style="fill:none; stroke:#000000;stroke-width:1" d="M331.0 188.0 L332.0 89.0" /><polygon style="fill:#000000; stroke:#000000;" points=" 327 99 332 89 337 99 332 97" /><path style="fill:none; stroke:#000000;stroke-width:1" d="M360.0 239.0 L446.0 236.0" /><polygon style="fill:#000000; stroke:#000000;" points=" 436 231 446 236 436 241 438 236" /><path style="fill:none; stroke:#000000;stroke-width:1" d="M226.0 240.0 L299.0 240.0" /><polygon style="fill:#000000; stroke:#000000;" points=" 289 235 299 240 289 245 291 240" /><path style="fill:none; stroke:#000000;stroke-width:1" d="M307.0 89.0 L211.0 197.0" /><polygon style="fill:#000000; stroke:#000000;" points=" 221 193 211 197 214 186 216 191" /><path style="fill:none; stroke:#000000;stroke-width:1" d="M793.0 420.0 L793.0 519.0" /><polygon style="fill:#000000; stroke:#000000;" points=" 798 509 793 519 788 509 793 511" /><path style="fill:none; stroke:#000000;stroke-width:1" d="M846.0 555.0 L940.0 557.0" /><polygon style="fill:#000000; stroke:#000000;" points=" 930 552 940 557 930 562 932 557" /><path style="fill:none; stroke:#000000;stroke-width:1" d="M330.0 291.0 L331.0 339.0" /><polygon style="fill:#000000; stroke:#000000;" points=" 336 329 331 339 326 329 331 331" /><path style="fill:none; stroke:#000000;stroke-width:1" d="M385.0 382.0 L489.0 384.0" /><polygon style="fill:#000000; stroke:#000000;" points=" 479 379 489 384 479 389 481 384" /><path style="fill:none; stroke:#000000;stroke-width:1" d="M596.0 385.0 L739.0 385.0" /><polygon style="fill:#000000; stroke:#000000;" points=" 729 380 739 385 729 390 731 385" /><defs><linearGradient xmlns:xlink="http://www.w3.org/1999/xlink" xlink:href="#linearGradient66FF6696FF96B6FFB6" id="linearGradient66FF6696FF96B6FFB6_579378728" x1="0" y1="40.0" x2="0" y2="75.0" gradientUnits="userSpaceOnUse" xlink:type="simple" xlink:actuate="onLoad" xlink:show="other" /><linearGradient id="linearGradient66FF6696FF96B6FFB6"><stop style="stop-color:#66FF66;stop-opacity:1;" offset="0.0" id="stop66FF66" /><stop style="stop-color:#96FF96;stop-opacity:1;" offset="0.5" id="stop96FF96" /><stop style="stop-color:#B6FFB6;stop-opacity:1;" offset="1.0" id="stopB6FFB6" /></linearGradient><linearGradient xmlns:xlink="http://www.w3.org/1999/xlink" xlink:href="#linearGradientF8FBFEEDF5FCDEEDFAD4E7F8E2E5E9" id="linearGradientF8FBFEEDF5FCDEEDFAD4E7F8E2E5E9_743404553" x1="0" y1="350.0" x2="0" y2="456.0" gradientUnits="userSpaceOnUse" xlink:type="simple" xlink:actuate="onLoad" xlink:show="other" /><linearGradient id="linearGradientF8FBFEEDF5FCDEEDFAD4E7F8E2E5E9"><stop style="stop-color:#F8FBFE;stop-opacity:1;" offset="0.0" id="stopF8FBFE" /><stop style="stop-color:#EDF5FC;stop-opacity:1;" offset="0.25" id="stopEDF5FC" /><stop style="stop-color:#DEEDFA;stop-opacity:1;" offset="0.5" id="stopDEEDFA" /><stop style="stop-color:#D4E7F8;stop-opacity:1;" offset="0.75" id="stopD4E7F8" /><stop style="stop-color:#E2E5E9;stop-opacity:1;" offset="1.0" id="stopE2E5E9" /></linearGradient><linearGradient xmlns:xlink="http://www.w3.org/1999/xlink" xlink:href="#linearGradientFAFBFCFFFFCC" id="linearGradientFAFBFCFFFFCC_678491480" x1="0" y1="189.0" x2="0" y2="249.0" gradientUnits="userSpaceOnUse" xlink:type="simple" xlink:actuate="onLoad" xlink:show="other" /><linearGradient id="linearGradientFAFBFCFFFFCC"><stop style="stop-color:#FAFBFC;stop-opacity:1;" offset="0.0" id="stopFAFBFC" /><stop style="stop-color:#FFFFCC;stop-opacity:1;" offset="1.0" id="stopFFFFCC" /></linearGradient><linearGradient xmlns:xlink="http://www.w3.org/1999/xlink" xlink:href="#linearGradientF8FBFEEDF5FCDEEDFAD4E7F8E2E5E9" id="linearGradientF8FBFEEDF5FCDEEDFAD4E7F8E2E5E9_1836219954" x1="0" y1="198.0" x2="0" y2="304.0" gradientUnits="userSpaceOnUse" xlink:type="simple" xlink:actuate="onLoad" xlink:show="other" /><linearGradient xmlns:xlink="http://www.w3.org/1999/xlink" xlink:href="#linearGradientF8FBFEEDF5FCDEEDFAD4E7F8E2E5E9" id="linearGradientF8FBFEEDF5FCDEEDFAD4E7F8E2E5E9_200135786" x1="0" y1="33.0" x2="0" y2="139.0" gradientUnits="userSpaceOnUse" xlink:type="simple" xlink:actuate="onLoad" xlink:show="other" /><linearGradient xmlns:xlink="http://www.w3.org/1999/xlink" xlink:href="#linearGradientF8FBFEEDF5FCDEEDFAD4E7F8E2E5E9" id="linearGradientF8FBFEEDF5FCDEEDFAD4E7F8E2E5E9_1549080098" x1="0" y1="350.0" x2="0" y2="456.0" gradientUnits="userSpaceOnUse" xlink:type="simple" xlink:actuate="onLoad" xlink:show="other" /><linearGradient xmlns:xlink="http://www.w3.org/1999/xlink" xlink:href="#linearGradientF8FBFEEDF5FCDEEDFAD4E7F8E2E5E9" id="linearGradientF8FBFEEDF5FCDEEDFAD4E7F8E2E5E9_1931535045" x1="0" y1="520.0" x2="0" y2="626.0" gradientUnits="userSpaceOnUse" xlink:type="simple" xlink:actuate="onLoad" xlink:show="other" /><linearGradient xmlns:xlink="http://www.w3.org/1999/xlink" xlink:href="#linearGradientFF6666FF9696FFB6B6" id="linearGradientFF6666FF9696FFB6B6_224231805" x1="0" y1="540.0" x2="0" y2="575.0" gradientUnits="userSpaceOnUse" xlink:type="simple" xlink:actuate="onLoad" xlink:show="other" /><linearGradient id="linearGradientFF6666FF9696FFB6B6"><stop style="stop-color:#FF6666;stop-opacity:1;" offset="0.0" id="stopFF6666" /><stop style="stop-color:#FF9696;stop-opacity:1;" offset="0.5" id="stopFF9696" /><stop style="stop-color:#FFB6B6;stop-opacity:1;" offset="1.0" id="stopFFB6B6" /></linearGradient><linearGradient xmlns:xlink="http://www.w3.org/1999/xlink" xlink:href="#linearGradientFF6666FF9696FFB6B6" id="linearGradientFF6666FF9696FFB6B6_1760975416" x1="0" y1="219.0" x2="0" y2="254.0" gradientUnits="userSpaceOnUse" xlink:type="simple" xlink:actuate="onLoad" xlink:show="other" /><linearGradient xmlns:xlink="http://www.w3.org/1999/xlink" xlink:href="#linearGradientF8FBFEEDF5FCDEEDFAD4E7F8E2E5E9" id="linearGradientF8FBFEEDF5FCDEEDFAD4E7F8E2E5E9_476493058" x1="0" y1="340.0" x2="0" y2="445.0" gradientUnits="userSpaceOnUse" xlink:type="simple" xlink:actuate="onLoad" xlink:show="other" /></defs></svg>
