<?xml version="1.0" encoding="UTF-8"?>
<svg xmlns="http://www.w3.org/2000/svg" style="stroke-dasharray:none; shape-rendering:auto; font-family:'Arial'; text-rendering:auto; fill-opacity:1; color-interpolation:auto; color-rendering:auto; font-size:12; fill:black; stroke:black; image-rendering:auto; stroke-miterlimit:10; stroke-linecap:square; stroke-linejoin:miter; font-style:normal; stroke-width:1; stroke-dashoffset:0; font-weight:normal; stroke-opacity:1;" contentScriptType="text/ecmascript" preserveAspectRatio="xMidYMid meet" zoomAndPan="magnify" version="1.0" contentStyleType="text/css" xml:xlink="http://www.w3.org/1999/xlink" width="841" height="351"><rect x="10" y="10" width="831" height="341" ry="0" rx="0" style="stroke:#000000; fill:#FFFFFF" /><rect x="40" y="236" width="801" height="115" ry="0" rx="0" style="stroke:#000000; fill:#82B0B7" /><g componentSequence="4"><text x="-293" y="47" transform="rotate(270)" text-anchor="middle" style="font-weight:bold;font-size:10px;stroke:none; fill:#434343"><tspan dy="14" x="-293">Diretoria Nacional</tspan></text></g><rect x="40" y="123" width="801" height="113" ry="0" rx="0" style="stroke:#000000; fill:#C0C0C0" /><g componentSequence="3"><text x="-179" y="47" transform="rotate(270)" text-anchor="middle" style="font-weight:bold;font-size:10px;stroke:none; fill:#434343"><tspan dy="14" x="-179">Gerência de P&amp;C</tspan></text></g><rect x="40" y="10" width="801" height="113" ry="0" rx="0" style="stroke:#000000; fill:#9F9F9F" /><g componentSequence="2"><text x="-66" y="47" transform="rotate(270)" text-anchor="middle" style="font-weight:bold;font-size:10px;stroke:none; fill:#434343"><tspan dy="14" x="-66">Solicitante</tspan></text></g><g componentSequence="1"><text x="-180" y="17" transform="rotate(270)" text-anchor="middle" style="font-weight:bold;font-size:10px;stroke:none; fill:#434343"><tspan dy="14" x="-180">Nomeação de carga</tspan></text></g><g sequence="4"><ellipse cx="167" cy="84" rx="17" ry="17" stroke-width="1" style="fill:url(#linearGradient66FF6696FF96B6FFB6_1634993956);" stroke="336633" /></g><g sequence="5"><rect x="220" y="153" width="106" height="56" ry="5" rx="5" style="fill:url(#linearGradientF8FBFEEDF5FCDEEDFAD4E7F8E2E5E9_1874060666);" stroke="191970" /></g><g componentSequence="5"><text x="273" y="170" text-anchor="middle" style="font-weight:bold;font-size:10px;stroke:none; fill:#333399"><tspan dy="14" x="273">Revisar</tspan></text></g><g sequence="10"><rect x="220" y="267" width="106" height="56" ry="5" rx="5" style="fill:url(#linearGradientF8FBFEEDF5FCDEEDFAD4E7F8E2E5E9_1804364884);" stroke="191970" /></g><g componentSequence="10"><text x="273" y="284" text-anchor="middle" style="font-weight:bold;font-size:10px;stroke:none; fill:#333399"><tspan dy="14" x="273">Aprovar</tspan></text></g><g sequence="12"><ellipse cx="417" cy="257" rx="17" ry="17" stroke-width="3" style="fill:url(#linearGradientFF6666FF9696FFB6B6_781119297);" stroke="993333" /></g><rect x="210" y="20" width="105" height="69" ry="5" rx="5" style="stroke:none; fill:#FFFFE0" /><g componentSequence="7"><text x="220" y="43" text-anchor="left" style="font-weight:bold;font-size:10px;stroke:none; fill:#000000"><tspan dy="14" x="220">Preencher</tspan><tspan dy="14" x="220">formulário de</tspan><tspan dy="14" x="220">nomeação</tspan></text></g><path style="fill:none; stroke-width:1; stroke:#000000;" d="M230.0 20.0 L210.0 20.0 L210.0 89.0 L230.0 89.0" /><g sequence="17"><ellipse cx="417" cy="327" rx="17" ry="17" stroke-width="3" style="fill:url(#linearGradientFF6666FF9696FFB6B6_1870823571);" stroke="993333" /></g><g sequence="17"><polygon points=" 408 323 413 318 418 323 423 318 428 323 423 328 428 333 423 338 418 333 413 338 408 333 413 328" style="stroke:none; fill:#993333" /></g><g componentSequence="6"><text x="177" y="168" style="font-size:10px;font-weight:none;stroke:none; fill:#333399" text-anchor="left" /></g><g componentSequence="11"><text x="283" y="238" style="font-size:10px;font-weight:none;stroke:none; fill:#333399" text-anchor="left" /></g><g componentSequence="13"><text x="373" y="272" style="font-size:10px;font-weight:none;stroke:none; fill:#333399" text-anchor="left" /></g><g componentSequence="15"><text x="373" y="315" style="font-size:10px;font-weight:none;stroke:none; fill:#333399" text-anchor="left" /></g><g componentSequence="8"><text x="192" y="53" style="font-size:10px;font-weight:none;stroke:none; fill:#333399" text-anchor="left" /></g><path style="fill:none; stroke:#000000;stroke-width:1" d="M167.0 102.0 L167.0 181.0 L219.0 181.0" /><polygon style="fill:#000000; stroke:#000000;" points=" 209 176 219 181 209 186 211 181" /><path style="fill:none; stroke:#000000;stroke-dasharray:2" d="M209.0 53.0 L167.0 53.0 L167.0 66.0" /><path style="fill:none; stroke:#000000;stroke-width:1" d="M273.0 209.0 L273.0 266.0" /><polygon style="fill:#000000; stroke:#000000;" points=" 278 256 273 266 268 256 273 258" /><path style="fill:none; stroke:#000000;stroke-width:1" d="M326.0 281.0 L400.0 261.0" /><polygon style="fill:#000000; stroke:#000000;" points=" 389 259 400 261 392 268 392 263" /><path style="fill:none; stroke:#000000;stroke-width:1" d="M326.0 307.0 L400.0 324.0" /><polygon style="fill:#000000; stroke:#000000;" points=" 391 317 400 324 389 327 392 322" /><defs><linearGradient xmlns:xlink="http://www.w3.org/1999/xlink" xlink:href="#linearGradient66FF6696FF96B6FFB6" id="linearGradient66FF6696FF96B6FFB6_1634993956" x1="0" y1="67.0" x2="0" y2="102.0" gradientUnits="userSpaceOnUse" xlink:type="simple" xlink:actuate="onLoad" xlink:show="other" /><linearGradient id="linearGradient66FF6696FF96B6FFB6"><stop style="stop-color:#66FF66;stop-opacity:1;" offset="0.0" id="stop66FF66" /><stop style="stop-color:#96FF96;stop-opacity:1;" offset="0.5" id="stop96FF96" /><stop style="stop-color:#B6FFB6;stop-opacity:1;" offset="1.0" id="stopB6FFB6" /></linearGradient><linearGradient xmlns:xlink="http://www.w3.org/1999/xlink" xlink:href="#linearGradientF8FBFEEDF5FCDEEDFAD4E7F8E2E5E9" id="linearGradientF8FBFEEDF5FCDEEDFAD4E7F8E2E5E9_1874060666" x1="0" y1="153.0" x2="0" y2="259.0" gradientUnits="userSpaceOnUse" xlink:type="simple" xlink:actuate="onLoad" xlink:show="other" /><linearGradient id="linearGradientF8FBFEEDF5FCDEEDFAD4E7F8E2E5E9"><stop style="stop-color:#F8FBFE;stop-opacity:1;" offset="0.0" id="stopF8FBFE" /><stop style="stop-color:#EDF5FC;stop-opacity:1;" offset="0.25" id="stopEDF5FC" /><stop style="stop-color:#DEEDFA;stop-opacity:1;" offset="0.5" id="stopDEEDFA" /><stop style="stop-color:#D4E7F8;stop-opacity:1;" offset="0.75" id="stopD4E7F8" /><stop style="stop-color:#E2E5E9;stop-opacity:1;" offset="1.0" id="stopE2E5E9" /></linearGradient><linearGradient xmlns:xlink="http://www.w3.org/1999/xlink" xlink:href="#linearGradientF8FBFEEDF5FCDEEDFAD4E7F8E2E5E9" id="linearGradientF8FBFEEDF5FCDEEDFAD4E7F8E2E5E9_1804364884" x1="0" y1="267.0" x2="0" y2="373.0" gradientUnits="userSpaceOnUse" xlink:type="simple" xlink:actuate="onLoad" xlink:show="other" /><linearGradient xmlns:xlink="http://www.w3.org/1999/xlink" xlink:href="#linearGradientFF6666FF9696FFB6B6" id="linearGradientFF6666FF9696FFB6B6_781119297" x1="0" y1="240.0" x2="0" y2="275.0" gradientUnits="userSpaceOnUse" xlink:type="simple" xlink:actuate="onLoad" xlink:show="other" /><linearGradient id="linearGradientFF6666FF9696FFB6B6"><stop style="stop-color:#FF6666;stop-opacity:1;" offset="0.0" id="stopFF6666" /><stop style="stop-color:#FF9696;stop-opacity:1;" offset="0.5" id="stopFF9696" /><stop style="stop-color:#FFB6B6;stop-opacity:1;" offset="1.0" id="stopFFB6B6" /></linearGradient><linearGradient xmlns:xlink="http://www.w3.org/1999/xlink" xlink:href="#linearGradientFF6666FF9696FFB6B6" id="linearGradientFF6666FF9696FFB6B6_1870823571" x1="0" y1="310.0" x2="0" y2="345.0" gradientUnits="userSpaceOnUse" xlink:type="simple" xlink:actuate="onLoad" xlink:show="other" /></defs></svg>
