<?xml version="1.0" encoding="UTF-8"?>
<svg xmlns="http://www.w3.org/2000/svg" style="stroke-dasharray:none; shape-rendering:auto; font-family:'Arial'; text-rendering:auto; fill-opacity:1; color-interpolation:auto; color-rendering:auto; font-size:12; fill:black; stroke:black; image-rendering:auto; stroke-miterlimit:10; stroke-linecap:square; stroke-linejoin:miter; font-style:normal; stroke-width:1; stroke-dashoffset:0; font-weight:normal; stroke-opacity:1;" contentScriptType="text/ecmascript" preserveAspectRatio="xMidYMid meet" zoomAndPan="magnify" version="1.0" contentStyleType="text/css" xml:xlink="http://www.w3.org/1999/xlink" width="1570" height="591"><rect x="10" y="10" width="1560" height="581" ry="0" rx="0" style="stroke:#000000; fill:#FFFFFF" /><rect x="40" y="396" width="1530" height="195" ry="0" rx="0" style="stroke:#000000; fill:#ADC9AC" /><g componentSequence="17"><text x="-493" y="47" transform="rotate(270)" text-anchor="middle" style="font-weight:bold;font-size:10px;stroke:none; fill:#434343"><tspan dy="14" x="-493">Analista de R e S</tspan></text></g><rect x="40" y="203" width="1530" height="193" ry="0" rx="0" style="stroke:#000000; fill:#C0C0C0" /><g componentSequence="3"><text x="-299" y="47" transform="rotate(270)" text-anchor="middle" style="font-weight:bold;font-size:10px;stroke:none; fill:#434343"><tspan dy="14" x="-299">Gerência de P&amp;C</tspan></text></g><rect x="40" y="10" width="1530" height="193" ry="0" rx="0" style="stroke:#000000; fill:#9F9F9F" /><g componentSequence="2"><text x="-106" y="47" transform="rotate(270)" text-anchor="middle" style="font-weight:bold;font-size:10px;stroke:none; fill:#434343"><tspan dy="14" x="-106">Gestor de Área</tspan></text></g><g componentSequence="1"><text x="-300" y="17" transform="rotate(270)" text-anchor="middle" style="font-weight:bold;font-size:10px;stroke:none; fill:#434343"><tspan dy="14" x="-300">Recrutamento e seleção</tspan></text></g><g sequence="4"><ellipse cx="127" cy="85" rx="17" ry="17" stroke-width="1" style="fill:url(#linearGradient66FF6696FF96B6FFB6_1441081044);" stroke="336633" /></g><g sequence="5"><rect x="130" y="260" width="106" height="70" ry="5" rx="5" style="fill:url(#linearGradientF8FBFEEDF5FCDEEDFAD4E7F8E2E5E9_1529004568);" stroke="191970" /></g><g componentSequence="5"><text x="183" y="275" text-anchor="middle" style="font-weight:bold;font-size:10px;stroke:none; fill:#333399"><tspan dy="14" x="183">Aprovar</tspan><tspan dy="14" x="183">contratação</tspan></text></g><g sequence="9"><rect x="780" y="450" width="106" height="56" ry="5" rx="5" style="fill:url(#linearGradientF8FBFEEDF5FCDEEDFAD4E7F8E2E5E9_1595755940);" stroke="191970" /></g><g componentSequence="9"><text x="833" y="467" text-anchor="middle" style="font-weight:bold;font-size:10px;stroke:none; fill:#333399"><tspan dy="14" x="833">Triagem de CV</tspan></text></g><g sequence="12"><polygon points=" 320 270 350 240 380 270 350 300 320 270" style="fill:url(#linearGradientFAFBFCFFFFCC_438290467);" stroke="000000" /></g><g componentSequence="12"><text x="350" y="310" text-anchor="middle" style="font-weight:bold;font-size:10px;stroke:none; fill:#333399"><tspan dy="14" x="350">Aprovad</tspan><tspan dy="14" x="350">o?</tspan></text></g><g sequence="15"><ellipse cx="467" cy="284" rx="17" ry="17" stroke-width="3" style="fill:url(#linearGradientFF6666FF9696FFB6B6_1714462258);" stroke="993333" /></g><g sequence="29"><rect x="300" y="450" width="106" height="56" ry="5" rx="5" style="fill:url(#linearGradientF8FBFEEDF5FCDEEDFAD4E7F8E2E5E9_726643438);" stroke="191970" /></g><g componentSequence="29"><text x="353" y="467" text-anchor="middle" style="font-weight:bold;font-size:10px;stroke:none; fill:#333399"><tspan dy="14" x="353">Criar edital</tspan></text></g><g sequence="39"><rect x="570" y="450" width="106" height="56" ry="5" rx="5" style="fill:url(#linearGradientF8FBFEEDF5FCDEEDFAD4E7F8E2E5E9_512408142);" stroke="191970" /></g><g componentSequence="39"><text x="623" y="467" text-anchor="middle" style="font-weight:bold;font-size:10px;stroke:none; fill:#333399"><tspan dy="14" x="623">Lançar edital</tspan></text></g><g sequence="43"><rect x="1280" y="450" width="106" height="70" ry="5" rx="5" style="fill:url(#linearGradientF8FBFEEDF5FCDEEDFAD4E7F8E2E5E9_2049980268);" stroke="191970" /></g><g componentSequence="43"><text x="1333" y="465" text-anchor="middle" style="font-weight:bold;font-size:10px;stroke:none; fill:#333399"><tspan dy="14" x="1333">Comunicar</tspan><tspan dy="14" x="1333">selecionado</tspan></text></g><g sequence="49"><rect x="300" y="60" width="106" height="84" ry="5" rx="5" style="fill:url(#linearGradientF8FBFEEDF5FCDEEDFAD4E7F8E2E5E9_412346134);" stroke="191970" /></g><g componentSequence="49"><text x="353" y="75" text-anchor="middle" style="font-weight:bold;font-size:10px;stroke:none; fill:#333399"><tspan dy="14" x="353">Cadastrar</tspan><tspan dy="14" x="353">Descrição de</tspan><tspan dy="14" x="353">Função</tspan></text></g><g sequence="57"><rect x="780" y="81" width="106" height="56" ry="5" rx="5" style="fill:url(#linearGradientF8FBFEEDF5FCDEEDFAD4E7F8E2E5E9_1318972968);" stroke="191970" /></g><g componentSequence="57"><text x="833" y="98" text-anchor="middle" style="font-weight:bold;font-size:10px;stroke:none; fill:#333399"><tspan dy="14" x="833">Avaliar CVs</tspan></text></g><g sequence="59"><rect x="970" y="450" width="106" height="56" ry="5" rx="5" style="fill:url(#linearGradientF8FBFEEDF5FCDEEDFAD4E7F8E2E5E9_93222271);" stroke="191970" /></g><g componentSequence="59"><text x="1023" y="467" text-anchor="middle" style="font-weight:bold;font-size:10px;stroke:none; fill:#333399"><tspan dy="14" x="1023">Entrevistas</tspan></text></g><g sequence="61"><rect x="1150" y="450" width="106" height="56" ry="5" rx="5" style="fill:url(#linearGradientF8FBFEEDF5FCDEEDFAD4E7F8E2E5E9_2122230261);" stroke="191970" /></g><g componentSequence="61"><text x="1203" y="467" text-anchor="middle" style="font-weight:bold;font-size:10px;stroke:none; fill:#333399"><tspan dy="14" x="1203">Avaliação</tspan></text></g><g sequence="63"><rect x="1060" y="74" width="106" height="70" ry="5" rx="5" style="fill:url(#linearGradientF8FBFEEDF5FCDEEDFAD4E7F8E2E5E9_2043828859);" stroke="191970" /></g><g componentSequence="63"><text x="1113" y="89" text-anchor="middle" style="font-weight:bold;font-size:10px;stroke:none; fill:#333399"><tspan dy="14" x="1113">Definir</tspan><tspan dy="14" x="1113">selecionado</tspan></text></g><g sequence="66"><rect x="1420" y="450" width="106" height="56" ry="5" rx="5" style="fill:url(#linearGradientF8FBFEEDF5FCDEEDFAD4E7F8E2E5E9_1486821319);" stroke="191970" /></g><g componentSequence="66"><text x="1473" y="467" text-anchor="middle" style="font-weight:bold;font-size:10px;stroke:none; fill:#333399"><tspan dy="14" x="1473">Kit admissão</tspan></text></g><g sequence="75"><ellipse cx="1537" cy="547" rx="17" ry="17" stroke-width="3" style="fill:url(#linearGradientFF6666FF9696FFB6B6_785163302);" stroke="993333" /></g><g componentSequence="13"><text x="288" y="292" style="font-size:10px;font-weight:none;stroke:none; fill:#333399" text-anchor="left" /></g><g componentSequence="16"><text x="425" y="287" style="font-size:10px;font-weight:none;stroke:none; fill:#333399" text-anchor="left" /></g><g componentSequence="31"><text x="361" y="396" style="font-size:10px;font-weight:none;stroke:none; fill:#333399" text-anchor="left" /></g><g componentSequence="41"><text x="738" y="478" style="font-size:10px;font-weight:none;stroke:none; fill:#333399" text-anchor="left" /></g><g componentSequence="50"><text x="361" y="192" style="font-size:10px;font-weight:none;stroke:none; fill:#333399" text-anchor="left" /></g><g componentSequence="51"><text x="275" y="202" style="font-size:10px;font-weight:none;stroke:none; fill:#333399" text-anchor="left" /></g><g componentSequence="56"><text x="498" y="478" style="font-size:10px;font-weight:none;stroke:none; fill:#333399" text-anchor="left" /></g><g componentSequence="58"><text x="843" y="293" style="font-size:10px;font-weight:none;stroke:none; fill:#333399" text-anchor="left" /></g><g componentSequence="60"><text x="938" y="293" style="font-size:10px;font-weight:none;stroke:none; fill:#333399" text-anchor="left" /></g><g componentSequence="62"><text x="1123" y="478" style="font-size:10px;font-weight:none;stroke:none; fill:#333399" text-anchor="left" /></g><g componentSequence="64"><text x="1169" y="297" style="font-size:10px;font-weight:none;stroke:none; fill:#333399" text-anchor="left" /></g><g componentSequence="65"><text x="1233" y="297" style="font-size:10px;font-weight:none;stroke:none; fill:#333399" text-anchor="left" /></g><g componentSequence="67"><text x="1413" y="481" style="font-size:10px;font-weight:none;stroke:none; fill:#333399" text-anchor="left" /></g><g componentSequence="69"><text x="1029" y="548" style="font-size:10px;font-weight:none;stroke:none; fill:#333399" text-anchor="left" /></g><g componentSequence="70"><text x="922" y="566" style="font-size:10px;font-weight:none;stroke:none; fill:#333399" text-anchor="left" /></g><g componentSequence="71"><text x="938" y="478" style="font-size:10px;font-weight:none;stroke:none; fill:#333399" text-anchor="left" /></g><g componentSequence="72"><text x="833" y="540" style="font-size:10px;font-weight:none;stroke:none; fill:#333399" text-anchor="left" /></g><g componentSequence="73"><text x="1077" y="297" style="font-size:10px;font-weight:none;stroke:none; fill:#333399" text-anchor="left" /></g><g componentSequence="74"><text x="980" y="297" style="font-size:10px;font-weight:none;stroke:none; fill:#333399" text-anchor="left" /></g><g componentSequence="76"><text x="1520" y="518" style="font-size:10px;font-weight:none;stroke:none; fill:#333399" text-anchor="left" /></g><g componentSequence="80"><text x="163" y="181" style="font-size:10px;font-weight:none;stroke:none; fill:#333399" text-anchor="left" /></g><path style="fill:none; stroke:#000000;stroke-width:1" d="M131.0 102.0 L173.0 259.0" /><polygon style="fill:#000000; stroke:#000000;" points=" 175 248 173 259 166 251 171 251" /><path style="fill:none; stroke:#000000;stroke-width:1" d="M236.0 293.0 L319.0 291.0" /><polygon style="fill:#000000; stroke:#000000;" points=" 309 286 319 291 309 296 311 291" /><path style="fill:none; stroke:#000000;stroke-width:1" d="M315.0 144.0 L214.0 259.0" /><polygon style="fill:#000000; stroke:#000000;" points=" 224 255 214 259 217 248 219 253" /><path style="fill:none; stroke:#000000;stroke-width:1" d="M833.0 449.0 L833.0 137.0" /><polygon style="fill:#000000; stroke:#000000;" points=" 828 147 833 137 838 147 833 145" /><path style="fill:none; stroke:#F00000;stroke-width:1" d="M676.0 478.0 L779.0 478.0" /><polygon style="fill:#F00000; stroke:#F00000;" points=" 769 473 779 478 769 483 771 478" /><polygon style="fill:#F00000; stroke:#F00000;" points=" 686 483 676 478 686 473 684 478" /><path style="fill:none; stroke:#000000;stroke-width:1" d="M1149.0 501.0 L1031.0 553.0 L886.0 498.0" /><polygon style="fill:#000000; stroke:#000000;" points=" 894 506 886 498 897 497 893 501" /><path style="fill:none; stroke:#000000;stroke-width:1" d="M969.0 478.0 L886.0 478.0" /><polygon style="fill:#000000; stroke:#000000;" points=" 896 483 886 478 896 473 894 478" /><path style="fill:none; stroke:#000000;stroke-width:1" d="M1086.0 144.0 L854.0 449.0" /><polygon style="fill:#000000; stroke:#000000;" points=" 864 444 854 449 856 438 859 443" /><path style="fill:none; stroke:#000000;stroke-width:1" d="M380.0 289.0 L450.0 285.0" /><polygon style="fill:#000000; stroke:#000000;" points=" 440 281 450 285 440 291 442 285" /><path style="fill:none; stroke:#000000;stroke-width:1" d="M350.0 342.0 L352.0 449.0" /><polygon style="fill:#000000; stroke:#000000;" points=" 357 439 352 449 347 439 352 441" /><path style="fill:none; stroke:#000000;stroke-width:1" d="M350.0 239.0 L352.0 144.0" /><polygon style="fill:#000000; stroke:#000000;" points=" 347 154 352 144 357 154 352 152" /><path style="fill:none; stroke:#000000;stroke-width:1" d="M406.0 478.0 L569.0 478.0" /><polygon style="fill:#000000; stroke:#000000;" points=" 559 473 569 478 559 483 561 478" /><path style="fill:none; stroke:#000000;stroke-width:1" d="M1202.0 506.0 L1202.0 566.0 L861.0 566.0 L622.0 566.0 L622.0 506.0" /><polygon style="fill:#000000; stroke:#000000;" points=" 617 516 622 506 627 516 622 514" /><path style="fill:none; stroke:#000000;stroke-width:1" d="M969.0 496.0 L833.0 543.0 L676.0 494.0" /><polygon style="fill:#000000; stroke:#000000;" points=" 684 502 676 494 687 492 684 496" /><path style="fill:none; stroke:#000000;stroke-width:1" d="M1386.0 482.0 L1419.0 480.0" /><polygon style="fill:#000000; stroke:#000000;" points=" 1409 476 1419 480 1409 486 1411 480" /><path style="fill:none; stroke:#000000;stroke-width:1" d="M1133.0 144.0 L1312.0 449.0" /><polygon style="fill:#000000; stroke:#000000;" points=" 1311 438 1312 449 1303 443 1308 442" /><path style="fill:none; stroke:#000000;stroke-width:1" d="M847.0 137.0 L1008.0 449.0" /><polygon style="fill:#000000; stroke:#000000;" points=" 1008 438 1008 449 999 442 1004 442" /><path style="fill:none; stroke:#F00000;stroke-width:1" d="M1076.0 478.0 L1149.0 478.0" /><polygon style="fill:#F00000; stroke:#F00000;" points=" 1139 473 1149 478 1139 483 1141 478" /><polygon style="fill:#F00000; stroke:#F00000;" points=" 1086 483 1076 478 1086 473 1084 478" /><path style="fill:none; stroke:#000000;stroke-width:1" d="M1104.0 144.0 L1029.0 449.0" /><polygon style="fill:#000000; stroke:#000000;" points=" 1036 440 1029 449 1027 438 1031 441" /><path style="fill:none; stroke:#000000;stroke-width:1" d="M1196.0 449.0 L1121.0 144.0" /><polygon style="fill:#000000; stroke:#000000;" points=" 1119 155 1121 144 1128 153 1123 152" /><path style="fill:none; stroke:#000000;stroke-width:1" d="M1499.0 506.0 L1525.0 534.0" /><polygon style="fill:#000000; stroke:#000000;" points=" 1522 523 1525 534 1515 530 1520 528" /><defs><linearGradient xmlns:xlink="http://www.w3.org/1999/xlink" xlink:href="#linearGradient66FF6696FF96B6FFB6" id="linearGradient66FF6696FF96B6FFB6_1441081044" x1="0" y1="68.0" x2="0" y2="103.0" gradientUnits="userSpaceOnUse" xlink:type="simple" xlink:actuate="onLoad" xlink:show="other" /><linearGradient id="linearGradient66FF6696FF96B6FFB6"><stop style="stop-color:#66FF66;stop-opacity:1;" offset="0.0" id="stop66FF66" /><stop style="stop-color:#96FF96;stop-opacity:1;" offset="0.5" id="stop96FF96" /><stop style="stop-color:#B6FFB6;stop-opacity:1;" offset="1.0" id="stopB6FFB6" /></linearGradient><linearGradient xmlns:xlink="http://www.w3.org/1999/xlink" xlink:href="#linearGradientF8FBFEEDF5FCDEEDFAD4E7F8E2E5E9" id="linearGradientF8FBFEEDF5FCDEEDFAD4E7F8E2E5E9_1529004568" x1="0" y1="260.0" x2="0" y2="366.0" gradientUnits="userSpaceOnUse" xlink:type="simple" xlink:actuate="onLoad" xlink:show="other" /><linearGradient id="linearGradientF8FBFEEDF5FCDEEDFAD4E7F8E2E5E9"><stop style="stop-color:#F8FBFE;stop-opacity:1;" offset="0.0" id="stopF8FBFE" /><stop style="stop-color:#EDF5FC;stop-opacity:1;" offset="0.25" id="stopEDF5FC" /><stop style="stop-color:#DEEDFA;stop-opacity:1;" offset="0.5" id="stopDEEDFA" /><stop style="stop-color:#D4E7F8;stop-opacity:1;" offset="0.75" id="stopD4E7F8" /><stop style="stop-color:#E2E5E9;stop-opacity:1;" offset="1.0" id="stopE2E5E9" /></linearGradient><linearGradient xmlns:xlink="http://www.w3.org/1999/xlink" xlink:href="#linearGradientF8FBFEEDF5FCDEEDFAD4E7F8E2E5E9" id="linearGradientF8FBFEEDF5FCDEEDFAD4E7F8E2E5E9_1595755940" x1="0" y1="450.0" x2="0" y2="556.0" gradientUnits="userSpaceOnUse" xlink:type="simple" xlink:actuate="onLoad" xlink:show="other" /><linearGradient xmlns:xlink="http://www.w3.org/1999/xlink" xlink:href="#linearGradientFAFBFCFFFFCC" id="linearGradientFAFBFCFFFFCC_438290467" x1="0" y1="240.0" x2="0" y2="300.0" gradientUnits="userSpaceOnUse" xlink:type="simple" xlink:actuate="onLoad" xlink:show="other" /><linearGradient id="linearGradientFAFBFCFFFFCC"><stop style="stop-color:#FAFBFC;stop-opacity:1;" offset="0.0" id="stopFAFBFC" /><stop style="stop-color:#FFFFCC;stop-opacity:1;" offset="1.0" id="stopFFFFCC" /></linearGradient><linearGradient xmlns:xlink="http://www.w3.org/1999/xlink" xlink:href="#linearGradientFF6666FF9696FFB6B6" id="linearGradientFF6666FF9696FFB6B6_1714462258" x1="0" y1="267.0" x2="0" y2="302.0" gradientUnits="userSpaceOnUse" xlink:type="simple" xlink:actuate="onLoad" xlink:show="other" /><linearGradient id="linearGradientFF6666FF9696FFB6B6"><stop style="stop-color:#FF6666;stop-opacity:1;" offset="0.0" id="stopFF6666" /><stop style="stop-color:#FF9696;stop-opacity:1;" offset="0.5" id="stopFF9696" /><stop style="stop-color:#FFB6B6;stop-opacity:1;" offset="1.0" id="stopFFB6B6" /></linearGradient><linearGradient xmlns:xlink="http://www.w3.org/1999/xlink" xlink:href="#linearGradientF8FBFEEDF5FCDEEDFAD4E7F8E2E5E9" id="linearGradientF8FBFEEDF5FCDEEDFAD4E7F8E2E5E9_726643438" x1="0" y1="450.0" x2="0" y2="556.0" gradientUnits="userSpaceOnUse" xlink:type="simple" xlink:actuate="onLoad" xlink:show="other" /><linearGradient xmlns:xlink="http://www.w3.org/1999/xlink" xlink:href="#linearGradientF8FBFEEDF5FCDEEDFAD4E7F8E2E5E9" id="linearGradientF8FBFEEDF5FCDEEDFAD4E7F8E2E5E9_512408142" x1="0" y1="450.0" x2="0" y2="556.0" gradientUnits="userSpaceOnUse" xlink:type="simple" xlink:actuate="onLoad" xlink:show="other" /><linearGradient xmlns:xlink="http://www.w3.org/1999/xlink" xlink:href="#linearGradientF8FBFEEDF5FCDEEDFAD4E7F8E2E5E9" id="linearGradientF8FBFEEDF5FCDEEDFAD4E7F8E2E5E9_2049980268" x1="0" y1="450.0" x2="0" y2="556.0" gradientUnits="userSpaceOnUse" xlink:type="simple" xlink:actuate="onLoad" xlink:show="other" /><linearGradient xmlns:xlink="http://www.w3.org/1999/xlink" xlink:href="#linearGradientF8FBFEEDF5FCDEEDFAD4E7F8E2E5E9" id="linearGradientF8FBFEEDF5FCDEEDFAD4E7F8E2E5E9_412346134" x1="0" y1="60.0" x2="0" y2="166.0" gradientUnits="userSpaceOnUse" xlink:type="simple" xlink:actuate="onLoad" xlink:show="other" /><linearGradient xmlns:xlink="http://www.w3.org/1999/xlink" xlink:href="#linearGradientF8FBFEEDF5FCDEEDFAD4E7F8E2E5E9" id="linearGradientF8FBFEEDF5FCDEEDFAD4E7F8E2E5E9_1318972968" x1="0" y1="81.0" x2="0" y2="187.0" gradientUnits="userSpaceOnUse" xlink:type="simple" xlink:actuate="onLoad" xlink:show="other" /><linearGradient xmlns:xlink="http://www.w3.org/1999/xlink" xlink:href="#linearGradientF8FBFEEDF5FCDEEDFAD4E7F8E2E5E9" id="linearGradientF8FBFEEDF5FCDEEDFAD4E7F8E2E5E9_93222271" x1="0" y1="450.0" x2="0" y2="556.0" gradientUnits="userSpaceOnUse" xlink:type="simple" xlink:actuate="onLoad" xlink:show="other" /><linearGradient xmlns:xlink="http://www.w3.org/1999/xlink" xlink:href="#linearGradientF8FBFEEDF5FCDEEDFAD4E7F8E2E5E9" id="linearGradientF8FBFEEDF5FCDEEDFAD4E7F8E2E5E9_2122230261" x1="0" y1="450.0" x2="0" y2="556.0" gradientUnits="userSpaceOnUse" xlink:type="simple" xlink:actuate="onLoad" xlink:show="other" /><linearGradient xmlns:xlink="http://www.w3.org/1999/xlink" xlink:href="#linearGradientF8FBFEEDF5FCDEEDFAD4E7F8E2E5E9" id="linearGradientF8FBFEEDF5FCDEEDFAD4E7F8E2E5E9_2043828859" x1="0" y1="74.0" x2="0" y2="180.0" gradientUnits="userSpaceOnUse" xlink:type="simple" xlink:actuate="onLoad" xlink:show="other" /><linearGradient xmlns:xlink="http://www.w3.org/1999/xlink" xlink:href="#linearGradientF8FBFEEDF5FCDEEDFAD4E7F8E2E5E9" id="linearGradientF8FBFEEDF5FCDEEDFAD4E7F8E2E5E9_1486821319" x1="0" y1="450.0" x2="0" y2="556.0" gradientUnits="userSpaceOnUse" xlink:type="simple" xlink:actuate="onLoad" xlink:show="other" /><linearGradient xmlns:xlink="http://www.w3.org/1999/xlink" xlink:href="#linearGradientFF6666FF9696FFB6B6" id="linearGradientFF6666FF9696FFB6B6_785163302" x1="0" y1="530.0" x2="0" y2="565.0" gradientUnits="userSpaceOnUse" xlink:type="simple" xlink:actuate="onLoad" xlink:show="other" /></defs></svg>
