<?xml version="1.0" encoding="UTF-8"?>
<svg xmlns="http://www.w3.org/2000/svg" style="stroke-dasharray:none; shape-rendering:auto; font-family:'Arial'; text-rendering:auto; fill-opacity:1; color-interpolation:auto; color-rendering:auto; font-size:12; fill:black; stroke:black; image-rendering:auto; stroke-miterlimit:10; stroke-linecap:square; stroke-linejoin:miter; font-style:normal; stroke-width:1; stroke-dashoffset:0; font-weight:normal; stroke-opacity:1;" contentScriptType="text/ecmascript" preserveAspectRatio="xMidYMid meet" zoomAndPan="magnify" version="1.0" contentStyleType="text/css" xml:xlink="http://www.w3.org/1999/xlink" width="1750" height="921"><rect x="10" y="10" width="1740" height="911" ry="0" rx="0" style="stroke:#000000; fill:#FFFFFF" /><rect x="40" y="374" width="1710" height="182" ry="0" rx="0" style="stroke:#000000; fill:#D0DAAE" /><g componentSequence="89"><text x="-465" y="47" transform="rotate(270)" text-anchor="middle" style="font-weight:bold;font-size:10px;stroke:none; fill:#434343"><tspan dy="14" x="-465">Diretoria Nacional</tspan></text></g><rect x="40" y="738" width="1710" height="183" ry="0" rx="0" style="stroke:#000000; fill:#82B0B7" /><g componentSequence="85"><text x="-829" y="47" transform="rotate(270)" text-anchor="middle" style="font-weight:bold;font-size:10px;stroke:none; fill:#434343"><tspan dy="14" x="-829">Selecionado</tspan></text></g><rect x="40" y="556" width="1710" height="182" ry="0" rx="0" style="stroke:#000000; fill:#ADC9AC" /><g componentSequence="17"><text x="-647" y="47" transform="rotate(270)" text-anchor="middle" style="font-weight:bold;font-size:10px;stroke:none; fill:#434343"><tspan dy="14" x="-647">Analista de R e S</tspan></text></g><rect x="40" y="192" width="1710" height="182" ry="0" rx="0" style="stroke:#000000; fill:#C0C0C0" /><g componentSequence="3"><text x="-283" y="47" transform="rotate(270)" text-anchor="middle" style="font-weight:bold;font-size:10px;stroke:none; fill:#434343"><tspan dy="14" x="-283">Gerência de P&amp;C</tspan></text></g><rect x="40" y="10" width="1710" height="182" ry="0" rx="0" style="stroke:#000000; fill:#9F9F9F" /><g componentSequence="2"><text x="-101" y="47" transform="rotate(270)" text-anchor="middle" style="font-weight:bold;font-size:10px;stroke:none; fill:#434343"><tspan dy="14" x="-101">Gestor de Área</tspan></text></g><g componentSequence="1"><text x="-465" y="17" transform="rotate(270)" text-anchor="middle" style="font-weight:bold;font-size:10px;stroke:none; fill:#434343"><tspan dy="14" x="-465">Recrutamento e seleção</tspan></text></g><g sequence="4"><ellipse cx="127" cy="85" rx="17" ry="17" stroke-width="1" style="fill:url(#linearGradient66FF6696FF96B6FFB6_1637660035);" stroke="336633" /></g><g sequence="5"><rect x="130" y="260" width="106" height="70" ry="5" rx="5" style="fill:url(#linearGradientF8FBFEEDF5FCDEEDFAD4E7F8E2E5E9_1868253120);" stroke="191970" /></g><g componentSequence="5"><text x="183" y="275" text-anchor="middle" style="font-weight:bold;font-size:10px;stroke:none; fill:#333399"><tspan dy="14" x="183">Aprovar</tspan><tspan dy="14" x="183">contratação</tspan></text></g><g sequence="9"><rect x="780" y="600" width="106" height="56" ry="5" rx="5" style="fill:url(#linearGradientF8FBFEEDF5FCDEEDFAD4E7F8E2E5E9_1801772787);" stroke="191970" /></g><g componentSequence="9"><text x="833" y="617" text-anchor="middle" style="font-weight:bold;font-size:10px;stroke:none; fill:#333399"><tspan dy="14" x="833">Triagem de CV</tspan></text></g><g sequence="12"><polygon points=" 320 270 350 240 380 270 350 300 320 270" style="fill:url(#linearGradientFAFBFCFFFFCC_778456571);" stroke="000000" /></g><g componentSequence="12"><text x="350" y="310" text-anchor="middle" style="font-weight:bold;font-size:10px;stroke:none; fill:#333399"><tspan dy="14" x="350">Aprovad</tspan><tspan dy="14" x="350">o?</tspan></text></g><g sequence="15"><ellipse cx="517" cy="287" rx="17" ry="17" stroke-width="3" style="fill:url(#linearGradientFF6666FF9696FFB6B6_718456089);" stroke="993333" /></g><g sequence="29"><rect x="300" y="440" width="106" height="70" ry="5" rx="5" style="fill:url(#linearGradientF8FBFEEDF5FCDEEDFAD4E7F8E2E5E9_528671428);" stroke="191970" /></g><g componentSequence="29"><text x="353" y="455" text-anchor="middle" style="font-weight:bold;font-size:10px;stroke:none; fill:#333399"><tspan dy="14" x="353">Aprovar</tspan><tspan dy="14" x="353">contratação</tspan></text></g><g sequence="39"><rect x="570" y="600" width="106" height="56" ry="5" rx="5" style="fill:url(#linearGradientF8FBFEEDF5FCDEEDFAD4E7F8E2E5E9_1390163073);" stroke="191970" /></g><g componentSequence="39"><text x="623" y="617" text-anchor="middle" style="font-weight:bold;font-size:10px;stroke:none; fill:#333399"><tspan dy="14" x="623">Lançar edital</tspan></text></g><g sequence="43"><rect x="1280" y="600" width="106" height="70" ry="5" rx="5" style="fill:url(#linearGradientF8FBFEEDF5FCDEEDFAD4E7F8E2E5E9_1313452724);" stroke="191970" /></g><g componentSequence="43"><text x="1333" y="615" text-anchor="middle" style="font-weight:bold;font-size:10px;stroke:none; fill:#333399"><tspan dy="14" x="1333">Comunicar</tspan><tspan dy="14" x="1333">selecionado</tspan></text></g><g sequence="49"><rect x="300" y="60" width="106" height="84" ry="5" rx="5" style="fill:url(#linearGradientF8FBFEEDF5FCDEEDFAD4E7F8E2E5E9_1913605225);" stroke="191970" /></g><g componentSequence="49"><text x="353" y="75" text-anchor="middle" style="font-weight:bold;font-size:10px;stroke:none; fill:#333399"><tspan dy="14" x="353">Cadastrar</tspan><tspan dy="14" x="353">Descrição de</tspan><tspan dy="14" x="353">Função</tspan></text></g><g sequence="57"><rect x="780" y="81" width="106" height="56" ry="5" rx="5" style="fill:url(#linearGradientF8FBFEEDF5FCDEEDFAD4E7F8E2E5E9_2056455214);" stroke="191970" /></g><g componentSequence="57"><text x="833" y="98" text-anchor="middle" style="font-weight:bold;font-size:10px;stroke:none; fill:#333399"><tspan dy="14" x="833">Avaliar CV</tspan></text></g><g sequence="59"><rect x="970" y="600" width="106" height="56" ry="5" rx="5" style="fill:url(#linearGradientF8FBFEEDF5FCDEEDFAD4E7F8E2E5E9_1238917057);" stroke="191970" /></g><g componentSequence="59"><text x="1023" y="617" text-anchor="middle" style="font-weight:bold;font-size:10px;stroke:none; fill:#333399"><tspan dy="14" x="1023">Entrevistas</tspan></text></g><g sequence="61"><rect x="1150" y="600" width="106" height="56" ry="5" rx="5" style="fill:url(#linearGradientF8FBFEEDF5FCDEEDFAD4E7F8E2E5E9_1242007644);" stroke="191970" /></g><g componentSequence="61"><text x="1203" y="617" text-anchor="middle" style="font-weight:bold;font-size:10px;stroke:none; fill:#333399"><tspan dy="14" x="1203">Avaliação</tspan></text></g><g sequence="63"><rect x="1060" y="74" width="106" height="70" ry="5" rx="5" style="fill:url(#linearGradientF8FBFEEDF5FCDEEDFAD4E7F8E2E5E9_1122236785);" stroke="191970" /></g><g componentSequence="63"><text x="1113" y="89" text-anchor="middle" style="font-weight:bold;font-size:10px;stroke:none; fill:#333399"><tspan dy="14" x="1113">Definir</tspan><tspan dy="14" x="1113">selecionado</tspan></text></g><g sequence="66"><rect x="1420" y="600" width="106" height="70" ry="5" rx="5" style="fill:url(#linearGradientF8FBFEEDF5FCDEEDFAD4E7F8E2E5E9_540227447);" stroke="191970" /></g><g componentSequence="66"><text x="1473" y="615" text-anchor="middle" style="font-weight:bold;font-size:10px;stroke:none; fill:#333399"><tspan dy="14" x="1473">Validar</tspan><tspan dy="14" x="1473">documentos</tspan></text></g><g sequence="75"><ellipse cx="1617" cy="637" rx="17" ry="17" stroke-width="3" style="fill:url(#linearGradientFF6666FF9696FFB6B6_723403495);" stroke="993333" /></g><g sequence="81"><rect x="570" y="260" width="106" height="56" ry="5" rx="5" style="fill:url(#linearGradientF8FBFEEDF5FCDEEDFAD4E7F8E2E5E9_1571646128);" stroke="191970" /></g><g componentSequence="81"><text x="623" y="277" text-anchor="middle" style="font-weight:bold;font-size:10px;stroke:none; fill:#333399"><tspan dy="14" x="623">Nomeação</tspan></text></g><g sequence="83"><ellipse cx="737" cy="287" rx="17" ry="17" stroke-width="3" style="fill:url(#linearGradientFF6666FF9696FFB6B6_14166021);" stroke="993333" /></g><g sequence="86"><rect x="1280" y="820" width="106" height="70" ry="5" rx="5" style="fill:url(#linearGradientF8FBFEEDF5FCDEEDFAD4E7F8E2E5E9_971587558);" stroke="191970" /></g><g componentSequence="86"><text x="1333" y="835" text-anchor="middle" style="font-weight:bold;font-size:10px;stroke:none; fill:#333399"><tspan dy="14" x="1333">Enviar</tspan><tspan dy="14" x="1333">documentação</tspan></text></g><g sequence="90"><rect x="300" y="600" width="106" height="56" ry="5" rx="5" style="fill:url(#linearGradientF8FBFEEDF5FCDEEDFAD4E7F8E2E5E9_1614367558);" stroke="191970" /></g><g componentSequence="90"><text x="353" y="617" text-anchor="middle" style="font-weight:bold;font-size:10px;stroke:none; fill:#333399"><tspan dy="14" x="353">Criar edital</tspan></text></g><g sequence="93"><ellipse cx="477" cy="477" rx="17" ry="17" stroke-width="3" style="fill:url(#linearGradientFF6666FF9696FFB6B6_1450657051);" stroke="993333" /></g><g componentSequence="13"><text x="288" y="292" style="font-size:10px;font-weight:none;stroke:none; fill:#333399" text-anchor="left" /></g><g componentSequence="16"><text x="450" y="289" style="font-size:10px;font-weight:none;stroke:none; fill:#333399" text-anchor="left" /></g><g componentSequence="31"><text x="361" y="391" style="font-size:10px;font-weight:none;stroke:none; fill:#333399" text-anchor="left" /></g><g componentSequence="41"><text x="738" y="628" style="font-size:10px;font-weight:none;stroke:none; fill:#333399" text-anchor="left" /></g><g componentSequence="50"><text x="361" y="192" style="font-size:10px;font-weight:none;stroke:none; fill:#333399" text-anchor="left" /></g><g componentSequence="51"><text x="275" y="202" style="font-size:10px;font-weight:none;stroke:none; fill:#333399" text-anchor="left" /></g><g componentSequence="58"><text x="843" y="368" style="font-size:10px;font-weight:none;stroke:none; fill:#333399" text-anchor="left" /></g><g componentSequence="60"><text x="938" y="368" style="font-size:10px;font-weight:none;stroke:none; fill:#333399" text-anchor="left" /></g><g componentSequence="62"><text x="1123" y="628" style="font-size:10px;font-weight:none;stroke:none; fill:#333399" text-anchor="left" /></g><g componentSequence="64"><text x="1169" y="372" style="font-size:10px;font-weight:none;stroke:none; fill:#333399" text-anchor="left" /></g><g componentSequence="65"><text x="1233" y="372" style="font-size:10px;font-weight:none;stroke:none; fill:#333399" text-anchor="left" /></g><g componentSequence="69"><text x="1027" y="704" style="font-size:10px;font-weight:none;stroke:none; fill:#333399" text-anchor="left" /></g><g componentSequence="70"><text x="921" y="720" style="font-size:10px;font-weight:none;stroke:none; fill:#333399" text-anchor="left" /></g><g componentSequence="71"><text x="938" y="628" style="font-size:10px;font-weight:none;stroke:none; fill:#333399" text-anchor="left" /></g><g componentSequence="72"><text x="831" y="696" style="font-size:10px;font-weight:none;stroke:none; fill:#333399" text-anchor="left" /></g><g componentSequence="73"><text x="1077" y="372" style="font-size:10px;font-weight:none;stroke:none; fill:#333399" text-anchor="left" /></g><g componentSequence="74"><text x="981" y="372" style="font-size:10px;font-weight:none;stroke:none; fill:#333399" text-anchor="left" /></g><g componentSequence="76"><text x="1573" y="636" style="font-size:10px;font-weight:none;stroke:none; fill:#333399" text-anchor="left" /></g><g componentSequence="80"><text x="163" y="181" style="font-size:10px;font-weight:none;stroke:none; fill:#333399" text-anchor="left" /></g><g componentSequence="82"><text x="633" y="458" style="font-size:10px;font-weight:none;stroke:none; fill:#333399" text-anchor="left" /></g><g componentSequence="84"><text x="708" y="287" style="font-size:10px;font-weight:none;stroke:none; fill:#333399" text-anchor="left" /></g><g componentSequence="87"><text x="1343" y="745" style="font-size:10px;font-weight:none;stroke:none; fill:#333399" text-anchor="left" /></g><g componentSequence="88"><text x="1413" y="745" style="font-size:10px;font-weight:none;stroke:none; fill:#333399" text-anchor="left" /></g><g componentSequence="91"><text x="363" y="555" style="font-size:10px;font-weight:none;stroke:none; fill:#333399" text-anchor="left" /></g><g componentSequence="92"><text x="498" y="628" style="font-size:10px;font-weight:none;stroke:none; fill:#333399" text-anchor="left" /></g><g componentSequence="94"><text x="443" y="477" style="font-size:10px;font-weight:none;stroke:none; fill:#333399" text-anchor="left" /></g><path style="fill:none; stroke:#000000;stroke-width:1" d="M131.0 102.0 L173.0 259.0" /><polygon style="fill:#000000; stroke:#000000;" points=" 175 248 173 259 166 251 171 251" /><path style="fill:none; stroke:#000000;stroke-width:1" d="M236.0 293.0 L319.0 291.0" /><polygon style="fill:#000000; stroke:#000000;" points=" 309 286 319 291 309 296 311 291" /><path style="fill:none; stroke:#000000;stroke-width:1" d="M315.0 144.0 L214.0 259.0" /><polygon style="fill:#000000; stroke:#000000;" points=" 224 255 214 259 217 248 219 253" /><path style="fill:none; stroke:#000000;stroke-width:1" d="M833.0 599.0 L833.0 137.0" /><polygon style="fill:#000000; stroke:#000000;" points=" 828 147 833 137 838 147 833 145" /><path style="fill:none; stroke:#F00000;stroke-width:1" d="M676.0 628.0 L779.0 628.0" /><polygon style="fill:#F00000; stroke:#F00000;" points=" 769 623 779 628 769 633 771 628" /><polygon style="fill:#F00000; stroke:#F00000;" points=" 686 633 676 628 686 623 684 628" /><path style="fill:none; stroke:#000000;stroke-width:1" d="M1149.0 649.0 L1014.0 705.0 L886.0 650.0" /><polygon style="fill:#000000; stroke:#000000;" points=" 893 659 886 650 897 649 893 653" /><path style="fill:none; stroke:#000000;stroke-width:1" d="M969.0 628.0 L886.0 628.0" /><polygon style="fill:#000000; stroke:#000000;" points=" 896 633 886 628 896 623 894 628" /><path style="fill:none; stroke:#000000;stroke-width:1" d="M1093.0 144.0 L848.0 599.0" /><polygon style="fill:#000000; stroke:#000000;" points=" 857 593 848 599 848 588 852 592" /><path style="fill:none; stroke:#000000;stroke-width:1" d="M380.0 290.0 L500.0 287.0" /><polygon style="fill:#000000; stroke:#000000;" points=" 490 282 500 287 490 292 492 287" /><path style="fill:none; stroke:#000000;stroke-width:1" d="M350.0 342.0 L352.0 439.0" /><polygon style="fill:#000000; stroke:#000000;" points=" 357 429 352 439 347 429 352 431" /><path style="fill:none; stroke:#000000;stroke-width:1" d="M350.0 239.0 L352.0 144.0" /><polygon style="fill:#000000; stroke:#000000;" points=" 347 154 352 144 357 154 352 152" /><path style="fill:none; stroke:#000000;stroke-width:1" d="M353.0 510.0 L353.0 599.0" /><polygon style="fill:#000000; stroke:#000000;" points=" 358 589 353 599 348 589 353 591" /><path style="fill:none; stroke:#000000;stroke-width:1" d="M406.0 476.0 L460.0 477.0" /><polygon style="fill:#000000; stroke:#000000;" points=" 450 472 460 477 450 482 452 477" /><path style="fill:none; stroke:#000000;stroke-width:1" d="M623.0 599.0 L623.0 316.0" /><polygon style="fill:#000000; stroke:#000000;" points=" 618 326 623 316 628 326 623 324" /><path style="fill:none; stroke:#000000;stroke-width:1" d="M1202.0 656.0 L1202.0 719.0 L1011.0 719.0 L622.0 721.0 L622.0 656.0" /><polygon style="fill:#000000; stroke:#000000;" points=" 617 666 622 656 627 666 622 664" /><path style="fill:none; stroke:#000000;stroke-width:1" d="M969.0 646.0 L807.0 701.0 L676.0 649.0" /><polygon style="fill:#000000; stroke:#000000;" points=" 683 657 676 649 687 648 683 652" /><path style="fill:none; stroke:#000000;stroke-width:1" d="M406.0 628.0 L569.0 628.0" /><polygon style="fill:#000000; stroke:#000000;" points=" 559 623 569 628 559 633 561 628" /><path style="fill:none; stroke:#000000;stroke-width:1" d="M1333.0 670.0 L1333.0 819.0" /><polygon style="fill:#000000; stroke:#000000;" points=" 1338 809 1333 819 1328 809 1333 811" /><path style="fill:none; stroke:#000000;stroke-width:1" d="M1127.0 144.0 L1318.0 599.0" /><polygon style="fill:#000000; stroke:#000000;" points=" 1319 588 1318 599 1310 592 1315 592" /><path style="fill:none; stroke:#000000;stroke-width:1" d="M843.0 137.0 L1012.0 599.0" /><polygon style="fill:#000000; stroke:#000000;" points=" 1013 588 1012 599 1004 591 1009 591" /><path style="fill:none; stroke:#F00000;stroke-width:1" d="M1076.0 628.0 L1149.0 628.0" /><polygon style="fill:#F00000; stroke:#F00000;" points=" 1139 623 1149 628 1139 633 1141 628" /><polygon style="fill:#F00000; stroke:#F00000;" points=" 1086 633 1076 628 1086 623 1084 628" /><path style="fill:none; stroke:#000000;stroke-width:1" d="M1106.0 144.0 L1027.0 599.0" /><polygon style="fill:#000000; stroke:#000000;" points=" 1034 590 1027 599 1024 588 1028 591" /><path style="fill:none; stroke:#000000;stroke-width:1" d="M1198.0 599.0 L1119.0 144.0" /><polygon style="fill:#000000; stroke:#000000;" points=" 1116 155 1119 144 1126 153 1120 152" /><path style="fill:none; stroke:#000000;stroke-width:1" d="M1526.0 635.0 L1600.0 637.0" /><polygon style="fill:#000000; stroke:#000000;" points=" 1590 632 1600 637 1590 642 1592 637" /><path style="fill:none; stroke:#000000;stroke-width:1" d="M1355.0 819.0 L1450.0 670.0" /><polygon style="fill:#000000; stroke:#000000;" points=" 1440 676 1450 670 1449 681 1446 677" /><path style="fill:none; stroke:#000000;stroke-width:1" d="M676.0 287.0 L720.0 287.0" /><polygon style="fill:#000000; stroke:#000000;" points=" 710 282 720 287 710 292 712 287" /><defs><linearGradient xmlns:xlink="http://www.w3.org/1999/xlink" xlink:href="#linearGradient66FF6696FF96B6FFB6" id="linearGradient66FF6696FF96B6FFB6_1637660035" x1="0" y1="68.0" x2="0" y2="103.0" gradientUnits="userSpaceOnUse" xlink:type="simple" xlink:actuate="onLoad" xlink:show="other" /><linearGradient id="linearGradient66FF6696FF96B6FFB6"><stop style="stop-color:#66FF66;stop-opacity:1;" offset="0.0" id="stop66FF66" /><stop style="stop-color:#96FF96;stop-opacity:1;" offset="0.5" id="stop96FF96" /><stop style="stop-color:#B6FFB6;stop-opacity:1;" offset="1.0" id="stopB6FFB6" /></linearGradient><linearGradient xmlns:xlink="http://www.w3.org/1999/xlink" xlink:href="#linearGradientF8FBFEEDF5FCDEEDFAD4E7F8E2E5E9" id="linearGradientF8FBFEEDF5FCDEEDFAD4E7F8E2E5E9_1868253120" x1="0" y1="260.0" x2="0" y2="366.0" gradientUnits="userSpaceOnUse" xlink:type="simple" xlink:actuate="onLoad" xlink:show="other" /><linearGradient id="linearGradientF8FBFEEDF5FCDEEDFAD4E7F8E2E5E9"><stop style="stop-color:#F8FBFE;stop-opacity:1;" offset="0.0" id="stopF8FBFE" /><stop style="stop-color:#EDF5FC;stop-opacity:1;" offset="0.25" id="stopEDF5FC" /><stop style="stop-color:#DEEDFA;stop-opacity:1;" offset="0.5" id="stopDEEDFA" /><stop style="stop-color:#D4E7F8;stop-opacity:1;" offset="0.75" id="stopD4E7F8" /><stop style="stop-color:#E2E5E9;stop-opacity:1;" offset="1.0" id="stopE2E5E9" /></linearGradient><linearGradient xmlns:xlink="http://www.w3.org/1999/xlink" xlink:href="#linearGradientF8FBFEEDF5FCDEEDFAD4E7F8E2E5E9" id="linearGradientF8FBFEEDF5FCDEEDFAD4E7F8E2E5E9_1801772787" x1="0" y1="600.0" x2="0" y2="706.0" gradientUnits="userSpaceOnUse" xlink:type="simple" xlink:actuate="onLoad" xlink:show="other" /><linearGradient xmlns:xlink="http://www.w3.org/1999/xlink" xlink:href="#linearGradientFAFBFCFFFFCC" id="linearGradientFAFBFCFFFFCC_778456571" x1="0" y1="240.0" x2="0" y2="300.0" gradientUnits="userSpaceOnUse" xlink:type="simple" xlink:actuate="onLoad" xlink:show="other" /><linearGradient id="linearGradientFAFBFCFFFFCC"><stop style="stop-color:#FAFBFC;stop-opacity:1;" offset="0.0" id="stopFAFBFC" /><stop style="stop-color:#FFFFCC;stop-opacity:1;" offset="1.0" id="stopFFFFCC" /></linearGradient><linearGradient xmlns:xlink="http://www.w3.org/1999/xlink" xlink:href="#linearGradientFF6666FF9696FFB6B6" id="linearGradientFF6666FF9696FFB6B6_718456089" x1="0" y1="270.0" x2="0" y2="305.0" gradientUnits="userSpaceOnUse" xlink:type="simple" xlink:actuate="onLoad" xlink:show="other" /><linearGradient id="linearGradientFF6666FF9696FFB6B6"><stop style="stop-color:#FF6666;stop-opacity:1;" offset="0.0" id="stopFF6666" /><stop style="stop-color:#FF9696;stop-opacity:1;" offset="0.5" id="stopFF9696" /><stop style="stop-color:#FFB6B6;stop-opacity:1;" offset="1.0" id="stopFFB6B6" /></linearGradient><linearGradient xmlns:xlink="http://www.w3.org/1999/xlink" xlink:href="#linearGradientF8FBFEEDF5FCDEEDFAD4E7F8E2E5E9" id="linearGradientF8FBFEEDF5FCDEEDFAD4E7F8E2E5E9_528671428" x1="0" y1="440.0" x2="0" y2="546.0" gradientUnits="userSpaceOnUse" xlink:type="simple" xlink:actuate="onLoad" xlink:show="other" /><linearGradient xmlns:xlink="http://www.w3.org/1999/xlink" xlink:href="#linearGradientF8FBFEEDF5FCDEEDFAD4E7F8E2E5E9" id="linearGradientF8FBFEEDF5FCDEEDFAD4E7F8E2E5E9_1390163073" x1="0" y1="600.0" x2="0" y2="706.0" gradientUnits="userSpaceOnUse" xlink:type="simple" xlink:actuate="onLoad" xlink:show="other" /><linearGradient xmlns:xlink="http://www.w3.org/1999/xlink" xlink:href="#linearGradientF8FBFEEDF5FCDEEDFAD4E7F8E2E5E9" id="linearGradientF8FBFEEDF5FCDEEDFAD4E7F8E2E5E9_1313452724" x1="0" y1="600.0" x2="0" y2="706.0" gradientUnits="userSpaceOnUse" xlink:type="simple" xlink:actuate="onLoad" xlink:show="other" /><linearGradient xmlns:xlink="http://www.w3.org/1999/xlink" xlink:href="#linearGradientF8FBFEEDF5FCDEEDFAD4E7F8E2E5E9" id="linearGradientF8FBFEEDF5FCDEEDFAD4E7F8E2E5E9_1913605225" x1="0" y1="60.0" x2="0" y2="166.0" gradientUnits="userSpaceOnUse" xlink:type="simple" xlink:actuate="onLoad" xlink:show="other" /><linearGradient xmlns:xlink="http://www.w3.org/1999/xlink" xlink:href="#linearGradientF8FBFEEDF5FCDEEDFAD4E7F8E2E5E9" id="linearGradientF8FBFEEDF5FCDEEDFAD4E7F8E2E5E9_2056455214" x1="0" y1="81.0" x2="0" y2="187.0" gradientUnits="userSpaceOnUse" xlink:type="simple" xlink:actuate="onLoad" xlink:show="other" /><linearGradient xmlns:xlink="http://www.w3.org/1999/xlink" xlink:href="#linearGradientF8FBFEEDF5FCDEEDFAD4E7F8E2E5E9" id="linearGradientF8FBFEEDF5FCDEEDFAD4E7F8E2E5E9_1238917057" x1="0" y1="600.0" x2="0" y2="706.0" gradientUnits="userSpaceOnUse" xlink:type="simple" xlink:actuate="onLoad" xlink:show="other" /><linearGradient xmlns:xlink="http://www.w3.org/1999/xlink" xlink:href="#linearGradientF8FBFEEDF5FCDEEDFAD4E7F8E2E5E9" id="linearGradientF8FBFEEDF5FCDEEDFAD4E7F8E2E5E9_1242007644" x1="0" y1="600.0" x2="0" y2="706.0" gradientUnits="userSpaceOnUse" xlink:type="simple" xlink:actuate="onLoad" xlink:show="other" /><linearGradient xmlns:xlink="http://www.w3.org/1999/xlink" xlink:href="#linearGradientF8FBFEEDF5FCDEEDFAD4E7F8E2E5E9" id="linearGradientF8FBFEEDF5FCDEEDFAD4E7F8E2E5E9_1122236785" x1="0" y1="74.0" x2="0" y2="180.0" gradientUnits="userSpaceOnUse" xlink:type="simple" xlink:actuate="onLoad" xlink:show="other" /><linearGradient xmlns:xlink="http://www.w3.org/1999/xlink" xlink:href="#linearGradientF8FBFEEDF5FCDEEDFAD4E7F8E2E5E9" id="linearGradientF8FBFEEDF5FCDEEDFAD4E7F8E2E5E9_540227447" x1="0" y1="600.0" x2="0" y2="706.0" gradientUnits="userSpaceOnUse" xlink:type="simple" xlink:actuate="onLoad" xlink:show="other" /><linearGradient xmlns:xlink="http://www.w3.org/1999/xlink" xlink:href="#linearGradientFF6666FF9696FFB6B6" id="linearGradientFF6666FF9696FFB6B6_723403495" x1="0" y1="620.0" x2="0" y2="655.0" gradientUnits="userSpaceOnUse" xlink:type="simple" xlink:actuate="onLoad" xlink:show="other" /><linearGradient xmlns:xlink="http://www.w3.org/1999/xlink" xlink:href="#linearGradientF8FBFEEDF5FCDEEDFAD4E7F8E2E5E9" id="linearGradientF8FBFEEDF5FCDEEDFAD4E7F8E2E5E9_1571646128" x1="0" y1="260.0" x2="0" y2="366.0" gradientUnits="userSpaceOnUse" xlink:type="simple" xlink:actuate="onLoad" xlink:show="other" /><linearGradient xmlns:xlink="http://www.w3.org/1999/xlink" xlink:href="#linearGradientFF6666FF9696FFB6B6" id="linearGradientFF6666FF9696FFB6B6_14166021" x1="0" y1="270.0" x2="0" y2="305.0" gradientUnits="userSpaceOnUse" xlink:type="simple" xlink:actuate="onLoad" xlink:show="other" /><linearGradient xmlns:xlink="http://www.w3.org/1999/xlink" xlink:href="#linearGradientF8FBFEEDF5FCDEEDFAD4E7F8E2E5E9" id="linearGradientF8FBFEEDF5FCDEEDFAD4E7F8E2E5E9_971587558" x1="0" y1="820.0" x2="0" y2="926.0" gradientUnits="userSpaceOnUse" xlink:type="simple" xlink:actuate="onLoad" xlink:show="other" /><linearGradient xmlns:xlink="http://www.w3.org/1999/xlink" xlink:href="#linearGradientF8FBFEEDF5FCDEEDFAD4E7F8E2E5E9" id="linearGradientF8FBFEEDF5FCDEEDFAD4E7F8E2E5E9_1614367558" x1="0" y1="600.0" x2="0" y2="706.0" gradientUnits="userSpaceOnUse" xlink:type="simple" xlink:actuate="onLoad" xlink:show="other" /><linearGradient xmlns:xlink="http://www.w3.org/1999/xlink" xlink:href="#linearGradientFF6666FF9696FFB6B6" id="linearGradientFF6666FF9696FFB6B6_1450657051" x1="0" y1="460.0" x2="0" y2="495.0" gradientUnits="userSpaceOnUse" xlink:type="simple" xlink:actuate="onLoad" xlink:show="other" /></defs></svg>
