<?xml version="1.0" encoding="UTF-8"?>
<svg xmlns="http://www.w3.org/2000/svg" style="stroke-dasharray:none; shape-rendering:auto; font-family:'Arial'; text-rendering:auto; fill-opacity:1; color-interpolation:auto; color-rendering:auto; font-size:12; fill:black; stroke:black; image-rendering:auto; stroke-miterlimit:10; stroke-linecap:square; stroke-linejoin:miter; font-style:normal; stroke-width:1; stroke-dashoffset:0; font-weight:normal; stroke-opacity:1;" contentScriptType="text/ecmascript" preserveAspectRatio="xMidYMid meet" zoomAndPan="magnify" version="1.0" contentStyleType="text/css" xml:xlink="http://www.w3.org/1999/xlink" width="881" height="750"><rect x="10" y="10" width="871" height="740" ry="0" rx="0" style="stroke:#000000; fill:#FFFFFF" /><rect x="40" y="380" width="841" height="185" ry="0" rx="0" style="stroke:#000000; fill:#ADC9AC" /><g componentSequence="47"><text x="-472" y="47" transform="rotate(270)" text-anchor="middle" style="font-weight:bold;font-size:10px;stroke:none; fill:#434343"><tspan dy="14" x="-472">Departamento Pessoal</tspan></text></g><rect x="40" y="565" width="841" height="185" ry="0" rx="0" style="stroke:#000000; fill:#82B0B7" /><g componentSequence="39"><text x="-657" y="47" transform="rotate(270)" text-anchor="middle" style="font-weight:bold;font-size:10px;stroke:none; fill:#434343"><tspan dy="14" x="-657">Gerente de P&amp;C</tspan></text></g><rect x="40" y="195" width="841" height="185" ry="0" rx="0" style="stroke:#000000; fill:#C0C0C0" /><g componentSequence="3"><text x="-287" y="47" transform="rotate(270)" text-anchor="middle" style="font-weight:bold;font-size:10px;stroke:none; fill:#434343"><tspan dy="14" x="-287">Gestor imediato</tspan></text></g><rect x="40" y="10" width="841" height="185" ry="0" rx="0" style="stroke:#000000; fill:#9F9F9F" /><g componentSequence="2"><text x="-102" y="47" transform="rotate(270)" text-anchor="middle" style="font-weight:bold;font-size:10px;stroke:none; fill:#434343"><tspan dy="14" x="-102">Solicitante</tspan></text></g><g componentSequence="1"><text x="-380" y="17" transform="rotate(270)" text-anchor="middle" style="font-weight:bold;font-size:10px;stroke:none; fill:#434343"><tspan dy="14" x="-380">Solicitação de reembolso creche</tspan></text></g><g sequence="4"><ellipse cx="167" cy="87" rx="17" ry="17" stroke-width="1" style="fill:url(#linearGradient66FF6696FF96B6FFB6_1384169394);" stroke="336633" /></g><g sequence="5"><rect x="120" y="240" width="106" height="70" ry="5" rx="5" style="fill:url(#linearGradientF8FBFEEDF5FCDEEDFAD4E7F8E2E5E9_1548176274);" stroke="191970" /></g><g componentSequence="5"><text x="173" y="255" text-anchor="middle" style="font-weight:bold;font-size:10px;stroke:none; fill:#333399"><tspan dy="14" x="173">Aprovar dados</tspan><tspan dy="14" x="173">financeiros</tspan></text></g><g sequence="21"><polygon points=" 320 454 350 424 380 454 350 484 320 454" style="fill:url(#linearGradientFAFBFCFFFFCC_1484313794);" stroke="000000" /></g><g componentSequence="21"><text x="350" y="494" text-anchor="middle" style="font-weight:bold;font-size:10px;stroke:none; fill:#333399"><tspan dy="14" x="350">Validado</tspan><tspan dy="14" x="350">?</tspan></text></g><g sequence="27"><rect x="300" y="625" width="106" height="70" ry="5" rx="5" style="fill:url(#linearGradientF8FBFEEDF5FCDEEDFAD4E7F8E2E5E9_494551465);" stroke="191970" /></g><g componentSequence="27"><text x="353" y="640" text-anchor="middle" style="font-weight:bold;font-size:10px;stroke:none; fill:#333399"><tspan dy="14" x="353">Aprovar</tspan><tspan dy="14" x="353">pagamento</tspan></text></g><g sequence="44"><ellipse cx="517" cy="474" rx="17" ry="17" stroke-width="3" style="fill:url(#linearGradientFF6666FF9696FFB6B6_1246757019);" stroke="993333" /></g><g sequence="44"><polygon points=" 508 470 513 465 518 470 523 465 528 470 523 475 528 480 523 485 518 480 513 485 508 480 513 475" style="stroke:none; fill:#993333" /></g><g sequence="48"><rect x="120" y="440" width="106" height="70" ry="5" rx="5" style="fill:url(#linearGradientF8FBFEEDF5FCDEEDFAD4E7F8E2E5E9_749590936);" stroke="191970" /></g><g componentSequence="48"><text x="173" y="455" text-anchor="middle" style="font-weight:bold;font-size:10px;stroke:none; fill:#333399"><tspan dy="14" x="173">Validar</tspan><tspan dy="14" x="173">documento</tspan></text></g><g sequence="60"><polygon points=" 480 639 510 609 540 639 510 669 480 639" style="fill:url(#linearGradientFAFBFCFFFFCC_846054923);" stroke="000000" /></g><g componentSequence="60"><text x="510" y="679" text-anchor="middle" style="font-weight:bold;font-size:10px;stroke:none; fill:#333399"><tspan dy="14" x="510">Aprovad</tspan><tspan dy="14" x="510">o?</tspan></text></g><g sequence="62"><ellipse cx="627" cy="607" rx="17" ry="17" stroke-width="3" style="fill:url(#linearGradientFF6666FF9696FFB6B6_2102771430);" stroke="993333" /></g><g sequence="62"><ellipse cx="627" cy="607" rx="12" ry="12" stroke-width="0.5" style="stroke:none; fill:#993333" /></g><g sequence="66"><ellipse cx="627" cy="707" rx="17" ry="17" stroke-width="3" style="fill:url(#linearGradientFF6666FF9696FFB6B6_927677711);" stroke="993333" /></g><g sequence="66"><polygon points=" 618 703 623 698 628 703 633 698 638 703 633 708 638 713 633 718 628 713 623 718 618 713 623 708" style="stroke:none; fill:#993333" /></g><g componentSequence="6"><text x="180" y="172" style="font-size:10px;font-weight:none;stroke:none; fill:#333399" text-anchor="left" /></g><g componentSequence="25"><text x="450" y="474" style="font-size:10px;font-weight:none;stroke:none; fill:#333399" text-anchor="left" /></g><g componentSequence="55"><text x="283" y="475" style="font-size:10px;font-weight:none;stroke:none; fill:#333399" text-anchor="left" /></g><g componentSequence="56"><text x="361" y="575" style="font-size:10px;font-weight:none;stroke:none; fill:#333399" text-anchor="left" /></g><g componentSequence="57"><text x="183" y="375" style="font-size:10px;font-weight:none;stroke:none; fill:#333399" text-anchor="left" /></g><g componentSequence="61"><text x="453" y="660" style="font-size:10px;font-weight:none;stroke:none; fill:#333399" text-anchor="left" /></g><g componentSequence="63"><text x="585" y="631" style="font-size:10px;font-weight:none;stroke:none; fill:#333399" text-anchor="left" /></g><g componentSequence="65"><text x="585" y="686" style="font-size:10px;font-weight:none;stroke:none; fill:#333399" text-anchor="left" /></g><path style="fill:none; stroke:#000000;stroke-width:1" d="M167.0 104.0 L171.0 239.0" /><polygon style="fill:#000000; stroke:#000000;" points=" 176 229 171 239 166 229 171 231" /><path style="fill:none; stroke:#000000;stroke-width:1" d="M173.0 310.0 L173.0 439.0" /><polygon style="fill:#000000; stroke:#000000;" points=" 178 429 173 439 168 429 173 431" /><path style="fill:none; stroke:#000000;stroke-width:1" d="M380.0 474.0 L500.0 474.0" /><polygon style="fill:#000000; stroke:#000000;" points=" 490 469 500 474 490 479 492 474" /><path style="fill:none; stroke:#000000;stroke-width:1" d="M350.0 526.0 L352.0 624.0" /><polygon style="fill:#000000; stroke:#000000;" points=" 357 614 352 624 347 614 352 616" /><path style="fill:none; stroke:#000000;stroke-width:1" d="M226.0 475.0 L319.0 475.0" /><polygon style="fill:#000000; stroke:#000000;" points=" 309 470 319 475 309 480 311 475" /><path style="fill:none; stroke:#000000;stroke-width:1" d="M406.0 660.0 L479.0 660.0" /><polygon style="fill:#000000; stroke:#000000;" points=" 469 655 479 660 469 665 471 660" /><path style="fill:none; stroke:#000000;stroke-width:1" d="M540.0 646.0 L611.0 614.0" /><polygon style="fill:#000000; stroke:#000000;" points=" 600 614 611 614 604 623 604 617" /><path style="fill:none; stroke:#000000;stroke-width:1" d="M540.0 672.0 L611.0 701.0" /><polygon style="fill:#000000; stroke:#000000;" points=" 604 693 611 701 600 702 604 698" /><defs><linearGradient xmlns:xlink="http://www.w3.org/1999/xlink" xlink:href="#linearGradient66FF6696FF96B6FFB6" id="linearGradient66FF6696FF96B6FFB6_1384169394" x1="0" y1="70.0" x2="0" y2="105.0" gradientUnits="userSpaceOnUse" xlink:type="simple" xlink:actuate="onLoad" xlink:show="other" /><linearGradient id="linearGradient66FF6696FF96B6FFB6"><stop style="stop-color:#66FF66;stop-opacity:1;" offset="0.0" id="stop66FF66" /><stop style="stop-color:#96FF96;stop-opacity:1;" offset="0.5" id="stop96FF96" /><stop style="stop-color:#B6FFB6;stop-opacity:1;" offset="1.0" id="stopB6FFB6" /></linearGradient><linearGradient xmlns:xlink="http://www.w3.org/1999/xlink" xlink:href="#linearGradientF8FBFEEDF5FCDEEDFAD4E7F8E2E5E9" id="linearGradientF8FBFEEDF5FCDEEDFAD4E7F8E2E5E9_1548176274" x1="0" y1="240.0" x2="0" y2="346.0" gradientUnits="userSpaceOnUse" xlink:type="simple" xlink:actuate="onLoad" xlink:show="other" /><linearGradient id="linearGradientF8FBFEEDF5FCDEEDFAD4E7F8E2E5E9"><stop style="stop-color:#F8FBFE;stop-opacity:1;" offset="0.0" id="stopF8FBFE" /><stop style="stop-color:#EDF5FC;stop-opacity:1;" offset="0.25" id="stopEDF5FC" /><stop style="stop-color:#DEEDFA;stop-opacity:1;" offset="0.5" id="stopDEEDFA" /><stop style="stop-color:#D4E7F8;stop-opacity:1;" offset="0.75" id="stopD4E7F8" /><stop style="stop-color:#E2E5E9;stop-opacity:1;" offset="1.0" id="stopE2E5E9" /></linearGradient><linearGradient xmlns:xlink="http://www.w3.org/1999/xlink" xlink:href="#linearGradientFAFBFCFFFFCC" id="linearGradientFAFBFCFFFFCC_1484313794" x1="0" y1="424.0" x2="0" y2="484.0" gradientUnits="userSpaceOnUse" xlink:type="simple" xlink:actuate="onLoad" xlink:show="other" /><linearGradient id="linearGradientFAFBFCFFFFCC"><stop style="stop-color:#FAFBFC;stop-opacity:1;" offset="0.0" id="stopFAFBFC" /><stop style="stop-color:#FFFFCC;stop-opacity:1;" offset="1.0" id="stopFFFFCC" /></linearGradient><linearGradient xmlns:xlink="http://www.w3.org/1999/xlink" xlink:href="#linearGradientF8FBFEEDF5FCDEEDFAD4E7F8E2E5E9" id="linearGradientF8FBFEEDF5FCDEEDFAD4E7F8E2E5E9_494551465" x1="0" y1="625.0" x2="0" y2="731.0" gradientUnits="userSpaceOnUse" xlink:type="simple" xlink:actuate="onLoad" xlink:show="other" /><linearGradient xmlns:xlink="http://www.w3.org/1999/xlink" xlink:href="#linearGradientFF6666FF9696FFB6B6" id="linearGradientFF6666FF9696FFB6B6_1246757019" x1="0" y1="457.0" x2="0" y2="492.0" gradientUnits="userSpaceOnUse" xlink:type="simple" xlink:actuate="onLoad" xlink:show="other" /><linearGradient id="linearGradientFF6666FF9696FFB6B6"><stop style="stop-color:#FF6666;stop-opacity:1;" offset="0.0" id="stopFF6666" /><stop style="stop-color:#FF9696;stop-opacity:1;" offset="0.5" id="stopFF9696" /><stop style="stop-color:#FFB6B6;stop-opacity:1;" offset="1.0" id="stopFFB6B6" /></linearGradient><linearGradient xmlns:xlink="http://www.w3.org/1999/xlink" xlink:href="#linearGradientF8FBFEEDF5FCDEEDFAD4E7F8E2E5E9" id="linearGradientF8FBFEEDF5FCDEEDFAD4E7F8E2E5E9_749590936" x1="0" y1="440.0" x2="0" y2="546.0" gradientUnits="userSpaceOnUse" xlink:type="simple" xlink:actuate="onLoad" xlink:show="other" /><linearGradient xmlns:xlink="http://www.w3.org/1999/xlink" xlink:href="#linearGradientFAFBFCFFFFCC" id="linearGradientFAFBFCFFFFCC_846054923" x1="0" y1="609.0" x2="0" y2="669.0" gradientUnits="userSpaceOnUse" xlink:type="simple" xlink:actuate="onLoad" xlink:show="other" /><linearGradient xmlns:xlink="http://www.w3.org/1999/xlink" xlink:href="#linearGradientFF6666FF9696FFB6B6" id="linearGradientFF6666FF9696FFB6B6_2102771430" x1="0" y1="590.0" x2="0" y2="625.0" gradientUnits="userSpaceOnUse" xlink:type="simple" xlink:actuate="onLoad" xlink:show="other" /><linearGradient xmlns:xlink="http://www.w3.org/1999/xlink" xlink:href="#linearGradientFF6666FF9696FFB6B6" id="linearGradientFF6666FF9696FFB6B6_927677711" x1="0" y1="690.0" x2="0" y2="725.0" gradientUnits="userSpaceOnUse" xlink:type="simple" xlink:actuate="onLoad" xlink:show="other" /></defs></svg>
