<?xml version="1.0" encoding="UTF-8"?>
<svg xmlns="http://www.w3.org/2000/svg" style="stroke-dasharray:none; shape-rendering:auto; font-family:'Arial'; text-rendering:auto; fill-opacity:1; color-interpolation:auto; color-rendering:auto; font-size:12; fill:black; stroke:black; image-rendering:auto; stroke-miterlimit:10; stroke-linecap:square; stroke-linejoin:miter; font-style:normal; stroke-width:1; stroke-dashoffset:0; font-weight:normal; stroke-opacity:1;" contentScriptType="text/ecmascript" preserveAspectRatio="xMidYMid meet" zoomAndPan="magnify" version="1.0" contentStyleType="text/css" xml:xlink="http://www.w3.org/1999/xlink" width="1191" height="601"><rect x="10" y="10" width="1181" height="591" ry="0" rx="0" style="stroke:#000000; fill:#FFFFFF" /><rect x="40" y="304" width="1151" height="147" ry="0" rx="0" style="stroke:#000000; fill:#ADC9AC" /><g componentSequence="30"><text x="-377" y="47" transform="rotate(270)" text-anchor="middle" style="font-weight:bold;font-size:10px;stroke:none; fill:#434343"><tspan dy="14" x="-377">Diretor Financeiro</tspan></text></g><rect x="40" y="451" width="1151" height="150" ry="0" rx="0" style="stroke:#000000; fill:#82B0B7" /><g componentSequence="9"><text x="-526" y="47" transform="rotate(270)" text-anchor="middle" style="font-weight:bold;font-size:10px;stroke:none; fill:#434343"><tspan dy="14" x="-526">Tesouraria</tspan></text></g><rect x="40" y="157" width="1151" height="147" ry="0" rx="0" style="stroke:#000000; fill:#C0C0C0" /><g componentSequence="3"><text x="-230" y="47" transform="rotate(270)" text-anchor="middle" style="font-weight:bold;font-size:10px;stroke:none; fill:#434343"><tspan dy="14" x="-230">Gestor</tspan></text></g><rect x="40" y="10" width="1151" height="147" ry="0" rx="0" style="stroke:#000000; fill:#9F9F9F" /><g componentSequence="2"><text x="-83" y="47" transform="rotate(270)" text-anchor="middle" style="font-weight:bold;font-size:10px;stroke:none; fill:#434343"><tspan dy="14" x="-83">Solicitante</tspan></text></g><g componentSequence="1"><text x="-305" y="17" transform="rotate(270)" text-anchor="middle" style="font-weight:bold;font-size:10px;stroke:none; fill:#434343"><tspan dy="14" x="-305">Solicitação de Adiantamento ao Fornecedor</tspan></text></g><g sequence="4"><ellipse cx="167" cy="99" rx="17" ry="17" stroke-width="1" style="fill:url(#linearGradient66FF6696FF96B6FFB6_1872062417);" stroke="336633" /></g><g sequence="5"><rect x="370" y="351" width="106" height="56" ry="5" rx="5" style="fill:url(#linearGradientF8FBFEEDF5FCDEEDFAD4E7F8E2E5E9_1632801875);" stroke="191970" /></g><g componentSequence="5"><text x="423" y="368" text-anchor="middle" style="font-weight:bold;font-size:10px;stroke:none; fill:#333399"><tspan dy="14" x="423">Aprovar ADF</tspan></text></g><rect x="210" y="20" width="105" height="55" ry="5" rx="5" style="stroke:none; fill:#FFFFE0" /><g componentSequence="7"><text x="220" y="33" text-anchor="left" style="font-weight:bold;font-size:10px;stroke:none; fill:#000000"><tspan dy="14" x="220">Start</tspan></text></g><path style="fill:none; stroke-width:1; stroke:#000000;" d="M230.0 20.0 L210.0 20.0 L210.0 75.0 L230.0 75.0" /><g sequence="10"><rect x="770" y="493" width="106" height="70" ry="5" rx="5" style="fill:url(#linearGradientF8FBFEEDF5FCDEEDFAD4E7F8E2E5E9_1701645473);" stroke="191970" /></g><g componentSequence="10"><text x="823" y="508" text-anchor="middle" style="font-weight:bold;font-size:10px;stroke:none; fill:#333399"><tspan dy="14" x="823">Gerar</tspan><tspan dy="14" x="823">adiantamento</tspan></text></g><g sequence="14"><ellipse cx="857" cy="378" rx="17" ry="17" stroke-width="3" style="fill:url(#linearGradientFF6666FF9696FFB6B6_544185960);" stroke="993333" /></g><g sequence="18"><ellipse cx="987" cy="487" rx="17" ry="17" stroke-width="3" style="fill:url(#linearGradientFF6666FF9696FFB6B6_1677774427);" stroke="993333" /></g><g sequence="24"><rect x="720" y="36" width="106" height="98" ry="5" rx="5" style="fill:url(#linearGradientF8FBFEEDF5FCDEEDFAD4E7F8E2E5E9_293944964);" stroke="191970" /></g><g componentSequence="24"><text x="773" y="51" text-anchor="middle" style="font-weight:bold;font-size:10px;stroke:none; fill:#333399"><tspan dy="14" x="773">Gerar</tspan><tspan dy="14" x="773">adiantamento de</tspan><tspan dy="14" x="773">cartão de</tspan><tspan dy="14" x="773">credito</tspan></text></g><g sequence="26"><ellipse cx="927" cy="84" rx="17" ry="17" stroke-width="3" style="fill:url(#linearGradientFF6666FF9696FFB6B6_469774353);" stroke="993333" /></g><g sequence="29"><polygon points=" 560 351 590 321 620 351 590 381 560 351" style="fill:url(#linearGradientFAFBFCFFFFCC_1077960999);" stroke="000000" /></g><g componentSequence="29"><text x="590" y="391" text-anchor="middle" style="font-weight:bold;font-size:10px;stroke:none; fill:#333399"><tspan dy="14" x="590">Verifica</tspan><tspan dy="14" x="590">aprovaç</tspan><tspan dy="14" x="590">ão</tspan></text></g><g sequence="31"><rect x="230" y="190" width="106" height="70" ry="5" rx="5" style="fill:url(#linearGradientF8FBFEEDF5FCDEEDFAD4E7F8E2E5E9_575671650);" stroke="191970" /></g><g componentSequence="31"><text x="283" y="205" text-anchor="middle" style="font-weight:bold;font-size:10px;stroke:none; fill:#333399"><tspan dy="14" x="283">Aprovar</tspan><tspan dy="14" x="283">solicitação</tspan></text></g><g sequence="33"><polygon points=" 390 204 420 174 450 204 420 234 390 204" style="fill:url(#linearGradientFAFBFCFFFFCC_437872306);" stroke="000000" /></g><g componentSequence="33"><text x="420" y="244" text-anchor="middle" style="font-weight:bold;font-size:10px;stroke:none; fill:#333399"><tspan dy="14" x="420">Verificar</tspan><tspan dy="14" x="420">aprovaç</tspan><tspan dy="14" x="420">ão</tspan></text></g><g sequence="36"><ellipse cx="507" cy="231" rx="17" ry="17" stroke-width="3" style="fill:url(#linearGradientFF6666FF9696FFB6B6_117726552);" stroke="993333" /></g><g sequence="40"><ellipse cx="987" cy="557" rx="17" ry="17" stroke-width="3" style="fill:url(#linearGradientFF6666FF9696FFB6B6_1141792198);" stroke="993333" /></g><g sequence="40"><polygon points=" 978 553 983 548 988 553 993 548 998 553 993 558 998 563 993 568 988 563 983 568 978 563 983 558" style="stroke:none; fill:#993333" /></g><g componentSequence="8"><text x="182" y="48" style="font-size:10px;font-weight:none;stroke:none; fill:#333399" text-anchor="left" /></g><g componentSequence="19"><text x="933" y="503" style="font-size:10px;font-weight:none;stroke:none; fill:#333399" text-anchor="left" /></g><g componentSequence="21"><text x="528" y="379" style="font-size:10px;font-weight:none;stroke:none; fill:#333399" text-anchor="left" /></g><g componentSequence="22"><text x="740" y="378" style="font-size:10px;font-weight:none;stroke:none; fill:#333399" text-anchor="left" /></g><g componentSequence="23"><text x="644" y="527" style="font-size:10px;font-weight:none;stroke:none; fill:#333399" text-anchor="left" /></g><g componentSequence="25"><text x="599" y="138" style="font-size:10px;font-weight:none;stroke:none; fill:#333399" text-anchor="left" /></g><g componentSequence="27"><text x="878" y="84" style="font-size:10px;font-weight:none;stroke:none; fill:#333399" text-anchor="left" /></g><g componentSequence="32"><text x="177" y="202" style="font-size:10px;font-weight:none;stroke:none; fill:#333399" text-anchor="left" /></g><g componentSequence="34"><text x="373" y="229" style="font-size:10px;font-weight:none;stroke:none; fill:#333399" text-anchor="left" /></g><g componentSequence="35"><text x="432" y="320" style="font-size:10px;font-weight:none;stroke:none; fill:#333399" text-anchor="left" /></g><g componentSequence="37"><text x="480" y="231" style="font-size:10px;font-weight:none;stroke:none; fill:#333399" text-anchor="left" /></g><g componentSequence="39"><text x="933" y="546" style="font-size:10px;font-weight:none;stroke:none; fill:#333399" text-anchor="left" /></g><path style="fill:none; stroke:#000000;stroke-width:1" d="M167.0 117.0 L167.0 224.0 L229.0 224.0" /><polygon style="fill:#000000; stroke:#000000;" points=" 219 219 229 224 219 229 221 224" /><path style="fill:none; stroke:#000000;stroke-dasharray:2" d="M209.0 48.0 L167.0 48.0 L167.0 81.0" /><path style="fill:none; stroke:#000000;stroke-width:1" d="M476.0 379.0 L559.0 379.0" /><polygon style="fill:#000000; stroke:#000000;" points=" 549 374 559 379 549 384 551 379" /><path style="fill:none; stroke:#000000;stroke-width:1" d="M421.0 290.0 L422.0 350.0" /><polygon style="fill:#000000; stroke:#000000;" points=" 427 340 422 350 417 340 422 342" /><path style="fill:none; stroke:#000000;stroke-width:1" d="M876.0 514.0 L970.0 491.0" /><polygon style="fill:#000000; stroke:#000000;" points=" 959 489 970 491 961 498 962 493" /><path style="fill:none; stroke:#000000;stroke-width:1" d="M876.0 537.0 L970.0 554.0" /><polygon style="fill:#000000; stroke:#000000;" points=" 961 547 970 554 959 557 962 553" /><path style="fill:none; stroke:#000000;stroke-width:1" d="M589.0 437.0 L589.0 527.0 L769.0 527.0" /><polygon style="fill:#000000; stroke:#000000;" points=" 759 522 769 527 759 532 761 527" /><path style="fill:none; stroke:#000000;stroke-width:1" d="M620.0 378.0 L840.0 378.0" /><polygon style="fill:#000000; stroke:#000000;" points=" 830 373 840 378 830 383 832 378" /><path style="fill:none; stroke:#000000;stroke-width:1" d="M826.0 84.0 L910.0 84.0" /><polygon style="fill:#000000; stroke:#000000;" points=" 900 79 910 84 900 89 902 84" /><path style="fill:none; stroke:#000000;stroke-width:1" d="M589.0 320.0 L589.0 85.0 L719.0 85.0" /><polygon style="fill:#000000; stroke:#000000;" points=" 709 80 719 85 709 90 711 85" /><path style="fill:none; stroke:#000000;stroke-width:1" d="M336.0 227.0 L389.0 230.0" /><polygon style="fill:#000000; stroke:#000000;" points=" 379 224 389 230 379 234 381 230" /><path style="fill:none; stroke:#000000;stroke-width:1" d="M450.0 231.0 L490.0 231.0" /><polygon style="fill:#000000; stroke:#000000;" points=" 480 226 490 231 480 236 482 231" /><defs><linearGradient xmlns:xlink="http://www.w3.org/1999/xlink" xlink:href="#linearGradient66FF6696FF96B6FFB6" id="linearGradient66FF6696FF96B6FFB6_1872062417" x1="0" y1="82.0" x2="0" y2="117.0" gradientUnits="userSpaceOnUse" xlink:type="simple" xlink:actuate="onLoad" xlink:show="other" /><linearGradient id="linearGradient66FF6696FF96B6FFB6"><stop style="stop-color:#66FF66;stop-opacity:1;" offset="0.0" id="stop66FF66" /><stop style="stop-color:#96FF96;stop-opacity:1;" offset="0.5" id="stop96FF96" /><stop style="stop-color:#B6FFB6;stop-opacity:1;" offset="1.0" id="stopB6FFB6" /></linearGradient><linearGradient xmlns:xlink="http://www.w3.org/1999/xlink" xlink:href="#linearGradientF8FBFEEDF5FCDEEDFAD4E7F8E2E5E9" id="linearGradientF8FBFEEDF5FCDEEDFAD4E7F8E2E5E9_1632801875" x1="0" y1="351.0" x2="0" y2="457.0" gradientUnits="userSpaceOnUse" xlink:type="simple" xlink:actuate="onLoad" xlink:show="other" /><linearGradient id="linearGradientF8FBFEEDF5FCDEEDFAD4E7F8E2E5E9"><stop style="stop-color:#F8FBFE;stop-opacity:1;" offset="0.0" id="stopF8FBFE" /><stop style="stop-color:#EDF5FC;stop-opacity:1;" offset="0.25" id="stopEDF5FC" /><stop style="stop-color:#DEEDFA;stop-opacity:1;" offset="0.5" id="stopDEEDFA" /><stop style="stop-color:#D4E7F8;stop-opacity:1;" offset="0.75" id="stopD4E7F8" /><stop style="stop-color:#E2E5E9;stop-opacity:1;" offset="1.0" id="stopE2E5E9" /></linearGradient><linearGradient xmlns:xlink="http://www.w3.org/1999/xlink" xlink:href="#linearGradientF8FBFEEDF5FCDEEDFAD4E7F8E2E5E9" id="linearGradientF8FBFEEDF5FCDEEDFAD4E7F8E2E5E9_1701645473" x1="0" y1="493.0" x2="0" y2="599.0" gradientUnits="userSpaceOnUse" xlink:type="simple" xlink:actuate="onLoad" xlink:show="other" /><linearGradient xmlns:xlink="http://www.w3.org/1999/xlink" xlink:href="#linearGradientFF6666FF9696FFB6B6" id="linearGradientFF6666FF9696FFB6B6_544185960" x1="0" y1="361.0" x2="0" y2="396.0" gradientUnits="userSpaceOnUse" xlink:type="simple" xlink:actuate="onLoad" xlink:show="other" /><linearGradient id="linearGradientFF6666FF9696FFB6B6"><stop style="stop-color:#FF6666;stop-opacity:1;" offset="0.0" id="stopFF6666" /><stop style="stop-color:#FF9696;stop-opacity:1;" offset="0.5" id="stopFF9696" /><stop style="stop-color:#FFB6B6;stop-opacity:1;" offset="1.0" id="stopFFB6B6" /></linearGradient><linearGradient xmlns:xlink="http://www.w3.org/1999/xlink" xlink:href="#linearGradientFF6666FF9696FFB6B6" id="linearGradientFF6666FF9696FFB6B6_1677774427" x1="0" y1="470.0" x2="0" y2="505.0" gradientUnits="userSpaceOnUse" xlink:type="simple" xlink:actuate="onLoad" xlink:show="other" /><linearGradient xmlns:xlink="http://www.w3.org/1999/xlink" xlink:href="#linearGradientF8FBFEEDF5FCDEEDFAD4E7F8E2E5E9" id="linearGradientF8FBFEEDF5FCDEEDFAD4E7F8E2E5E9_293944964" x1="0" y1="36.0" x2="0" y2="142.0" gradientUnits="userSpaceOnUse" xlink:type="simple" xlink:actuate="onLoad" xlink:show="other" /><linearGradient xmlns:xlink="http://www.w3.org/1999/xlink" xlink:href="#linearGradientFF6666FF9696FFB6B6" id="linearGradientFF6666FF9696FFB6B6_469774353" x1="0" y1="67.0" x2="0" y2="102.0" gradientUnits="userSpaceOnUse" xlink:type="simple" xlink:actuate="onLoad" xlink:show="other" /><linearGradient xmlns:xlink="http://www.w3.org/1999/xlink" xlink:href="#linearGradientFAFBFCFFFFCC" id="linearGradientFAFBFCFFFFCC_1077960999" x1="0" y1="321.0" x2="0" y2="381.0" gradientUnits="userSpaceOnUse" xlink:type="simple" xlink:actuate="onLoad" xlink:show="other" /><linearGradient id="linearGradientFAFBFCFFFFCC"><stop style="stop-color:#FAFBFC;stop-opacity:1;" offset="0.0" id="stopFAFBFC" /><stop style="stop-color:#FFFFCC;stop-opacity:1;" offset="1.0" id="stopFFFFCC" /></linearGradient><linearGradient xmlns:xlink="http://www.w3.org/1999/xlink" xlink:href="#linearGradientF8FBFEEDF5FCDEEDFAD4E7F8E2E5E9" id="linearGradientF8FBFEEDF5FCDEEDFAD4E7F8E2E5E9_575671650" x1="0" y1="190.0" x2="0" y2="296.0" gradientUnits="userSpaceOnUse" xlink:type="simple" xlink:actuate="onLoad" xlink:show="other" /><linearGradient xmlns:xlink="http://www.w3.org/1999/xlink" xlink:href="#linearGradientFAFBFCFFFFCC" id="linearGradientFAFBFCFFFFCC_437872306" x1="0" y1="174.0" x2="0" y2="234.0" gradientUnits="userSpaceOnUse" xlink:type="simple" xlink:actuate="onLoad" xlink:show="other" /><linearGradient xmlns:xlink="http://www.w3.org/1999/xlink" xlink:href="#linearGradientFF6666FF9696FFB6B6" id="linearGradientFF6666FF9696FFB6B6_117726552" x1="0" y1="214.0" x2="0" y2="249.0" gradientUnits="userSpaceOnUse" xlink:type="simple" xlink:actuate="onLoad" xlink:show="other" /><linearGradient xmlns:xlink="http://www.w3.org/1999/xlink" xlink:href="#linearGradientFF6666FF9696FFB6B6" id="linearGradientFF6666FF9696FFB6B6_1141792198" x1="0" y1="540.0" x2="0" y2="575.0" gradientUnits="userSpaceOnUse" xlink:type="simple" xlink:actuate="onLoad" xlink:show="other" /></defs></svg>
