<?xml version="1.0" encoding="UTF-8"?>
<svg xmlns="http://www.w3.org/2000/svg" style="stroke-dasharray:none; shape-rendering:auto; font-family:'Arial'; text-rendering:auto; fill-opacity:1; color-interpolation:auto; color-rendering:auto; font-size:12; fill:black; stroke:black; image-rendering:auto; stroke-miterlimit:10; stroke-linecap:square; stroke-linejoin:miter; font-style:normal; stroke-width:1; stroke-dashoffset:0; font-weight:normal; stroke-opacity:1;" contentScriptType="text/ecmascript" preserveAspectRatio="xMidYMid meet" zoomAndPan="magnify" version="1.0" contentStyleType="text/css" xml:xlink="http://www.w3.org/1999/xlink" width="1761" height="1561"><rect x="10" y="10" width="1751" height="1551" ry="0" rx="0" style="stroke:#000000; fill:#FFFFFF" /><rect x="40" y="1300" width="1721" height="261" ry="0" rx="0" style="stroke:#000000; fill:#D6E0D0" /><g componentSequence="114"><text x="-1430" y="47" transform="rotate(270)" text-anchor="middle" style="font-weight:bold;font-size:10px;stroke:none; fill:#434343"><tspan dy="14" x="-1430">Diretoria Nacional</tspan></text></g><rect x="40" y="784" width="1721" height="258" ry="0" rx="0" style="stroke:#000000; fill:#ADC9AC" /><g componentSequence="30"><text x="-913" y="47" transform="rotate(270)" text-anchor="middle" style="font-weight:bold;font-size:10px;stroke:none; fill:#434343"><tspan dy="14" x="-913">Diretor Financeiro</tspan></text></g><rect x="40" y="1042" width="1721" height="258" ry="0" rx="0" style="stroke:#000000; fill:#D0DAAE" /><g componentSequence="41"><text x="-1171" y="47" transform="rotate(270)" text-anchor="middle" style="font-weight:bold;font-size:10px;stroke:none; fill:#434343"><tspan dy="14" x="-1171">Comitê de compras</tspan></text></g><rect x="40" y="268" width="1721" height="258" ry="0" rx="0" style="stroke:#000000; fill:#82B0B7" /><g componentSequence="9"><text x="-397" y="47" transform="rotate(270)" text-anchor="middle" style="font-weight:bold;font-size:10px;stroke:none; fill:#434343"><tspan dy="14" x="-397">Tesouraria</tspan></text></g><rect x="40" y="526" width="1721" height="258" ry="0" rx="0" style="stroke:#000000; fill:#C0C0C0" /><g componentSequence="3"><text x="-655" y="47" transform="rotate(270)" text-anchor="middle" style="font-weight:bold;font-size:10px;stroke:none; fill:#434343"><tspan dy="14" x="-655">Gerente de ADM</tspan></text></g><rect x="40" y="10" width="1721" height="258" ry="0" rx="0" style="stroke:#000000; fill:#9F9F9F" /><g componentSequence="2"><text x="-139" y="47" transform="rotate(270)" text-anchor="middle" style="font-weight:bold;font-size:10px;stroke:none; fill:#434343"><tspan dy="14" x="-139">Administração</tspan></text></g><g componentSequence="1"><text x="-785" y="17" transform="rotate(270)" text-anchor="middle" style="font-weight:bold;font-size:10px;stroke:none; fill:#434343"><tspan dy="14" x="-785">Solicitação de Adiantamento ao Fornecedor</tspan></text></g><g sequence="4"><ellipse cx="167" cy="99" rx="17" ry="17" stroke-width="1" style="fill:url(#linearGradient66FF6696FF96B6FFB6_1718244274);" stroke="336633" /></g><g sequence="5"><rect x="430" y="860" width="106" height="56" ry="5" rx="5" style="fill:url(#linearGradientF8FBFEEDF5FCDEEDFAD4E7F8E2E5E9_1756209423);" stroke="191970" /></g><g componentSequence="5"><text x="483" y="877" text-anchor="middle" style="font-weight:bold;font-size:10px;stroke:none; fill:#333399"><tspan dy="14" x="483">Aprovar ADF</tspan></text></g><rect x="210" y="20" width="105" height="55" ry="5" rx="5" style="stroke:none; fill:#FFFFE0" /><g componentSequence="7"><text x="220" y="33" text-anchor="left" style="font-weight:bold;font-size:10px;stroke:none; fill:#000000"><tspan dy="14" x="220">Start</tspan></text></g><path style="fill:none; stroke-width:1; stroke:#000000;" d="M230.0 20.0 L210.0 20.0 L210.0 75.0 L230.0 75.0" /><g sequence="10"><rect x="1520" y="350" width="106" height="70" ry="5" rx="5" style="fill:url(#linearGradientF8FBFEEDF5FCDEEDFAD4E7F8E2E5E9_1821522114);" stroke="191970" /></g><g componentSequence="10"><text x="1573" y="365" text-anchor="middle" style="font-weight:bold;font-size:10px;stroke:none; fill:#333399"><tspan dy="14" x="1573">Gerar</tspan><tspan dy="14" x="1573">adiantamento</tspan></text></g><g sequence="24"><rect x="1340" y="70" width="106" height="98" ry="5" rx="5" style="fill:url(#linearGradientF8FBFEEDF5FCDEEDFAD4E7F8E2E5E9_697346868);" stroke="191970" /></g><g componentSequence="24"><text x="1393" y="85" text-anchor="middle" style="font-weight:bold;font-size:10px;stroke:none; fill:#333399"><tspan dy="14" x="1393">Gerar</tspan><tspan dy="14" x="1393">adiantamento de</tspan><tspan dy="14" x="1393">cartão de</tspan><tspan dy="14" x="1393">credito</tspan></text></g><g sequence="26"><ellipse cx="1607" cy="117" rx="17" ry="17" stroke-width="3" style="fill:url(#linearGradientFF6666FF9696FFB6B6_492014199);" stroke="993333" /></g><g sequence="31"><rect x="230" y="640" width="106" height="56" ry="5" rx="5" style="fill:url(#linearGradientF8FBFEEDF5FCDEEDFAD4E7F8E2E5E9_410248459);" stroke="191970" /></g><g componentSequence="31"><text x="283" y="657" text-anchor="middle" style="font-weight:bold;font-size:10px;stroke:none; fill:#333399"><tspan dy="14" x="283">Aprovar ADF</tspan></text></g><g sequence="40"><ellipse cx="1717" cy="447" rx="17" ry="17" stroke-width="3" style="fill:url(#linearGradientFF6666FF9696FFB6B6_1700436719);" stroke="993333" /></g><g sequence="40"><polygon points=" 1708 443 1713 438 1718 443 1723 438 1728 443 1723 448 1728 453 1723 458 1718 453 1713 458 1708 453 1713 448" style="stroke:none; fill:#993333" /></g><g sequence="46"><rect x="1360" y="1377" width="106" height="56" ry="5" rx="5" style="fill:url(#linearGradientF8FBFEEDF5FCDEEDFAD4E7F8E2E5E9_1237275771);" stroke="191970" /></g><g componentSequence="46"><text x="1413" y="1394" text-anchor="middle" style="font-weight:bold;font-size:10px;stroke:none; fill:#333399"><tspan dy="14" x="1413">Aprovar ADF</tspan></text></g><g sequence="48"><rect x="590" y="1090" width="106" height="56" ry="5" rx="5" style="fill:url(#linearGradientF8FBFEEDF5FCDEEDFAD4E7F8E2E5E9_1220439817);" stroke="191970" /></g><g componentSequence="48"><text x="643" y="1107" text-anchor="middle" style="font-weight:bold;font-size:10px;stroke:none; fill:#333399"><tspan dy="14" x="643">Aprovar ADF</tspan></text></g><g sequence="50"><rect x="760" y="1090" width="106" height="56" ry="5" rx="5" style="fill:url(#linearGradientF8FBFEEDF5FCDEEDFAD4E7F8E2E5E9_1331855528);" stroke="191970" /></g><g componentSequence="50"><text x="813" y="1107" text-anchor="middle" style="font-weight:bold;font-size:10px;stroke:none; fill:#333399"><tspan dy="14" x="813">Aprovar ADF</tspan></text></g><g sequence="52"><rect x="920" y="1090" width="106" height="56" ry="5" rx="5" style="fill:url(#linearGradientF8FBFEEDF5FCDEEDFAD4E7F8E2E5E9_2120152649);" stroke="191970" /></g><g componentSequence="52"><text x="973" y="1107" text-anchor="middle" style="font-weight:bold;font-size:10px;stroke:none; fill:#333399"><tspan dy="14" x="973">Aprovar ADF</tspan></text></g><g sequence="54"><rect x="1080" y="1090" width="106" height="56" ry="5" rx="5" style="fill:url(#linearGradientF8FBFEEDF5FCDEEDFAD4E7F8E2E5E9_1307666805);" stroke="191970" /></g><g componentSequence="54"><text x="1133" y="1107" text-anchor="middle" style="font-weight:bold;font-size:10px;stroke:none; fill:#333399"><tspan dy="14" x="1133">Aprovar ADF</tspan></text></g><g sequence="63"><ellipse cx="977" cy="1247" rx="17" ry="17" stroke-width="3" style="fill:url(#linearGradientFF6666FF9696FFB6B6_1988923877);" stroke="993333" /></g><g sequence="75"><polygon points=" 450 650 480 620 510 650 480 680 450 650" style="fill:url(#linearGradientFAFBFCFFFFCC_758134876);" stroke="000000" /></g><g componentSequence="75"><text x="480" y="690" text-anchor="middle" style="font-weight:bold;font-size:10px;stroke:none; fill:#333399"><tspan dy="14" x="480">Aprovad</tspan><tspan dy="14" x="480">o</tspan></text></g><g sequence="79"><ellipse cx="1717" cy="327" rx="17" ry="17" stroke-width="3" style="fill:url(#linearGradientFF6666FF9696FFB6B6_609582861);" stroke="993333" /></g><g sequence="81"><polygon points=" 610 870 640 840 670 870 640 900 610 870" style="fill:url(#linearGradientFAFBFCFFFFCC_1655242803);" stroke="000000" /></g><g componentSequence="81"><text x="640" y="910" text-anchor="middle" style="font-weight:bold;font-size:10px;stroke:none; fill:#333399"><tspan dy="14" x="640">Aprovad</tspan><tspan dy="14" x="640">o</tspan></text></g><g sequence="90"><polygon points=" 1240 1110 1270 1080 1300 1110 1270 1140 1240 1110" style="fill:url(#linearGradientFAFBFCFFFFCC_1891153466);" stroke="000000" /></g><g componentSequence="90"><text x="1270" y="1150" text-anchor="middle" style="font-weight:bold;font-size:10px;stroke:none; fill:#333399"><tspan dy="14" x="1270">Aprovad</tspan><tspan dy="14" x="1270">o</tspan></text></g><g sequence="94"><polygon points=" 1370 370 1400 340 1430 370 1400 400 1370 370" style="fill:url(#linearGradientFAFBFCFFFFCC_1550226089);" stroke="000000" /></g><g componentSequence="94"><text x="1400" y="410" text-anchor="middle" style="font-weight:bold;font-size:10px;stroke:none; fill:#333399"><tspan dy="14" x="1400">aprovad</tspan><tspan dy="14" x="1400">o</tspan></text></g><g sequence="99"><polygon points=" 140 190 170 160 200 190 170 220 140 190" style="fill:url(#linearGradientFAFBFCFFFFCC_1396974399);" stroke="000000" /></g><g componentSequence="99"><text x="170" y="230" text-anchor="middle" style="font-weight:bold;font-size:10px;stroke:none; fill:#333399"><tspan dy="14" x="170">Verifica</tspan><tspan dy="14" x="170">orçada</tspan></text></g><g componentSequence="8"><text x="182" y="48" style="font-size:10px;font-weight:none;stroke:none; fill:#333399" text-anchor="left" /></g><g componentSequence="27"><text x="1528" y="118" style="font-size:10px;font-weight:none;stroke:none; fill:#333399" text-anchor="left" /></g><g componentSequence="39"><text x="1673" y="424" style="font-size:10px;font-weight:none;stroke:none; fill:#333399" text-anchor="left" /></g><g componentSequence="76"><text x="403" y="669" style="font-size:10px;font-weight:none;stroke:none; fill:#333399" text-anchor="left" /></g><g componentSequence="77"><text x="491" y="791" style="font-size:10px;font-weight:none;stroke:none; fill:#333399" text-anchor="left" /></g><g componentSequence="80"><text x="1673" y="349" style="font-size:10px;font-weight:none;stroke:none; fill:#333399" text-anchor="left" /></g><g componentSequence="82"><text x="583" y="890" style="font-size:10px;font-weight:none;stroke:none; fill:#333399" text-anchor="left" /></g><g componentSequence="83"><text x="790" y="390" style="font-size:10px;font-weight:none;stroke:none; fill:#333399" text-anchor="left" /></g><g componentSequence="84"><text x="651" y="1016" style="font-size:10px;font-weight:none;stroke:none; fill:#333399" text-anchor="left" /></g><g componentSequence="85"><text x="738" y="1118" style="font-size:10px;font-weight:none;stroke:none; fill:#333399" text-anchor="left" /></g><g componentSequence="86"><text x="903" y="1118" style="font-size:10px;font-weight:none;stroke:none; fill:#333399" text-anchor="left" /></g><g componentSequence="89"><text x="1063" y="1118" style="font-size:10px;font-weight:none;stroke:none; fill:#333399" text-anchor="left" /></g><g componentSequence="91"><text x="1223" y="1126" style="font-size:10px;font-weight:none;stroke:none; fill:#333399" text-anchor="left" /></g><g componentSequence="92"><text x="1357" y="1279" style="font-size:10px;font-weight:none;stroke:none; fill:#333399" text-anchor="left" /></g><g componentSequence="93"><text x="1278" y="684" style="font-size:10px;font-weight:none;stroke:none; fill:#333399" text-anchor="left" /></g><g componentSequence="95"><text x="820" y="390" style="font-size:10px;font-weight:none;stroke:none; fill:#333399" text-anchor="left" /></g><g componentSequence="96"><text x="1485" y="389" style="font-size:10px;font-weight:none;stroke:none; fill:#333399" text-anchor="left" /></g><g componentSequence="97"><text x="1406" y="254" style="font-size:10px;font-weight:none;stroke:none; fill:#333399" text-anchor="left" /></g><g componentSequence="98"><text x="1416" y="909" style="font-size:10px;font-weight:none;stroke:none; fill:#333399" text-anchor="left" /></g><g componentSequence="100"><text x="178" y="138" style="font-size:10px;font-weight:none;stroke:none; fill:#333399" text-anchor="left" /></g><g componentSequence="101"><text x="291" y="383" style="font-size:10px;font-weight:none;stroke:none; fill:#333399" text-anchor="left" /></g><g componentSequence="102"><text x="178" y="704" style="font-size:10px;font-weight:none;stroke:none; fill:#333399" text-anchor="left" /></g><g componentSequence="103"><text x="985" y="1188" style="font-size:10px;font-weight:none;stroke:none; fill:#333399" text-anchor="left" /></g><g componentSequence="104"><text x="760" y="1246" style="font-size:10px;font-weight:none;stroke:none; fill:#333399" text-anchor="left" /></g><g componentSequence="106"><text x="1057" y="1189" style="font-size:10px;font-weight:none;stroke:none; fill:#333399" text-anchor="left" /></g><g componentSequence="107"><text x="950" y="1270" style="font-size:10px;font-weight:none;stroke:none; fill:#333399" text-anchor="left"><tspan dy="14" x="950">reprovado</tspan></text></g><g componentSequence="108"><text x="566" y="1245" style="font-size:10px;font-weight:none;stroke:none; fill:#333399" text-anchor="left" /></g><g componentSequence="109"><text x="355" y="1245" style="font-size:10px;font-weight:none;stroke:none; fill:#333399" text-anchor="left" /></g><g componentSequence="115"><text x="1187" y="1320" style="font-size:10px;font-weight:none;stroke:none; fill:#333399" text-anchor="left" /></g><path style="fill:none; stroke:#000000;stroke-width:1" d="M166.0 116.0 L168.0 158.0" /><polygon style="fill:#000000; stroke:#000000;" points=" 173 148 168 158 163 148 168 150" /><path style="fill:none; stroke:#000000;stroke-dasharray:2" d="M208.0 48.0 L167.0 48.0 L166.0 80.0" /><path style="fill:none; stroke:#000000;stroke-width:1" d="M536.0 888.0 L608.0 890.0" /><polygon style="fill:#000000; stroke:#000000;" points=" 598 885 608 890 598 895 600 890" /><polygon style="fill:#000000; stroke:#000000;" points=" 541 883 551 893" /><path style="fill:none; stroke:#000000;stroke-width:1" d="M481.0 916.0 L481.0 1245.0 L960.0 1246.0" /><polygon style="fill:#000000; stroke:#000000;" points=" 950 1241 960 1246 950 1251 952 1246" /><path style="fill:none; stroke:#000000;stroke-width:1" d="M480.0 722.0 L481.0 858.0" /><polygon style="fill:#000000; stroke:#000000;" points=" 486 848 481 858 476 848 481 850" /><path style="fill:none; stroke:#000000;stroke-width:1" d="M169.0 262.0 L168.0 885.0 L428.0 886.0" /><polygon style="fill:#000000; stroke:#000000;" points=" 418 881 428 886 418 891 420 886" /><path style="fill:none; stroke:#000000;stroke-width:1" d="M1626.0 408.0 L1701.0 440.0" /><polygon style="fill:#000000; stroke:#000000;" points=" 1694 431 1701 440 1690 441 1694 437" /><path style="fill:none; stroke:#000000;stroke-width:1" d="M1626.0 362.0 L1700.0 333.0" /><polygon style="fill:#000000; stroke:#000000;" points=" 1689 332 1700 333 1693 341 1693 336" /><polygon style="fill:#000000; stroke:#000000;" points=" 1629 356 1642 361" /><path style="fill:none; stroke:#000000;stroke-width:1" d="M1430.0 389.0 L1518.0 386.0" /><polygon style="fill:#000000; stroke:#000000;" points=" 1508 381 1518 386 1508 391 1510 386" /><path style="fill:none; stroke:#000000;stroke-width:1" d="M1446.0 117.0 L1589.0 117.0" /><polygon style="fill:#000000; stroke:#000000;" points=" 1579 112 1589 117 1579 122 1581 117" /><path style="fill:none; stroke:#000000;stroke-width:1" d="M1397.0 338.0 L1394.0 168.0" /><polygon style="fill:#000000; stroke:#000000;" points=" 1389 178 1394 168 1399 178 1394 176" /><path style="fill:none; stroke:#000000;stroke-width:1" d="M336.0 668.0 L448.0 670.0" /><polygon style="fill:#000000; stroke:#000000;" points=" 438 665 448 670 438 675 440 670" /><polygon style="fill:#000000; stroke:#000000;" points=" 341 663 351 673" /><path style="fill:none; stroke:#000000;stroke-width:1" d="M281.0 696.0 L280.0 1245.0 L960.0 1246.0" /><polygon style="fill:#000000; stroke:#000000;" points=" 950 1241 960 1246 950 1251 952 1246" /><path style="fill:none; stroke:#000000;stroke-width:1" d="M200.0 209.0 L280.0 208.0 L281.0 638.0" /><polygon style="fill:#000000; stroke:#000000;" points=" 286 628 281 638 276 628 281 630" /><path style="fill:none; stroke:#000000;stroke-width:1" d="M1412.0 1376.0 L1400.0 442.0" /><polygon style="fill:#000000; stroke:#000000;" points=" 1395 452 1400 442 1405 452 1400 450" /><polygon style="fill:#000000; stroke:#000000;" points=" 1407 1371 1417 1361" /><path style="fill:none; stroke:#000000;stroke-width:1" d="M1296.0 1182.0 L1397.0 1376.0" /><polygon style="fill:#000000; stroke:#000000;" points=" 1397 1365 1397 1376 1388 1369 1393 1369" /><path style="fill:none; stroke:#000000;stroke-width:1" d="M696.0 1117.0 L758.0 1117.0" /><polygon style="fill:#000000; stroke:#000000;" points=" 748 1112 758 1117 748 1122 750 1117" /><polygon style="fill:#000000; stroke:#000000;" points=" 701 1112 711 1122" /><path style="fill:none; stroke:#000000;stroke-width:1" d="M641.0 1146.0 L641.0 1245.0 L960.0 1246.0" /><polygon style="fill:#000000; stroke:#000000;" points=" 950 1241 960 1246 950 1251 952 1246" /><path style="fill:none; stroke:#000000;stroke-width:1" d="M640.0 942.0 L641.0 1088.0" /><polygon style="fill:#000000; stroke:#000000;" points=" 646 1078 641 1088 636 1078 641 1080" /><path style="fill:none; stroke:#000000;stroke-width:1" d="M866.0 1117.0 L918.0 1117.0" /><polygon style="fill:#000000; stroke:#000000;" points=" 908 1112 918 1117 908 1122 910 1117" /><polygon style="fill:#000000; stroke:#000000;" points=" 871 1112 881 1122" /><path style="fill:none; stroke:#000000;stroke-width:1" d="M849.0 1146.0 L962.0 1236.0" /><polygon style="fill:#000000; stroke:#000000;" points=" 957 1226 962 1236 951 1234 956 1231" /><path style="fill:none; stroke:#000000;stroke-width:1" d="M1026.0 1117.0 L1078.0 1117.0" /><polygon style="fill:#000000; stroke:#000000;" points=" 1068 1112 1078 1117 1068 1122 1070 1117" /><polygon style="fill:#000000; stroke:#000000;" points=" 1031 1112 1041 1122" /><path style="fill:none; stroke:#000000;stroke-width:1" d="M973.0 1146.0 L977.0 1229.0" /><polygon style="fill:#000000; stroke:#000000;" points=" 982 1219 977 1229 972 1219 977 1221" /><path style="fill:none; stroke:#000000;stroke-width:1" d="M1186.0 1122.0 L1238.0 1128.0" /><polygon style="fill:#000000; stroke:#000000;" points=" 1229 1122 1238 1128 1227 1132 1230 1127" /><polygon style="fill:#000000; stroke:#000000;" points=" 1192 1118 1200 1129" /><path style="fill:none; stroke:#000000;stroke-width:1" d="M1097.0 1146.0 L990.0 1236.0" /><polygon style="fill:#000000; stroke:#000000;" points=" 1001 1233 990 1236 994 1226 996 1231" /><path style="fill:none; stroke:#000000;stroke-width:1" d="M480.0 618.0 L480.0 390.0 L1368.0 390.0" /><polygon style="fill:#000000; stroke:#000000;" points=" 1358 385 1368 390 1358 395 1360 390" /><path style="fill:none; stroke:#000000;stroke-width:1" d="M640.0 838.0 L640.0 390.0 L1368.0 390.0" /><polygon style="fill:#000000; stroke:#000000;" points=" 1358 385 1368 390 1358 395 1360 390" /><path style="fill:none; stroke:#000000;stroke-width:1" d="M1269.0 1078.0 L1268.0 390.0 L1368.0 390.0" /><polygon style="fill:#000000; stroke:#000000;" points=" 1358 385 1368 390 1358 395 1360 390" /><path style="fill:none; stroke:#000000;stroke-width:1" d="M1358.0 1385.0 L994.0 1252.0" /><polygon style="fill:#000000; stroke:#000000;" points=" 1002 1260 994 1252 1005 1251 1002 1255" /><defs><linearGradient xmlns:xlink="http://www.w3.org/1999/xlink" xlink:href="#linearGradient66FF6696FF96B6FFB6" id="linearGradient66FF6696FF96B6FFB6_1718244274" x1="0" y1="82.0" x2="0" y2="117.0" gradientUnits="userSpaceOnUse" xlink:type="simple" xlink:actuate="onLoad" xlink:show="other" /><linearGradient id="linearGradient66FF6696FF96B6FFB6"><stop style="stop-color:#66FF66;stop-opacity:1;" offset="0.0" id="stop66FF66" /><stop style="stop-color:#96FF96;stop-opacity:1;" offset="0.5" id="stop96FF96" /><stop style="stop-color:#B6FFB6;stop-opacity:1;" offset="1.0" id="stopB6FFB6" /></linearGradient><linearGradient xmlns:xlink="http://www.w3.org/1999/xlink" xlink:href="#linearGradientF8FBFEEDF5FCDEEDFAD4E7F8E2E5E9" id="linearGradientF8FBFEEDF5FCDEEDFAD4E7F8E2E5E9_1756209423" x1="0" y1="860.0" x2="0" y2="966.0" gradientUnits="userSpaceOnUse" xlink:type="simple" xlink:actuate="onLoad" xlink:show="other" /><linearGradient id="linearGradientF8FBFEEDF5FCDEEDFAD4E7F8E2E5E9"><stop style="stop-color:#F8FBFE;stop-opacity:1;" offset="0.0" id="stopF8FBFE" /><stop style="stop-color:#EDF5FC;stop-opacity:1;" offset="0.25" id="stopEDF5FC" /><stop style="stop-color:#DEEDFA;stop-opacity:1;" offset="0.5" id="stopDEEDFA" /><stop style="stop-color:#D4E7F8;stop-opacity:1;" offset="0.75" id="stopD4E7F8" /><stop style="stop-color:#E2E5E9;stop-opacity:1;" offset="1.0" id="stopE2E5E9" /></linearGradient><linearGradient xmlns:xlink="http://www.w3.org/1999/xlink" xlink:href="#linearGradientF8FBFEEDF5FCDEEDFAD4E7F8E2E5E9" id="linearGradientF8FBFEEDF5FCDEEDFAD4E7F8E2E5E9_1821522114" x1="0" y1="350.0" x2="0" y2="456.0" gradientUnits="userSpaceOnUse" xlink:type="simple" xlink:actuate="onLoad" xlink:show="other" /><linearGradient xmlns:xlink="http://www.w3.org/1999/xlink" xlink:href="#linearGradientF8FBFEEDF5FCDEEDFAD4E7F8E2E5E9" id="linearGradientF8FBFEEDF5FCDEEDFAD4E7F8E2E5E9_697346868" x1="0" y1="70.0" x2="0" y2="176.0" gradientUnits="userSpaceOnUse" xlink:type="simple" xlink:actuate="onLoad" xlink:show="other" /><linearGradient xmlns:xlink="http://www.w3.org/1999/xlink" xlink:href="#linearGradientFF6666FF9696FFB6B6" id="linearGradientFF6666FF9696FFB6B6_492014199" x1="0" y1="100.0" x2="0" y2="135.0" gradientUnits="userSpaceOnUse" xlink:type="simple" xlink:actuate="onLoad" xlink:show="other" /><linearGradient id="linearGradientFF6666FF9696FFB6B6"><stop style="stop-color:#FF6666;stop-opacity:1;" offset="0.0" id="stopFF6666" /><stop style="stop-color:#FF9696;stop-opacity:1;" offset="0.5" id="stopFF9696" /><stop style="stop-color:#FFB6B6;stop-opacity:1;" offset="1.0" id="stopFFB6B6" /></linearGradient><linearGradient xmlns:xlink="http://www.w3.org/1999/xlink" xlink:href="#linearGradientF8FBFEEDF5FCDEEDFAD4E7F8E2E5E9" id="linearGradientF8FBFEEDF5FCDEEDFAD4E7F8E2E5E9_410248459" x1="0" y1="640.0" x2="0" y2="746.0" gradientUnits="userSpaceOnUse" xlink:type="simple" xlink:actuate="onLoad" xlink:show="other" /><linearGradient xmlns:xlink="http://www.w3.org/1999/xlink" xlink:href="#linearGradientFF6666FF9696FFB6B6" id="linearGradientFF6666FF9696FFB6B6_1700436719" x1="0" y1="430.0" x2="0" y2="465.0" gradientUnits="userSpaceOnUse" xlink:type="simple" xlink:actuate="onLoad" xlink:show="other" /><linearGradient xmlns:xlink="http://www.w3.org/1999/xlink" xlink:href="#linearGradientF8FBFEEDF5FCDEEDFAD4E7F8E2E5E9" id="linearGradientF8FBFEEDF5FCDEEDFAD4E7F8E2E5E9_1237275771" x1="0" y1="1377.0" x2="0" y2="1483.0" gradientUnits="userSpaceOnUse" xlink:type="simple" xlink:actuate="onLoad" xlink:show="other" /><linearGradient xmlns:xlink="http://www.w3.org/1999/xlink" xlink:href="#linearGradientF8FBFEEDF5FCDEEDFAD4E7F8E2E5E9" id="linearGradientF8FBFEEDF5FCDEEDFAD4E7F8E2E5E9_1220439817" x1="0" y1="1090.0" x2="0" y2="1196.0" gradientUnits="userSpaceOnUse" xlink:type="simple" xlink:actuate="onLoad" xlink:show="other" /><linearGradient xmlns:xlink="http://www.w3.org/1999/xlink" xlink:href="#linearGradientF8FBFEEDF5FCDEEDFAD4E7F8E2E5E9" id="linearGradientF8FBFEEDF5FCDEEDFAD4E7F8E2E5E9_1331855528" x1="0" y1="1090.0" x2="0" y2="1196.0" gradientUnits="userSpaceOnUse" xlink:type="simple" xlink:actuate="onLoad" xlink:show="other" /><linearGradient xmlns:xlink="http://www.w3.org/1999/xlink" xlink:href="#linearGradientF8FBFEEDF5FCDEEDFAD4E7F8E2E5E9" id="linearGradientF8FBFEEDF5FCDEEDFAD4E7F8E2E5E9_2120152649" x1="0" y1="1090.0" x2="0" y2="1196.0" gradientUnits="userSpaceOnUse" xlink:type="simple" xlink:actuate="onLoad" xlink:show="other" /><linearGradient xmlns:xlink="http://www.w3.org/1999/xlink" xlink:href="#linearGradientF8FBFEEDF5FCDEEDFAD4E7F8E2E5E9" id="linearGradientF8FBFEEDF5FCDEEDFAD4E7F8E2E5E9_1307666805" x1="0" y1="1090.0" x2="0" y2="1196.0" gradientUnits="userSpaceOnUse" xlink:type="simple" xlink:actuate="onLoad" xlink:show="other" /><linearGradient xmlns:xlink="http://www.w3.org/1999/xlink" xlink:href="#linearGradientFF6666FF9696FFB6B6" id="linearGradientFF6666FF9696FFB6B6_1988923877" x1="0" y1="1230.0" x2="0" y2="1265.0" gradientUnits="userSpaceOnUse" xlink:type="simple" xlink:actuate="onLoad" xlink:show="other" /><linearGradient xmlns:xlink="http://www.w3.org/1999/xlink" xlink:href="#linearGradientFAFBFCFFFFCC" id="linearGradientFAFBFCFFFFCC_758134876" x1="0" y1="620.0" x2="0" y2="680.0" gradientUnits="userSpaceOnUse" xlink:type="simple" xlink:actuate="onLoad" xlink:show="other" /><linearGradient id="linearGradientFAFBFCFFFFCC"><stop style="stop-color:#FAFBFC;stop-opacity:1;" offset="0.0" id="stopFAFBFC" /><stop style="stop-color:#FFFFCC;stop-opacity:1;" offset="1.0" id="stopFFFFCC" /></linearGradient><linearGradient xmlns:xlink="http://www.w3.org/1999/xlink" xlink:href="#linearGradientFF6666FF9696FFB6B6" id="linearGradientFF6666FF9696FFB6B6_609582861" x1="0" y1="310.0" x2="0" y2="345.0" gradientUnits="userSpaceOnUse" xlink:type="simple" xlink:actuate="onLoad" xlink:show="other" /><linearGradient xmlns:xlink="http://www.w3.org/1999/xlink" xlink:href="#linearGradientFAFBFCFFFFCC" id="linearGradientFAFBFCFFFFCC_1655242803" x1="0" y1="840.0" x2="0" y2="900.0" gradientUnits="userSpaceOnUse" xlink:type="simple" xlink:actuate="onLoad" xlink:show="other" /><linearGradient xmlns:xlink="http://www.w3.org/1999/xlink" xlink:href="#linearGradientFAFBFCFFFFCC" id="linearGradientFAFBFCFFFFCC_1891153466" x1="0" y1="1080.0" x2="0" y2="1140.0" gradientUnits="userSpaceOnUse" xlink:type="simple" xlink:actuate="onLoad" xlink:show="other" /><linearGradient xmlns:xlink="http://www.w3.org/1999/xlink" xlink:href="#linearGradientFAFBFCFFFFCC" id="linearGradientFAFBFCFFFFCC_1550226089" x1="0" y1="340.0" x2="0" y2="400.0" gradientUnits="userSpaceOnUse" xlink:type="simple" xlink:actuate="onLoad" xlink:show="other" /><linearGradient xmlns:xlink="http://www.w3.org/1999/xlink" xlink:href="#linearGradientFAFBFCFFFFCC" id="linearGradientFAFBFCFFFFCC_1396974399" x1="0" y1="160.0" x2="0" y2="220.0" gradientUnits="userSpaceOnUse" xlink:type="simple" xlink:actuate="onLoad" xlink:show="other" /></defs></svg>
