<?xml version="1.0" encoding="UTF-8"?>
<svg xmlns="http://www.w3.org/2000/svg" style="stroke-dasharray:none; shape-rendering:auto; font-family:'Arial'; text-rendering:auto; fill-opacity:1; color-interpolation:auto; color-rendering:auto; font-size:12; fill:black; stroke:black; image-rendering:auto; stroke-miterlimit:10; stroke-linecap:square; stroke-linejoin:miter; font-style:normal; stroke-width:1; stroke-dashoffset:0; font-weight:normal; stroke-opacity:1;" contentScriptType="text/ecmascript" preserveAspectRatio="xMidYMid meet" zoomAndPan="magnify" version="1.0" contentStyleType="text/css" xml:xlink="http://www.w3.org/1999/xlink" width="1341" height="1011"><rect x="10" y="10" width="1331" height="1001" ry="0" rx="0" style="stroke:#000000; fill:#FFFFFF" /><rect x="40" y="582" width="1301" height="143" ry="0" rx="0" style="stroke:#000000; fill:#D6E0D0" /><g componentSequence="66"><text x="-653" y="47" transform="rotate(270)" text-anchor="middle" style="font-weight:bold;font-size:10px;stroke:none; fill:#434343"><tspan dy="14" x="-653">Patrimonio</tspan></text></g><rect x="40" y="153" width="1301" height="143" ry="0" rx="0" style="stroke:#000000; fill:#ADC9AC" /><g componentSequence="46"><text x="-224" y="47" transform="rotate(270)" text-anchor="middle" style="font-weight:bold;font-size:10px;stroke:none; fill:#434343"><tspan dy="14" x="-224">Gerência de P&amp;C</tspan></text></g><rect x="40" y="439" width="1301" height="143" ry="0" rx="0" style="stroke:#000000; fill:#C9C3AC" /><g componentSequence="13"><text x="-510" y="47" transform="rotate(270)" text-anchor="middle" style="font-weight:bold;font-size:10px;stroke:none; fill:#434343"><tspan dy="14" x="-510">Administração</tspan></text></g><rect x="40" y="725" width="1301" height="143" ry="0" rx="0" style="stroke:#000000; fill:#D0DAAE" /><g componentSequence="11"><text x="-796" y="47" transform="rotate(270)" text-anchor="middle" style="font-weight:bold;font-size:10px;stroke:none; fill:#434343"><tspan dy="14" x="-796">RH</tspan></text></g><rect x="40" y="296" width="1301" height="143" ry="0" rx="0" style="stroke:#000000; fill:#82B0B7" /><g componentSequence="9"><text x="-367" y="47" transform="rotate(270)" text-anchor="middle" style="font-weight:bold;font-size:10px;stroke:none; fill:#434343"><tspan dy="14" x="-367">TI</tspan></text></g><rect x="40" y="868" width="1301" height="143" ry="0" rx="0" style="stroke:#000000; fill:#C0C0C0" /><g componentSequence="3"><text x="-939" y="47" transform="rotate(270)" text-anchor="middle" style="font-weight:bold;font-size:10px;stroke:none; fill:#434343"><tspan dy="14" x="-939">DP</tspan></text></g><rect x="40" y="10" width="1301" height="143" ry="0" rx="0" style="stroke:#000000; fill:#9F9F9F" /><g componentSequence="2"><text x="-81" y="47" transform="rotate(270)" text-anchor="middle" style="font-weight:bold;font-size:10px;stroke:none; fill:#434343"><tspan dy="14" x="-81">Gestor</tspan></text></g><g componentSequence="1"><text x="-510" y="17" transform="rotate(270)" text-anchor="middle" style="font-weight:bold;font-size:10px;stroke:none; fill:#434343"><tspan dy="14" x="-510">Pool</tspan></text></g><g sequence="4"><ellipse cx="117" cy="65" rx="17" ry="17" stroke-width="1" style="fill:url(#linearGradient66FF6696FF96B6FFB6_1906232706);" stroke="336633" /></g><g sequence="55"><polygon points=" 1060 200 1090 170 1120 200 1090 230 1060 200" style="fill:url(#linearGradientFAFBFCFFFFCC_2136554945);" stroke="000000" /></g><path style="fill:none; stroke-width:6; stroke:#000000;" d="M1080.0 200.0 L1100.0 200.0" /><path style="fill:none; stroke-width:6; stroke:#000000;" d="M1090.0 190.0 L1090.0 210.0" /><g componentSequence="55"><text x="1090" y="233" text-anchor="middle" style="font-weight:bold;font-size:10px;stroke:none; fill:#333399"><tspan dy="14" x="1090">Join</tspan></text></g><g sequence="76"><polygon points=" 210 60 240 30 270 60 240 90 210 60" style="fill:url(#linearGradientFAFBFCFFFFCC_2070324978);" stroke="000000" /></g><ellipse cx="240" cy="60" rx="17" ry="17" stroke-width="1" style="fill:url(#linearGradientFAFBFCFFFFCC_1046755322);" stroke="000000" /><polygon points=" 226 56 236 56 236 46 244 46 244 56 254 56 254 64 244 64 244 74 236 74 236 64 226 64" style="fill:url(#linearGradientFAFBFCFFFFCC_957419369);" stroke="000000" /><g componentSequence="76"><text x="240" y="93" text-anchor="middle" style="font-weight:bold;font-size:10px;stroke:none; fill:#333399"><tspan dy="14" x="240">Paralelo</tspan></text></g><g sequence="77"><rect x="320" y="610" width="105" height="84" ry="5" rx="5" style="fill:url(#linearGradientF8FBFEEDF5FCDEEDFAD4E7F8E2E5E9_261130943);" stroke="191970" /></g><g componentSequence="77"><text x="372" y="625" text-anchor="middle" style="font-weight:bold;font-size:10px;stroke:none; fill:#333399"><tspan dy="14" x="372">Recolher bens e</tspan><tspan dy="14" x="372">equipamentos</tspan></text></g><g sequence="80"><ellipse cx="1257" cy="217" rx="17" ry="17" stroke-width="3" style="fill:url(#linearGradientFF6666FF9696FFB6B6_1091562633);" stroke="993333" /></g><g sequence="83"><rect x="460" y="310" width="105" height="70" ry="5" rx="5" style="fill:url(#linearGradientF8FBFEEDF5FCDEEDFAD4E7F8E2E5E9_1582024885);" stroke="191970" /></g><g componentSequence="83"><text x="512" y="325" text-anchor="middle" style="font-weight:bold;font-size:10px;stroke:none; fill:#333399"><tspan dy="14" x="512">Bloquear</tspan><tspan dy="14" x="512">acessos</tspan></text></g><g sequence="86"><rect x="430" y="460" width="105" height="84" ry="5" rx="5" style="fill:url(#linearGradientF8FBFEEDF5FCDEEDFAD4E7F8E2E5E9_1871769170);" stroke="191970" /></g><g componentSequence="86"><text x="482" y="475" text-anchor="middle" style="font-weight:bold;font-size:10px;stroke:none; fill:#333399"><tspan dy="14" x="482">Cancelar</tspan><tspan dy="14" x="482">serviços de</tspan><tspan dy="14" x="482">transporte</tspan></text></g><g sequence="89"><rect x="540" y="180" width="105" height="56" ry="5" rx="5" style="fill:url(#linearGradientF8FBFEEDF5FCDEEDFAD4E7F8E2E5E9_1692288109);" stroke="191970" /></g><g componentSequence="89"><text x="592" y="197" text-anchor="middle" style="font-weight:bold;font-size:10px;stroke:none; fill:#333399"><tspan dy="14" x="592">Autorizar bkp</tspan></text></g><g sequence="93"><rect x="620" y="330" width="105" height="56" ry="5" rx="5" style="fill:url(#linearGradientF8FBFEEDF5FCDEEDFAD4E7F8E2E5E9_1510705115);" stroke="191970" /></g><g componentSequence="93"><text x="672" y="347" text-anchor="middle" style="font-weight:bold;font-size:10px;stroke:none; fill:#333399"><tspan dy="14" x="672">Realizar bkp</tspan></text></g><g sequence="97"><rect x="170" y="930" width="105" height="70" ry="5" rx="5" style="fill:url(#linearGradientF8FBFEEDF5FCDEEDFAD4E7F8E2E5E9_1510339151);" stroke="191970" /></g><g componentSequence="97"><text x="222" y="945" text-anchor="middle" style="font-weight:bold;font-size:10px;stroke:none; fill:#333399"><tspan dy="14" x="222">Calcular</tspan><tspan dy="14" x="222">rescisão</tspan></text></g><g sequence="100"><rect x="330" y="880" width="105" height="70" ry="5" rx="5" style="fill:url(#linearGradientF8FBFEEDF5FCDEEDFAD4E7F8E2E5E9_848262435);" stroke="191970" /></g><g componentSequence="100"><text x="382" y="895" text-anchor="middle" style="font-weight:bold;font-size:10px;stroke:none; fill:#333399"><tspan dy="14" x="382">Cancelar</tspan><tspan dy="14" x="382">beneficios</tspan></text></g><g sequence="103"><rect x="480" y="756" width="105" height="84" ry="5" rx="5" style="fill:url(#linearGradientF8FBFEEDF5FCDEEDFAD4E7F8E2E5E9_618967603);" stroke="191970" /></g><g componentSequence="103"><text x="532" y="771" text-anchor="middle" style="font-weight:bold;font-size:10px;stroke:none; fill:#333399"><tspan dy="14" x="532">Realizar</tspan><tspan dy="14" x="532">entrevista de</tspan><tspan dy="14" x="532">desligamento</tspan></text></g><g componentSequence="78"><text x="311" y="364" style="font-size:10px;font-weight:none;stroke:none; fill:#333399" text-anchor="left" /></g><g componentSequence="79"><text x="864" y="640" style="font-size:10px;font-weight:none;stroke:none; fill:#333399" text-anchor="left" /></g><g componentSequence="81"><text x="1190" y="216" style="font-size:10px;font-weight:none;stroke:none; fill:#333399" text-anchor="left" /></g><g componentSequence="82"><text x="182" y="69" style="font-size:10px;font-weight:none;stroke:none; fill:#333399" text-anchor="left" /></g><g componentSequence="84"><text x="383" y="207" style="font-size:10px;font-weight:none;stroke:none; fill:#333399" text-anchor="left" /></g><g componentSequence="85"><text x="815" y="424" style="font-size:10px;font-weight:none;stroke:none; fill:#333399" text-anchor="left" /></g><g componentSequence="87"><text x="372" y="289" style="font-size:10px;font-weight:none;stroke:none; fill:#333399" text-anchor="left" /></g><g componentSequence="88"><text x="860" y="491" style="font-size:10px;font-weight:none;stroke:none; fill:#333399" text-anchor="left" /></g><g componentSequence="90"><text x="415" y="136" style="font-size:10px;font-weight:none;stroke:none; fill:#333399" text-anchor="left" /></g><g componentSequence="94"><text x="642" y="283" style="font-size:10px;font-weight:none;stroke:none; fill:#333399" text-anchor="left" /></g><g componentSequence="95"><text x="902" y="282" style="font-size:10px;font-weight:none;stroke:none; fill:#333399" text-anchor="left" /></g><g componentSequence="98"><text x="160" y="576" style="font-size:10px;font-weight:none;stroke:none; fill:#333399" text-anchor="left" /></g><g componentSequence="99"><text x="1046" y="965" style="font-size:10px;font-weight:none;stroke:none; fill:#333399" text-anchor="left" /></g><g componentSequence="101"><text x="185" y="603" style="font-size:10px;font-weight:none;stroke:none; fill:#333399" text-anchor="left" /></g><g componentSequence="102"><text x="1097" y="912" style="font-size:10px;font-weight:none;stroke:none; fill:#333399" text-anchor="left" /></g><g componentSequence="104"><text x="248" y="578" style="font-size:10px;font-weight:none;stroke:none; fill:#333399" text-anchor="left" /></g><g componentSequence="105"><text x="1100" y="780" style="font-size:10px;font-weight:none;stroke:none; fill:#333399" text-anchor="left" /></g><g componentSequence="96"><text x="862" y="211" style="font-size:10px;font-weight:none;stroke:none; fill:#333399" text-anchor="left" /></g><path style="fill:none; stroke:#000000;stroke-width:1" d="M133.0 66.0 L208.0 71.0" /><polygon style="fill:#000000; stroke:#000000;" points=" 198 65 208 71 198 75 200 70" /><path style="fill:none; stroke:#000000;stroke-width:1" d="M1120.0 213.0 L1238.0 216.0" /><polygon style="fill:#000000; stroke:#000000;" points=" 1228 211 1238 216 1228 221 1230 216" /><path style="fill:none; stroke:#000000;stroke-width:1" d="M425.0 651.0 L848.0 652.0 L1065.0 258.0" /><polygon style="fill:#000000; stroke:#000000;" points=" 1056 264 1065 258 1065 269 1061 265" /><path style="fill:none; stroke:#000000;stroke-width:1" d="M521.0 380.0 L533.0 423.0 L662.0 424.0 L810.0 424.0 L1058.0 236.0" /><polygon style="fill:#000000; stroke:#000000;" points=" 1047 238 1058 236 1053 246 1052 241" /><path style="fill:none; stroke:#000000;stroke-width:1" d="M535.0 501.0 L842.0 500.0 L1058.0 248.0" /><polygon style="fill:#000000; stroke:#000000;" points=" 1048 252 1058 248 1055 259 1053 254" /><path style="fill:none; stroke:#000000;stroke-width:1" d="M725.0 338.0 L1058.0 223.0" /><polygon style="fill:#000000; stroke:#000000;" points=" 1047 222 1058 223 1050 231 1050 226" /><path style="fill:none; stroke:#000000;stroke-width:1" d="M645.0 208.0 L1058.0 213.0" /><polygon style="fill:#000000; stroke:#000000;" points=" 1048 208 1058 213 1048 218 1050 213" /><path style="fill:none; stroke:#000000;stroke-width:1" d="M248.0 118.0 L330.0 503.0 L360.0 608.0" /><polygon style="fill:#000000; stroke:#000000;" points=" 362 597 360 608 352 600 358 600" /><path style="fill:none; stroke:#000000;stroke-width:1" d="M270.0 103.0 L476.0 308.0" /><polygon style="fill:#000000; stroke:#000000;" points=" 472 297 476 308 465 304 470 302" /><path style="fill:none; stroke:#000000;stroke-width:1" d="M265.0 118.0 L457.0 458.0" /><polygon style="fill:#000000; stroke:#000000;" points=" 456 447 457 458 448 452 453 451" /><path style="fill:none; stroke:#000000;stroke-width:1" d="M270.0 85.0 L538.0 187.0" /><polygon style="fill:#000000; stroke:#000000;" points=" 530 179 538 187 527 188 531 184" /><path style="fill:none; stroke:#000000;stroke-width:1" d="M607.0 236.0 L656.0 328.0" /><polygon style="fill:#000000; stroke:#000000;" points=" 656 317 656 328 647 322 652 321" /><path style="fill:none; stroke:#000000;stroke-width:1" d="M231.0 118.0 L130.0 685.0 L97.0 965.0 L168.0 965.0" /><polygon style="fill:#000000; stroke:#000000;" points=" 158 960 168 965 158 970 160 965" /><path style="fill:none; stroke:#000000;stroke-width:1" d="M275.0 965.0 L1090.0 965.0 L1090.0 258.0" /><polygon style="fill:#000000; stroke:#000000;" points=" 1085 268 1090 258 1095 268 1090 266" /><path style="fill:none; stroke:#000000;stroke-width:1" d="M233.0 118.0 L178.0 571.0 L151.0 912.0 L328.0 913.0" /><polygon style="fill:#000000; stroke:#000000;" points=" 318 908 328 913 318 918 320 913" /><path style="fill:none; stroke:#000000;stroke-width:1" d="M435.0 915.0 L1087.0 915.0 L1088.0 258.0" /><polygon style="fill:#000000; stroke:#000000;" points=" 1083 268 1088 258 1093 268 1088 266" /><path style="fill:none; stroke:#000000;stroke-width:1" d="M238.0 118.0 L237.0 796.0 L478.0 797.0" /><polygon style="fill:#000000; stroke:#000000;" points=" 468 792 478 797 468 802 470 797" /><path style="fill:none; stroke:#000000;stroke-width:1" d="M585.0 797.0 L1090.0 796.0 L1090.0 258.0" /><polygon style="fill:#000000; stroke:#000000;" points=" 1085 268 1090 258 1095 268 1090 266" /><defs><linearGradient xmlns:xlink="http://www.w3.org/1999/xlink" xlink:href="#linearGradient66FF6696FF96B6FFB6" id="linearGradient66FF6696FF96B6FFB6_1906232706" x1="0" y1="48.0" x2="0" y2="83.0" gradientUnits="userSpaceOnUse" xlink:type="simple" xlink:actuate="onLoad" xlink:show="other" /><linearGradient id="linearGradient66FF6696FF96B6FFB6"><stop style="stop-color:#66FF66;stop-opacity:1;" offset="0.0" id="stop66FF66" /><stop style="stop-color:#96FF96;stop-opacity:1;" offset="0.5" id="stop96FF96" /><stop style="stop-color:#B6FFB6;stop-opacity:1;" offset="1.0" id="stopB6FFB6" /></linearGradient><linearGradient xmlns:xlink="http://www.w3.org/1999/xlink" xlink:href="#linearGradientFAFBFCFFFFCC" id="linearGradientFAFBFCFFFFCC_2136554945" x1="0" y1="170.0" x2="0" y2="230.0" gradientUnits="userSpaceOnUse" xlink:type="simple" xlink:actuate="onLoad" xlink:show="other" /><linearGradient id="linearGradientFAFBFCFFFFCC"><stop style="stop-color:#FAFBFC;stop-opacity:1;" offset="0.0" id="stopFAFBFC" /><stop style="stop-color:#FFFFCC;stop-opacity:1;" offset="1.0" id="stopFFFFCC" /></linearGradient><linearGradient xmlns:xlink="http://www.w3.org/1999/xlink" xlink:href="#linearGradientFAFBFCFFFFCC" id="linearGradientFAFBFCFFFFCC_2070324978" x1="0" y1="30.0" x2="0" y2="90.0" gradientUnits="userSpaceOnUse" xlink:type="simple" xlink:actuate="onLoad" xlink:show="other" /><linearGradient xmlns:xlink="http://www.w3.org/1999/xlink" xlink:href="#linearGradientFAFBFCFFFFCC" id="linearGradientFAFBFCFFFFCC_1046755322" x1="0" y1="43.0" x2="0" y2="78.0" gradientUnits="userSpaceOnUse" xlink:type="simple" xlink:actuate="onLoad" xlink:show="other" /><linearGradient xmlns:xlink="http://www.w3.org/1999/xlink" xlink:href="#linearGradientFAFBFCFFFFCC" id="linearGradientFAFBFCFFFFCC_957419369" x1="0" y1="43.0" x2="0" y2="78.0" gradientUnits="userSpaceOnUse" xlink:type="simple" xlink:actuate="onLoad" xlink:show="other" /><linearGradient xmlns:xlink="http://www.w3.org/1999/xlink" xlink:href="#linearGradientF8FBFEEDF5FCDEEDFAD4E7F8E2E5E9" id="linearGradientF8FBFEEDF5FCDEEDFAD4E7F8E2E5E9_261130943" x1="0" y1="610.0" x2="0" y2="715.0" gradientUnits="userSpaceOnUse" xlink:type="simple" xlink:actuate="onLoad" xlink:show="other" /><linearGradient id="linearGradientF8FBFEEDF5FCDEEDFAD4E7F8E2E5E9"><stop style="stop-color:#F8FBFE;stop-opacity:1;" offset="0.0" id="stopF8FBFE" /><stop style="stop-color:#EDF5FC;stop-opacity:1;" offset="0.25" id="stopEDF5FC" /><stop style="stop-color:#DEEDFA;stop-opacity:1;" offset="0.5" id="stopDEEDFA" /><stop style="stop-color:#D4E7F8;stop-opacity:1;" offset="0.75" id="stopD4E7F8" /><stop style="stop-color:#E2E5E9;stop-opacity:1;" offset="1.0" id="stopE2E5E9" /></linearGradient><linearGradient xmlns:xlink="http://www.w3.org/1999/xlink" xlink:href="#linearGradientFF6666FF9696FFB6B6" id="linearGradientFF6666FF9696FFB6B6_1091562633" x1="0" y1="200.0" x2="0" y2="235.0" gradientUnits="userSpaceOnUse" xlink:type="simple" xlink:actuate="onLoad" xlink:show="other" /><linearGradient id="linearGradientFF6666FF9696FFB6B6"><stop style="stop-color:#FF6666;stop-opacity:1;" offset="0.0" id="stopFF6666" /><stop style="stop-color:#FF9696;stop-opacity:1;" offset="0.5" id="stopFF9696" /><stop style="stop-color:#FFB6B6;stop-opacity:1;" offset="1.0" id="stopFFB6B6" /></linearGradient><linearGradient xmlns:xlink="http://www.w3.org/1999/xlink" xlink:href="#linearGradientF8FBFEEDF5FCDEEDFAD4E7F8E2E5E9" id="linearGradientF8FBFEEDF5FCDEEDFAD4E7F8E2E5E9_1582024885" x1="0" y1="310.0" x2="0" y2="415.0" gradientUnits="userSpaceOnUse" xlink:type="simple" xlink:actuate="onLoad" xlink:show="other" /><linearGradient xmlns:xlink="http://www.w3.org/1999/xlink" xlink:href="#linearGradientF8FBFEEDF5FCDEEDFAD4E7F8E2E5E9" id="linearGradientF8FBFEEDF5FCDEEDFAD4E7F8E2E5E9_1871769170" x1="0" y1="460.0" x2="0" y2="565.0" gradientUnits="userSpaceOnUse" xlink:type="simple" xlink:actuate="onLoad" xlink:show="other" /><linearGradient xmlns:xlink="http://www.w3.org/1999/xlink" xlink:href="#linearGradientF8FBFEEDF5FCDEEDFAD4E7F8E2E5E9" id="linearGradientF8FBFEEDF5FCDEEDFAD4E7F8E2E5E9_1692288109" x1="0" y1="180.0" x2="0" y2="285.0" gradientUnits="userSpaceOnUse" xlink:type="simple" xlink:actuate="onLoad" xlink:show="other" /><linearGradient xmlns:xlink="http://www.w3.org/1999/xlink" xlink:href="#linearGradientF8FBFEEDF5FCDEEDFAD4E7F8E2E5E9" id="linearGradientF8FBFEEDF5FCDEEDFAD4E7F8E2E5E9_1510705115" x1="0" y1="330.0" x2="0" y2="435.0" gradientUnits="userSpaceOnUse" xlink:type="simple" xlink:actuate="onLoad" xlink:show="other" /><linearGradient xmlns:xlink="http://www.w3.org/1999/xlink" xlink:href="#linearGradientF8FBFEEDF5FCDEEDFAD4E7F8E2E5E9" id="linearGradientF8FBFEEDF5FCDEEDFAD4E7F8E2E5E9_1510339151" x1="0" y1="930.0" x2="0" y2="1035.0" gradientUnits="userSpaceOnUse" xlink:type="simple" xlink:actuate="onLoad" xlink:show="other" /><linearGradient xmlns:xlink="http://www.w3.org/1999/xlink" xlink:href="#linearGradientF8FBFEEDF5FCDEEDFAD4E7F8E2E5E9" id="linearGradientF8FBFEEDF5FCDEEDFAD4E7F8E2E5E9_848262435" x1="0" y1="880.0" x2="0" y2="985.0" gradientUnits="userSpaceOnUse" xlink:type="simple" xlink:actuate="onLoad" xlink:show="other" /><linearGradient xmlns:xlink="http://www.w3.org/1999/xlink" xlink:href="#linearGradientF8FBFEEDF5FCDEEDFAD4E7F8E2E5E9" id="linearGradientF8FBFEEDF5FCDEEDFAD4E7F8E2E5E9_618967603" x1="0" y1="756.0" x2="0" y2="861.0" gradientUnits="userSpaceOnUse" xlink:type="simple" xlink:actuate="onLoad" xlink:show="other" /></defs></svg>
