<?xml version="1.0" encoding="UTF-8"?>
<svg xmlns="http://www.w3.org/2000/svg" style="stroke-dasharray:none; shape-rendering:auto; font-family:'Arial'; text-rendering:auto; fill-opacity:1; color-interpolation:auto; color-rendering:auto; font-size:12; fill:black; stroke:black; image-rendering:auto; stroke-miterlimit:10; stroke-linecap:square; stroke-linejoin:miter; font-style:normal; stroke-width:1; stroke-dashoffset:0; font-weight:normal; stroke-opacity:1;" contentScriptType="text/ecmascript" preserveAspectRatio="xMidYMid meet" zoomAndPan="magnify" version="1.0" contentStyleType="text/css" xml:xlink="http://www.w3.org/1999/xlink" width="1441" height="441"><rect x="10" y="10" width="1431" height="431" ry="0" rx="0" style="stroke:#000000; fill:#FFFFFF" /><rect x="40" y="225" width="1401" height="216" ry="0" rx="0" style="stroke:#000000; fill:#82B0B7" /><g componentSequence="3"><text x="-333" y="47" transform="rotate(270)" text-anchor="middle" style="font-weight:bold;font-size:10px;stroke:none; fill:#434343"><tspan dy="14" x="-333">Juridico</tspan></text></g><rect x="40" y="10" width="1401" height="215" ry="0" rx="0" style="stroke:#000000; fill:#9F9F9F" /><g componentSequence="2"><text x="-117" y="47" transform="rotate(270)" text-anchor="middle" style="font-weight:bold;font-size:10px;stroke:none; fill:#434343"><tspan dy="14" x="-117">Solicitante</tspan></text></g><g componentSequence="1"><text x="-225" y="17" transform="rotate(270)" text-anchor="middle" style="font-weight:bold;font-size:10px;stroke:none; fill:#434343"><tspan dy="14" x="-225">Solicitação de Contrato</tspan></text></g><g sequence="4"><ellipse cx="107" cy="101" rx="17" ry="17" stroke-width="1" style="fill:url(#linearGradient66FF6696FF96B6FFB6_232486263);" stroke="336633" /></g><g sequence="10"><rect x="180" y="280" width="106" height="70" ry="5" rx="5" style="fill:url(#linearGradientF8FBFEEDF5FCDEEDFAD4E7F8E2E5E9_52206268);" stroke="191970" /></g><g componentSequence="10"><text x="233" y="295" text-anchor="middle" style="font-weight:bold;font-size:10px;stroke:none; fill:#333399"><tspan dy="14" x="233">Elaborar</tspan><tspan dy="14" x="233">contrato</tspan></text></g><g sequence="18"><rect x="450" y="280" width="106" height="70" ry="5" rx="5" style="fill:url(#linearGradientF8FBFEEDF5FCDEEDFAD4E7F8E2E5E9_119741959);" stroke="191970" /></g><g componentSequence="18"><text x="503" y="295" text-anchor="middle" style="font-weight:bold;font-size:10px;stroke:none; fill:#333399"><tspan dy="14" x="503">Aguardar</tspan><tspan dy="14" x="503">assinatura</tspan></text></g><g sequence="24"><ellipse cx="1237" cy="387" rx="17" ry="17" stroke-width="3" style="fill:url(#linearGradientFF6666FF9696FFB6B6_1109495943);" stroke="993333" /></g><g sequence="37"><polygon points=" 650 300 680 270 710 300 680 330 650 300" style="fill:url(#linearGradientFAFBFCFFFFCC_336012665);" stroke="000000" /></g><g componentSequence="37"><text x="680" y="340" text-anchor="middle" style="font-weight:bold;font-size:10px;stroke:none; fill:#333399"><tspan dy="14" x="680">Assinad</tspan><tspan dy="14" x="680">o?</tspan></text></g><g sequence="42"><ellipse cx="747" cy="397" rx="17" ry="17" stroke-width="3" style="fill:url(#linearGradientFF6666FF9696FFB6B6_1932104767);" stroke="993333" /></g><g sequence="42"><polygon points=" 738 393 743 388 748 393 753 388 758 393 753 398 758 403 753 408 748 403 743 408 738 403 743 398" style="stroke:none; fill:#993333" /></g><g sequence="44"><rect x="1010" y="350" width="106" height="70" ry="5" rx="5" style="fill:url(#linearGradientF8FBFEEDF5FCDEEDFAD4E7F8E2E5E9_1826979707);" stroke="191970" /></g><g componentSequence="44"><text x="1063" y="374" text-anchor="middle" style="font-weight:bold;font-size:10px;stroke:none; fill:#333399"><tspan dy="14" x="1063">Anexar contrato</tspan></text></g><g sequence="47"><polygon points=" 820 300 850 270 880 300 850 330 820 300" style="fill:url(#linearGradientFAFBFCFFFFCC_571371464);" stroke="000000" /></g><g componentSequence="47"><text x="850" y="333" text-anchor="middle" style="font-weight:bold;font-size:10px;stroke:none; fill:#333399"><tspan dy="14" x="850">aditivo?</tspan></text></g><g sequence="49"><rect x="1010" y="240" width="106" height="70" ry="5" rx="5" style="fill:url(#linearGradientF8FBFEEDF5FCDEEDFAD4E7F8E2E5E9_252688925);" stroke="191970" /></g><g componentSequence="49"><text x="1063" y="255" text-anchor="middle" style="font-weight:bold;font-size:10px;stroke:none; fill:#333399"><tspan dy="14" x="1063">Cadastrar</tspan><tspan dy="14" x="1063">aditivo</tspan></text></g><g componentSequence="35"><text x="175" y="199" style="font-size:10px;font-weight:none;stroke:none; fill:#333399" text-anchor="left" /></g><g componentSequence="36"><text x="378" y="315" style="font-size:10px;font-weight:none;stroke:none; fill:#333399" text-anchor="left" /></g><g componentSequence="38"><text x="613" y="318" style="font-size:10px;font-weight:none;stroke:none; fill:#333399" text-anchor="left" /></g><g componentSequence="41"><text x="731" y="367" style="font-size:10px;font-weight:none;stroke:none; fill:#333399" text-anchor="left" /></g><g componentSequence="46"><text x="1178" y="386" style="font-size:10px;font-weight:none;stroke:none; fill:#333399" text-anchor="left" /></g><g componentSequence="48"><text x="775" y="317" style="font-size:10px;font-weight:none;stroke:none; fill:#333399" text-anchor="left" /></g><g componentSequence="50"><text x="955" y="296" style="font-size:10px;font-weight:none;stroke:none; fill:#333399" text-anchor="left"><tspan dy="14" x="955">sim</tspan></text></g><g componentSequence="51"><text x="950" y="360" style="font-size:10px;font-weight:none;stroke:none; fill:#333399" text-anchor="left"><tspan dy="14" x="950">não</tspan></text></g><g componentSequence="52"><text x="1073" y="330" style="font-size:10px;font-weight:none;stroke:none; fill:#333399" text-anchor="left" /></g><path style="fill:none; stroke:#000000;stroke-width:1" d="M116.0 116.0 L212.0 279.0" /><polygon style="fill:#000000; stroke:#000000;" points=" 211 268 212 279 203 273 208 272" /><path style="fill:none; stroke:#F00000;stroke-width:1" d="M286.0 315.0 L449.0 315.0" /><polygon style="fill:#F00000; stroke:#F00000;" points=" 439 310 449 315 439 320 441 315" /><polygon style="fill:#F00000; stroke:#F00000;" points=" 296 320 286 315 296 310 294 315" /><path style="fill:none; stroke:#000000;stroke-width:1" d="M556.0 316.0 L649.0 320.0" /><polygon style="fill:#000000; stroke:#000000;" points=" 639 315 649 320 639 325 641 320" /><path style="fill:none; stroke:#000000;stroke-width:1" d="M1116.0 385.0 L1220.0 387.0" /><polygon style="fill:#000000; stroke:#000000;" points=" 1210 382 1220 387 1210 392 1212 387" /><path style="fill:none; stroke:#000000;stroke-width:1" d="M710.0 355.0 L736.0 384.0" /><polygon style="fill:#000000; stroke:#000000;" points=" 733 373 736 384 726 380 731 378" /><path style="fill:none; stroke:#000000;stroke-width:1" d="M710.0 319.0 L819.0 315.0" /><polygon style="fill:#000000; stroke:#000000;" points=" 809 310 819 315 809 320 811 315" /><path style="fill:none; stroke:#000000;stroke-width:1" d="M880.0 324.0 L1009.0 367.0" /><polygon style="fill:#000000; stroke:#000000;" points=" 1001 359 1009 367 998 369 1001 364" /><path style="fill:none; stroke:#000000;stroke-width:1" d="M1063.0 310.0 L1063.0 349.0" /><polygon style="fill:#000000; stroke:#000000;" points=" 1068 339 1063 349 1058 339 1063 341" /><path style="fill:none; stroke:#000000;stroke-width:1" d="M880.0 308.0 L1009.0 284.0" /><polygon style="fill:#000000; stroke:#000000;" points=" 998 281 1009 284 1000 291 1001 285" /><defs><linearGradient xmlns:xlink="http://www.w3.org/1999/xlink" xlink:href="#linearGradient66FF6696FF96B6FFB6" id="linearGradient66FF6696FF96B6FFB6_232486263" x1="0" y1="84.0" x2="0" y2="119.0" gradientUnits="userSpaceOnUse" xlink:type="simple" xlink:actuate="onLoad" xlink:show="other" /><linearGradient id="linearGradient66FF6696FF96B6FFB6"><stop style="stop-color:#66FF66;stop-opacity:1;" offset="0.0" id="stop66FF66" /><stop style="stop-color:#96FF96;stop-opacity:1;" offset="0.5" id="stop96FF96" /><stop style="stop-color:#B6FFB6;stop-opacity:1;" offset="1.0" id="stopB6FFB6" /></linearGradient><linearGradient xmlns:xlink="http://www.w3.org/1999/xlink" xlink:href="#linearGradientF8FBFEEDF5FCDEEDFAD4E7F8E2E5E9" id="linearGradientF8FBFEEDF5FCDEEDFAD4E7F8E2E5E9_52206268" x1="0" y1="280.0" x2="0" y2="386.0" gradientUnits="userSpaceOnUse" xlink:type="simple" xlink:actuate="onLoad" xlink:show="other" /><linearGradient id="linearGradientF8FBFEEDF5FCDEEDFAD4E7F8E2E5E9"><stop style="stop-color:#F8FBFE;stop-opacity:1;" offset="0.0" id="stopF8FBFE" /><stop style="stop-color:#EDF5FC;stop-opacity:1;" offset="0.25" id="stopEDF5FC" /><stop style="stop-color:#DEEDFA;stop-opacity:1;" offset="0.5" id="stopDEEDFA" /><stop style="stop-color:#D4E7F8;stop-opacity:1;" offset="0.75" id="stopD4E7F8" /><stop style="stop-color:#E2E5E9;stop-opacity:1;" offset="1.0" id="stopE2E5E9" /></linearGradient><linearGradient xmlns:xlink="http://www.w3.org/1999/xlink" xlink:href="#linearGradientF8FBFEEDF5FCDEEDFAD4E7F8E2E5E9" id="linearGradientF8FBFEEDF5FCDEEDFAD4E7F8E2E5E9_119741959" x1="0" y1="280.0" x2="0" y2="386.0" gradientUnits="userSpaceOnUse" xlink:type="simple" xlink:actuate="onLoad" xlink:show="other" /><linearGradient xmlns:xlink="http://www.w3.org/1999/xlink" xlink:href="#linearGradientFF6666FF9696FFB6B6" id="linearGradientFF6666FF9696FFB6B6_1109495943" x1="0" y1="370.0" x2="0" y2="405.0" gradientUnits="userSpaceOnUse" xlink:type="simple" xlink:actuate="onLoad" xlink:show="other" /><linearGradient id="linearGradientFF6666FF9696FFB6B6"><stop style="stop-color:#FF6666;stop-opacity:1;" offset="0.0" id="stopFF6666" /><stop style="stop-color:#FF9696;stop-opacity:1;" offset="0.5" id="stopFF9696" /><stop style="stop-color:#FFB6B6;stop-opacity:1;" offset="1.0" id="stopFFB6B6" /></linearGradient><linearGradient xmlns:xlink="http://www.w3.org/1999/xlink" xlink:href="#linearGradientFAFBFCFFFFCC" id="linearGradientFAFBFCFFFFCC_336012665" x1="0" y1="270.0" x2="0" y2="330.0" gradientUnits="userSpaceOnUse" xlink:type="simple" xlink:actuate="onLoad" xlink:show="other" /><linearGradient id="linearGradientFAFBFCFFFFCC"><stop style="stop-color:#FAFBFC;stop-opacity:1;" offset="0.0" id="stopFAFBFC" /><stop style="stop-color:#FFFFCC;stop-opacity:1;" offset="1.0" id="stopFFFFCC" /></linearGradient><linearGradient xmlns:xlink="http://www.w3.org/1999/xlink" xlink:href="#linearGradientFF6666FF9696FFB6B6" id="linearGradientFF6666FF9696FFB6B6_1932104767" x1="0" y1="380.0" x2="0" y2="415.0" gradientUnits="userSpaceOnUse" xlink:type="simple" xlink:actuate="onLoad" xlink:show="other" /><linearGradient xmlns:xlink="http://www.w3.org/1999/xlink" xlink:href="#linearGradientF8FBFEEDF5FCDEEDFAD4E7F8E2E5E9" id="linearGradientF8FBFEEDF5FCDEEDFAD4E7F8E2E5E9_1826979707" x1="0" y1="350.0" x2="0" y2="456.0" gradientUnits="userSpaceOnUse" xlink:type="simple" xlink:actuate="onLoad" xlink:show="other" /><linearGradient xmlns:xlink="http://www.w3.org/1999/xlink" xlink:href="#linearGradientFAFBFCFFFFCC" id="linearGradientFAFBFCFFFFCC_571371464" x1="0" y1="270.0" x2="0" y2="330.0" gradientUnits="userSpaceOnUse" xlink:type="simple" xlink:actuate="onLoad" xlink:show="other" /><linearGradient xmlns:xlink="http://www.w3.org/1999/xlink" xlink:href="#linearGradientF8FBFEEDF5FCDEEDFAD4E7F8E2E5E9" id="linearGradientF8FBFEEDF5FCDEEDFAD4E7F8E2E5E9_252688925" x1="0" y1="240.0" x2="0" y2="346.0" gradientUnits="userSpaceOnUse" xlink:type="simple" xlink:actuate="onLoad" xlink:show="other" /></defs></svg>
