<?xml version="1.0" encoding="UTF-8"?>
<svg xmlns="http://www.w3.org/2000/svg" style="stroke-dasharray:none; shape-rendering:auto; font-family:'Arial'; text-rendering:auto; fill-opacity:1; color-interpolation:auto; color-rendering:auto; font-size:12; fill:black; stroke:black; image-rendering:auto; stroke-miterlimit:10; stroke-linecap:square; stroke-linejoin:miter; font-style:normal; stroke-width:1; stroke-dashoffset:0; font-weight:normal; stroke-opacity:1;" contentScriptType="text/ecmascript" preserveAspectRatio="xMidYMid meet" zoomAndPan="magnify" version="1.0" contentStyleType="text/css" xml:xlink="http://www.w3.org/1999/xlink" width="881" height="790"><rect x="10" y="10" width="871" height="780" ry="0" rx="0" style="stroke:#000000; fill:#FFFFFF" /><rect x="40" y="400" width="841" height="195" ry="0" rx="0" style="stroke:#000000; fill:#ADC9AC" /><g componentSequence="47"><text x="-497" y="47" transform="rotate(270)" text-anchor="middle" style="font-weight:bold;font-size:10px;stroke:none; fill:#434343"><tspan dy="14" x="-497">Departamento Pessoal</tspan></text></g><rect x="40" y="595" width="841" height="195" ry="0" rx="0" style="stroke:#000000; fill:#82B0B7" /><g componentSequence="39"><text x="-692" y="47" transform="rotate(270)" text-anchor="middle" style="font-weight:bold;font-size:10px;stroke:none; fill:#434343"><tspan dy="14" x="-692">Gerente de P&amp;C</tspan></text></g><rect x="40" y="205" width="841" height="195" ry="0" rx="0" style="stroke:#000000; fill:#C0C0C0" /><g componentSequence="3"><text x="-302" y="47" transform="rotate(270)" text-anchor="middle" style="font-weight:bold;font-size:10px;stroke:none; fill:#434343"><tspan dy="14" x="-302">Gestor imediato</tspan></text></g><rect x="40" y="10" width="841" height="195" ry="0" rx="0" style="stroke:#000000; fill:#9F9F9F" /><g componentSequence="2"><text x="-107" y="47" transform="rotate(270)" text-anchor="middle" style="font-weight:bold;font-size:10px;stroke:none; fill:#434343"><tspan dy="14" x="-107">Solicitante</tspan></text></g><g componentSequence="1"><text x="-400" y="17" transform="rotate(270)" text-anchor="middle" style="font-weight:bold;font-size:10px;stroke:none; fill:#434343"><tspan dy="14" x="-400">Solicitação de reembolso creche</tspan></text></g><g sequence="4"><ellipse cx="167" cy="87" rx="17" ry="17" stroke-width="1" style="fill:url(#linearGradient66FF6696FF96B6FFB6_300383087);" stroke="336633" /></g><g sequence="5"><rect x="120" y="240" width="106" height="84" ry="5" rx="5" style="fill:url(#linearGradientF8FBFEEDF5FCDEEDFAD4E7F8E2E5E9_522225443);" stroke="191970" /></g><g componentSequence="5"><text x="173" y="255" text-anchor="middle" style="font-weight:bold;font-size:10px;stroke:none; fill:#333399"><tspan dy="14" x="173">Aprovar</tspan><tspan dy="14" x="173">reembolso</tspan><tspan dy="14" x="173">auxilio creche</tspan></text></g><g sequence="21"><polygon points=" 320 454 350 424 380 454 350 484 320 454" style="fill:url(#linearGradientFAFBFCFFFFCC_455020575);" stroke="000000" /></g><g componentSequence="21"><text x="350" y="494" text-anchor="middle" style="font-weight:bold;font-size:10px;stroke:none; fill:#333399"><tspan dy="14" x="350">Validado</tspan><tspan dy="14" x="350">?</tspan></text></g><g sequence="27"><rect x="300" y="640" width="106" height="70" ry="5" rx="5" style="fill:url(#linearGradientF8FBFEEDF5FCDEEDFAD4E7F8E2E5E9_1578994968);" stroke="191970" /></g><g componentSequence="27"><text x="353" y="655" text-anchor="middle" style="font-weight:bold;font-size:10px;stroke:none; fill:#333399"><tspan dy="14" x="353">Autorizar</tspan><tspan dy="14" x="353">solicitação</tspan></text></g><g sequence="44"><ellipse cx="517" cy="474" rx="17" ry="17" stroke-width="3" style="fill:url(#linearGradientFF6666FF9696FFB6B6_1946921399);" stroke="993333" /></g><g sequence="44"><polygon points=" 508 470 513 465 518 470 523 465 528 470 523 475 528 480 523 485 518 480 513 485 508 480 513 475" style="stroke:none; fill:#993333" /></g><g sequence="48"><rect x="120" y="450" width="106" height="70" ry="5" rx="5" style="fill:url(#linearGradientF8FBFEEDF5FCDEEDFAD4E7F8E2E5E9_1871262090);" stroke="191970" /></g><g componentSequence="48"><text x="173" y="465" text-anchor="middle" style="font-weight:bold;font-size:10px;stroke:none; fill:#333399"><tspan dy="14" x="173">Validar</tspan><tspan dy="14" x="173">documento</tspan></text></g><g sequence="60"><polygon points=" 620 650 650 620 680 650 650 680 620 650" style="fill:url(#linearGradientFAFBFCFFFFCC_209013644);" stroke="000000" /></g><g componentSequence="60"><text x="650" y="690" text-anchor="middle" style="font-weight:bold;font-size:10px;stroke:none; fill:#333399"><tspan dy="14" x="650">Autoriza</tspan><tspan dy="14" x="650">do?</tspan></text></g><g sequence="66"><ellipse cx="817" cy="711" rx="17" ry="17" stroke-width="3" style="fill:url(#linearGradientFF6666FF9696FFB6B6_1043493463);" stroke="993333" /></g><g sequence="66"><polygon points=" 808 707 813 702 818 707 823 702 828 707 823 712 828 717 823 722 818 717 813 722 808 717 813 712" style="stroke:none; fill:#993333" /></g><g sequence="67"><rect x="600" y="430" width="106" height="70" ry="5" rx="5" style="fill:url(#linearGradientF8FBFEEDF5FCDEEDFAD4E7F8E2E5E9_400368183);" stroke="191970" /></g><g componentSequence="67"><text x="653" y="445" text-anchor="middle" style="font-weight:bold;font-size:10px;stroke:none; fill:#333399"><tspan dy="14" x="653">Alterar data de</tspan><tspan dy="14" x="653">pagamento</tspan></text></g><g sequence="69"><ellipse cx="807" cy="467" rx="17" ry="17" stroke-width="3" style="fill:url(#linearGradientFF6666FF9696FFB6B6_838751271);" stroke="993333" /></g><g sequence="71"><ellipse cx="807" cy="627" rx="17" ry="17" stroke-width="3" style="fill:url(#linearGradientFF6666FF9696FFB6B6_393298111);" stroke="993333" /></g><g componentSequence="6"><text x="180" y="172" style="font-size:10px;font-weight:none;stroke:none; fill:#333399" text-anchor="left" /></g><g componentSequence="25"><text x="450" y="474" style="font-size:10px;font-weight:none;stroke:none; fill:#333399" text-anchor="left" /></g><g componentSequence="55"><text x="283" y="479" style="font-size:10px;font-weight:none;stroke:none; fill:#333399" text-anchor="left" /></g><g componentSequence="56"><text x="361" y="583" style="font-size:10px;font-weight:none;stroke:none; fill:#333399" text-anchor="left" /></g><g componentSequence="57"><text x="183" y="387" style="font-size:10px;font-weight:none;stroke:none; fill:#333399" text-anchor="left" /></g><g componentSequence="61"><text x="523" y="673" style="font-size:10px;font-weight:none;stroke:none; fill:#333399" text-anchor="left" /></g><g componentSequence="63"><text x="745" y="647" style="font-size:10px;font-weight:none;stroke:none; fill:#333399" text-anchor="left" /></g><g componentSequence="65"><text x="750" y="693" style="font-size:10px;font-weight:none;stroke:none; fill:#333399" text-anchor="left" /></g><g componentSequence="68"><text x="661" y="560" style="font-size:10px;font-weight:none;stroke:none; fill:#333399" text-anchor="left" /></g><g componentSequence="70"><text x="758" y="466" style="font-size:10px;font-weight:none;stroke:none; fill:#333399" text-anchor="left" /></g><g componentSequence="74"><text x="319" y="741" style="font-size:10px;font-weight:none;stroke:none; fill:#333399" text-anchor="left" /></g><path style="fill:none; stroke:#F00000;stroke-width:1" d="M167.0 104.0 L171.0 239.0" /><polygon style="fill:#F00000; stroke:#F00000;" points=" 176 229 171 239 166 229 171 231" /><polygon style="fill:#F00000; stroke:#F00000;" points=" 162 114 167 104 172 114 167 112" /><path style="fill:none; stroke:#000000;stroke-width:1" d="M173.0 324.0 L173.0 449.0" /><polygon style="fill:#000000; stroke:#000000;" points=" 178 439 173 449 168 439 173 441" /><path style="fill:none; stroke:#000000;stroke-width:1" d="M380.0 474.0 L500.0 474.0" /><polygon style="fill:#000000; stroke:#000000;" points=" 490 469 500 474 490 479 492 474" /><path style="fill:none; stroke:#000000;stroke-width:1" d="M350.0 526.0 L352.0 639.0" /><polygon style="fill:#000000; stroke:#000000;" points=" 357 629 352 639 347 629 352 631" /><path style="fill:none; stroke:#000000;stroke-width:1" d="M226.0 482.0 L319.0 476.0" /><polygon style="fill:#000000; stroke:#000000;" points=" 309 472 319 476 309 482 311 477" /><path style="fill:none; stroke:#000000;stroke-width:1" d="M406.0 674.0 L619.0 671.0" /><polygon style="fill:#000000; stroke:#000000;" points=" 609 666 619 671 609 676 611 671" /><path style="fill:none; stroke:#000000;stroke-width:1" d="M649.0 722.0 L649.0 740.0 L505.0 740.0 L172.0 741.0 L172.0 520.0" /><polygon style="fill:#000000; stroke:#000000;" points=" 167 530 172 520 177 530 172 528" /><path style="fill:none; stroke:#000000;stroke-width:1" d="M680.0 662.0 L790.0 631.0" /><polygon style="fill:#000000; stroke:#000000;" points=" 779 629 790 631 782 639 782 633" /><path style="fill:none; stroke:#000000;stroke-width:1" d="M680.0 678.0 L800.0 707.0" /><polygon style="fill:#000000; stroke:#000000;" points=" 791 700 800 707 789 710 792 705" /><path style="fill:none; stroke:#000000;stroke-width:1" d="M650.0 619.0 L652.0 500.0" /><polygon style="fill:#000000; stroke:#000000;" points=" 647 510 652 500 657 510 652 508" /><path style="fill:none; stroke:#000000;stroke-width:1" d="M706.0 465.0 L790.0 467.0" /><polygon style="fill:#000000; stroke:#000000;" points=" 780 462 790 467 780 472 782 467" /><defs><linearGradient xmlns:xlink="http://www.w3.org/1999/xlink" xlink:href="#linearGradient66FF6696FF96B6FFB6" id="linearGradient66FF6696FF96B6FFB6_300383087" x1="0" y1="70.0" x2="0" y2="105.0" gradientUnits="userSpaceOnUse" xlink:type="simple" xlink:actuate="onLoad" xlink:show="other" /><linearGradient id="linearGradient66FF6696FF96B6FFB6"><stop style="stop-color:#66FF66;stop-opacity:1;" offset="0.0" id="stop66FF66" /><stop style="stop-color:#96FF96;stop-opacity:1;" offset="0.5" id="stop96FF96" /><stop style="stop-color:#B6FFB6;stop-opacity:1;" offset="1.0" id="stopB6FFB6" /></linearGradient><linearGradient xmlns:xlink="http://www.w3.org/1999/xlink" xlink:href="#linearGradientF8FBFEEDF5FCDEEDFAD4E7F8E2E5E9" id="linearGradientF8FBFEEDF5FCDEEDFAD4E7F8E2E5E9_522225443" x1="0" y1="240.0" x2="0" y2="346.0" gradientUnits="userSpaceOnUse" xlink:type="simple" xlink:actuate="onLoad" xlink:show="other" /><linearGradient id="linearGradientF8FBFEEDF5FCDEEDFAD4E7F8E2E5E9"><stop style="stop-color:#F8FBFE;stop-opacity:1;" offset="0.0" id="stopF8FBFE" /><stop style="stop-color:#EDF5FC;stop-opacity:1;" offset="0.25" id="stopEDF5FC" /><stop style="stop-color:#DEEDFA;stop-opacity:1;" offset="0.5" id="stopDEEDFA" /><stop style="stop-color:#D4E7F8;stop-opacity:1;" offset="0.75" id="stopD4E7F8" /><stop style="stop-color:#E2E5E9;stop-opacity:1;" offset="1.0" id="stopE2E5E9" /></linearGradient><linearGradient xmlns:xlink="http://www.w3.org/1999/xlink" xlink:href="#linearGradientFAFBFCFFFFCC" id="linearGradientFAFBFCFFFFCC_455020575" x1="0" y1="424.0" x2="0" y2="484.0" gradientUnits="userSpaceOnUse" xlink:type="simple" xlink:actuate="onLoad" xlink:show="other" /><linearGradient id="linearGradientFAFBFCFFFFCC"><stop style="stop-color:#FAFBFC;stop-opacity:1;" offset="0.0" id="stopFAFBFC" /><stop style="stop-color:#FFFFCC;stop-opacity:1;" offset="1.0" id="stopFFFFCC" /></linearGradient><linearGradient xmlns:xlink="http://www.w3.org/1999/xlink" xlink:href="#linearGradientF8FBFEEDF5FCDEEDFAD4E7F8E2E5E9" id="linearGradientF8FBFEEDF5FCDEEDFAD4E7F8E2E5E9_1578994968" x1="0" y1="640.0" x2="0" y2="746.0" gradientUnits="userSpaceOnUse" xlink:type="simple" xlink:actuate="onLoad" xlink:show="other" /><linearGradient xmlns:xlink="http://www.w3.org/1999/xlink" xlink:href="#linearGradientFF6666FF9696FFB6B6" id="linearGradientFF6666FF9696FFB6B6_1946921399" x1="0" y1="457.0" x2="0" y2="492.0" gradientUnits="userSpaceOnUse" xlink:type="simple" xlink:actuate="onLoad" xlink:show="other" /><linearGradient id="linearGradientFF6666FF9696FFB6B6"><stop style="stop-color:#FF6666;stop-opacity:1;" offset="0.0" id="stopFF6666" /><stop style="stop-color:#FF9696;stop-opacity:1;" offset="0.5" id="stopFF9696" /><stop style="stop-color:#FFB6B6;stop-opacity:1;" offset="1.0" id="stopFFB6B6" /></linearGradient><linearGradient xmlns:xlink="http://www.w3.org/1999/xlink" xlink:href="#linearGradientF8FBFEEDF5FCDEEDFAD4E7F8E2E5E9" id="linearGradientF8FBFEEDF5FCDEEDFAD4E7F8E2E5E9_1871262090" x1="0" y1="450.0" x2="0" y2="556.0" gradientUnits="userSpaceOnUse" xlink:type="simple" xlink:actuate="onLoad" xlink:show="other" /><linearGradient xmlns:xlink="http://www.w3.org/1999/xlink" xlink:href="#linearGradientFAFBFCFFFFCC" id="linearGradientFAFBFCFFFFCC_209013644" x1="0" y1="620.0" x2="0" y2="680.0" gradientUnits="userSpaceOnUse" xlink:type="simple" xlink:actuate="onLoad" xlink:show="other" /><linearGradient xmlns:xlink="http://www.w3.org/1999/xlink" xlink:href="#linearGradientFF6666FF9696FFB6B6" id="linearGradientFF6666FF9696FFB6B6_1043493463" x1="0" y1="694.0" x2="0" y2="729.0" gradientUnits="userSpaceOnUse" xlink:type="simple" xlink:actuate="onLoad" xlink:show="other" /><linearGradient xmlns:xlink="http://www.w3.org/1999/xlink" xlink:href="#linearGradientF8FBFEEDF5FCDEEDFAD4E7F8E2E5E9" id="linearGradientF8FBFEEDF5FCDEEDFAD4E7F8E2E5E9_400368183" x1="0" y1="430.0" x2="0" y2="536.0" gradientUnits="userSpaceOnUse" xlink:type="simple" xlink:actuate="onLoad" xlink:show="other" /><linearGradient xmlns:xlink="http://www.w3.org/1999/xlink" xlink:href="#linearGradientFF6666FF9696FFB6B6" id="linearGradientFF6666FF9696FFB6B6_838751271" x1="0" y1="450.0" x2="0" y2="485.0" gradientUnits="userSpaceOnUse" xlink:type="simple" xlink:actuate="onLoad" xlink:show="other" /><linearGradient xmlns:xlink="http://www.w3.org/1999/xlink" xlink:href="#linearGradientFF6666FF9696FFB6B6" id="linearGradientFF6666FF9696FFB6B6_393298111" x1="0" y1="610.0" x2="0" y2="645.0" gradientUnits="userSpaceOnUse" xlink:type="simple" xlink:actuate="onLoad" xlink:show="other" /></defs></svg>
