<?xml version="1.0" encoding="UTF-8"?>
<svg xmlns="http://www.w3.org/2000/svg" style="stroke-dasharray:none; shape-rendering:auto; font-family:'Arial'; text-rendering:auto; fill-opacity:1; color-interpolation:auto; color-rendering:auto; font-size:12; fill:black; stroke:black; image-rendering:auto; stroke-miterlimit:10; stroke-linecap:square; stroke-linejoin:miter; font-style:normal; stroke-width:1; stroke-dashoffset:0; font-weight:normal; stroke-opacity:1;" contentScriptType="text/ecmascript" preserveAspectRatio="xMidYMid meet" zoomAndPan="magnify" version="1.0" contentStyleType="text/css" xml:xlink="http://www.w3.org/1999/xlink" width="1761" height="1561"><rect x="10" y="10" width="1751" height="1551" ry="0" rx="0" style="stroke:#000000; fill:#FFFFFF" /><rect x="40" y="1300" width="1721" height="261" ry="0" rx="0" style="stroke:#000000; fill:#D6E0D0" /><g componentSequence="7"><text x="-1430" y="47" transform="rotate(270)" text-anchor="middle" style="font-weight:bold;font-size:10px;stroke:none; fill:#434343"><tspan dy="14" x="-1430">Diretoria Nacional</tspan></text></g><rect x="40" y="784" width="1721" height="258" ry="0" rx="0" style="stroke:#000000; fill:#ADC9AC" /><g componentSequence="6"><text x="-913" y="47" transform="rotate(270)" text-anchor="middle" style="font-weight:bold;font-size:10px;stroke:none; fill:#434343"><tspan dy="14" x="-913">Diretor Financeiro</tspan></text></g><rect x="40" y="1042" width="1721" height="258" ry="0" rx="0" style="stroke:#000000; fill:#D0DAAE" /><g componentSequence="5"><text x="-1171" y="47" transform="rotate(270)" text-anchor="middle" style="font-weight:bold;font-size:10px;stroke:none; fill:#434343"><tspan dy="14" x="-1171">Comitê de compras</tspan></text></g><rect x="40" y="268" width="1721" height="258" ry="0" rx="0" style="stroke:#000000; fill:#82B0B7" /><g componentSequence="4"><text x="-397" y="47" transform="rotate(270)" text-anchor="middle" style="font-weight:bold;font-size:10px;stroke:none; fill:#434343"><tspan dy="14" x="-397">Tesouraria</tspan></text></g><rect x="40" y="526" width="1721" height="258" ry="0" rx="0" style="stroke:#000000; fill:#C0C0C0" /><g componentSequence="3"><text x="-655" y="47" transform="rotate(270)" text-anchor="middle" style="font-weight:bold;font-size:10px;stroke:none; fill:#434343"><tspan dy="14" x="-655">Gerente de ADM</tspan></text></g><rect x="40" y="10" width="1721" height="258" ry="0" rx="0" style="stroke:#000000; fill:#9F9F9F" /><g componentSequence="2"><text x="-139" y="47" transform="rotate(270)" text-anchor="middle" style="font-weight:bold;font-size:10px;stroke:none; fill:#434343"><tspan dy="14" x="-139">Administração</tspan></text></g><g componentSequence="1"><text x="-785" y="17" transform="rotate(270)" text-anchor="middle" style="font-weight:bold;font-size:10px;stroke:none; fill:#434343"><tspan dy="14" x="-785">Solicitação de Adiantamento ao Fornecedor</tspan></text></g><g sequence="4"><ellipse cx="167" cy="99" rx="17" ry="17" stroke-width="1" style="fill:url(#linearGradient66FF6696FF96B6FFB6_425207200);" stroke="336633" /></g><g sequence="5"><rect x="430" y="860" width="106" height="56" ry="5" rx="5" style="fill:url(#linearGradientF8FBFEEDF5FCDEEDFAD4E7F8E2E5E9_396347643);" stroke="191970" /></g><g componentSequence="5"><text x="483" y="877" text-anchor="middle" style="font-weight:bold;font-size:10px;stroke:none; fill:#333399"><tspan dy="14" x="483">Aprovar ADF</tspan></text></g><g sequence="10"><rect x="1520" y="350" width="106" height="70" ry="5" rx="5" style="fill:url(#linearGradientF8FBFEEDF5FCDEEDFAD4E7F8E2E5E9_329273040);" stroke="191970" /></g><g componentSequence="10"><text x="1573" y="365" text-anchor="middle" style="font-weight:bold;font-size:10px;stroke:none; fill:#333399"><tspan dy="14" x="1573">Gerar</tspan><tspan dy="14" x="1573">adiantamento</tspan></text></g><g sequence="24"><rect x="1340" y="70" width="106" height="98" ry="5" rx="5" style="fill:url(#linearGradientF8FBFEEDF5FCDEEDFAD4E7F8E2E5E9_1453507264);" stroke="191970" /></g><g componentSequence="24"><text x="1393" y="85" text-anchor="middle" style="font-weight:bold;font-size:10px;stroke:none; fill:#333399"><tspan dy="14" x="1393">Gerar</tspan><tspan dy="14" x="1393">adiantamento de</tspan><tspan dy="14" x="1393">cartão de</tspan><tspan dy="14" x="1393">credito</tspan></text></g><g sequence="26"><ellipse cx="1607" cy="117" rx="17" ry="17" stroke-width="3" style="fill:url(#linearGradientFF6666FF9696FFB6B6_244291729);" stroke="993333" /></g><g sequence="31"><rect x="230" y="640" width="106" height="56" ry="5" rx="5" style="fill:url(#linearGradientF8FBFEEDF5FCDEEDFAD4E7F8E2E5E9_1740525995);" stroke="191970" /></g><g componentSequence="31"><text x="283" y="657" text-anchor="middle" style="font-weight:bold;font-size:10px;stroke:none; fill:#333399"><tspan dy="14" x="283">Aprovar ADF</tspan></text></g><g sequence="40"><ellipse cx="1717" cy="447" rx="17" ry="17" stroke-width="3" style="fill:url(#linearGradientFF6666FF9696FFB6B6_1987663170);" stroke="993333" /></g><g sequence="40"><polygon points=" 1708 443 1713 438 1718 443 1723 438 1728 443 1723 448 1728 453 1723 458 1718 453 1713 458 1708 453 1713 448" style="stroke:none; fill:#993333" /></g><g sequence="46"><rect x="1170" y="1390" width="106" height="84" ry="5" rx="5" style="fill:url(#linearGradientF8FBFEEDF5FCDEEDFAD4E7F8E2E5E9_915225999);" stroke="191970" /></g><g componentSequence="46"><text x="1223" y="1405" text-anchor="middle" style="font-weight:bold;font-size:10px;stroke:none; fill:#333399"><tspan dy="14" x="1223">Aprovar-</tspan><tspan dy="14" x="1223">Diretoria</tspan><tspan dy="14" x="1223">Nacional</tspan></text></g><g sequence="48"><rect x="590" y="1090" width="106" height="84" ry="5" rx="5" style="fill:url(#linearGradientF8FBFEEDF5FCDEEDFAD4E7F8E2E5E9_1152676063);" stroke="191970" /></g><g componentSequence="48"><text x="643" y="1105" text-anchor="middle" style="font-weight:bold;font-size:10px;stroke:none; fill:#333399"><tspan dy="14" x="643">Aprovar-</tspan><tspan dy="14" x="643">Diretoria de</tspan><tspan dy="14" x="643">Suporte</tspan></text></g><g sequence="50"><rect x="760" y="1090" width="106" height="84" ry="5" rx="5" style="fill:url(#linearGradientF8FBFEEDF5FCDEEDFAD4E7F8E2E5E9_1368543979);" stroke="191970" /></g><g componentSequence="50"><text x="813" y="1105" text-anchor="middle" style="font-weight:bold;font-size:10px;stroke:none; fill:#333399"><tspan dy="14" x="813">Aprovar-</tspan><tspan dy="14" x="813">Diretoria de</tspan><tspan dy="14" x="813">Ministerio</tspan></text></g><g sequence="52"><rect x="920" y="1090" width="106" height="84" ry="5" rx="5" style="fill:url(#linearGradientF8FBFEEDF5FCDEEDFAD4E7F8E2E5E9_1836965598);" stroke="191970" /></g><g componentSequence="52"><text x="973" y="1105" text-anchor="middle" style="font-weight:bold;font-size:10px;stroke:none; fill:#333399"><tspan dy="14" x="973">Aprovar-</tspan><tspan dy="14" x="973">Diretoria de MKT</tspan></text></g><g sequence="54"><rect x="1080" y="1090" width="106" height="84" ry="5" rx="5" style="fill:url(#linearGradientF8FBFEEDF5FCDEEDFAD4E7F8E2E5E9_851699643);" stroke="191970" /></g><g componentSequence="54"><text x="1133" y="1105" text-anchor="middle" style="font-weight:bold;font-size:10px;stroke:none; fill:#333399"><tspan dy="14" x="1133">Aprovar-</tspan><tspan dy="14" x="1133">Diretoria de</tspan><tspan dy="14" x="1133">Advocacy</tspan></text></g><g sequence="75"><polygon points=" 450 650 480 620 510 650 480 680 450 650" style="fill:url(#linearGradientFAFBFCFFFFCC_1435917236);" stroke="000000" /></g><g componentSequence="75"><text x="480" y="690" text-anchor="middle" style="font-weight:bold;font-size:10px;stroke:none; fill:#333399"><tspan dy="14" x="480">Aprovad</tspan><tspan dy="14" x="480">o?</tspan></text></g><g sequence="79"><ellipse cx="1717" cy="327" rx="17" ry="17" stroke-width="3" style="fill:url(#linearGradientFF6666FF9696FFB6B6_382754535);" stroke="993333" /></g><g sequence="81"><polygon points=" 610 870 640 840 670 870 640 900 610 870" style="fill:url(#linearGradientFAFBFCFFFFCC_358152653);" stroke="000000" /></g><g componentSequence="81"><text x="640" y="910" text-anchor="middle" style="font-weight:bold;font-size:10px;stroke:none; fill:#333399"><tspan dy="14" x="640">Aprovad</tspan><tspan dy="14" x="640">o?</tspan></text></g><g sequence="94"><polygon points=" 1370 370 1400 340 1430 370 1400 400 1370 370" style="fill:url(#linearGradientFAFBFCFFFFCC_948648674);" stroke="000000" /></g><g componentSequence="94"><text x="1400" y="410" text-anchor="middle" style="font-weight:bold;font-size:10px;stroke:none; fill:#333399"><tspan dy="14" x="1400">forma de</tspan><tspan dy="14" x="1400">pagame</tspan><tspan dy="14" x="1400">nto</tspan></text></g><g sequence="99"><polygon points=" 140 190 170 160 200 190 170 220 140 190" style="fill:url(#linearGradientFAFBFCFFFFCC_1596427708);" stroke="000000" /></g><g componentSequence="99"><text x="170" y="230" text-anchor="middle" style="font-weight:bold;font-size:10px;stroke:none; fill:#333399"><tspan dy="14" x="170">Verifica</tspan><tspan dy="14" x="170">orçada</tspan></text></g><rect x="210" y="20" width="105" height="55" ry="5" rx="5" style="stroke:none; fill:#FFFFE0" /><g componentSequence="7"><text x="220" y="33" text-anchor="left" style="font-weight:bold;font-size:10px;stroke:none; fill:#000000"><tspan dy="14" x="220">Start</tspan></text></g><path style="fill:none; stroke-width:1; stroke:#000000;" d="M230.0 20.0 L210.0 20.0 L210.0 75.0 L230.0 75.0" /><g sequence="116"><polygon points=" 870 860 900 830 930 860 900 890 870 860" style="fill:url(#linearGradientFAFBFCFFFFCC_1268045785);" stroke="000000" /></g><path style="fill:none; stroke-width:6; stroke:#000000;" d="M890.0 860.0 L910.0 860.0" /><path style="fill:none; stroke-width:6; stroke:#000000;" d="M900.0 850.0 L900.0 870.0" /><g componentSequence="116"><text x="900" y="900" text-anchor="middle" style="font-weight:bold;font-size:10px;stroke:none; fill:#333399"><tspan dy="14" x="900">Envia</tspan><tspan dy="14" x="900">para</tspan><tspan dy="14" x="900">comitê</tspan></text></g><g sequence="117"><polygon points=" 870 1240 900 1210 930 1240 900 1270 870 1240" style="fill:url(#linearGradientFAFBFCFFFFCC_433117687);" stroke="000000" /></g><path style="fill:none; stroke-width:6; stroke:#000000;" d="M890.0 1240.0 L910.0 1240.0" /><path style="fill:none; stroke-width:6; stroke:#000000;" d="M900.0 1230.0 L900.0 1250.0" /><g componentSequence="117"><text x="900" y="1273" text-anchor="middle" style="font-weight:bold;font-size:10px;stroke:none; fill:#333399"><tspan dy="14" x="900">Join</tspan></text></g><g sequence="121"><ellipse cx="597" cy="667" rx="17" ry="17" stroke-width="3" style="fill:url(#linearGradientFF6666FF9696FFB6B6_2028846085);" stroke="993333" /></g><g sequence="121"><polygon points=" 588 663 593 658 598 663 603 658 608 663 603 668 608 673 603 678 598 673 593 678 588 673 593 668" style="stroke:none; fill:#993333" /></g><g sequence="124"><ellipse cx="637" cy="977" rx="17" ry="17" stroke-width="3" style="fill:url(#linearGradientFF6666FF9696FFB6B6_457475273);" stroke="993333" /></g><g sequence="124"><polygon points=" 628 973 633 968 638 973 643 968 648 973 643 978 648 983 643 988 638 983 633 988 628 983 633 978" style="stroke:none; fill:#993333" /></g><g sequence="133"><polygon points=" 870 1400 900 1370 930 1400 900 1430 870 1400" style="fill:url(#linearGradientFAFBFCFFFFCC_1988342375);" stroke="000000" /></g><g componentSequence="133"><text x="900" y="1440" text-anchor="middle" style="font-weight:bold;font-size:10px;stroke:none; fill:#333399"><tspan dy="14" x="900">Aprovad</tspan><tspan dy="14" x="900">o?</tspan></text></g><g sequence="137"><ellipse cx="767" cy="1416" rx="17" ry="17" stroke-width="3" style="fill:url(#linearGradientFF6666FF9696FFB6B6_1770246689);" stroke="993333" /></g><g sequence="137"><polygon points=" 758 1412 763 1407 768 1412 773 1407 778 1412 773 1417 778 1422 773 1427 768 1422 763 1427 758 1422 763 1417" style="stroke:none; fill:#993333" /></g><g sequence="140"><polygon points=" 1370 1413 1400 1383 1430 1413 1400 1443 1370 1413" style="fill:url(#linearGradientFAFBFCFFFFCC_2082166400);" stroke="000000" /></g><g componentSequence="140"><text x="1400" y="1453" text-anchor="middle" style="font-weight:bold;font-size:10px;stroke:none; fill:#333399"><tspan dy="14" x="1400">Aprovad</tspan><tspan dy="14" x="1400">o?</tspan></text></g><g sequence="145"><ellipse cx="1557" cy="1427" rx="17" ry="17" stroke-width="3" style="fill:url(#linearGradientFF6666FF9696FFB6B6_1128724230);" stroke="993333" /></g><g sequence="145"><polygon points=" 1548 1423 1553 1418 1558 1423 1563 1418 1568 1423 1563 1428 1568 1433 1563 1438 1558 1433 1553 1438 1548 1433 1553 1428" style="stroke:none; fill:#993333" /></g><g componentSequence="27"><text x="1528" y="118" style="font-size:10px;font-weight:none;stroke:none; fill:#333399" text-anchor="left" /></g><g componentSequence="39"><text x="1673" y="424" style="font-size:10px;font-weight:none;stroke:none; fill:#333399" text-anchor="left" /></g><g componentSequence="76"><text x="403" y="669" style="font-size:10px;font-weight:none;stroke:none; fill:#333399" text-anchor="left" /></g><g componentSequence="77"><text x="491" y="791" style="font-size:10px;font-weight:none;stroke:none; fill:#333399" text-anchor="left" /></g><g componentSequence="80"><text x="1673" y="349" style="font-size:10px;font-weight:none;stroke:none; fill:#333399" text-anchor="left" /></g><g componentSequence="82"><text x="583" y="890" style="font-size:10px;font-weight:none;stroke:none; fill:#333399" text-anchor="left" /></g><g componentSequence="95"><text x="820" y="393" style="font-size:10px;font-weight:none;stroke:none; fill:#333399" text-anchor="left" /></g><g componentSequence="96"><text x="1485" y="392" style="font-size:10px;font-weight:none;stroke:none; fill:#333399" text-anchor="left" /></g><g componentSequence="97"><text x="1406" y="254" style="font-size:10px;font-weight:none;stroke:none; fill:#333399" text-anchor="left" /></g><g componentSequence="100"><text x="178" y="138" style="font-size:10px;font-weight:none;stroke:none; fill:#333399" text-anchor="left" /></g><g componentSequence="101"><text x="291" y="383" style="font-size:10px;font-weight:none;stroke:none; fill:#333399" text-anchor="left" /></g><g componentSequence="102"><text x="178" y="704" style="font-size:10px;font-weight:none;stroke:none; fill:#333399" text-anchor="left" /></g><g componentSequence="8"><text x="182" y="48" style="font-size:10px;font-weight:none;stroke:none; fill:#333399" text-anchor="left" /></g><g componentSequence="120"><text x="555" y="669" style="font-size:10px;font-weight:none;stroke:none; fill:#333399" text-anchor="left" /></g><g componentSequence="123"><text x="648" y="951" style="font-size:10px;font-weight:none;stroke:none; fill:#333399" text-anchor="left" /></g><g componentSequence="125"><text x="788" y="1003" style="font-size:10px;font-weight:none;stroke:none; fill:#333399" text-anchor="left" /></g><g componentSequence="126"><text x="864" y="1018" style="font-size:10px;font-weight:none;stroke:none; fill:#333399" text-anchor="left" /></g><g componentSequence="127"><text x="949" y="1018" style="font-size:10px;font-weight:none;stroke:none; fill:#333399" text-anchor="left" /></g><g componentSequence="128"><text x="1021" y="1004" style="font-size:10px;font-weight:none;stroke:none; fill:#333399" text-anchor="left" /></g><g componentSequence="129"><text x="793" y="1198" style="font-size:10px;font-weight:none;stroke:none; fill:#333399" text-anchor="left" /></g><g componentSequence="130"><text x="866" y="1193" style="font-size:10px;font-weight:none;stroke:none; fill:#333399" text-anchor="left" /></g><g componentSequence="131"><text x="947" y="1192" style="font-size:10px;font-weight:none;stroke:none; fill:#333399" text-anchor="left" /></g><g componentSequence="132"><text x="1015" y="1199" style="font-size:10px;font-weight:none;stroke:none; fill:#333399" text-anchor="left" /></g><g componentSequence="134"><text x="910" y="1334" style="font-size:10px;font-weight:none;stroke:none; fill:#333399" text-anchor="left" /></g><g componentSequence="136"><text x="837" y="1418" style="font-size:10px;font-weight:none;stroke:none; fill:#333399" text-anchor="left" /></g><g componentSequence="138"><text x="1060" y="1426" style="font-size:10px;font-weight:none;stroke:none; fill:#333399" text-anchor="left" /></g><g componentSequence="139"><text x="1407" y="1098" style="font-size:10px;font-weight:none;stroke:none; fill:#333399" text-anchor="left" /></g><g componentSequence="141"><text x="1333" y="1433" style="font-size:10px;font-weight:none;stroke:none; fill:#333399" text-anchor="left" /></g><g componentSequence="142"><text x="1410" y="919" style="font-size:10px;font-weight:none;stroke:none; fill:#333399" text-anchor="left" /></g><g componentSequence="144"><text x="1495" y="1430" style="font-size:10px;font-weight:none;stroke:none; fill:#333399" text-anchor="left" /></g><g componentSequence="146"><text x="1030" y="644" style="font-size:10px;font-weight:none;stroke:none; fill:#333399" text-anchor="left" /></g><g componentSequence="147"><text x="780" y="889" style="font-size:10px;font-weight:none;stroke:none; fill:#333399" text-anchor="left" /></g><path style="fill:none; stroke:#000000;stroke-width:1" d="M166.0 116.0 L168.0 158.0" /><polygon style="fill:#000000; stroke:#000000;" points=" 173 148 168 158 163 148 168 150" /><path style="fill:none; stroke:#000000;stroke-dasharray:2" d="M208.0 48.0 L167.0 48.0 L166.0 80.0" /><path style="fill:none; stroke:#000000;stroke-width:1" d="M536.0 888.0 L608.0 890.0" /><polygon style="fill:#000000; stroke:#000000;" points=" 598 885 608 890 598 895 600 890" /><polygon style="fill:#000000; stroke:#000000;" points=" 541 883 551 893" /><path style="fill:none; stroke:#000000;stroke-width:1" d="M480.0 722.0 L481.0 858.0" /><polygon style="fill:#000000; stroke:#000000;" points=" 486 848 481 858 476 848 481 850" /><path style="fill:none; stroke:#000000;stroke-width:1" d="M169.0 262.0 L168.0 885.0 L428.0 886.0" /><polygon style="fill:#000000; stroke:#000000;" points=" 418 881 428 886 418 891 420 886" /><path style="fill:none; stroke:#000000;stroke-width:1" d="M1626.0 408.0 L1701.0 440.0" /><polygon style="fill:#000000; stroke:#000000;" points=" 1694 431 1701 440 1690 441 1694 437" /><path style="fill:none; stroke:#000000;stroke-width:1" d="M1626.0 362.0 L1700.0 333.0" /><polygon style="fill:#000000; stroke:#000000;" points=" 1689 332 1700 333 1693 341 1693 336" /><polygon style="fill:#000000; stroke:#000000;" points=" 1629 356 1642 361" /><path style="fill:none; stroke:#000000;stroke-width:1" d="M1430.0 394.0 L1518.0 388.0" /><polygon style="fill:#000000; stroke:#000000;" points=" 1508 384 1518 388 1508 394 1510 389" /><path style="fill:none; stroke:#000000;stroke-width:1" d="M1446.0 117.0 L1589.0 117.0" /><polygon style="fill:#000000; stroke:#000000;" points=" 1579 112 1589 117 1579 122 1581 117" /><path style="fill:none; stroke:#000000;stroke-width:1" d="M1397.0 338.0 L1393.0 168.0" /><polygon style="fill:#000000; stroke:#000000;" points=" 1388 178 1393 168 1398 178 1393 176" /><path style="fill:none; stroke:#000000;stroke-width:1" d="M336.0 668.0 L448.0 670.0" /><polygon style="fill:#000000; stroke:#000000;" points=" 438 665 448 670 438 675 440 670" /><polygon style="fill:#000000; stroke:#000000;" points=" 341 663 351 673" /><path style="fill:none; stroke:#000000;stroke-width:1" d="M200.0 209.0 L280.0 208.0 L281.0 638.0" /><polygon style="fill:#000000; stroke:#000000;" points=" 286 628 281 638 276 628 281 630" /><path style="fill:none; stroke:#000000;stroke-width:1" d="M480.0 618.0 L480.0 390.0 L1368.0 397.0" /><polygon style="fill:#000000; stroke:#000000;" points=" 1358 392 1368 397 1358 402 1360 397" /><path style="fill:none; stroke:#000000;stroke-width:1" d="M510.0 669.0 L580.0 666.0" /><polygon style="fill:#000000; stroke:#000000;" points=" 570 661 580 666 570 671 572 666" /><path style="fill:none; stroke:#000000;stroke-width:1" d="M637.0 942.0 L637.0 960.0" /><polygon style="fill:#000000; stroke:#000000;" points=" 642 950 637 960 632 950 637 952" /><path style="fill:none; stroke:#000000;stroke-width:1" d="M868.0 917.0 L688.0 1088.0" /><polygon style="fill:#000000; stroke:#000000;" points=" 699 1085 688 1088 692 1077 694 1082" /><path style="fill:none; stroke:#000000;stroke-width:1" d="M878.0 946.0 L828.0 1088.0" /><polygon style="fill:#000000; stroke:#000000;" points=" 836 1080 828 1088 827 1077 831 1080" /><path style="fill:none; stroke:#000000;stroke-width:1" d="M917.0 946.0 L960.0 1088.0" /><polygon style="fill:#000000; stroke:#000000;" points=" 962 1077 960 1088 952 1080 958 1080" /><path style="fill:none; stroke:#000000;stroke-width:1" d="M930.0 920.0 L1090.0 1088.0" /><polygon style="fill:#000000; stroke:#000000;" points=" 1087 1077 1090 1088 1079 1084 1084 1082" /><path style="fill:none; stroke:#000000;stroke-width:1" d="M696.0 1157.0 L868.0 1238.0" /><polygon style="fill:#000000; stroke:#000000;" points=" 861 1229 868 1238 857 1238 861 1235" /><path style="fill:none; stroke:#000000;stroke-width:1" d="M844.0 1174.0 L868.0 1209.0" /><polygon style="fill:#000000; stroke:#000000;" points=" 866 1198 868 1209 858 1204 863 1202" /><path style="fill:none; stroke:#000000;stroke-width:1" d="M900.0 1298.0 L900.0 1368.0" /><polygon style="fill:#000000; stroke:#000000;" points=" 905 1358 900 1368 895 1358 900 1360" /><path style="fill:none; stroke:#000000;stroke-width:1" d="M868.0 1418.0 L784.0 1416.0" /><polygon style="fill:#000000; stroke:#000000;" points=" 794 1421 784 1416 794 1411 792 1416" /><path style="fill:none; stroke:#000000;stroke-width:1" d="M930.0 1421.0 L1168.0 1429.0" /><polygon style="fill:#000000; stroke:#000000;" points=" 1158 1424 1168 1429 1158 1434 1160 1429" /><path style="fill:none; stroke:#000000;stroke-width:1" d="M930.0 1409.0 L1397.0 1244.0 L1398.0 456.0" /><polygon style="fill:#000000; stroke:#000000;" points=" 1393 466 1398 456 1403 466 1398 464" /><path style="fill:none; stroke:#000000;stroke-width:1" d="M1276.0 1432.0 L1368.0 1433.0" /><polygon style="fill:#000000; stroke:#000000;" points=" 1358 1428 1368 1433 1358 1438 1360 1433" /><path style="fill:none; stroke:#000000;stroke-width:1" d="M1400.0 1381.0 L1400.0 456.0" /><polygon style="fill:#000000; stroke:#000000;" points=" 1395 466 1400 456 1405 466 1400 464" /><path style="fill:none; stroke:#000000;stroke-width:1" d="M1430.0 1432.0 L1540.0 1426.0" /><polygon style="fill:#000000; stroke:#000000;" points=" 1530 1422 1540 1426 1530 1432 1532 1426" /><path style="fill:none; stroke:#000000;stroke-width:1" d="M670.0 870.0 L1368.0 417.0" /><polygon style="fill:#000000; stroke:#000000;" points=" 1357 418 1368 417 1362 427 1361 421" /><path style="fill:none; stroke:#000000;stroke-width:1" d="M670.0 890.0 L868.0 888.0" /><polygon style="fill:#000000; stroke:#000000;" points=" 858 883 868 888 858 893 860 888" /><path style="fill:none; stroke:#000000;stroke-width:1" d="M946.0 1174.0 L926.0 1208.0" /><polygon style="fill:#000000; stroke:#000000;" points=" 935 1202 926 1208 927 1197 930 1201" /><path style="fill:none; stroke:#000000;stroke-width:1" d="M1078.0 1160.0 L930.0 1237.0" /><polygon style="fill:#000000; stroke:#000000;" points=" 941 1237 930 1237 937 1228 937 1233" /><defs><linearGradient xmlns:xlink="http://www.w3.org/1999/xlink" xlink:href="#linearGradient66FF6696FF96B6FFB6" id="linearGradient66FF6696FF96B6FFB6_425207200" x1="0" y1="82.0" x2="0" y2="117.0" gradientUnits="userSpaceOnUse" xlink:type="simple" xlink:actuate="onLoad" xlink:show="other" /><linearGradient id="linearGradient66FF6696FF96B6FFB6"><stop style="stop-color:#66FF66;stop-opacity:1;" offset="0.0" id="stop66FF66" /><stop style="stop-color:#96FF96;stop-opacity:1;" offset="0.5" id="stop96FF96" /><stop style="stop-color:#B6FFB6;stop-opacity:1;" offset="1.0" id="stopB6FFB6" /></linearGradient><linearGradient xmlns:xlink="http://www.w3.org/1999/xlink" xlink:href="#linearGradientF8FBFEEDF5FCDEEDFAD4E7F8E2E5E9" id="linearGradientF8FBFEEDF5FCDEEDFAD4E7F8E2E5E9_396347643" x1="0" y1="860.0" x2="0" y2="966.0" gradientUnits="userSpaceOnUse" xlink:type="simple" xlink:actuate="onLoad" xlink:show="other" /><linearGradient id="linearGradientF8FBFEEDF5FCDEEDFAD4E7F8E2E5E9"><stop style="stop-color:#F8FBFE;stop-opacity:1;" offset="0.0" id="stopF8FBFE" /><stop style="stop-color:#EDF5FC;stop-opacity:1;" offset="0.25" id="stopEDF5FC" /><stop style="stop-color:#DEEDFA;stop-opacity:1;" offset="0.5" id="stopDEEDFA" /><stop style="stop-color:#D4E7F8;stop-opacity:1;" offset="0.75" id="stopD4E7F8" /><stop style="stop-color:#E2E5E9;stop-opacity:1;" offset="1.0" id="stopE2E5E9" /></linearGradient><linearGradient xmlns:xlink="http://www.w3.org/1999/xlink" xlink:href="#linearGradientF8FBFEEDF5FCDEEDFAD4E7F8E2E5E9" id="linearGradientF8FBFEEDF5FCDEEDFAD4E7F8E2E5E9_329273040" x1="0" y1="350.0" x2="0" y2="456.0" gradientUnits="userSpaceOnUse" xlink:type="simple" xlink:actuate="onLoad" xlink:show="other" /><linearGradient xmlns:xlink="http://www.w3.org/1999/xlink" xlink:href="#linearGradientF8FBFEEDF5FCDEEDFAD4E7F8E2E5E9" id="linearGradientF8FBFEEDF5FCDEEDFAD4E7F8E2E5E9_1453507264" x1="0" y1="70.0" x2="0" y2="176.0" gradientUnits="userSpaceOnUse" xlink:type="simple" xlink:actuate="onLoad" xlink:show="other" /><linearGradient xmlns:xlink="http://www.w3.org/1999/xlink" xlink:href="#linearGradientFF6666FF9696FFB6B6" id="linearGradientFF6666FF9696FFB6B6_244291729" x1="0" y1="100.0" x2="0" y2="135.0" gradientUnits="userSpaceOnUse" xlink:type="simple" xlink:actuate="onLoad" xlink:show="other" /><linearGradient id="linearGradientFF6666FF9696FFB6B6"><stop style="stop-color:#FF6666;stop-opacity:1;" offset="0.0" id="stopFF6666" /><stop style="stop-color:#FF9696;stop-opacity:1;" offset="0.5" id="stopFF9696" /><stop style="stop-color:#FFB6B6;stop-opacity:1;" offset="1.0" id="stopFFB6B6" /></linearGradient><linearGradient xmlns:xlink="http://www.w3.org/1999/xlink" xlink:href="#linearGradientF8FBFEEDF5FCDEEDFAD4E7F8E2E5E9" id="linearGradientF8FBFEEDF5FCDEEDFAD4E7F8E2E5E9_1740525995" x1="0" y1="640.0" x2="0" y2="746.0" gradientUnits="userSpaceOnUse" xlink:type="simple" xlink:actuate="onLoad" xlink:show="other" /><linearGradient xmlns:xlink="http://www.w3.org/1999/xlink" xlink:href="#linearGradientFF6666FF9696FFB6B6" id="linearGradientFF6666FF9696FFB6B6_1987663170" x1="0" y1="430.0" x2="0" y2="465.0" gradientUnits="userSpaceOnUse" xlink:type="simple" xlink:actuate="onLoad" xlink:show="other" /><linearGradient xmlns:xlink="http://www.w3.org/1999/xlink" xlink:href="#linearGradientF8FBFEEDF5FCDEEDFAD4E7F8E2E5E9" id="linearGradientF8FBFEEDF5FCDEEDFAD4E7F8E2E5E9_915225999" x1="0" y1="1390.0" x2="0" y2="1496.0" gradientUnits="userSpaceOnUse" xlink:type="simple" xlink:actuate="onLoad" xlink:show="other" /><linearGradient xmlns:xlink="http://www.w3.org/1999/xlink" xlink:href="#linearGradientF8FBFEEDF5FCDEEDFAD4E7F8E2E5E9" id="linearGradientF8FBFEEDF5FCDEEDFAD4E7F8E2E5E9_1152676063" x1="0" y1="1090.0" x2="0" y2="1196.0" gradientUnits="userSpaceOnUse" xlink:type="simple" xlink:actuate="onLoad" xlink:show="other" /><linearGradient xmlns:xlink="http://www.w3.org/1999/xlink" xlink:href="#linearGradientF8FBFEEDF5FCDEEDFAD4E7F8E2E5E9" id="linearGradientF8FBFEEDF5FCDEEDFAD4E7F8E2E5E9_1368543979" x1="0" y1="1090.0" x2="0" y2="1196.0" gradientUnits="userSpaceOnUse" xlink:type="simple" xlink:actuate="onLoad" xlink:show="other" /><linearGradient xmlns:xlink="http://www.w3.org/1999/xlink" xlink:href="#linearGradientF8FBFEEDF5FCDEEDFAD4E7F8E2E5E9" id="linearGradientF8FBFEEDF5FCDEEDFAD4E7F8E2E5E9_1836965598" x1="0" y1="1090.0" x2="0" y2="1196.0" gradientUnits="userSpaceOnUse" xlink:type="simple" xlink:actuate="onLoad" xlink:show="other" /><linearGradient xmlns:xlink="http://www.w3.org/1999/xlink" xlink:href="#linearGradientF8FBFEEDF5FCDEEDFAD4E7F8E2E5E9" id="linearGradientF8FBFEEDF5FCDEEDFAD4E7F8E2E5E9_851699643" x1="0" y1="1090.0" x2="0" y2="1196.0" gradientUnits="userSpaceOnUse" xlink:type="simple" xlink:actuate="onLoad" xlink:show="other" /><linearGradient xmlns:xlink="http://www.w3.org/1999/xlink" xlink:href="#linearGradientFAFBFCFFFFCC" id="linearGradientFAFBFCFFFFCC_1435917236" x1="0" y1="620.0" x2="0" y2="680.0" gradientUnits="userSpaceOnUse" xlink:type="simple" xlink:actuate="onLoad" xlink:show="other" /><linearGradient id="linearGradientFAFBFCFFFFCC"><stop style="stop-color:#FAFBFC;stop-opacity:1;" offset="0.0" id="stopFAFBFC" /><stop style="stop-color:#FFFFCC;stop-opacity:1;" offset="1.0" id="stopFFFFCC" /></linearGradient><linearGradient xmlns:xlink="http://www.w3.org/1999/xlink" xlink:href="#linearGradientFF6666FF9696FFB6B6" id="linearGradientFF6666FF9696FFB6B6_382754535" x1="0" y1="310.0" x2="0" y2="345.0" gradientUnits="userSpaceOnUse" xlink:type="simple" xlink:actuate="onLoad" xlink:show="other" /><linearGradient xmlns:xlink="http://www.w3.org/1999/xlink" xlink:href="#linearGradientFAFBFCFFFFCC" id="linearGradientFAFBFCFFFFCC_358152653" x1="0" y1="840.0" x2="0" y2="900.0" gradientUnits="userSpaceOnUse" xlink:type="simple" xlink:actuate="onLoad" xlink:show="other" /><linearGradient xmlns:xlink="http://www.w3.org/1999/xlink" xlink:href="#linearGradientFAFBFCFFFFCC" id="linearGradientFAFBFCFFFFCC_948648674" x1="0" y1="340.0" x2="0" y2="400.0" gradientUnits="userSpaceOnUse" xlink:type="simple" xlink:actuate="onLoad" xlink:show="other" /><linearGradient xmlns:xlink="http://www.w3.org/1999/xlink" xlink:href="#linearGradientFAFBFCFFFFCC" id="linearGradientFAFBFCFFFFCC_1596427708" x1="0" y1="160.0" x2="0" y2="220.0" gradientUnits="userSpaceOnUse" xlink:type="simple" xlink:actuate="onLoad" xlink:show="other" /><linearGradient xmlns:xlink="http://www.w3.org/1999/xlink" xlink:href="#linearGradientFAFBFCFFFFCC" id="linearGradientFAFBFCFFFFCC_1268045785" x1="0" y1="830.0" x2="0" y2="890.0" gradientUnits="userSpaceOnUse" xlink:type="simple" xlink:actuate="onLoad" xlink:show="other" /><linearGradient xmlns:xlink="http://www.w3.org/1999/xlink" xlink:href="#linearGradientFAFBFCFFFFCC" id="linearGradientFAFBFCFFFFCC_433117687" x1="0" y1="1210.0" x2="0" y2="1270.0" gradientUnits="userSpaceOnUse" xlink:type="simple" xlink:actuate="onLoad" xlink:show="other" /><linearGradient xmlns:xlink="http://www.w3.org/1999/xlink" xlink:href="#linearGradientFF6666FF9696FFB6B6" id="linearGradientFF6666FF9696FFB6B6_2028846085" x1="0" y1="650.0" x2="0" y2="685.0" gradientUnits="userSpaceOnUse" xlink:type="simple" xlink:actuate="onLoad" xlink:show="other" /><linearGradient xmlns:xlink="http://www.w3.org/1999/xlink" xlink:href="#linearGradientFF6666FF9696FFB6B6" id="linearGradientFF6666FF9696FFB6B6_457475273" x1="0" y1="960.0" x2="0" y2="995.0" gradientUnits="userSpaceOnUse" xlink:type="simple" xlink:actuate="onLoad" xlink:show="other" /><linearGradient xmlns:xlink="http://www.w3.org/1999/xlink" xlink:href="#linearGradientFAFBFCFFFFCC" id="linearGradientFAFBFCFFFFCC_1988342375" x1="0" y1="1370.0" x2="0" y2="1430.0" gradientUnits="userSpaceOnUse" xlink:type="simple" xlink:actuate="onLoad" xlink:show="other" /><linearGradient xmlns:xlink="http://www.w3.org/1999/xlink" xlink:href="#linearGradientFF6666FF9696FFB6B6" id="linearGradientFF6666FF9696FFB6B6_1770246689" x1="0" y1="1399.0" x2="0" y2="1434.0" gradientUnits="userSpaceOnUse" xlink:type="simple" xlink:actuate="onLoad" xlink:show="other" /><linearGradient xmlns:xlink="http://www.w3.org/1999/xlink" xlink:href="#linearGradientFAFBFCFFFFCC" id="linearGradientFAFBFCFFFFCC_2082166400" x1="0" y1="1383.0" x2="0" y2="1443.0" gradientUnits="userSpaceOnUse" xlink:type="simple" xlink:actuate="onLoad" xlink:show="other" /><linearGradient xmlns:xlink="http://www.w3.org/1999/xlink" xlink:href="#linearGradientFF6666FF9696FFB6B6" id="linearGradientFF6666FF9696FFB6B6_1128724230" x1="0" y1="1410.0" x2="0" y2="1445.0" gradientUnits="userSpaceOnUse" xlink:type="simple" xlink:actuate="onLoad" xlink:show="other" /></defs></svg>
