<?xml version="1.0" encoding="UTF-8"?>
<svg xmlns="http://www.w3.org/2000/svg" style="stroke-dasharray:none; shape-rendering:auto; font-family:'Arial'; text-rendering:auto; fill-opacity:1; color-interpolation:auto; color-rendering:auto; font-size:12; fill:black; stroke:black; image-rendering:auto; stroke-miterlimit:10; stroke-linecap:square; stroke-linejoin:miter; font-style:normal; stroke-width:1; stroke-dashoffset:0; font-weight:normal; stroke-opacity:1;" contentScriptType="text/ecmascript" preserveAspectRatio="xMidYMid meet" zoomAndPan="magnify" version="1.0" contentStyleType="text/css" xml:xlink="http://www.w3.org/1999/xlink" width="1371" height="1261"><rect x="10" y="10" width="1361" height="1251" ry="0" rx="0" style="stroke:#000000; fill:#FFFFFF" /><rect x="40" y="10" width="1331" height="312" ry="0" rx="0" style="stroke:#000000; fill:#D6E0D0" /><g componentSequence="6"><text x="-166" y="47" transform="rotate(270)" text-anchor="middle" style="font-weight:bold;font-size:10px;stroke:none; fill:#434343"><tspan dy="14" x="-166">Comprador</tspan></text></g><rect x="40" y="946" width="1331" height="315" ry="0" rx="0" style="stroke:#000000; fill:#D0DAAE" /><g componentSequence="5"><text x="-1103" y="47" transform="rotate(270)" text-anchor="middle" style="font-weight:bold;font-size:10px;stroke:none; fill:#434343"><tspan dy="14" x="-1103">Diretoria Nacional</tspan></text></g><rect x="40" y="634" width="1331" height="312" ry="0" rx="0" style="stroke:#000000; fill:#ADC9AC" /><g componentSequence="4"><text x="-790" y="47" transform="rotate(270)" text-anchor="middle" style="font-weight:bold;font-size:10px;stroke:none; fill:#434343"><tspan dy="14" x="-790">Comitê</tspan></text></g><rect x="40" y="322" width="1331" height="312" ry="0" rx="0" style="stroke:#000000; fill:#C0C0C0" /><g componentSequence="2"><text x="-478" y="47" transform="rotate(270)" text-anchor="middle" style="font-weight:bold;font-size:10px;stroke:none; fill:#434343"><tspan dy="14" x="-478">Gerente de Administração</tspan></text></g><g componentSequence="1"><text x="-635" y="17" transform="rotate(270)" text-anchor="middle" style="font-weight:bold;font-size:10px;stroke:none; fill:#434343"><tspan dy="14" x="-635">Alçada de aprovação de compras e serviços</tspan></text></g><g sequence="5"><rect x="200" y="360" width="106" height="56" ry="5" rx="5" style="fill:url(#linearGradientF8FBFEEDF5FCDEEDFAD4E7F8E2E5E9_760429572);" stroke="191970" /></g><g componentSequence="5"><text x="253" y="377" text-anchor="middle" style="font-weight:bold;font-size:10px;stroke:none; fill:#333399"><tspan dy="14" x="253">Aprovar</tspan></text></g><g sequence="11"><rect x="470" y="730" width="106" height="84" ry="5" rx="5" style="fill:url(#linearGradientF8FBFEEDF5FCDEEDFAD4E7F8E2E5E9_596957150);" stroke="191970" /></g><g componentSequence="11"><text x="523" y="745" text-anchor="middle" style="font-weight:bold;font-size:10px;stroke:none; fill:#333399"><tspan dy="14" x="523">Aprovar-</tspan><tspan dy="14" x="523">Diretoria de</tspan><tspan dy="14" x="523">Suporte</tspan></text></g><g sequence="13"><rect x="640" y="730" width="106" height="84" ry="5" rx="5" style="fill:url(#linearGradientF8FBFEEDF5FCDEEDFAD4E7F8E2E5E9_665540468);" stroke="191970" /></g><g componentSequence="13"><text x="693" y="745" text-anchor="middle" style="font-weight:bold;font-size:10px;stroke:none; fill:#333399"><tspan dy="14" x="693">Aprovar-</tspan><tspan dy="14" x="693">Diretoria de</tspan><tspan dy="14" x="693">Ministério</tspan></text></g><g sequence="15"><rect x="780" y="730" width="106" height="84" ry="5" rx="5" style="fill:url(#linearGradientF8FBFEEDF5FCDEEDFAD4E7F8E2E5E9_1655299557);" stroke="191970" /></g><g componentSequence="15"><text x="833" y="745" text-anchor="middle" style="font-weight:bold;font-size:10px;stroke:none; fill:#333399"><tspan dy="14" x="833">Aprovar-</tspan><tspan dy="14" x="833">Diretoria de MKT</tspan></text></g><g sequence="18"><rect x="930" y="730" width="106" height="84" ry="5" rx="5" style="fill:url(#linearGradientF8FBFEEDF5FCDEEDFAD4E7F8E2E5E9_1445887656);" stroke="191970" /></g><g componentSequence="18"><text x="983" y="745" text-anchor="middle" style="font-weight:bold;font-size:10px;stroke:none; fill:#333399"><tspan dy="14" x="983">Aprovar-</tspan><tspan dy="14" x="983">Diretoria de</tspan><tspan dy="14" x="983">Advocacy</tspan></text></g><g sequence="25"><polygon points=" 680 1100 710 1070 740 1100 710 1130 680 1100" style="fill:url(#linearGradientFAFBFCFFFFCC_1400994196);" stroke="000000" /></g><g componentSequence="25"><text x="710" y="1140" text-anchor="middle" style="font-weight:bold;font-size:10px;stroke:none; fill:#333399"><tspan dy="14" x="710">aprovad</tspan><tspan dy="14" x="710">o?</tspan></text></g><g sequence="27"><rect x="970" y="1080" width="106" height="84" ry="5" rx="5" style="fill:url(#linearGradientF8FBFEEDF5FCDEEDFAD4E7F8E2E5E9_787252327);" stroke="191970" /></g><g componentSequence="27"><text x="1023" y="1095" text-anchor="middle" style="font-weight:bold;font-size:10px;stroke:none; fill:#333399"><tspan dy="14" x="1023">Aprovar-</tspan><tspan dy="14" x="1023">Diretoria</tspan><tspan dy="14" x="1023">Nacional</tspan></text></g><g sequence="33"><polygon points=" 350 370 380 340 410 370 380 400 350 370" style="fill:url(#linearGradientFAFBFCFFFFCC_42345130);" stroke="000000" /></g><g componentSequence="33"><text x="380" y="410" text-anchor="middle" style="font-weight:bold;font-size:10px;stroke:none; fill:#333399"><tspan dy="14" x="380">aprovad</tspan><tspan dy="14" x="380">o?</tspan></text></g><g sequence="56"><ellipse cx="137" cy="47" rx="17" ry="17" stroke-width="1" style="fill:url(#linearGradient66FF6696FF96B6FFB6_662230892);" stroke="336633" /></g><g sequence="58"><ellipse cx="637" cy="387" rx="17" ry="17" stroke-width="3" style="fill:url(#linearGradientFF6666FF9696FFB6B6_2146260942);" stroke="993333" /></g><g sequence="61"><polygon points=" 110 130 140 100 170 130 140 160 110 130" style="fill:url(#linearGradientFAFBFCFFFFCC_904408040);" stroke="000000" /></g><g componentSequence="61"><text x="140" y="170" text-anchor="middle" style="font-weight:bold;font-size:10px;stroke:none; fill:#333399"><tspan dy="14" x="140">Verifica</tspan><tspan dy="14" x="140">orçada</tspan></text></g><g sequence="74"><polygon points=" 680 990 710 960 740 990 710 1020 680 990" style="fill:url(#linearGradientFAFBFCFFFFCC_113826957);" stroke="000000" /></g><path style="fill:none; stroke-width:6; stroke:#000000;" d="M700.0 990.0 L720.0 990.0" /><path style="fill:none; stroke-width:6; stroke:#000000;" d="M710.0 980.0 L710.0 1000.0" /><g componentSequence="74"><text x="710" y="1023" text-anchor="middle" style="font-weight:bold;font-size:10px;stroke:none; fill:#333399"><tspan dy="14" x="710">Join</tspan></text></g><g sequence="86"><polygon points=" 1140 1100 1170 1070 1200 1100 1170 1130 1140 1100" style="fill:url(#linearGradientFAFBFCFFFFCC_1735043215);" stroke="000000" /></g><g componentSequence="86"><text x="1170" y="1140" text-anchor="middle" style="font-weight:bold;font-size:10px;stroke:none; fill:#333399"><tspan dy="14" x="1170">aprovad</tspan><tspan dy="14" x="1170">o?</tspan></text></g><g sequence="90"><ellipse cx="1297" cy="1207" rx="17" ry="17" stroke-width="3" style="fill:url(#linearGradientFF6666FF9696FFB6B6_1915539595);" stroke="993333" /></g><g sequence="90"><polygon points=" 1288 1203 1293 1198 1298 1203 1303 1198 1308 1203 1303 1208 1308 1213 1303 1218 1298 1213 1293 1218 1288 1213 1293 1208" style="stroke:none; fill:#993333" /></g><g sequence="94"><ellipse cx="817" cy="1207" rx="17" ry="17" stroke-width="3" style="fill:url(#linearGradientFF6666FF9696FFB6B6_107938381);" stroke="993333" /></g><g sequence="94"><polygon points=" 808 1203 813 1198 818 1203 823 1198 828 1203 823 1208 828 1213 823 1218 818 1213 813 1218 808 1213 813 1208" style="stroke:none; fill:#993333" /></g><g sequence="100"><ellipse cx="537" cy="237" rx="17" ry="17" stroke-width="3" style="fill:url(#linearGradientFF6666FF9696FFB6B6_1174637241);" stroke="993333" /></g><g sequence="100"><polygon points=" 528 233 533 228 538 233 543 228 548 233 543 238 548 243 543 248 538 243 533 248 528 243 533 238" style="stroke:none; fill:#993333" /></g><g sequence="101"><polygon points=" 660 511 690 481 720 511 690 541 660 511" style="fill:url(#linearGradientFAFBFCFFFFCC_1948216358);" stroke="000000" /></g><path style="fill:none; stroke-width:6; stroke:#000000;" d="M680.0 511.0 L700.0 511.0" /><path style="fill:none; stroke-width:6; stroke:#000000;" d="M690.0 501.0 L690.0 521.0" /><g componentSequence="101"><text x="690" y="551" text-anchor="middle" style="font-weight:bold;font-size:10px;stroke:none; fill:#333399"><tspan dy="14" x="690">Evento</tspan><tspan dy="14" x="690">Paralelo</tspan></text></g><g sequence="105"><rect x="300" y="730" width="106" height="84" ry="5" rx="5" style="fill:url(#linearGradientF8FBFEEDF5FCDEEDFAD4E7F8E2E5E9_1621316262);" stroke="191970" /></g><g componentSequence="105"><text x="353" y="745" text-anchor="middle" style="font-weight:bold;font-size:10px;stroke:none; fill:#333399"><tspan dy="14" x="353">Aprovar -</tspan><tspan dy="14" x="353">Diretoria</tspan><tspan dy="14" x="353">Financeira</tspan></text></g><g sequence="108"><ellipse cx="1277" cy="1017" rx="17" ry="17" stroke-width="3" style="fill:url(#linearGradientFF6666FF9696FFB6B6_505436565);" stroke="993333" /></g><g sequence="110"><ellipse cx="837" cy="1027" rx="17" ry="17" stroke-width="3" style="fill:url(#linearGradientFF6666FF9696FFB6B6_1152143018);" stroke="993333" /></g><g componentSequence="28"><text x="865" y="1121" style="font-size:10px;font-weight:none;stroke:none; fill:#333399" text-anchor="left"><tspan dy="14" x="865">&gt;50.000</tspan></text></g><g componentSequence="34"><text x="338" y="390" style="font-size:10px;font-weight:none;stroke:none; fill:#333399" text-anchor="left" /></g><g componentSequence="52"><text x="480" y="370" style="font-size:10px;font-weight:none;stroke:none; fill:#333399" text-anchor="left"><tspan dy="14" x="480">aprovado e &lt;= 50 k</tspan></text></g><g componentSequence="62"><text x="149" y="82" style="font-size:10px;font-weight:none;stroke:none; fill:#333399" text-anchor="left" /></g><g componentSequence="63"><text x="263" y="213" style="font-size:10px;font-weight:none;stroke:none; fill:#333399" text-anchor="left"><tspan dy="14" x="263">&lt;=50.000</tspan></text></g><g componentSequence="70"><text x="616" y="653" style="font-size:10px;font-weight:none;stroke:none; fill:#333399" text-anchor="left" /></g><g componentSequence="71"><text x="701" y="656" style="font-size:10px;font-weight:none;stroke:none; fill:#333399" text-anchor="left" /></g><g componentSequence="72"><text x="774" y="656" style="font-size:10px;font-weight:none;stroke:none; fill:#333399" text-anchor="left" /></g><g componentSequence="73"><text x="836" y="643" style="font-size:10px;font-weight:none;stroke:none; fill:#333399" text-anchor="left" /></g><g componentSequence="76"><text x="711" y="887" style="font-size:10px;font-weight:none;stroke:none; fill:#333399" text-anchor="left" /></g><g componentSequence="77"><text x="782" y="887" style="font-size:10px;font-weight:none;stroke:none; fill:#333399" text-anchor="left" /></g><g componentSequence="78"><text x="847" y="896" style="font-size:10px;font-weight:none;stroke:none; fill:#333399" text-anchor="left" /></g><g componentSequence="82"><text x="720" y="1059" style="font-size:10px;font-weight:none;stroke:none; fill:#333399" text-anchor="left" /></g><g componentSequence="87"><text x="1118" y="1121" style="font-size:10px;font-weight:none;stroke:none; fill:#333399" text-anchor="left" /></g><g componentSequence="89"><text x="1250" y="1168" style="font-size:10px;font-weight:none;stroke:none; fill:#333399" text-anchor="left"><tspan dy="14" x="1250">reprovado</tspan></text></g><g componentSequence="93"><text x="780" y="1169" style="font-size:10px;font-weight:none;stroke:none; fill:#333399" text-anchor="left"><tspan dy="14" x="780">reprovado</tspan></text></g><g componentSequence="99"><text x="475" y="308" style="font-size:10px;font-weight:none;stroke:none; fill:#333399" text-anchor="left"><tspan dy="14" x="475">reprovado</tspan></text></g><g componentSequence="102"><text x="628" y="890" style="font-size:10px;font-weight:none;stroke:none; fill:#333399" text-anchor="left" /></g><g componentSequence="103"><text x="540" y="440" style="font-size:10px;font-weight:none;stroke:none; fill:#333399" text-anchor="left"><tspan dy="14" x="540">aprovado e &gt; 50 k</tspan></text></g><g componentSequence="104"><text x="245" y="531" style="font-size:10px;font-weight:none;stroke:none; fill:#333399" text-anchor="left"><tspan dy="14" x="245">&gt; 50.000</tspan></text></g><g componentSequence="106"><text x="543" y="643" style="font-size:10px;font-weight:none;stroke:none; fill:#333399" text-anchor="left" /></g><g componentSequence="107"><text x="553" y="895" style="font-size:10px;font-weight:none;stroke:none; fill:#333399" text-anchor="left" /></g><g componentSequence="109"><text x="1240" y="1063" style="font-size:10px;font-weight:none;stroke:none; fill:#333399" text-anchor="left" /></g><g componentSequence="111"><text x="790" y="1069" style="font-size:10px;font-weight:none;stroke:none; fill:#333399" text-anchor="left" /></g><path style="fill:none; stroke:#000000;stroke-width:1" d="M306.0 389.0 L349.0 390.0" /><polygon style="fill:#000000; stroke:#000000;" points=" 339 385 349 390 339 395 341 390" /><path style="fill:none; stroke:#000000;stroke-width:1" d="M170.0 150.0 L253.0 150.0 L253.0 359.0" /><polygon style="fill:#000000; stroke:#000000;" points=" 258 349 253 359 248 349 253 351" /><path style="fill:none; stroke:#000000;stroke-width:1" d="M557.0 814.0 L679.0 966.0" /><polygon style="fill:#000000; stroke:#000000;" points=" 677 955 679 966 669 961 674 960" /><path style="fill:none; stroke:#000000;stroke-width:1" d="M659.0 576.0 L552.0 729.0" /><polygon style="fill:#000000; stroke:#000000;" points=" 562 724 552 729 554 718 557 722" /><path style="fill:none; stroke:#000000;stroke-width:1" d="M696.0 814.0 L706.0 959.0" /><polygon style="fill:#000000; stroke:#000000;" points=" 710 949 706 959 700 949 705 951" /><path style="fill:none; stroke:#000000;stroke-width:1" d="M690.0 583.0 L692.0 729.0" /><polygon style="fill:#000000; stroke:#000000;" points=" 697 719 692 729 687 719 692 721" /><path style="fill:none; stroke:#000000;stroke-width:1" d="M810.0 814.0 L733.0 959.0" /><polygon style="fill:#000000; stroke:#000000;" points=" 742 953 733 959 733 948 737 952" /><path style="fill:none; stroke:#000000;stroke-width:1" d="M720.0 583.0 L807.0 729.0" /><polygon style="fill:#000000; stroke:#000000;" points=" 806 718 807 729 798 723 803 722" /><path style="fill:none; stroke:#000000;stroke-width:1" d="M933.0 814.0 L740.0 978.0" /><polygon style="fill:#000000; stroke:#000000;" points=" 751 975 740 978 744 968 746 973" /><path style="fill:none; stroke:#000000;stroke-width:1" d="M720.0 556.0 L931.0 729.0" /><polygon style="fill:#000000; stroke:#000000;" points=" 926 719 931 729 920 727 925 724" /><path style="fill:none; stroke:#000000;stroke-width:1" d="M740.0 1121.0 L969.0 1121.0" /><polygon style="fill:#000000; stroke:#000000;" points=" 959 1116 969 1121 959 1126 961 1121" /><path style="fill:none; stroke:#000000;stroke-width:1" d="M740.0 1145.0 L803.0 1196.0" /><polygon style="fill:#000000; stroke:#000000;" points=" 798 1186 803 1196 792 1194 797 1191" /><path style="fill:none; stroke:#000000;stroke-width:1" d="M740.0 1098.0 L823.0 1037.0" /><polygon style="fill:#000000; stroke:#000000;" points=" 812 1039 823 1037 818 1047 817 1042" /><path style="fill:none; stroke:#000000;stroke-width:1" d="M710.0 1048.0 L710.0 1069.0" /><polygon style="fill:#000000; stroke:#000000;" points=" 715 1059 710 1069 705 1059 710 1061" /><path style="fill:none; stroke:#000000;stroke-width:1" d="M1076.0 1121.0 L1139.0 1121.0" /><polygon style="fill:#000000; stroke:#000000;" points=" 1129 1116 1139 1121 1129 1126 1131 1121" /><path style="fill:none; stroke:#000000;stroke-width:1" d="M410.0 390.0 L620.0 387.0" /><polygon style="fill:#000000; stroke:#000000;" points=" 610 382 620 387 610 392 612 387" /><path style="fill:none; stroke:#000000;stroke-width:1" d="M410.0 361.0 L525.0 249.0" /><polygon style="fill:#000000; stroke:#000000;" points=" 514 252 525 249 521 260 519 255" /><path style="fill:none; stroke:#000000;stroke-width:1" d="M410.0 404.0 L659.0 518.0" /><polygon style="fill:#000000; stroke:#000000;" points=" 652 509 659 518 648 518 652 515" /><path style="fill:none; stroke:#000000;stroke-width:1" d="M137.0 64.0 L138.0 99.0" /><polygon style="fill:#000000; stroke:#000000;" points=" 143 89 138 99 133 89 138 91" /><path style="fill:none; stroke:#000000;stroke-width:1" d="M139.0 202.0 L139.0 531.0 L659.0 531.0" /><polygon style="fill:#000000; stroke:#000000;" points=" 649 526 659 531 649 536 651 531" /><path style="fill:none; stroke:#000000;stroke-width:1" d="M406.0 806.0 L679.0 984.0" /><polygon style="fill:#000000; stroke:#000000;" points=" 673 974 679 984 668 983 672 980" /><path style="fill:none; stroke:#000000;stroke-width:1" d="M1200.0 1141.0 L1283.0 1197.0" /><polygon style="fill:#000000; stroke:#000000;" points=" 1278 1187 1283 1197 1272 1196 1276 1193" /><path style="fill:none; stroke:#000000;stroke-width:1" d="M1200.0 1091.0 L1265.0 1029.0" /><polygon style="fill:#000000; stroke:#000000;" points=" 1254 1032 1265 1029 1261 1040 1259 1035" /><path style="fill:none; stroke:#000000;stroke-width:1" d="M659.0 553.0 L406.0 734.0" /><polygon style="fill:#000000; stroke:#000000;" points=" 417 732 406 734 411 724 413 729" /><defs><linearGradient xmlns:xlink="http://www.w3.org/1999/xlink" xlink:href="#linearGradientF8FBFEEDF5FCDEEDFAD4E7F8E2E5E9" id="linearGradientF8FBFEEDF5FCDEEDFAD4E7F8E2E5E9_760429572" x1="0" y1="360.0" x2="0" y2="466.0" gradientUnits="userSpaceOnUse" xlink:type="simple" xlink:actuate="onLoad" xlink:show="other" /><linearGradient id="linearGradientF8FBFEEDF5FCDEEDFAD4E7F8E2E5E9"><stop style="stop-color:#F8FBFE;stop-opacity:1;" offset="0.0" id="stopF8FBFE" /><stop style="stop-color:#EDF5FC;stop-opacity:1;" offset="0.25" id="stopEDF5FC" /><stop style="stop-color:#DEEDFA;stop-opacity:1;" offset="0.5" id="stopDEEDFA" /><stop style="stop-color:#D4E7F8;stop-opacity:1;" offset="0.75" id="stopD4E7F8" /><stop style="stop-color:#E2E5E9;stop-opacity:1;" offset="1.0" id="stopE2E5E9" /></linearGradient><linearGradient xmlns:xlink="http://www.w3.org/1999/xlink" xlink:href="#linearGradientF8FBFEEDF5FCDEEDFAD4E7F8E2E5E9" id="linearGradientF8FBFEEDF5FCDEEDFAD4E7F8E2E5E9_596957150" x1="0" y1="730.0" x2="0" y2="836.0" gradientUnits="userSpaceOnUse" xlink:type="simple" xlink:actuate="onLoad" xlink:show="other" /><linearGradient xmlns:xlink="http://www.w3.org/1999/xlink" xlink:href="#linearGradientF8FBFEEDF5FCDEEDFAD4E7F8E2E5E9" id="linearGradientF8FBFEEDF5FCDEEDFAD4E7F8E2E5E9_665540468" x1="0" y1="730.0" x2="0" y2="836.0" gradientUnits="userSpaceOnUse" xlink:type="simple" xlink:actuate="onLoad" xlink:show="other" /><linearGradient xmlns:xlink="http://www.w3.org/1999/xlink" xlink:href="#linearGradientF8FBFEEDF5FCDEEDFAD4E7F8E2E5E9" id="linearGradientF8FBFEEDF5FCDEEDFAD4E7F8E2E5E9_1655299557" x1="0" y1="730.0" x2="0" y2="836.0" gradientUnits="userSpaceOnUse" xlink:type="simple" xlink:actuate="onLoad" xlink:show="other" /><linearGradient xmlns:xlink="http://www.w3.org/1999/xlink" xlink:href="#linearGradientF8FBFEEDF5FCDEEDFAD4E7F8E2E5E9" id="linearGradientF8FBFEEDF5FCDEEDFAD4E7F8E2E5E9_1445887656" x1="0" y1="730.0" x2="0" y2="836.0" gradientUnits="userSpaceOnUse" xlink:type="simple" xlink:actuate="onLoad" xlink:show="other" /><linearGradient xmlns:xlink="http://www.w3.org/1999/xlink" xlink:href="#linearGradientFAFBFCFFFFCC" id="linearGradientFAFBFCFFFFCC_1400994196" x1="0" y1="1070.0" x2="0" y2="1130.0" gradientUnits="userSpaceOnUse" xlink:type="simple" xlink:actuate="onLoad" xlink:show="other" /><linearGradient id="linearGradientFAFBFCFFFFCC"><stop style="stop-color:#FAFBFC;stop-opacity:1;" offset="0.0" id="stopFAFBFC" /><stop style="stop-color:#FFFFCC;stop-opacity:1;" offset="1.0" id="stopFFFFCC" /></linearGradient><linearGradient xmlns:xlink="http://www.w3.org/1999/xlink" xlink:href="#linearGradientF8FBFEEDF5FCDEEDFAD4E7F8E2E5E9" id="linearGradientF8FBFEEDF5FCDEEDFAD4E7F8E2E5E9_787252327" x1="0" y1="1080.0" x2="0" y2="1186.0" gradientUnits="userSpaceOnUse" xlink:type="simple" xlink:actuate="onLoad" xlink:show="other" /><linearGradient xmlns:xlink="http://www.w3.org/1999/xlink" xlink:href="#linearGradientFAFBFCFFFFCC" id="linearGradientFAFBFCFFFFCC_42345130" x1="0" y1="340.0" x2="0" y2="400.0" gradientUnits="userSpaceOnUse" xlink:type="simple" xlink:actuate="onLoad" xlink:show="other" /><linearGradient xmlns:xlink="http://www.w3.org/1999/xlink" xlink:href="#linearGradient66FF6696FF96B6FFB6" id="linearGradient66FF6696FF96B6FFB6_662230892" x1="0" y1="30.0" x2="0" y2="65.0" gradientUnits="userSpaceOnUse" xlink:type="simple" xlink:actuate="onLoad" xlink:show="other" /><linearGradient id="linearGradient66FF6696FF96B6FFB6"><stop style="stop-color:#66FF66;stop-opacity:1;" offset="0.0" id="stop66FF66" /><stop style="stop-color:#96FF96;stop-opacity:1;" offset="0.5" id="stop96FF96" /><stop style="stop-color:#B6FFB6;stop-opacity:1;" offset="1.0" id="stopB6FFB6" /></linearGradient><linearGradient xmlns:xlink="http://www.w3.org/1999/xlink" xlink:href="#linearGradientFF6666FF9696FFB6B6" id="linearGradientFF6666FF9696FFB6B6_2146260942" x1="0" y1="370.0" x2="0" y2="405.0" gradientUnits="userSpaceOnUse" xlink:type="simple" xlink:actuate="onLoad" xlink:show="other" /><linearGradient id="linearGradientFF6666FF9696FFB6B6"><stop style="stop-color:#FF6666;stop-opacity:1;" offset="0.0" id="stopFF6666" /><stop style="stop-color:#FF9696;stop-opacity:1;" offset="0.5" id="stopFF9696" /><stop style="stop-color:#FFB6B6;stop-opacity:1;" offset="1.0" id="stopFFB6B6" /></linearGradient><linearGradient xmlns:xlink="http://www.w3.org/1999/xlink" xlink:href="#linearGradientFAFBFCFFFFCC" id="linearGradientFAFBFCFFFFCC_904408040" x1="0" y1="100.0" x2="0" y2="160.0" gradientUnits="userSpaceOnUse" xlink:type="simple" xlink:actuate="onLoad" xlink:show="other" /><linearGradient xmlns:xlink="http://www.w3.org/1999/xlink" xlink:href="#linearGradientFAFBFCFFFFCC" id="linearGradientFAFBFCFFFFCC_113826957" x1="0" y1="960.0" x2="0" y2="1020.0" gradientUnits="userSpaceOnUse" xlink:type="simple" xlink:actuate="onLoad" xlink:show="other" /><linearGradient xmlns:xlink="http://www.w3.org/1999/xlink" xlink:href="#linearGradientFAFBFCFFFFCC" id="linearGradientFAFBFCFFFFCC_1735043215" x1="0" y1="1070.0" x2="0" y2="1130.0" gradientUnits="userSpaceOnUse" xlink:type="simple" xlink:actuate="onLoad" xlink:show="other" /><linearGradient xmlns:xlink="http://www.w3.org/1999/xlink" xlink:href="#linearGradientFF6666FF9696FFB6B6" id="linearGradientFF6666FF9696FFB6B6_1915539595" x1="0" y1="1190.0" x2="0" y2="1225.0" gradientUnits="userSpaceOnUse" xlink:type="simple" xlink:actuate="onLoad" xlink:show="other" /><linearGradient xmlns:xlink="http://www.w3.org/1999/xlink" xlink:href="#linearGradientFF6666FF9696FFB6B6" id="linearGradientFF6666FF9696FFB6B6_107938381" x1="0" y1="1190.0" x2="0" y2="1225.0" gradientUnits="userSpaceOnUse" xlink:type="simple" xlink:actuate="onLoad" xlink:show="other" /><linearGradient xmlns:xlink="http://www.w3.org/1999/xlink" xlink:href="#linearGradientFF6666FF9696FFB6B6" id="linearGradientFF6666FF9696FFB6B6_1174637241" x1="0" y1="220.0" x2="0" y2="255.0" gradientUnits="userSpaceOnUse" xlink:type="simple" xlink:actuate="onLoad" xlink:show="other" /><linearGradient xmlns:xlink="http://www.w3.org/1999/xlink" xlink:href="#linearGradientFAFBFCFFFFCC" id="linearGradientFAFBFCFFFFCC_1948216358" x1="0" y1="481.0" x2="0" y2="541.0" gradientUnits="userSpaceOnUse" xlink:type="simple" xlink:actuate="onLoad" xlink:show="other" /><linearGradient xmlns:xlink="http://www.w3.org/1999/xlink" xlink:href="#linearGradientF8FBFEEDF5FCDEEDFAD4E7F8E2E5E9" id="linearGradientF8FBFEEDF5FCDEEDFAD4E7F8E2E5E9_1621316262" x1="0" y1="730.0" x2="0" y2="836.0" gradientUnits="userSpaceOnUse" xlink:type="simple" xlink:actuate="onLoad" xlink:show="other" /><linearGradient xmlns:xlink="http://www.w3.org/1999/xlink" xlink:href="#linearGradientFF6666FF9696FFB6B6" id="linearGradientFF6666FF9696FFB6B6_505436565" x1="0" y1="1000.0" x2="0" y2="1035.0" gradientUnits="userSpaceOnUse" xlink:type="simple" xlink:actuate="onLoad" xlink:show="other" /><linearGradient xmlns:xlink="http://www.w3.org/1999/xlink" xlink:href="#linearGradientFF6666FF9696FFB6B6" id="linearGradientFF6666FF9696FFB6B6_1152143018" x1="0" y1="1010.0" x2="0" y2="1045.0" gradientUnits="userSpaceOnUse" xlink:type="simple" xlink:actuate="onLoad" xlink:show="other" /></defs></svg>
