<?xml version="1.0" encoding="UTF-8"?>
<svg xmlns="http://www.w3.org/2000/svg" style="stroke-dasharray:none; shape-rendering:auto; font-family:'Arial'; text-rendering:auto; fill-opacity:1; color-interpolation:auto; color-rendering:auto; font-size:12; fill:black; stroke:black; image-rendering:auto; stroke-miterlimit:10; stroke-linecap:square; stroke-linejoin:miter; font-style:normal; stroke-width:1; stroke-dashoffset:0; font-weight:normal; stroke-opacity:1;" contentScriptType="text/ecmascript" preserveAspectRatio="xMidYMid meet" zoomAndPan="magnify" version="1.0" contentStyleType="text/css" xml:xlink="http://www.w3.org/1999/xlink" width="1380" height="941"><rect x="10" y="10" width="1370" height="931" ry="0" rx="0" style="stroke:#000000; fill:#FFFFFF" /><rect x="40" y="568" width="1340" height="186" ry="0" rx="0" style="stroke:#000000; fill:#D0DAAE" /><g componentSequence="49"><text x="-661" y="47" transform="rotate(270)" text-anchor="middle" style="font-weight:bold;font-size:10px;stroke:none; fill:#434343"><tspan dy="14" x="-661">Diretor Nacional</tspan></text></g><rect x="40" y="382" width="1340" height="186" ry="0" rx="0" style="stroke:#000000; fill:#ADC9AC" /><g componentSequence="48"><text x="-475" y="47" transform="rotate(270)" text-anchor="middle" style="font-weight:bold;font-size:10px;stroke:none; fill:#434343"><tspan dy="14" x="-475">Diretor de Área</tspan></text></g><rect x="40" y="754" width="1340" height="187" ry="0" rx="0" style="stroke:#000000; fill:#82B0B7" /><g componentSequence="4"><text x="-847" y="47" transform="rotate(270)" text-anchor="middle" style="font-weight:bold;font-size:10px;stroke:none; fill:#434343"><tspan dy="14" x="-847">Compras</tspan></text></g><rect x="40" y="196" width="1340" height="186" ry="0" rx="0" style="stroke:#000000; fill:#C0C0C0" /><g componentSequence="3"><text x="-289" y="47" transform="rotate(270)" text-anchor="middle" style="font-weight:bold;font-size:10px;stroke:none; fill:#434343"><tspan dy="14" x="-289">Gerente imediato</tspan></text></g><rect x="40" y="10" width="1340" height="186" ry="0" rx="0" style="stroke:#000000; fill:#9F9F9F" /><g componentSequence="2"><text x="-103" y="47" transform="rotate(270)" text-anchor="middle" style="font-weight:bold;font-size:10px;stroke:none; fill:#434343"><tspan dy="14" x="-103">Solicitante</tspan></text></g><g componentSequence="1"><text x="-475" y="17" transform="rotate(270)" text-anchor="middle" style="font-weight:bold;font-size:10px;stroke:none; fill:#434343"><tspan dy="14" x="-475">Solicitação de Compra de Produtos</tspan></text></g><g sequence="4"><ellipse cx="167" cy="99" rx="17" ry="17" stroke-width="1" style="fill:url(#linearGradient66FF6696FF96B6FFB6_1351023680);" stroke="336633" /></g><g sequence="5"><rect x="270" y="252" width="106" height="70" ry="5" rx="5" style="fill:url(#linearGradientF8FBFEEDF5FCDEEDFAD4E7F8E2E5E9_1581324320);" stroke="191970" /></g><g componentSequence="5"><text x="323" y="267" text-anchor="middle" style="font-weight:bold;font-size:10px;stroke:none; fill:#333399"><tspan dy="14" x="323">Aprovar</tspan><tspan dy="14" x="323">solicitação</tspan></text></g><g sequence="9"><polygon points=" 470 270 500 240 530 270 500 300 470 270" style="fill:url(#linearGradientFAFBFCFFFFCC_1518245680);" stroke="000000" /></g><g componentSequence="9"><text x="500" y="310" text-anchor="middle" style="font-weight:bold;font-size:10px;stroke:none; fill:#333399"><tspan dy="14" x="500">Aprovad</tspan><tspan dy="14" x="500">o?</tspan></text></g><g sequence="15"><rect x="450" y="34" width="106" height="70" ry="5" rx="5" style="fill:url(#linearGradientF8FBFEEDF5FCDEEDFAD4E7F8E2E5E9_528224795);" stroke="191970" /></g><g componentSequence="15"><text x="503" y="49" text-anchor="middle" style="font-weight:bold;font-size:10px;stroke:none; fill:#333399"><tspan dy="14" x="503">Corrigir</tspan><tspan dy="14" x="503">solicitação</tspan></text></g><g sequence="42"><rect x="1000" y="790" width="106" height="70" ry="5" rx="5" style="fill:url(#linearGradientF8FBFEEDF5FCDEEDFAD4E7F8E2E5E9_2030012744);" stroke="191970" /></g><g componentSequence="42"><text x="1053" y="814" text-anchor="middle" style="font-weight:bold;font-size:10px;stroke:none; fill:#333399"><tspan dy="14" x="1053">Assumir compra</tspan></text></g><g sequence="44"><ellipse cx="1207" cy="827" rx="17" ry="17" stroke-width="3" style="fill:url(#linearGradientFF6666FF9696FFB6B6_774442607);" stroke="993333" /></g><g sequence="47"><ellipse cx="617" cy="286" rx="17" ry="17" stroke-width="3" style="fill:url(#linearGradientFF6666FF9696FFB6B6_4246413);" stroke="993333" /></g><g sequence="47"><polygon points=" 608 282 613 277 618 282 623 277 628 282 623 287 628 292 623 297 618 292 613 297 608 292 613 287" style="stroke:none; fill:#993333" /></g><g sequence="50"><rect x="450" y="440" width="106" height="70" ry="5" rx="5" style="fill:url(#linearGradientF8FBFEEDF5FCDEEDFAD4E7F8E2E5E9_2136206676);" stroke="191970" /></g><g componentSequence="50"><text x="503" y="455" text-anchor="middle" style="font-weight:bold;font-size:10px;stroke:none; fill:#333399"><tspan dy="14" x="503">Aprovar</tspan><tspan dy="14" x="503">solicitação</tspan></text></g><g sequence="51"><rect x="790" y="640" width="106" height="70" ry="5" rx="5" style="fill:url(#linearGradientF8FBFEEDF5FCDEEDFAD4E7F8E2E5E9_2078445119);" stroke="191970" /></g><g componentSequence="51"><text x="843" y="655" text-anchor="middle" style="font-weight:bold;font-size:10px;stroke:none; fill:#333399"><tspan dy="14" x="843">Aprovar</tspan><tspan dy="14" x="843">solicitação</tspan></text></g><g sequence="52"><polygon points=" 640 450 670 420 700 450 670 480 640 450" style="fill:url(#linearGradientFAFBFCFFFFCC_492748122);" stroke="000000" /></g><g componentSequence="52"><text x="670" y="490" text-anchor="middle" style="font-weight:bold;font-size:10px;stroke:none; fill:#333399"><tspan dy="14" x="670">aprovad</tspan><tspan dy="14" x="670">o?</tspan></text></g><g sequence="57"><ellipse cx="817" cy="467" rx="17" ry="17" stroke-width="3" style="fill:url(#linearGradientFF6666FF9696FFB6B6_457441759);" stroke="993333" /></g><g sequence="57"><polygon points=" 808 463 813 458 818 463 823 458 828 463 823 468 828 473 823 478 818 473 813 478 808 473 813 468" style="stroke:none; fill:#993333" /></g><g sequence="58"><polygon points=" 1020 650 1050 620 1080 650 1050 680 1020 650" style="fill:url(#linearGradientFAFBFCFFFFCC_2065528494);" stroke="000000" /></g><g componentSequence="58"><text x="1050" y="690" text-anchor="middle" style="font-weight:bold;font-size:10px;stroke:none; fill:#333399"><tspan dy="14" x="1050">aprovad</tspan><tspan dy="14" x="1050">o?</tspan></text></g><g sequence="63"><ellipse cx="1187" cy="667" rx="17" ry="17" stroke-width="3" style="fill:url(#linearGradientFF6666FF9696FFB6B6_341941380);" stroke="993333" /></g><g sequence="63"><polygon points=" 1178 663 1183 658 1188 663 1193 658 1198 663 1193 668 1198 673 1193 678 1188 673 1183 678 1178 673 1183 668" style="stroke:none; fill:#993333" /></g><g componentSequence="6"><text x="177" y="253" style="font-size:10px;font-weight:none;stroke:none; fill:#333399" text-anchor="left" /></g><g componentSequence="10"><text x="433" y="289" style="font-size:10px;font-weight:none;stroke:none; fill:#333399" text-anchor="left" /></g><g componentSequence="14"><text x="575" y="288" style="font-size:10px;font-weight:none;stroke:none; fill:#333399" text-anchor="left" /></g><g componentSequence="16"><text x="511" y="172" style="font-size:10px;font-weight:none;stroke:none; fill:#333399" text-anchor="left" /></g><g componentSequence="17"><text x="423" y="178" style="font-size:10px;font-weight:none;stroke:none; fill:#333399" text-anchor="left" /></g><g componentSequence="45"><text x="1158" y="826" style="font-size:10px;font-weight:none;stroke:none; fill:#333399" text-anchor="left" /></g><g componentSequence="53"><text x="608" y="472" style="font-size:10px;font-weight:none;stroke:none; fill:#333399" text-anchor="left" /></g><g componentSequence="54"><text x="766" y="573" style="font-size:10px;font-weight:none;stroke:none; fill:#333399" text-anchor="left" /></g><g componentSequence="56"><text x="760" y="469" style="font-size:10px;font-weight:none;stroke:none; fill:#333399" text-anchor="left" /></g><g componentSequence="59"><text x="968" y="673" style="font-size:10px;font-weight:none;stroke:none; fill:#333399" text-anchor="left" /></g><g componentSequence="60"><text x="1062" y="756" style="font-size:10px;font-weight:none;stroke:none; fill:#333399" text-anchor="left" /></g><g componentSequence="62"><text x="1135" y="669" style="font-size:10px;font-weight:none;stroke:none; fill:#333399" text-anchor="left" /></g><g componentSequence="64"><text x="511" y="391" style="font-size:10px;font-weight:none;stroke:none; fill:#333399" text-anchor="left" /></g><g componentSequence="65"><text x="692" y="824" style="font-size:10px;font-weight:none;stroke:none; fill:#333399" text-anchor="left" /></g><path style="fill:none; stroke:#000000;stroke-width:1" d="M167.0 117.0 L167.0 235.0 L167.0 287.0 L269.0 287.0" /><polygon style="fill:#000000; stroke:#000000;" points=" 259 282 269 287 259 292 261 287" /><path style="fill:none; stroke:#000000;stroke-width:1" d="M376.0 288.0 L469.0 290.0" /><polygon style="fill:#000000; stroke:#000000;" points=" 459 285 469 290 459 295 461 290" /><path style="fill:none; stroke:#000000;stroke-width:1" d="M473.0 104.0 L352.0 251.0" /><polygon style="fill:#000000; stroke:#000000;" points=" 362 246 352 251 354 240 357 245" /><path style="fill:none; stroke:#000000;stroke-width:1" d="M530.0 289.0 L600.0 286.0" /><polygon style="fill:#000000; stroke:#000000;" points=" 590 281 600 286 590 291 592 286" /><path style="fill:none; stroke:#000000;stroke-width:1" d="M500.0 239.0 L502.0 104.0" /><polygon style="fill:#000000; stroke:#000000;" points=" 497 114 502 104 507 114 502 112" /><path style="fill:none; stroke:#000000;stroke-width:1" d="M500.0 342.0 L502.0 439.0" /><polygon style="fill:#000000; stroke:#000000;" points=" 507 429 502 439 497 429 502 431" /><path style="fill:none; stroke:#000000;stroke-width:1" d="M1106.0 825.0 L1190.0 827.0" /><polygon style="fill:#000000; stroke:#000000;" points=" 1180 822 1190 827 1180 832 1182 827" /><path style="fill:none; stroke:#000000;stroke-width:1" d="M1051.0 722.0 L1052.0 789.0" /><polygon style="fill:#000000; stroke:#000000;" points=" 1057 779 1052 789 1047 779 1052 781" /><path style="fill:none; stroke:#000000;stroke-width:1" d="M669.0 522.0 L668.0 824.0 L999.0 824.0" /><polygon style="fill:#000000; stroke:#000000;" points=" 989 819 999 824 989 829 991 824" /><path style="fill:none; stroke:#000000;stroke-width:1" d="M556.0 473.0 L639.0 471.0" /><polygon style="fill:#000000; stroke:#000000;" points=" 629 466 639 471 629 476 631 471" /><path style="fill:none; stroke:#000000;stroke-width:1" d="M896.0 674.0 L1019.0 671.0" /><polygon style="fill:#000000; stroke:#000000;" points=" 1009 666 1019 671 1009 676 1011 671" /><path style="fill:none; stroke:#000000;stroke-width:1" d="M700.0 506.0 L812.0 639.0" /><polygon style="fill:#000000; stroke:#000000;" points=" 809 628 812 639 802 635 807 633" /><path style="fill:none; stroke:#000000;stroke-width:1" d="M700.0 470.0 L800.0 467.0" /><polygon style="fill:#000000; stroke:#000000;" points=" 790 462 800 467 790 472 792 467" /><path style="fill:none; stroke:#000000;stroke-width:1" d="M1080.0 670.0 L1170.0 667.0" /><polygon style="fill:#000000; stroke:#000000;" points=" 1160 662 1170 667 1160 672 1162 667" /><defs><linearGradient xmlns:xlink="http://www.w3.org/1999/xlink" xlink:href="#linearGradient66FF6696FF96B6FFB6" id="linearGradient66FF6696FF96B6FFB6_1351023680" x1="0" y1="82.0" x2="0" y2="117.0" gradientUnits="userSpaceOnUse" xlink:type="simple" xlink:actuate="onLoad" xlink:show="other" /><linearGradient id="linearGradient66FF6696FF96B6FFB6"><stop style="stop-color:#66FF66;stop-opacity:1;" offset="0.0" id="stop66FF66" /><stop style="stop-color:#96FF96;stop-opacity:1;" offset="0.5" id="stop96FF96" /><stop style="stop-color:#B6FFB6;stop-opacity:1;" offset="1.0" id="stopB6FFB6" /></linearGradient><linearGradient xmlns:xlink="http://www.w3.org/1999/xlink" xlink:href="#linearGradientF8FBFEEDF5FCDEEDFAD4E7F8E2E5E9" id="linearGradientF8FBFEEDF5FCDEEDFAD4E7F8E2E5E9_1581324320" x1="0" y1="252.0" x2="0" y2="358.0" gradientUnits="userSpaceOnUse" xlink:type="simple" xlink:actuate="onLoad" xlink:show="other" /><linearGradient id="linearGradientF8FBFEEDF5FCDEEDFAD4E7F8E2E5E9"><stop style="stop-color:#F8FBFE;stop-opacity:1;" offset="0.0" id="stopF8FBFE" /><stop style="stop-color:#EDF5FC;stop-opacity:1;" offset="0.25" id="stopEDF5FC" /><stop style="stop-color:#DEEDFA;stop-opacity:1;" offset="0.5" id="stopDEEDFA" /><stop style="stop-color:#D4E7F8;stop-opacity:1;" offset="0.75" id="stopD4E7F8" /><stop style="stop-color:#E2E5E9;stop-opacity:1;" offset="1.0" id="stopE2E5E9" /></linearGradient><linearGradient xmlns:xlink="http://www.w3.org/1999/xlink" xlink:href="#linearGradientFAFBFCFFFFCC" id="linearGradientFAFBFCFFFFCC_1518245680" x1="0" y1="240.0" x2="0" y2="300.0" gradientUnits="userSpaceOnUse" xlink:type="simple" xlink:actuate="onLoad" xlink:show="other" /><linearGradient id="linearGradientFAFBFCFFFFCC"><stop style="stop-color:#FAFBFC;stop-opacity:1;" offset="0.0" id="stopFAFBFC" /><stop style="stop-color:#FFFFCC;stop-opacity:1;" offset="1.0" id="stopFFFFCC" /></linearGradient><linearGradient xmlns:xlink="http://www.w3.org/1999/xlink" xlink:href="#linearGradientF8FBFEEDF5FCDEEDFAD4E7F8E2E5E9" id="linearGradientF8FBFEEDF5FCDEEDFAD4E7F8E2E5E9_528224795" x1="0" y1="34.0" x2="0" y2="140.0" gradientUnits="userSpaceOnUse" xlink:type="simple" xlink:actuate="onLoad" xlink:show="other" /><linearGradient xmlns:xlink="http://www.w3.org/1999/xlink" xlink:href="#linearGradientF8FBFEEDF5FCDEEDFAD4E7F8E2E5E9" id="linearGradientF8FBFEEDF5FCDEEDFAD4E7F8E2E5E9_2030012744" x1="0" y1="790.0" x2="0" y2="896.0" gradientUnits="userSpaceOnUse" xlink:type="simple" xlink:actuate="onLoad" xlink:show="other" /><linearGradient xmlns:xlink="http://www.w3.org/1999/xlink" xlink:href="#linearGradientFF6666FF9696FFB6B6" id="linearGradientFF6666FF9696FFB6B6_774442607" x1="0" y1="810.0" x2="0" y2="845.0" gradientUnits="userSpaceOnUse" xlink:type="simple" xlink:actuate="onLoad" xlink:show="other" /><linearGradient id="linearGradientFF6666FF9696FFB6B6"><stop style="stop-color:#FF6666;stop-opacity:1;" offset="0.0" id="stopFF6666" /><stop style="stop-color:#FF9696;stop-opacity:1;" offset="0.5" id="stopFF9696" /><stop style="stop-color:#FFB6B6;stop-opacity:1;" offset="1.0" id="stopFFB6B6" /></linearGradient><linearGradient xmlns:xlink="http://www.w3.org/1999/xlink" xlink:href="#linearGradientFF6666FF9696FFB6B6" id="linearGradientFF6666FF9696FFB6B6_4246413" x1="0" y1="269.0" x2="0" y2="304.0" gradientUnits="userSpaceOnUse" xlink:type="simple" xlink:actuate="onLoad" xlink:show="other" /><linearGradient xmlns:xlink="http://www.w3.org/1999/xlink" xlink:href="#linearGradientF8FBFEEDF5FCDEEDFAD4E7F8E2E5E9" id="linearGradientF8FBFEEDF5FCDEEDFAD4E7F8E2E5E9_2136206676" x1="0" y1="440.0" x2="0" y2="546.0" gradientUnits="userSpaceOnUse" xlink:type="simple" xlink:actuate="onLoad" xlink:show="other" /><linearGradient xmlns:xlink="http://www.w3.org/1999/xlink" xlink:href="#linearGradientF8FBFEEDF5FCDEEDFAD4E7F8E2E5E9" id="linearGradientF8FBFEEDF5FCDEEDFAD4E7F8E2E5E9_2078445119" x1="0" y1="640.0" x2="0" y2="746.0" gradientUnits="userSpaceOnUse" xlink:type="simple" xlink:actuate="onLoad" xlink:show="other" /><linearGradient xmlns:xlink="http://www.w3.org/1999/xlink" xlink:href="#linearGradientFAFBFCFFFFCC" id="linearGradientFAFBFCFFFFCC_492748122" x1="0" y1="420.0" x2="0" y2="480.0" gradientUnits="userSpaceOnUse" xlink:type="simple" xlink:actuate="onLoad" xlink:show="other" /><linearGradient xmlns:xlink="http://www.w3.org/1999/xlink" xlink:href="#linearGradientFF6666FF9696FFB6B6" id="linearGradientFF6666FF9696FFB6B6_457441759" x1="0" y1="450.0" x2="0" y2="485.0" gradientUnits="userSpaceOnUse" xlink:type="simple" xlink:actuate="onLoad" xlink:show="other" /><linearGradient xmlns:xlink="http://www.w3.org/1999/xlink" xlink:href="#linearGradientFAFBFCFFFFCC" id="linearGradientFAFBFCFFFFCC_2065528494" x1="0" y1="620.0" x2="0" y2="680.0" gradientUnits="userSpaceOnUse" xlink:type="simple" xlink:actuate="onLoad" xlink:show="other" /><linearGradient xmlns:xlink="http://www.w3.org/1999/xlink" xlink:href="#linearGradientFF6666FF9696FFB6B6" id="linearGradientFF6666FF9696FFB6B6_341941380" x1="0" y1="650.0" x2="0" y2="685.0" gradientUnits="userSpaceOnUse" xlink:type="simple" xlink:actuate="onLoad" xlink:show="other" /></defs></svg>
