<?xml version="1.0" encoding="UTF-8"?>
<svg xmlns="http://www.w3.org/2000/svg" style="stroke-dasharray:none; shape-rendering:auto; font-family:'Arial'; text-rendering:auto; fill-opacity:1; color-interpolation:auto; color-rendering:auto; font-size:12; fill:black; stroke:black; image-rendering:auto; stroke-miterlimit:10; stroke-linecap:square; stroke-linejoin:miter; font-style:normal; stroke-width:1; stroke-dashoffset:0; font-weight:normal; stroke-opacity:1;" contentScriptType="text/ecmascript" preserveAspectRatio="xMidYMid meet" zoomAndPan="magnify" version="1.0" contentStyleType="text/css" xml:xlink="http://www.w3.org/1999/xlink" width="941" height="461"><rect x="10" y="0" width="931" height="461" ry="0" rx="0" style="stroke:#000000; fill:#FFFFFF" /><rect x="40" y="306" width="901" height="155" ry="0" rx="0" style="stroke:#000000; fill:#82B0B7" /><g componentSequence="15"><text x="-383" y="47" transform="rotate(270)" text-anchor="middle" style="font-weight:bold;font-size:10px;stroke:none; fill:#434343"><tspan dy="14" x="-383">Tesouraria</tspan></text></g><rect x="40" y="153" width="901" height="153" ry="0" rx="0" style="stroke:#000000; fill:#C0C0C0" /><g componentSequence="3"><text x="-229" y="47" transform="rotate(270)" text-anchor="middle" style="font-weight:bold;font-size:10px;stroke:none; fill:#434343"><tspan dy="14" x="-229">Gestor</tspan></text></g><rect x="40" y="0" width="901" height="153" ry="0" rx="0" style="stroke:#000000; fill:#9F9F9F" /><g componentSequence="2"><text x="-76" y="47" transform="rotate(270)" text-anchor="middle" style="font-weight:bold;font-size:10px;stroke:none; fill:#434343"><tspan dy="14" x="-76">Solicitante</tspan></text></g><g componentSequence="1"><text x="-230" y="17" transform="rotate(270)" text-anchor="middle" style="font-weight:bold;font-size:10px;stroke:none; fill:#434343"><tspan dy="14" x="-230">Solicitação de reembolso de despesas</tspan></text></g><g sequence="4"><ellipse cx="167" cy="99" rx="17" ry="17" stroke-width="1" style="fill:url(#linearGradient66FF6696FF96B6FFB6_1490102750);" stroke="336633" /></g><g sequence="5"><rect x="220" y="197" width="106" height="70" ry="5" rx="5" style="fill:url(#linearGradientF8FBFEEDF5FCDEEDFAD4E7F8E2E5E9_1444334772);" stroke="191970" /></g><g componentSequence="5"><text x="273" y="212" text-anchor="middle" style="font-weight:bold;font-size:10px;stroke:none; fill:#333399"><tspan dy="14" x="273">Realizar</tspan><tspan dy="14" x="273">aprovação</tspan></text></g><rect x="210" y="20" width="105" height="55" ry="5" rx="5" style="stroke:none; fill:#FFFFE0" /><g componentSequence="7"><text x="220" y="43" text-anchor="left" style="font-weight:bold;font-size:10px;stroke:none; fill:#000000"><tspan dy="14" x="220">Preencher</tspan><tspan dy="14" x="220">formulário</tspan></text></g><path style="fill:none; stroke-width:1; stroke:#000000;" d="M230.0 20.0 L210.0 20.0 L210.0 75.0 L230.0 75.0" /><g sequence="9"><polygon points=" 420 211 450 181 480 211 450 241 420 211" style="fill:url(#linearGradientFAFBFCFFFFCC_1378435758);" stroke="000000" /></g><g componentSequence="9"><text x="450" y="251" text-anchor="middle" style="font-weight:bold;font-size:10px;stroke:none; fill:#333399"><tspan dy="14" x="450">Aprovad</tspan><tspan dy="14" x="450">o?</tspan></text></g><g sequence="13"><rect x="400" y="330" width="106" height="70" ry="5" rx="5" style="fill:url(#linearGradientF8FBFEEDF5FCDEEDFAD4E7F8E2E5E9_388744847);" stroke="191970" /></g><g componentSequence="13"><text x="453" y="345" text-anchor="middle" style="font-weight:bold;font-size:10px;stroke:none; fill:#333399"><tspan dy="14" x="453">Validar</tspan><tspan dy="14" x="453">informações</tspan></text></g><g sequence="16"><rect x="720" y="320" width="106" height="84" ry="5" rx="5" style="fill:url(#linearGradientF8FBFEEDF5FCDEEDFAD4E7F8E2E5E9_1189446253);" stroke="191970" /></g><g componentSequence="16"><text x="773" y="335" text-anchor="middle" style="font-weight:bold;font-size:10px;stroke:none; fill:#333399"><tspan dy="14" x="773">Gerar títulos</tspan><tspan dy="14" x="773">para pagamento</tspan></text></g><g sequence="18"><ellipse cx="897" cy="357" rx="17" ry="17" stroke-width="3" style="fill:url(#linearGradientFF6666FF9696FFB6B6_645305705);" stroke="993333" /></g><g sequence="20"><rect x="400" y="20" width="106" height="70" ry="5" rx="5" style="fill:url(#linearGradientF8FBFEEDF5FCDEEDFAD4E7F8E2E5E9_1045598011);" stroke="191970" /></g><g componentSequence="20"><text x="453" y="35" text-anchor="middle" style="font-weight:bold;font-size:10px;stroke:none; fill:#333399"><tspan dy="14" x="453">Corrigir</tspan><tspan dy="14" x="453">solicitação</tspan></text></g><g sequence="23"><polygon points=" 570 350 600 320 630 350 600 380 570 350" style="fill:url(#linearGradientFAFBFCFFFFCC_1996765632);" stroke="000000" /></g><g componentSequence="23"><text x="600" y="390" text-anchor="middle" style="font-weight:bold;font-size:10px;stroke:none; fill:#333399"><tspan dy="14" x="600">Validado</tspan><tspan dy="14" x="600">?</tspan></text></g><g sequence="28"><ellipse cx="617" cy="231" rx="17" ry="17" stroke-width="3" style="fill:url(#linearGradientFF6666FF9696FFB6B6_496516007);" stroke="993333" /></g><g sequence="28"><ellipse cx="617" cy="231" rx="12" ry="12" stroke-width="0.5" style="stroke:none; fill:#993333" /></g><g sequence="29"><ellipse cx="657" cy="417" rx="17" ry="17" stroke-width="3" style="fill:url(#linearGradientFF6666FF9696FFB6B6_257370272);" stroke="993333" /></g><g sequence="29"><ellipse cx="657" cy="417" rx="12" ry="12" stroke-width="0.5" style="stroke:none; fill:#993333" /></g><g componentSequence="6"><text x="177" y="200" style="font-size:10px;font-weight:none;stroke:none; fill:#333399" text-anchor="left" /></g><g componentSequence="8"><text x="182" y="48" style="font-size:10px;font-weight:none;stroke:none; fill:#333399" text-anchor="left" /></g><g componentSequence="10"><text x="383" y="232" style="font-size:10px;font-weight:none;stroke:none; fill:#333399" text-anchor="left" /></g><g componentSequence="12"><text x="550" y="231" style="font-size:10px;font-weight:none;stroke:none; fill:#333399" text-anchor="left" /></g><g componentSequence="14"><text x="462" y="306" style="font-size:10px;font-weight:none;stroke:none; fill:#333399" text-anchor="left" /></g><g componentSequence="19"><text x="863" y="359" style="font-size:10px;font-weight:none;stroke:none; fill:#333399" text-anchor="left" /></g><g componentSequence="21"><text x="462" y="135" style="font-size:10px;font-weight:none;stroke:none; fill:#333399" text-anchor="left" /></g><g componentSequence="22"><text x="373" y="143" style="font-size:10px;font-weight:none;stroke:none; fill:#333399" text-anchor="left" /></g><g componentSequence="24"><text x="548" y="368" style="font-size:10px;font-weight:none;stroke:none; fill:#333399" text-anchor="left" /></g><g componentSequence="25"><text x="685" y="367" style="font-size:10px;font-weight:none;stroke:none; fill:#333399" text-anchor="left" /></g><g componentSequence="27"><text x="645" y="399" style="font-size:10px;font-weight:none;stroke:none; fill:#333399" text-anchor="left" /></g><path style="fill:none; stroke:#000000;stroke-width:1" d="M167.0 117.0 L167.0 231.0 L219.0 231.0" /><polygon style="fill:#000000; stroke:#000000;" points=" 209 226 219 231 209 236 211 231" /><path style="fill:none; stroke:#000000;stroke-dasharray:2" d="M209.0 48.0 L167.0 48.0 L167.0 81.0" /><path style="fill:none; stroke:#000000;stroke-width:1" d="M326.0 232.0 L419.0 232.0" /><polygon style="fill:#000000; stroke:#000000;" points=" 409 227 419 232 409 237 411 232" /><path style="fill:none; stroke:#000000;stroke-width:1" d="M417.0 90.0 L309.0 196.0" /><polygon style="fill:#000000; stroke:#000000;" points=" 320 193 309 196 313 185 315 190" /><path style="fill:none; stroke:#000000;stroke-width:1" d="M480.0 231.0 L600.0 231.0" /><polygon style="fill:#000000; stroke:#000000;" points=" 590 226 600 231 590 236 592 231" /><path style="fill:none; stroke:#000000;stroke-width:1" d="M451.0 283.0 L452.0 329.0" /><polygon style="fill:#000000; stroke:#000000;" points=" 457 319 452 329 447 319 452 321" /><path style="fill:none; stroke:#000000;stroke-width:1" d="M451.0 180.0 L452.0 90.0" /><polygon style="fill:#000000; stroke:#000000;" points=" 447 100 452 90 457 100 452 98" /><path style="fill:none; stroke:#000000;stroke-width:1" d="M506.0 367.0 L569.0 369.0" /><polygon style="fill:#000000; stroke:#000000;" points=" 559 364 569 369 559 374 561 369" /><path style="fill:none; stroke:#000000;stroke-width:1" d="M826.0 360.0 L880.0 357.0" /><polygon style="fill:#000000; stroke:#000000;" points=" 870 353 880 357 870 363 872 357" /><path style="fill:none; stroke:#000000;stroke-width:1" d="M630.0 369.0 L719.0 364.0" /><polygon style="fill:#000000; stroke:#000000;" points=" 709 360 719 364 709 370 711 364" /><path style="fill:none; stroke:#000000;stroke-width:1" d="M630.0 395.0 L643.0 406.0" /><polygon style="fill:#000000; stroke:#000000;" points=" 639 396 643 406 632 403 637 401" /><defs><linearGradient xmlns:xlink="http://www.w3.org/1999/xlink" xlink:href="#linearGradient66FF6696FF96B6FFB6" id="linearGradient66FF6696FF96B6FFB6_1490102750" x1="0" y1="82.0" x2="0" y2="117.0" gradientUnits="userSpaceOnUse" xlink:type="simple" xlink:actuate="onLoad" xlink:show="other" /><linearGradient id="linearGradient66FF6696FF96B6FFB6"><stop style="stop-color:#66FF66;stop-opacity:1;" offset="0.0" id="stop66FF66" /><stop style="stop-color:#96FF96;stop-opacity:1;" offset="0.5" id="stop96FF96" /><stop style="stop-color:#B6FFB6;stop-opacity:1;" offset="1.0" id="stopB6FFB6" /></linearGradient><linearGradient xmlns:xlink="http://www.w3.org/1999/xlink" xlink:href="#linearGradientF8FBFEEDF5FCDEEDFAD4E7F8E2E5E9" id="linearGradientF8FBFEEDF5FCDEEDFAD4E7F8E2E5E9_1444334772" x1="0" y1="197.0" x2="0" y2="303.0" gradientUnits="userSpaceOnUse" xlink:type="simple" xlink:actuate="onLoad" xlink:show="other" /><linearGradient id="linearGradientF8FBFEEDF5FCDEEDFAD4E7F8E2E5E9"><stop style="stop-color:#F8FBFE;stop-opacity:1;" offset="0.0" id="stopF8FBFE" /><stop style="stop-color:#EDF5FC;stop-opacity:1;" offset="0.25" id="stopEDF5FC" /><stop style="stop-color:#DEEDFA;stop-opacity:1;" offset="0.5" id="stopDEEDFA" /><stop style="stop-color:#D4E7F8;stop-opacity:1;" offset="0.75" id="stopD4E7F8" /><stop style="stop-color:#E2E5E9;stop-opacity:1;" offset="1.0" id="stopE2E5E9" /></linearGradient><linearGradient xmlns:xlink="http://www.w3.org/1999/xlink" xlink:href="#linearGradientFAFBFCFFFFCC" id="linearGradientFAFBFCFFFFCC_1378435758" x1="0" y1="181.0" x2="0" y2="241.0" gradientUnits="userSpaceOnUse" xlink:type="simple" xlink:actuate="onLoad" xlink:show="other" /><linearGradient id="linearGradientFAFBFCFFFFCC"><stop style="stop-color:#FAFBFC;stop-opacity:1;" offset="0.0" id="stopFAFBFC" /><stop style="stop-color:#FFFFCC;stop-opacity:1;" offset="1.0" id="stopFFFFCC" /></linearGradient><linearGradient xmlns:xlink="http://www.w3.org/1999/xlink" xlink:href="#linearGradientF8FBFEEDF5FCDEEDFAD4E7F8E2E5E9" id="linearGradientF8FBFEEDF5FCDEEDFAD4E7F8E2E5E9_388744847" x1="0" y1="330.0" x2="0" y2="436.0" gradientUnits="userSpaceOnUse" xlink:type="simple" xlink:actuate="onLoad" xlink:show="other" /><linearGradient xmlns:xlink="http://www.w3.org/1999/xlink" xlink:href="#linearGradientF8FBFEEDF5FCDEEDFAD4E7F8E2E5E9" id="linearGradientF8FBFEEDF5FCDEEDFAD4E7F8E2E5E9_1189446253" x1="0" y1="320.0" x2="0" y2="426.0" gradientUnits="userSpaceOnUse" xlink:type="simple" xlink:actuate="onLoad" xlink:show="other" /><linearGradient xmlns:xlink="http://www.w3.org/1999/xlink" xlink:href="#linearGradientFF6666FF9696FFB6B6" id="linearGradientFF6666FF9696FFB6B6_645305705" x1="0" y1="340.0" x2="0" y2="375.0" gradientUnits="userSpaceOnUse" xlink:type="simple" xlink:actuate="onLoad" xlink:show="other" /><linearGradient id="linearGradientFF6666FF9696FFB6B6"><stop style="stop-color:#FF6666;stop-opacity:1;" offset="0.0" id="stopFF6666" /><stop style="stop-color:#FF9696;stop-opacity:1;" offset="0.5" id="stopFF9696" /><stop style="stop-color:#FFB6B6;stop-opacity:1;" offset="1.0" id="stopFFB6B6" /></linearGradient><linearGradient xmlns:xlink="http://www.w3.org/1999/xlink" xlink:href="#linearGradientF8FBFEEDF5FCDEEDFAD4E7F8E2E5E9" id="linearGradientF8FBFEEDF5FCDEEDFAD4E7F8E2E5E9_1045598011" x1="0" y1="20.0" x2="0" y2="126.0" gradientUnits="userSpaceOnUse" xlink:type="simple" xlink:actuate="onLoad" xlink:show="other" /><linearGradient xmlns:xlink="http://www.w3.org/1999/xlink" xlink:href="#linearGradientFAFBFCFFFFCC" id="linearGradientFAFBFCFFFFCC_1996765632" x1="0" y1="320.0" x2="0" y2="380.0" gradientUnits="userSpaceOnUse" xlink:type="simple" xlink:actuate="onLoad" xlink:show="other" /><linearGradient xmlns:xlink="http://www.w3.org/1999/xlink" xlink:href="#linearGradientFF6666FF9696FFB6B6" id="linearGradientFF6666FF9696FFB6B6_496516007" x1="0" y1="214.0" x2="0" y2="249.0" gradientUnits="userSpaceOnUse" xlink:type="simple" xlink:actuate="onLoad" xlink:show="other" /><linearGradient xmlns:xlink="http://www.w3.org/1999/xlink" xlink:href="#linearGradientFF6666FF9696FFB6B6" id="linearGradientFF6666FF9696FFB6B6_257370272" x1="0" y1="400.0" x2="0" y2="435.0" gradientUnits="userSpaceOnUse" xlink:type="simple" xlink:actuate="onLoad" xlink:show="other" /></defs></svg>
