<?xml version="1.0" encoding="UTF-8"?>
<svg xmlns="http://www.w3.org/2000/svg" style="stroke-dasharray:none; shape-rendering:auto; font-family:'Arial'; text-rendering:auto; fill-opacity:1; color-interpolation:auto; color-rendering:auto; font-size:12; fill:black; stroke:black; image-rendering:auto; stroke-miterlimit:10; stroke-linecap:square; stroke-linejoin:miter; font-style:normal; stroke-width:1; stroke-dashoffset:0; font-weight:normal; stroke-opacity:1;" contentScriptType="text/ecmascript" preserveAspectRatio="xMidYMid meet" zoomAndPan="magnify" version="1.0" contentStyleType="text/css" xml:xlink="http://www.w3.org/1999/xlink" width="1761" height="1561"><rect x="10" y="10" width="1751" height="1551" ry="0" rx="0" style="stroke:#000000; fill:#FFFFFF" /><rect x="40" y="1300" width="1721" height="261" ry="0" rx="0" style="stroke:#000000; fill:#D6E0D0" /><g componentSequence="7"><text x="-1430" y="47" transform="rotate(270)" text-anchor="middle" style="font-weight:bold;font-size:10px;stroke:none; fill:#434343"><tspan dy="14" x="-1430">Diretoria Nacional</tspan></text></g><rect x="40" y="784" width="1721" height="258" ry="0" rx="0" style="stroke:#000000; fill:#ADC9AC" /><g componentSequence="6"><text x="-913" y="47" transform="rotate(270)" text-anchor="middle" style="font-weight:bold;font-size:10px;stroke:none; fill:#434343"><tspan dy="14" x="-913">Diretor Financeiro</tspan></text></g><rect x="40" y="1042" width="1721" height="258" ry="0" rx="0" style="stroke:#000000; fill:#D0DAAE" /><g componentSequence="5"><text x="-1171" y="47" transform="rotate(270)" text-anchor="middle" style="font-weight:bold;font-size:10px;stroke:none; fill:#434343"><tspan dy="14" x="-1171">Comitê de compras</tspan></text></g><rect x="40" y="268" width="1721" height="258" ry="0" rx="0" style="stroke:#000000; fill:#82B0B7" /><g componentSequence="4"><text x="-397" y="47" transform="rotate(270)" text-anchor="middle" style="font-weight:bold;font-size:10px;stroke:none; fill:#434343"><tspan dy="14" x="-397">Tesouraria</tspan></text></g><rect x="40" y="526" width="1721" height="258" ry="0" rx="0" style="stroke:#000000; fill:#C0C0C0" /><g componentSequence="3"><text x="-655" y="47" transform="rotate(270)" text-anchor="middle" style="font-weight:bold;font-size:10px;stroke:none; fill:#434343"><tspan dy="14" x="-655">Gerente de ADM</tspan></text></g><rect x="40" y="10" width="1721" height="258" ry="0" rx="0" style="stroke:#000000; fill:#9F9F9F" /><g componentSequence="2"><text x="-139" y="47" transform="rotate(270)" text-anchor="middle" style="font-weight:bold;font-size:10px;stroke:none; fill:#434343"><tspan dy="14" x="-139">Administração</tspan></text></g><g componentSequence="1"><text x="-785" y="17" transform="rotate(270)" text-anchor="middle" style="font-weight:bold;font-size:10px;stroke:none; fill:#434343"><tspan dy="14" x="-785">Solicitação de Adiantamento ao Fornecedor</tspan></text></g><g sequence="4"><ellipse cx="167" cy="99" rx="17" ry="17" stroke-width="1" style="fill:url(#linearGradient66FF6696FF96B6FFB6_1974642871);" stroke="336633" /></g><g sequence="5"><rect x="430" y="860" width="106" height="56" ry="5" rx="5" style="fill:url(#linearGradientF8FBFEEDF5FCDEEDFAD4E7F8E2E5E9_2071287921);" stroke="191970" /></g><g componentSequence="5"><text x="483" y="877" text-anchor="middle" style="font-weight:bold;font-size:10px;stroke:none; fill:#333399"><tspan dy="14" x="483">Aprovar ADF</tspan></text></g><g sequence="10"><rect x="1520" y="350" width="106" height="70" ry="5" rx="5" style="fill:url(#linearGradientF8FBFEEDF5FCDEEDFAD4E7F8E2E5E9_2135606215);" stroke="191970" /></g><g componentSequence="10"><text x="1573" y="365" text-anchor="middle" style="font-weight:bold;font-size:10px;stroke:none; fill:#333399"><tspan dy="14" x="1573">Gerar</tspan><tspan dy="14" x="1573">adiantamento</tspan></text></g><g sequence="24"><rect x="1340" y="70" width="106" height="98" ry="5" rx="5" style="fill:url(#linearGradientF8FBFEEDF5FCDEEDFAD4E7F8E2E5E9_977818186);" stroke="191970" /></g><g componentSequence="24"><text x="1393" y="85" text-anchor="middle" style="font-weight:bold;font-size:10px;stroke:none; fill:#333399"><tspan dy="14" x="1393">Gerar</tspan><tspan dy="14" x="1393">adiantamento de</tspan><tspan dy="14" x="1393">cartão de</tspan><tspan dy="14" x="1393">credito</tspan></text></g><g sequence="26"><ellipse cx="1607" cy="117" rx="17" ry="17" stroke-width="3" style="fill:url(#linearGradientFF6666FF9696FFB6B6_1516216996);" stroke="993333" /></g><g sequence="31"><rect x="230" y="640" width="106" height="56" ry="5" rx="5" style="fill:url(#linearGradientF8FBFEEDF5FCDEEDFAD4E7F8E2E5E9_196661070);" stroke="191970" /></g><g componentSequence="31"><text x="283" y="657" text-anchor="middle" style="font-weight:bold;font-size:10px;stroke:none; fill:#333399"><tspan dy="14" x="283">Aprovar ADF</tspan></text></g><g sequence="46"><rect x="1170" y="1390" width="106" height="84" ry="5" rx="5" style="fill:url(#linearGradientF8FBFEEDF5FCDEEDFAD4E7F8E2E5E9_574972165);" stroke="191970" /></g><g componentSequence="46"><text x="1223" y="1405" text-anchor="middle" style="font-weight:bold;font-size:10px;stroke:none; fill:#333399"><tspan dy="14" x="1223">Aprovar-</tspan><tspan dy="14" x="1223">Diretoria</tspan><tspan dy="14" x="1223">Nacional</tspan></text></g><g sequence="48"><rect x="590" y="1090" width="106" height="84" ry="5" rx="5" style="fill:url(#linearGradientF8FBFEEDF5FCDEEDFAD4E7F8E2E5E9_1516743941);" stroke="191970" /></g><g componentSequence="48"><text x="643" y="1105" text-anchor="middle" style="font-weight:bold;font-size:10px;stroke:none; fill:#333399"><tspan dy="14" x="643">Aprovar-</tspan><tspan dy="14" x="643">Diretoria de</tspan><tspan dy="14" x="643">Suporte</tspan></text></g><g sequence="50"><rect x="760" y="1090" width="106" height="84" ry="5" rx="5" style="fill:url(#linearGradientF8FBFEEDF5FCDEEDFAD4E7F8E2E5E9_2106224239);" stroke="191970" /></g><g componentSequence="50"><text x="813" y="1105" text-anchor="middle" style="font-weight:bold;font-size:10px;stroke:none; fill:#333399"><tspan dy="14" x="813">Aprovar-</tspan><tspan dy="14" x="813">Diretoria de</tspan><tspan dy="14" x="813">Ministerio</tspan></text></g><g sequence="52"><rect x="920" y="1090" width="106" height="84" ry="5" rx="5" style="fill:url(#linearGradientF8FBFEEDF5FCDEEDFAD4E7F8E2E5E9_814025775);" stroke="191970" /></g><g componentSequence="52"><text x="973" y="1105" text-anchor="middle" style="font-weight:bold;font-size:10px;stroke:none; fill:#333399"><tspan dy="14" x="973">Aprovar-</tspan><tspan dy="14" x="973">Diretoria de MKT</tspan></text></g><g sequence="54"><rect x="1080" y="1090" width="106" height="84" ry="5" rx="5" style="fill:url(#linearGradientF8FBFEEDF5FCDEEDFAD4E7F8E2E5E9_960564851);" stroke="191970" /></g><g componentSequence="54"><text x="1133" y="1105" text-anchor="middle" style="font-weight:bold;font-size:10px;stroke:none; fill:#333399"><tspan dy="14" x="1133">Aprovar-</tspan><tspan dy="14" x="1133">Diretoria de</tspan><tspan dy="14" x="1133">Advocacy</tspan></text></g><g sequence="75"><polygon points=" 450 650 480 620 510 650 480 680 450 650" style="fill:url(#linearGradientFAFBFCFFFFCC_1579783131);" stroke="000000" /></g><g componentSequence="75"><text x="480" y="690" text-anchor="middle" style="font-weight:bold;font-size:10px;stroke:none; fill:#333399"><tspan dy="14" x="480">Aprovad</tspan><tspan dy="14" x="480">o?</tspan></text></g><g sequence="79"><ellipse cx="1707" cy="382" rx="17" ry="17" stroke-width="3" style="fill:url(#linearGradientFF6666FF9696FFB6B6_1887332199);" stroke="993333" /></g><g sequence="81"><polygon points=" 610 870 640 840 670 870 640 900 610 870" style="fill:url(#linearGradientFAFBFCFFFFCC_1753413939);" stroke="000000" /></g><g componentSequence="81"><text x="640" y="910" text-anchor="middle" style="font-weight:bold;font-size:10px;stroke:none; fill:#333399"><tspan dy="14" x="640">Aprovad</tspan><tspan dy="14" x="640">o?</tspan></text></g><g sequence="94"><polygon points=" 1370 370 1400 340 1430 370 1400 400 1370 370" style="fill:url(#linearGradientFAFBFCFFFFCC_1493258438);" stroke="000000" /></g><g componentSequence="94"><text x="1400" y="410" text-anchor="middle" style="font-weight:bold;font-size:10px;stroke:none; fill:#333399"><tspan dy="14" x="1400">forma de</tspan><tspan dy="14" x="1400">pagame</tspan><tspan dy="14" x="1400">nto</tspan></text></g><g sequence="99"><polygon points=" 140 190 170 160 200 190 170 220 140 190" style="fill:url(#linearGradientFAFBFCFFFFCC_1260697462);" stroke="000000" /></g><g componentSequence="99"><text x="170" y="230" text-anchor="middle" style="font-weight:bold;font-size:10px;stroke:none; fill:#333399"><tspan dy="14" x="170">Verifica</tspan><tspan dy="14" x="170">orçada</tspan></text></g><rect x="210" y="20" width="105" height="55" ry="5" rx="5" style="stroke:none; fill:#FFFFE0" /><g componentSequence="7"><text x="220" y="33" text-anchor="left" style="font-weight:bold;font-size:10px;stroke:none; fill:#000000"><tspan dy="14" x="220">Start</tspan></text></g><path style="fill:none; stroke-width:1; stroke:#000000;" d="M230.0 20.0 L210.0 20.0 L210.0 75.0 L230.0 75.0" /><g sequence="116"><polygon points=" 870 860 900 830 930 860 900 890 870 860" style="fill:url(#linearGradientFAFBFCFFFFCC_1222812714);" stroke="000000" /></g><path style="fill:none; stroke-width:6; stroke:#000000;" d="M890.0 860.0 L910.0 860.0" /><path style="fill:none; stroke-width:6; stroke:#000000;" d="M900.0 850.0 L900.0 870.0" /><g componentSequence="116"><text x="900" y="900" text-anchor="middle" style="font-weight:bold;font-size:10px;stroke:none; fill:#333399"><tspan dy="14" x="900">Envia</tspan><tspan dy="14" x="900">para</tspan><tspan dy="14" x="900">comitê</tspan></text></g><g sequence="117"><polygon points=" 870 1240 900 1210 930 1240 900 1270 870 1240" style="fill:url(#linearGradientFAFBFCFFFFCC_936810340);" stroke="000000" /></g><path style="fill:none; stroke-width:6; stroke:#000000;" d="M890.0 1240.0 L910.0 1240.0" /><path style="fill:none; stroke-width:6; stroke:#000000;" d="M900.0 1230.0 L900.0 1250.0" /><g componentSequence="117"><text x="900" y="1273" text-anchor="middle" style="font-weight:bold;font-size:10px;stroke:none; fill:#333399"><tspan dy="14" x="900">Join</tspan></text></g><g sequence="121"><ellipse cx="597" cy="667" rx="17" ry="17" stroke-width="3" style="fill:url(#linearGradientFF6666FF9696FFB6B6_1686267448);" stroke="993333" /></g><g sequence="121"><polygon points=" 588 663 593 658 598 663 603 658 608 663 603 668 608 673 603 678 598 673 593 678 588 673 593 668" style="stroke:none; fill:#993333" /></g><g sequence="124"><ellipse cx="637" cy="977" rx="17" ry="17" stroke-width="3" style="fill:url(#linearGradientFF6666FF9696FFB6B6_175370969);" stroke="993333" /></g><g sequence="124"><polygon points=" 628 973 633 968 638 973 643 968 648 973 643 978 648 983 643 988 638 983 633 988 628 983 633 978" style="stroke:none; fill:#993333" /></g><g sequence="133"><polygon points=" 870 1400 900 1370 930 1400 900 1430 870 1400" style="fill:url(#linearGradientFAFBFCFFFFCC_1466811465);" stroke="000000" /></g><g componentSequence="133"><text x="900" y="1440" text-anchor="middle" style="font-weight:bold;font-size:10px;stroke:none; fill:#333399"><tspan dy="14" x="900">Aprovad</tspan><tspan dy="14" x="900">o?</tspan></text></g><g sequence="137"><ellipse cx="767" cy="1416" rx="17" ry="17" stroke-width="3" style="fill:url(#linearGradientFF6666FF9696FFB6B6_1409483895);" stroke="993333" /></g><g sequence="137"><polygon points=" 758 1412 763 1407 768 1412 773 1407 778 1412 773 1417 778 1422 773 1427 768 1422 763 1427 758 1422 763 1417" style="stroke:none; fill:#993333" /></g><g sequence="140"><polygon points=" 1370 1413 1400 1383 1430 1413 1400 1443 1370 1413" style="fill:url(#linearGradientFAFBFCFFFFCC_600247145);" stroke="000000" /></g><g componentSequence="140"><text x="1400" y="1453" text-anchor="middle" style="font-weight:bold;font-size:10px;stroke:none; fill:#333399"><tspan dy="14" x="1400">Aprovad</tspan><tspan dy="14" x="1400">o?</tspan></text></g><g sequence="145"><ellipse cx="1557" cy="1427" rx="17" ry="17" stroke-width="3" style="fill:url(#linearGradientFF6666FF9696FFB6B6_918012146);" stroke="993333" /></g><g sequence="145"><polygon points=" 1548 1423 1553 1418 1558 1423 1563 1418 1568 1423 1563 1428 1568 1433 1563 1438 1558 1433 1553 1438 1548 1433 1553 1428" style="stroke:none; fill:#993333" /></g><g componentSequence="27"><text x="1528" y="118" style="font-size:10px;font-weight:none;stroke:none; fill:#333399" text-anchor="left" /></g><g componentSequence="76"><text x="403" y="669" style="font-size:10px;font-weight:none;stroke:none; fill:#333399" text-anchor="left" /></g><g componentSequence="77"><text x="491" y="791" style="font-size:10px;font-weight:none;stroke:none; fill:#333399" text-anchor="left" /></g><g componentSequence="82"><text x="583" y="890" style="font-size:10px;font-weight:none;stroke:none; fill:#333399" text-anchor="left" /></g><g componentSequence="95"><text x="820" y="393" style="font-size:10px;font-weight:none;stroke:none; fill:#333399" text-anchor="left" /></g><g componentSequence="96"><text x="1485" y="392" style="font-size:10px;font-weight:none;stroke:none; fill:#333399" text-anchor="left" /></g><g componentSequence="97"><text x="1406" y="254" style="font-size:10px;font-weight:none;stroke:none; fill:#333399" text-anchor="left" /></g><g componentSequence="100"><text x="178" y="138" style="font-size:10px;font-weight:none;stroke:none; fill:#333399" text-anchor="left" /></g><g componentSequence="101"><text x="291" y="383" style="font-size:10px;font-weight:none;stroke:none; fill:#333399" text-anchor="left" /></g><g componentSequence="102"><text x="178" y="704" style="font-size:10px;font-weight:none;stroke:none; fill:#333399" text-anchor="left" /></g><g componentSequence="8"><text x="182" y="48" style="font-size:10px;font-weight:none;stroke:none; fill:#333399" text-anchor="left" /></g><g componentSequence="120"><text x="555" y="669" style="font-size:10px;font-weight:none;stroke:none; fill:#333399" text-anchor="left" /></g><g componentSequence="123"><text x="648" y="951" style="font-size:10px;font-weight:none;stroke:none; fill:#333399" text-anchor="left" /></g><g componentSequence="125"><text x="788" y="1003" style="font-size:10px;font-weight:none;stroke:none; fill:#333399" text-anchor="left" /></g><g componentSequence="126"><text x="864" y="1018" style="font-size:10px;font-weight:none;stroke:none; fill:#333399" text-anchor="left" /></g><g componentSequence="127"><text x="949" y="1018" style="font-size:10px;font-weight:none;stroke:none; fill:#333399" text-anchor="left" /></g><g componentSequence="128"><text x="1021" y="1004" style="font-size:10px;font-weight:none;stroke:none; fill:#333399" text-anchor="left" /></g><g componentSequence="129"><text x="793" y="1198" style="font-size:10px;font-weight:none;stroke:none; fill:#333399" text-anchor="left" /></g><g componentSequence="130"><text x="866" y="1193" style="font-size:10px;font-weight:none;stroke:none; fill:#333399" text-anchor="left" /></g><g componentSequence="131"><text x="947" y="1192" style="font-size:10px;font-weight:none;stroke:none; fill:#333399" text-anchor="left" /></g><g componentSequence="132"><text x="1015" y="1199" style="font-size:10px;font-weight:none;stroke:none; fill:#333399" text-anchor="left" /></g><g componentSequence="134"><text x="910" y="1334" style="font-size:10px;font-weight:none;stroke:none; fill:#333399" text-anchor="left" /></g><g componentSequence="136"><text x="837" y="1418" style="font-size:10px;font-weight:none;stroke:none; fill:#333399" text-anchor="left" /></g><g componentSequence="138"><text x="1060" y="1426" style="font-size:10px;font-weight:none;stroke:none; fill:#333399" text-anchor="left" /></g><g componentSequence="139"><text x="1407" y="1098" style="font-size:10px;font-weight:none;stroke:none; fill:#333399" text-anchor="left" /></g><g componentSequence="141"><text x="1333" y="1433" style="font-size:10px;font-weight:none;stroke:none; fill:#333399" text-anchor="left" /></g><g componentSequence="142"><text x="1410" y="919" style="font-size:10px;font-weight:none;stroke:none; fill:#333399" text-anchor="left" /></g><g componentSequence="144"><text x="1495" y="1430" style="font-size:10px;font-weight:none;stroke:none; fill:#333399" text-anchor="left" /></g><g componentSequence="146"><text x="1030" y="644" style="font-size:10px;font-weight:none;stroke:none; fill:#333399" text-anchor="left" /></g><g componentSequence="147"><text x="780" y="889" style="font-size:10px;font-weight:none;stroke:none; fill:#333399" text-anchor="left" /></g><g componentSequence="148"><text x="1668" y="383" style="font-size:10px;font-weight:none;stroke:none; fill:#333399" text-anchor="left" /></g><path style="fill:none; stroke:#000000;stroke-width:1" d="M167.0 116.0 L168.0 159.0" /><polygon style="fill:#000000; stroke:#000000;" points=" 173 149 168 159 163 149 168 151" /><path style="fill:none; stroke:#000000;stroke-dasharray:2" d="M209.0 48.0 L167.0 48.0 L167.0 81.0" /><path style="fill:none; stroke:#000000;stroke-width:1" d="M536.0 889.0 L609.0 890.0" /><polygon style="fill:#000000; stroke:#000000;" points=" 599 885 609 890 599 895 601 890" /><polygon style="fill:#000000; stroke:#000000;" points=" 541 884 551 894" /><path style="fill:none; stroke:#000000;stroke-width:1" d="M480.0 722.0 L482.0 859.0" /><polygon style="fill:#000000; stroke:#000000;" points=" 487 849 482 859 477 849 482 851" /><path style="fill:none; stroke:#000000;stroke-width:1" d="M169.0 262.0 L168.0 885.0 L429.0 887.0" /><polygon style="fill:#000000; stroke:#000000;" points=" 419 882 429 887 419 892 421 887" /><path style="fill:none; stroke:#000000;stroke-width:1" d="M1626.0 384.0 L1690.0 382.0" /><polygon style="fill:#000000; stroke:#000000;" points=" 1680 377 1690 382 1680 387 1682 382" /><path style="fill:none; stroke:#000000;stroke-width:1" d="M1430.0 395.0 L1519.0 389.0" /><polygon style="fill:#000000; stroke:#000000;" points=" 1509 385 1519 389 1509 395 1511 390" /><path style="fill:none; stroke:#000000;stroke-width:1" d="M1446.0 118.0 L1590.0 117.0" /><polygon style="fill:#000000; stroke:#000000;" points=" 1580 112 1590 117 1580 122 1582 117" /><path style="fill:none; stroke:#000000;stroke-width:1" d="M1398.0 339.0 L1394.0 168.0" /><polygon style="fill:#000000; stroke:#000000;" points=" 1389 178 1394 168 1399 178 1394 176" /><path style="fill:none; stroke:#000000;stroke-width:1" d="M336.0 668.0 L449.0 670.0" /><polygon style="fill:#000000; stroke:#000000;" points=" 439 665 449 670 439 675 441 670" /><polygon style="fill:#000000; stroke:#000000;" points=" 341 663 351 673" /><path style="fill:none; stroke:#000000;stroke-width:1" d="M200.0 210.0 L280.0 208.0 L282.0 639.0" /><polygon style="fill:#000000; stroke:#000000;" points=" 287 629 282 639 277 629 282 631" /><path style="fill:none; stroke:#000000;stroke-width:1" d="M1276.0 1432.0 L1369.0 1433.0" /><polygon style="fill:#000000; stroke:#000000;" points=" 1359 1428 1369 1433 1359 1438 1361 1433" /><path style="fill:none; stroke:#000000;stroke-width:1" d="M930.0 1422.0 L1169.0 1430.0" /><polygon style="fill:#000000; stroke:#000000;" points=" 1159 1425 1169 1430 1159 1435 1161 1430" /><path style="fill:none; stroke:#000000;stroke-width:1" d="M696.0 1157.0 L869.0 1239.0" /><polygon style="fill:#000000; stroke:#000000;" points=" 862 1230 869 1239 858 1239 862 1236" /><path style="fill:none; stroke:#000000;stroke-width:1" d="M869.0 917.0 L687.0 1089.0" /><polygon style="fill:#000000; stroke:#000000;" points=" 698 1086 687 1089 691 1078 693 1084" /><path style="fill:none; stroke:#000000;stroke-width:1" d="M843.0 1174.0 L869.0 1211.0" /><polygon style="fill:#000000; stroke:#000000;" points=" 867 1200 869 1211 859 1206 864 1204" /><path style="fill:none; stroke:#000000;stroke-width:1" d="M879.0 946.0 L828.0 1089.0" /><polygon style="fill:#000000; stroke:#000000;" points=" 836 1081 828 1089 827 1078 831 1081" /><path style="fill:none; stroke:#000000;stroke-width:1" d="M947.0 1174.0 L926.0 1209.0" /><polygon style="fill:#000000; stroke:#000000;" points=" 935 1203 926 1209 927 1198 930 1202" /><path style="fill:none; stroke:#000000;stroke-width:1" d="M917.0 946.0 L960.0 1089.0" /><polygon style="fill:#000000; stroke:#000000;" points=" 962 1078 960 1089 952 1081 958 1081" /><path style="fill:none; stroke:#000000;stroke-width:1" d="M1079.0 1160.0 L930.0 1238.0" /><polygon style="fill:#000000; stroke:#000000;" points=" 941 1238 930 1238 937 1229 937 1234" /><path style="fill:none; stroke:#000000;stroke-width:1" d="M930.0 919.0 L1092.0 1089.0" /><polygon style="fill:#000000; stroke:#000000;" points=" 1089 1078 1092 1089 1081 1085 1086 1083" /><path style="fill:none; stroke:#000000;stroke-width:1" d="M480.0 619.0 L480.0 390.0 L1369.0 397.0" /><polygon style="fill:#000000; stroke:#000000;" points=" 1359 392 1369 397 1359 402 1361 397" /><path style="fill:none; stroke:#000000;stroke-width:1" d="M510.0 670.0 L580.0 667.0" /><polygon style="fill:#000000; stroke:#000000;" points=" 570 662 580 667 570 672 572 667" /><path style="fill:none; stroke:#000000;stroke-width:1" d="M638.0 942.0 L637.0 960.0" /><polygon style="fill:#000000; stroke:#000000;" points=" 643 950 637 960 633 950 637 952" /><path style="fill:none; stroke:#000000;stroke-width:1" d="M670.0 871.0 L1369.0 417.0" /><polygon style="fill:#000000; stroke:#000000;" points=" 1358 418 1369 417 1363 427 1362 421" /><path style="fill:none; stroke:#000000;stroke-width:1" d="M670.0 890.0 L869.0 888.0" /><polygon style="fill:#000000; stroke:#000000;" points=" 859 883 869 888 859 893 861 888" /><path style="fill:none; stroke:#000000;stroke-width:1" d="M930.0 1410.0 L1397.0 1244.0 L1399.0 456.0" /><polygon style="fill:#000000; stroke:#000000;" points=" 1394 466 1399 456 1404 466 1399 464" /><path style="fill:none; stroke:#000000;stroke-width:1" d="M1400.0 1382.0 L1400.0 456.0" /><polygon style="fill:#000000; stroke:#000000;" points=" 1395 466 1400 456 1405 466 1400 464" /><path style="fill:none; stroke:#000000;stroke-width:1" d="M900.0 1298.0 L900.0 1369.0" /><polygon style="fill:#000000; stroke:#000000;" points=" 905 1359 900 1369 895 1359 900 1361" /><path style="fill:none; stroke:#000000;stroke-width:1" d="M869.0 1419.0 L784.0 1416.0" /><polygon style="fill:#000000; stroke:#000000;" points=" 794 1421 784 1416 794 1411 792 1416" /><path style="fill:none; stroke:#000000;stroke-width:1" d="M1430.0 1432.0 L1540.0 1427.0" /><polygon style="fill:#000000; stroke:#000000;" points=" 1530 1422 1540 1427 1530 1432 1532 1427" /><defs><linearGradient xmlns:xlink="http://www.w3.org/1999/xlink" xlink:href="#linearGradient66FF6696FF96B6FFB6" id="linearGradient66FF6696FF96B6FFB6_1974642871" x1="0" y1="82.0" x2="0" y2="117.0" gradientUnits="userSpaceOnUse" xlink:type="simple" xlink:actuate="onLoad" xlink:show="other" /><linearGradient id="linearGradient66FF6696FF96B6FFB6"><stop style="stop-color:#66FF66;stop-opacity:1;" offset="0.0" id="stop66FF66" /><stop style="stop-color:#96FF96;stop-opacity:1;" offset="0.5" id="stop96FF96" /><stop style="stop-color:#B6FFB6;stop-opacity:1;" offset="1.0" id="stopB6FFB6" /></linearGradient><linearGradient xmlns:xlink="http://www.w3.org/1999/xlink" xlink:href="#linearGradientF8FBFEEDF5FCDEEDFAD4E7F8E2E5E9" id="linearGradientF8FBFEEDF5FCDEEDFAD4E7F8E2E5E9_2071287921" x1="0" y1="860.0" x2="0" y2="966.0" gradientUnits="userSpaceOnUse" xlink:type="simple" xlink:actuate="onLoad" xlink:show="other" /><linearGradient id="linearGradientF8FBFEEDF5FCDEEDFAD4E7F8E2E5E9"><stop style="stop-color:#F8FBFE;stop-opacity:1;" offset="0.0" id="stopF8FBFE" /><stop style="stop-color:#EDF5FC;stop-opacity:1;" offset="0.25" id="stopEDF5FC" /><stop style="stop-color:#DEEDFA;stop-opacity:1;" offset="0.5" id="stopDEEDFA" /><stop style="stop-color:#D4E7F8;stop-opacity:1;" offset="0.75" id="stopD4E7F8" /><stop style="stop-color:#E2E5E9;stop-opacity:1;" offset="1.0" id="stopE2E5E9" /></linearGradient><linearGradient xmlns:xlink="http://www.w3.org/1999/xlink" xlink:href="#linearGradientF8FBFEEDF5FCDEEDFAD4E7F8E2E5E9" id="linearGradientF8FBFEEDF5FCDEEDFAD4E7F8E2E5E9_2135606215" x1="0" y1="350.0" x2="0" y2="456.0" gradientUnits="userSpaceOnUse" xlink:type="simple" xlink:actuate="onLoad" xlink:show="other" /><linearGradient xmlns:xlink="http://www.w3.org/1999/xlink" xlink:href="#linearGradientF8FBFEEDF5FCDEEDFAD4E7F8E2E5E9" id="linearGradientF8FBFEEDF5FCDEEDFAD4E7F8E2E5E9_977818186" x1="0" y1="70.0" x2="0" y2="176.0" gradientUnits="userSpaceOnUse" xlink:type="simple" xlink:actuate="onLoad" xlink:show="other" /><linearGradient xmlns:xlink="http://www.w3.org/1999/xlink" xlink:href="#linearGradientFF6666FF9696FFB6B6" id="linearGradientFF6666FF9696FFB6B6_1516216996" x1="0" y1="100.0" x2="0" y2="135.0" gradientUnits="userSpaceOnUse" xlink:type="simple" xlink:actuate="onLoad" xlink:show="other" /><linearGradient id="linearGradientFF6666FF9696FFB6B6"><stop style="stop-color:#FF6666;stop-opacity:1;" offset="0.0" id="stopFF6666" /><stop style="stop-color:#FF9696;stop-opacity:1;" offset="0.5" id="stopFF9696" /><stop style="stop-color:#FFB6B6;stop-opacity:1;" offset="1.0" id="stopFFB6B6" /></linearGradient><linearGradient xmlns:xlink="http://www.w3.org/1999/xlink" xlink:href="#linearGradientF8FBFEEDF5FCDEEDFAD4E7F8E2E5E9" id="linearGradientF8FBFEEDF5FCDEEDFAD4E7F8E2E5E9_196661070" x1="0" y1="640.0" x2="0" y2="746.0" gradientUnits="userSpaceOnUse" xlink:type="simple" xlink:actuate="onLoad" xlink:show="other" /><linearGradient xmlns:xlink="http://www.w3.org/1999/xlink" xlink:href="#linearGradientF8FBFEEDF5FCDEEDFAD4E7F8E2E5E9" id="linearGradientF8FBFEEDF5FCDEEDFAD4E7F8E2E5E9_574972165" x1="0" y1="1390.0" x2="0" y2="1496.0" gradientUnits="userSpaceOnUse" xlink:type="simple" xlink:actuate="onLoad" xlink:show="other" /><linearGradient xmlns:xlink="http://www.w3.org/1999/xlink" xlink:href="#linearGradientF8FBFEEDF5FCDEEDFAD4E7F8E2E5E9" id="linearGradientF8FBFEEDF5FCDEEDFAD4E7F8E2E5E9_1516743941" x1="0" y1="1090.0" x2="0" y2="1196.0" gradientUnits="userSpaceOnUse" xlink:type="simple" xlink:actuate="onLoad" xlink:show="other" /><linearGradient xmlns:xlink="http://www.w3.org/1999/xlink" xlink:href="#linearGradientF8FBFEEDF5FCDEEDFAD4E7F8E2E5E9" id="linearGradientF8FBFEEDF5FCDEEDFAD4E7F8E2E5E9_2106224239" x1="0" y1="1090.0" x2="0" y2="1196.0" gradientUnits="userSpaceOnUse" xlink:type="simple" xlink:actuate="onLoad" xlink:show="other" /><linearGradient xmlns:xlink="http://www.w3.org/1999/xlink" xlink:href="#linearGradientF8FBFEEDF5FCDEEDFAD4E7F8E2E5E9" id="linearGradientF8FBFEEDF5FCDEEDFAD4E7F8E2E5E9_814025775" x1="0" y1="1090.0" x2="0" y2="1196.0" gradientUnits="userSpaceOnUse" xlink:type="simple" xlink:actuate="onLoad" xlink:show="other" /><linearGradient xmlns:xlink="http://www.w3.org/1999/xlink" xlink:href="#linearGradientF8FBFEEDF5FCDEEDFAD4E7F8E2E5E9" id="linearGradientF8FBFEEDF5FCDEEDFAD4E7F8E2E5E9_960564851" x1="0" y1="1090.0" x2="0" y2="1196.0" gradientUnits="userSpaceOnUse" xlink:type="simple" xlink:actuate="onLoad" xlink:show="other" /><linearGradient xmlns:xlink="http://www.w3.org/1999/xlink" xlink:href="#linearGradientFAFBFCFFFFCC" id="linearGradientFAFBFCFFFFCC_1579783131" x1="0" y1="620.0" x2="0" y2="680.0" gradientUnits="userSpaceOnUse" xlink:type="simple" xlink:actuate="onLoad" xlink:show="other" /><linearGradient id="linearGradientFAFBFCFFFFCC"><stop style="stop-color:#FAFBFC;stop-opacity:1;" offset="0.0" id="stopFAFBFC" /><stop style="stop-color:#FFFFCC;stop-opacity:1;" offset="1.0" id="stopFFFFCC" /></linearGradient><linearGradient xmlns:xlink="http://www.w3.org/1999/xlink" xlink:href="#linearGradientFF6666FF9696FFB6B6" id="linearGradientFF6666FF9696FFB6B6_1887332199" x1="0" y1="365.0" x2="0" y2="400.0" gradientUnits="userSpaceOnUse" xlink:type="simple" xlink:actuate="onLoad" xlink:show="other" /><linearGradient xmlns:xlink="http://www.w3.org/1999/xlink" xlink:href="#linearGradientFAFBFCFFFFCC" id="linearGradientFAFBFCFFFFCC_1753413939" x1="0" y1="840.0" x2="0" y2="900.0" gradientUnits="userSpaceOnUse" xlink:type="simple" xlink:actuate="onLoad" xlink:show="other" /><linearGradient xmlns:xlink="http://www.w3.org/1999/xlink" xlink:href="#linearGradientFAFBFCFFFFCC" id="linearGradientFAFBFCFFFFCC_1493258438" x1="0" y1="340.0" x2="0" y2="400.0" gradientUnits="userSpaceOnUse" xlink:type="simple" xlink:actuate="onLoad" xlink:show="other" /><linearGradient xmlns:xlink="http://www.w3.org/1999/xlink" xlink:href="#linearGradientFAFBFCFFFFCC" id="linearGradientFAFBFCFFFFCC_1260697462" x1="0" y1="160.0" x2="0" y2="220.0" gradientUnits="userSpaceOnUse" xlink:type="simple" xlink:actuate="onLoad" xlink:show="other" /><linearGradient xmlns:xlink="http://www.w3.org/1999/xlink" xlink:href="#linearGradientFAFBFCFFFFCC" id="linearGradientFAFBFCFFFFCC_1222812714" x1="0" y1="830.0" x2="0" y2="890.0" gradientUnits="userSpaceOnUse" xlink:type="simple" xlink:actuate="onLoad" xlink:show="other" /><linearGradient xmlns:xlink="http://www.w3.org/1999/xlink" xlink:href="#linearGradientFAFBFCFFFFCC" id="linearGradientFAFBFCFFFFCC_936810340" x1="0" y1="1210.0" x2="0" y2="1270.0" gradientUnits="userSpaceOnUse" xlink:type="simple" xlink:actuate="onLoad" xlink:show="other" /><linearGradient xmlns:xlink="http://www.w3.org/1999/xlink" xlink:href="#linearGradientFF6666FF9696FFB6B6" id="linearGradientFF6666FF9696FFB6B6_1686267448" x1="0" y1="650.0" x2="0" y2="685.0" gradientUnits="userSpaceOnUse" xlink:type="simple" xlink:actuate="onLoad" xlink:show="other" /><linearGradient xmlns:xlink="http://www.w3.org/1999/xlink" xlink:href="#linearGradientFF6666FF9696FFB6B6" id="linearGradientFF6666FF9696FFB6B6_175370969" x1="0" y1="960.0" x2="0" y2="995.0" gradientUnits="userSpaceOnUse" xlink:type="simple" xlink:actuate="onLoad" xlink:show="other" /><linearGradient xmlns:xlink="http://www.w3.org/1999/xlink" xlink:href="#linearGradientFAFBFCFFFFCC" id="linearGradientFAFBFCFFFFCC_1466811465" x1="0" y1="1370.0" x2="0" y2="1430.0" gradientUnits="userSpaceOnUse" xlink:type="simple" xlink:actuate="onLoad" xlink:show="other" /><linearGradient xmlns:xlink="http://www.w3.org/1999/xlink" xlink:href="#linearGradientFF6666FF9696FFB6B6" id="linearGradientFF6666FF9696FFB6B6_1409483895" x1="0" y1="1399.0" x2="0" y2="1434.0" gradientUnits="userSpaceOnUse" xlink:type="simple" xlink:actuate="onLoad" xlink:show="other" /><linearGradient xmlns:xlink="http://www.w3.org/1999/xlink" xlink:href="#linearGradientFAFBFCFFFFCC" id="linearGradientFAFBFCFFFFCC_600247145" x1="0" y1="1383.0" x2="0" y2="1443.0" gradientUnits="userSpaceOnUse" xlink:type="simple" xlink:actuate="onLoad" xlink:show="other" /><linearGradient xmlns:xlink="http://www.w3.org/1999/xlink" xlink:href="#linearGradientFF6666FF9696FFB6B6" id="linearGradientFF6666FF9696FFB6B6_918012146" x1="0" y1="1410.0" x2="0" y2="1445.0" gradientUnits="userSpaceOnUse" xlink:type="simple" xlink:actuate="onLoad" xlink:show="other" /></defs></svg>
