<?xml version="1.0" encoding="UTF-8"?>
<svg xmlns="http://www.w3.org/2000/svg" style="stroke-dasharray:none; shape-rendering:auto; font-family:'Arial'; text-rendering:auto; fill-opacity:1; color-interpolation:auto; color-rendering:auto; font-size:12; fill:black; stroke:black; image-rendering:auto; stroke-miterlimit:10; stroke-linecap:square; stroke-linejoin:miter; font-style:normal; stroke-width:1; stroke-dashoffset:0; font-weight:normal; stroke-opacity:1;" contentScriptType="text/ecmascript" preserveAspectRatio="xMidYMid meet" zoomAndPan="magnify" version="1.0" contentStyleType="text/css" xml:xlink="http://www.w3.org/1999/xlink" width="711" height="361"><rect x="10" y="20" width="701" height="341" ry="0" rx="0" style="stroke:#000000; fill:#FFFFFF" /><rect x="40" y="190" width="671" height="171" ry="0" rx="0" style="stroke:#000000; fill:#C0C0C0" /><g componentSequence="3"><text x="-275" y="47" transform="rotate(270)" text-anchor="middle" style="font-weight:bold;font-size:10px;stroke:none; fill:#434343"><tspan dy="14" x="-275">Gerente</tspan></text></g><rect x="40" y="20" width="671" height="170" ry="0" rx="0" style="stroke:#000000; fill:#9F9F9F" /><g componentSequence="2"><text x="-105" y="47" transform="rotate(270)" text-anchor="middle" style="font-weight:bold;font-size:10px;stroke:none; fill:#434343"><tspan dy="14" x="-105">Solicitante</tspan></text></g><g componentSequence="1"><text x="-190" y="17" transform="rotate(270)" text-anchor="middle" style="font-weight:bold;font-size:10px;stroke:none; fill:#434343"><tspan dy="14" x="-190">Solicitação de adiantamento</tspan></text></g><g sequence="4"><ellipse cx="167" cy="118" rx="17" ry="17" stroke-width="1" style="fill:url(#linearGradient66FF6696FF96B6FFB6_1637335725);" stroke="336633" /></g><g sequence="5"><rect x="120" y="227" width="106" height="70" ry="5" rx="5" style="fill:url(#linearGradientF8FBFEEDF5FCDEEDFAD4E7F8E2E5E9_1867526383);" stroke="191970" /></g><g componentSequence="5"><text x="173" y="242" text-anchor="middle" style="font-weight:bold;font-size:10px;stroke:none; fill:#333399"><tspan dy="14" x="173">Realizar</tspan><tspan dy="14" x="173">aprovação</tspan></text></g><rect x="230" y="50" width="105" height="55" ry="5" rx="5" style="stroke:none; fill:#FFFFE0" /><g componentSequence="7"><text x="240" y="73" text-anchor="left" style="font-weight:bold;font-size:10px;stroke:none; fill:#000000"><tspan dy="14" x="240">Informar valor</tspan><tspan dy="14" x="240">necessário</tspan></text></g><path style="fill:none; stroke-width:1; stroke:#000000;" d="M250.0 50.0 L230.0 50.0 L230.0 105.0 L250.0 105.0" /><g sequence="10"><polygon points=" 350 250 380 220 410 250 380 280 350 250" style="fill:url(#linearGradientFAFBFCFFFFCC_1802480093);" stroke="000000" /></g><g componentSequence="10"><text x="380" y="290" text-anchor="middle" style="font-weight:bold;font-size:10px;stroke:none; fill:#333399"><tspan dy="14" x="380">Aprovad</tspan><tspan dy="14" x="380">o?</tspan></text></g><g sequence="18"><ellipse cx="477" cy="227" rx="17" ry="17" stroke-width="3" style="fill:url(#linearGradientFF6666FF9696FFB6B6_778910420);" stroke="993333" /></g><g sequence="18"><polygon points=" 468 223 473 218 478 223 483 218 488 223 483 228 488 233 483 238 478 233 473 238 468 233 473 228" style="stroke:none; fill:#993333" /></g><g sequence="19"><ellipse cx="477" cy="307" rx="17" ry="17" stroke-width="3" style="fill:url(#linearGradientFF6666FF9696FFB6B6_1898972958);" stroke="993333" /></g><g componentSequence="6"><text x="177" y="181" style="font-size:10px;font-weight:none;stroke:none; fill:#333399" text-anchor="left" /></g><g componentSequence="8"><text x="193" y="74" style="font-size:10px;font-weight:none;stroke:none; fill:#333399" text-anchor="left" /></g><g componentSequence="11"><text x="298" y="267" style="font-size:10px;font-weight:none;stroke:none; fill:#333399" text-anchor="left" /></g><g componentSequence="15"><text x="445" y="246" style="font-size:10px;font-weight:none;stroke:none; fill:#333399" text-anchor="left" /></g><g componentSequence="20"><text x="445" y="291" style="font-size:10px;font-weight:none;stroke:none; fill:#333399" text-anchor="left" /></g><path style="fill:none; stroke:#000000;stroke-width:1" d="M167.0 136.0 L167.0 182.0 L170.0 226.0" /><polygon style="fill:#000000; stroke:#000000;" points=" 174 216 170 226 164 216 169 218" /><path style="fill:none; stroke:#000000;stroke-dasharray:2" d="M229.0 75.0 L165.0 73.0 L167.0 101.0" /><path style="fill:none; stroke:#000000;stroke-width:1" d="M226.0 264.0 L349.0 269.0" /><polygon style="fill:#000000; stroke:#000000;" points=" 339 264 349 269 339 274 341 269" /><path style="fill:none; stroke:#000000;stroke-width:1" d="M410.0 257.0 L461.0 234.0" /><polygon style="fill:#000000; stroke:#000000;" points=" 450 234 461 234 454 243 454 237" /><path style="fill:none; stroke:#000000;stroke-width:1" d="M410.0 282.0 L461.0 301.0" /><polygon style="fill:#000000; stroke:#000000;" points=" 453 293 461 301 450 302 454 298" /><defs><linearGradient xmlns:xlink="http://www.w3.org/1999/xlink" xlink:href="#linearGradient66FF6696FF96B6FFB6" id="linearGradient66FF6696FF96B6FFB6_1637335725" x1="0" y1="101.0" x2="0" y2="136.0" gradientUnits="userSpaceOnUse" xlink:type="simple" xlink:actuate="onLoad" xlink:show="other" /><linearGradient id="linearGradient66FF6696FF96B6FFB6"><stop style="stop-color:#66FF66;stop-opacity:1;" offset="0.0" id="stop66FF66" /><stop style="stop-color:#96FF96;stop-opacity:1;" offset="0.5" id="stop96FF96" /><stop style="stop-color:#B6FFB6;stop-opacity:1;" offset="1.0" id="stopB6FFB6" /></linearGradient><linearGradient xmlns:xlink="http://www.w3.org/1999/xlink" xlink:href="#linearGradientF8FBFEEDF5FCDEEDFAD4E7F8E2E5E9" id="linearGradientF8FBFEEDF5FCDEEDFAD4E7F8E2E5E9_1867526383" x1="0" y1="227.0" x2="0" y2="333.0" gradientUnits="userSpaceOnUse" xlink:type="simple" xlink:actuate="onLoad" xlink:show="other" /><linearGradient id="linearGradientF8FBFEEDF5FCDEEDFAD4E7F8E2E5E9"><stop style="stop-color:#F8FBFE;stop-opacity:1;" offset="0.0" id="stopF8FBFE" /><stop style="stop-color:#EDF5FC;stop-opacity:1;" offset="0.25" id="stopEDF5FC" /><stop style="stop-color:#DEEDFA;stop-opacity:1;" offset="0.5" id="stopDEEDFA" /><stop style="stop-color:#D4E7F8;stop-opacity:1;" offset="0.75" id="stopD4E7F8" /><stop style="stop-color:#E2E5E9;stop-opacity:1;" offset="1.0" id="stopE2E5E9" /></linearGradient><linearGradient xmlns:xlink="http://www.w3.org/1999/xlink" xlink:href="#linearGradientFAFBFCFFFFCC" id="linearGradientFAFBFCFFFFCC_1802480093" x1="0" y1="220.0" x2="0" y2="280.0" gradientUnits="userSpaceOnUse" xlink:type="simple" xlink:actuate="onLoad" xlink:show="other" /><linearGradient id="linearGradientFAFBFCFFFFCC"><stop style="stop-color:#FAFBFC;stop-opacity:1;" offset="0.0" id="stopFAFBFC" /><stop style="stop-color:#FFFFCC;stop-opacity:1;" offset="1.0" id="stopFFFFCC" /></linearGradient><linearGradient xmlns:xlink="http://www.w3.org/1999/xlink" xlink:href="#linearGradientFF6666FF9696FFB6B6" id="linearGradientFF6666FF9696FFB6B6_778910420" x1="0" y1="210.0" x2="0" y2="245.0" gradientUnits="userSpaceOnUse" xlink:type="simple" xlink:actuate="onLoad" xlink:show="other" /><linearGradient id="linearGradientFF6666FF9696FFB6B6"><stop style="stop-color:#FF6666;stop-opacity:1;" offset="0.0" id="stopFF6666" /><stop style="stop-color:#FF9696;stop-opacity:1;" offset="0.5" id="stopFF9696" /><stop style="stop-color:#FFB6B6;stop-opacity:1;" offset="1.0" id="stopFFB6B6" /></linearGradient><linearGradient xmlns:xlink="http://www.w3.org/1999/xlink" xlink:href="#linearGradientFF6666FF9696FFB6B6" id="linearGradientFF6666FF9696FFB6B6_1898972958" x1="0" y1="290.0" x2="0" y2="325.0" gradientUnits="userSpaceOnUse" xlink:type="simple" xlink:actuate="onLoad" xlink:show="other" /></defs></svg>
