<?xml version="1.0" encoding="UTF-8"?>
<svg xmlns="http://www.w3.org/2000/svg" style="stroke-dasharray:none; shape-rendering:auto; font-family:'Arial'; text-rendering:auto; fill-opacity:1; color-interpolation:auto; color-rendering:auto; font-size:12; fill:black; stroke:black; image-rendering:auto; stroke-miterlimit:10; stroke-linecap:square; stroke-linejoin:miter; font-style:normal; stroke-width:1; stroke-dashoffset:0; font-weight:normal; stroke-opacity:1;" contentScriptType="text/ecmascript" preserveAspectRatio="xMidYMid meet" zoomAndPan="magnify" version="1.0" contentStyleType="text/css" xml:xlink="http://www.w3.org/1999/xlink" width="1341" height="581"><rect x="10" y="10" width="1331" height="571" ry="0" rx="0" style="stroke:#000000; fill:#FFFFFF" /><rect x="40" y="390" width="1301" height="191" ry="0" rx="0" style="stroke:#000000; fill:#82B0B7" /><g componentSequence="9"><text x="-485" y="47" transform="rotate(270)" text-anchor="middle" style="font-weight:bold;font-size:10px;stroke:none; fill:#434343"><tspan dy="14" x="-485">Contabilidade</tspan></text></g><rect x="40" y="200" width="1301" height="190" ry="0" rx="0" style="stroke:#000000; fill:#C0C0C0" /><g componentSequence="3"><text x="-295" y="47" transform="rotate(270)" text-anchor="middle" style="font-weight:bold;font-size:10px;stroke:none; fill:#434343"><tspan dy="14" x="-295">Administração</tspan></text></g><rect x="40" y="10" width="1301" height="190" ry="0" rx="0" style="stroke:#000000; fill:#9F9F9F" /><g componentSequence="2"><text x="-105" y="47" transform="rotate(270)" text-anchor="middle" style="font-weight:bold;font-size:10px;stroke:none; fill:#434343"><tspan dy="14" x="-105">Solicitante</tspan></text></g><g componentSequence="1"><text x="-295" y="17" transform="rotate(270)" text-anchor="middle" style="font-weight:bold;font-size:10px;stroke:none; fill:#434343"><tspan dy="14" x="-295">Envio de nota de fiscal de serviço</tspan></text></g><g sequence="4"><ellipse cx="167" cy="57" rx="17" ry="17" stroke-width="1" style="fill:url(#linearGradient66FF6696FF96B6FFB6_400447372);" stroke="336633" /></g><g sequence="13"><rect x="860" y="280" width="106" height="70" ry="5" rx="5" style="fill:url(#linearGradientF8FBFEEDF5FCDEEDFAD4E7F8E2E5E9_421112583);" stroke="191970" /></g><g componentSequence="13"><text x="913" y="295" text-anchor="middle" style="font-weight:bold;font-size:10px;stroke:none; fill:#333399"><tspan dy="14" x="913">Encerrar</tspan><tspan dy="14" x="913">medição</tspan></text></g><g sequence="51"><rect x="1080" y="460" width="106" height="70" ry="5" rx="5" style="fill:url(#linearGradientF8FBFEEDF5FCDEEDFAD4E7F8E2E5E9_489045244);" stroke="191970" /></g><g componentSequence="51"><text x="1133" y="475" text-anchor="middle" style="font-weight:bold;font-size:10px;stroke:none; fill:#333399"><tspan dy="14" x="1133">Lançar nota</tspan><tspan dy="14" x="1133">fiscal</tspan></text></g><g sequence="53"><ellipse cx="1287" cy="497" rx="17" ry="17" stroke-width="3" style="fill:url(#linearGradientFF6666FF9696FFB6B6_1478795580);" stroke="993333" /></g><g sequence="65"><rect x="680" y="280" width="106" height="70" ry="5" rx="5" style="fill:url(#linearGradientF8FBFEEDF5FCDEEDFAD4E7F8E2E5E9_1034153859);" stroke="191970" /></g><g componentSequence="65"><text x="733" y="295" text-anchor="middle" style="font-weight:bold;font-size:10px;stroke:none; fill:#333399"><tspan dy="14" x="733">Aguardar</tspan><tspan dy="14" x="733">aprovação</tspan></text></g><rect x="670" y="50" width="105" height="83" ry="5" rx="5" style="stroke:none; fill:#FFFFE0" /><g componentSequence="69"><text x="680" y="73" text-anchor="left" style="font-weight:bold;font-size:10px;stroke:none; fill:#000000"><tspan dy="14" x="680">Tarefa</tspan><tspan dy="14" x="680">realizada no</tspan><tspan dy="14" x="680">sistema</tspan><tspan dy="14" x="680">Protheus</tspan></text></g><path style="fill:none; stroke-width:1; stroke:#000000;" d="M690.0 50.0 L670.0 50.0 L670.0 133.0 L690.0 133.0" /><g sequence="74"><rect x="480" y="280" width="106" height="70" ry="5" rx="5" style="fill:url(#linearGradientF8FBFEEDF5FCDEEDFAD4E7F8E2E5E9_1773550243);" stroke="191970" /></g><g componentSequence="74"><text x="533" y="304" text-anchor="middle" style="font-weight:bold;font-size:10px;stroke:none; fill:#333399"><tspan dy="14" x="533">Anexar relatório</tspan></text></g><g sequence="81"><polygon points=" 300 292 330 262 360 292 330 322 300 292" style="fill:url(#linearGradientFAFBFCFFFFCC_1171991221);" stroke="000000" /></g><g componentSequence="81"><text x="330" y="332" text-anchor="middle" style="font-weight:bold;font-size:10px;stroke:none; fill:#333399"><tspan dy="14" x="330">validado</tspan><tspan dy="14" x="330">?</tspan></text></g><g sequence="86"><ellipse cx="407" cy="237" rx="17" ry="17" stroke-width="3" style="fill:url(#linearGradientFF6666FF9696FFB6B6_940269171);" stroke="993333" /></g><g sequence="86"><polygon points=" 398 233 403 228 408 233 413 228 418 233 413 238 418 243 413 248 408 243 403 248 398 243 403 238" style="stroke:none; fill:#993333" /></g><g sequence="87"><rect x="120" y="285" width="106" height="56" ry="5" rx="5" style="fill:url(#linearGradientF8FBFEEDF5FCDEEDFAD4E7F8E2E5E9_452358406);" stroke="191970" /></g><g componentSequence="87"><text x="173" y="302" text-anchor="middle" style="font-weight:bold;font-size:10px;stroke:none; fill:#333399"><tspan dy="14" x="173">Incluir medição</tspan></text></g><g sequence="92"><rect x="280" y="50" width="106" height="56" ry="5" rx="5" style="fill:url(#linearGradientF8FBFEEDF5FCDEEDFAD4E7F8E2E5E9_1112355801);" stroke="191970" /></g><g componentSequence="92"><text x="333" y="67" text-anchor="middle" style="font-weight:bold;font-size:10px;stroke:none; fill:#333399"><tspan dy="14" x="333">Corrigir</tspan></text></g><g sequence="100"><rect x="1080" y="280" width="106" height="70" ry="5" rx="5" style="fill:url(#linearGradientF8FBFEEDF5FCDEEDFAD4E7F8E2E5E9_1591682983);" stroke="191970" /></g><g componentSequence="100"><text x="1133" y="304" text-anchor="middle" style="font-weight:bold;font-size:10px;stroke:none; fill:#333399"><tspan dy="14" x="1133">Lançar pré-nota</tspan></text></g><g componentSequence="54"><text x="1238" y="496" style="font-size:10px;font-weight:none;stroke:none; fill:#333399" text-anchor="left" /></g><g componentSequence="77"><text x="833" y="315" style="font-size:10px;font-weight:none;stroke:none; fill:#333399" text-anchor="left" /></g><g componentSequence="84"><text x="385" y="269" style="font-size:10px;font-weight:none;stroke:none; fill:#333399" text-anchor="left" /></g><g componentSequence="88"><text x="180" y="180" style="font-size:10px;font-weight:none;stroke:none; fill:#333399" text-anchor="left" /></g><g componentSequence="89"><text x="273" y="313" style="font-size:10px;font-weight:none;stroke:none; fill:#333399" text-anchor="left" /></g><g componentSequence="90"><text x="430" y="314" style="font-size:10px;font-weight:none;stroke:none; fill:#333399" text-anchor="left" /></g><g componentSequence="91"><text x="643" y="315" style="font-size:10px;font-weight:none;stroke:none; fill:#333399" text-anchor="left" /></g><g componentSequence="93"><text x="341" y="184" style="font-size:10px;font-weight:none;stroke:none; fill:#333399" text-anchor="left" /></g><g componentSequence="94"><text x="263" y="195" style="font-size:10px;font-weight:none;stroke:none; fill:#333399" text-anchor="left" /></g><g componentSequence="95"><text x="635" y="206" style="font-size:10px;font-weight:none;stroke:none; fill:#333399" text-anchor="left" /></g><g componentSequence="97"><text x="830" y="206" style="font-size:10px;font-weight:none;stroke:none; fill:#333399" text-anchor="left" /></g><g componentSequence="98"><text x="738" y="206" style="font-size:10px;font-weight:none;stroke:none; fill:#333399" text-anchor="left" /></g><g componentSequence="101"><text x="1143" y="405" style="font-size:10px;font-weight:none;stroke:none; fill:#333399" text-anchor="left" /></g><g componentSequence="102"><text x="1033" y="315" style="font-size:10px;font-weight:none;stroke:none; fill:#333399" text-anchor="left" /></g><path style="fill:none; stroke:#000000;stroke-width:1" d="M167.0 74.0 L172.0 284.0" /><polygon style="fill:#000000; stroke:#000000;" points=" 177 274 172 284 167 274 172 276" /><path style="fill:none; stroke:#000000;stroke-width:1" d="M966.0 315.0 L1079.0 315.0" /><polygon style="fill:#000000; stroke:#000000;" points=" 1069 310 1079 315 1069 320 1071 315" /><path style="fill:none; stroke:#000000;stroke-width:1" d="M786.0 315.0 L859.0 315.0" /><polygon style="fill:#000000; stroke:#000000;" points=" 849 310 859 315 849 320 851 315" /><path style="fill:none; stroke:#000000;stroke-dasharray:2" d="M758.0 133.0 L882.0 279.0" /><path style="fill:none; stroke:#000000;stroke-width:1" d="M1186.0 495.0 L1270.0 497.0" /><polygon style="fill:#000000; stroke:#000000;" points=" 1260 492 1270 497 1260 502 1262 497" /><path style="fill:none; stroke:#000000;stroke-width:1" d="M1133.0 350.0 L1133.0 459.0" /><polygon style="fill:#000000; stroke:#000000;" points=" 1138 449 1133 459 1128 449 1133 451" /><path style="fill:none; stroke:#000000;stroke-width:1" d="M586.0 315.0 L679.0 315.0" /><polygon style="fill:#000000; stroke:#000000;" points=" 669 310 679 315 669 320 671 315" /><path style="fill:none; stroke:#000000;stroke-dasharray:2" d="M724.0 133.0 L731.0 279.0" /><path style="fill:none; stroke:#000000;stroke-dasharray:2" d="M687.0 133.0 L563.0 279.0" /><path style="fill:none; stroke:#000000;stroke-width:1" d="M360.0 313.0 L479.0 314.0" /><polygon style="fill:#000000; stroke:#000000;" points=" 469 309 479 314 469 319 471 314" /><path style="fill:none; stroke:#000000;stroke-width:1" d="M360.0 283.0 L395.0 249.0" /><polygon style="fill:#000000; stroke:#000000;" points=" 384 252 395 249 391 260 389 255" /><path style="fill:none; stroke:#000000;stroke-width:1" d="M330.0 261.0 L332.0 106.0" /><polygon style="fill:#000000; stroke:#000000;" points=" 327 116 332 106 337 116 332 114" /><path style="fill:none; stroke:#000000;stroke-width:1" d="M226.0 313.0 L299.0 313.0" /><polygon style="fill:#000000; stroke:#000000;" points=" 289 308 299 313 289 318 291 313" /><path style="fill:none; stroke:#000000;stroke-width:1" d="M313.0 106.0 L192.0 284.0" /><polygon style="fill:#000000; stroke:#000000;" points=" 202 279 192 284 193 273 196 277" /><defs><linearGradient xmlns:xlink="http://www.w3.org/1999/xlink" xlink:href="#linearGradient66FF6696FF96B6FFB6" id="linearGradient66FF6696FF96B6FFB6_400447372" x1="0" y1="40.0" x2="0" y2="75.0" gradientUnits="userSpaceOnUse" xlink:type="simple" xlink:actuate="onLoad" xlink:show="other" /><linearGradient id="linearGradient66FF6696FF96B6FFB6"><stop style="stop-color:#66FF66;stop-opacity:1;" offset="0.0" id="stop66FF66" /><stop style="stop-color:#96FF96;stop-opacity:1;" offset="0.5" id="stop96FF96" /><stop style="stop-color:#B6FFB6;stop-opacity:1;" offset="1.0" id="stopB6FFB6" /></linearGradient><linearGradient xmlns:xlink="http://www.w3.org/1999/xlink" xlink:href="#linearGradientF8FBFEEDF5FCDEEDFAD4E7F8E2E5E9" id="linearGradientF8FBFEEDF5FCDEEDFAD4E7F8E2E5E9_421112583" x1="0" y1="280.0" x2="0" y2="386.0" gradientUnits="userSpaceOnUse" xlink:type="simple" xlink:actuate="onLoad" xlink:show="other" /><linearGradient id="linearGradientF8FBFEEDF5FCDEEDFAD4E7F8E2E5E9"><stop style="stop-color:#F8FBFE;stop-opacity:1;" offset="0.0" id="stopF8FBFE" /><stop style="stop-color:#EDF5FC;stop-opacity:1;" offset="0.25" id="stopEDF5FC" /><stop style="stop-color:#DEEDFA;stop-opacity:1;" offset="0.5" id="stopDEEDFA" /><stop style="stop-color:#D4E7F8;stop-opacity:1;" offset="0.75" id="stopD4E7F8" /><stop style="stop-color:#E2E5E9;stop-opacity:1;" offset="1.0" id="stopE2E5E9" /></linearGradient><linearGradient xmlns:xlink="http://www.w3.org/1999/xlink" xlink:href="#linearGradientF8FBFEEDF5FCDEEDFAD4E7F8E2E5E9" id="linearGradientF8FBFEEDF5FCDEEDFAD4E7F8E2E5E9_489045244" x1="0" y1="460.0" x2="0" y2="566.0" gradientUnits="userSpaceOnUse" xlink:type="simple" xlink:actuate="onLoad" xlink:show="other" /><linearGradient xmlns:xlink="http://www.w3.org/1999/xlink" xlink:href="#linearGradientFF6666FF9696FFB6B6" id="linearGradientFF6666FF9696FFB6B6_1478795580" x1="0" y1="480.0" x2="0" y2="515.0" gradientUnits="userSpaceOnUse" xlink:type="simple" xlink:actuate="onLoad" xlink:show="other" /><linearGradient id="linearGradientFF6666FF9696FFB6B6"><stop style="stop-color:#FF6666;stop-opacity:1;" offset="0.0" id="stopFF6666" /><stop style="stop-color:#FF9696;stop-opacity:1;" offset="0.5" id="stopFF9696" /><stop style="stop-color:#FFB6B6;stop-opacity:1;" offset="1.0" id="stopFFB6B6" /></linearGradient><linearGradient xmlns:xlink="http://www.w3.org/1999/xlink" xlink:href="#linearGradientF8FBFEEDF5FCDEEDFAD4E7F8E2E5E9" id="linearGradientF8FBFEEDF5FCDEEDFAD4E7F8E2E5E9_1034153859" x1="0" y1="280.0" x2="0" y2="386.0" gradientUnits="userSpaceOnUse" xlink:type="simple" xlink:actuate="onLoad" xlink:show="other" /><linearGradient xmlns:xlink="http://www.w3.org/1999/xlink" xlink:href="#linearGradientF8FBFEEDF5FCDEEDFAD4E7F8E2E5E9" id="linearGradientF8FBFEEDF5FCDEEDFAD4E7F8E2E5E9_1773550243" x1="0" y1="280.0" x2="0" y2="386.0" gradientUnits="userSpaceOnUse" xlink:type="simple" xlink:actuate="onLoad" xlink:show="other" /><linearGradient xmlns:xlink="http://www.w3.org/1999/xlink" xlink:href="#linearGradientFAFBFCFFFFCC" id="linearGradientFAFBFCFFFFCC_1171991221" x1="0" y1="262.0" x2="0" y2="322.0" gradientUnits="userSpaceOnUse" xlink:type="simple" xlink:actuate="onLoad" xlink:show="other" /><linearGradient id="linearGradientFAFBFCFFFFCC"><stop style="stop-color:#FAFBFC;stop-opacity:1;" offset="0.0" id="stopFAFBFC" /><stop style="stop-color:#FFFFCC;stop-opacity:1;" offset="1.0" id="stopFFFFCC" /></linearGradient><linearGradient xmlns:xlink="http://www.w3.org/1999/xlink" xlink:href="#linearGradientFF6666FF9696FFB6B6" id="linearGradientFF6666FF9696FFB6B6_940269171" x1="0" y1="220.0" x2="0" y2="255.0" gradientUnits="userSpaceOnUse" xlink:type="simple" xlink:actuate="onLoad" xlink:show="other" /><linearGradient xmlns:xlink="http://www.w3.org/1999/xlink" xlink:href="#linearGradientF8FBFEEDF5FCDEEDFAD4E7F8E2E5E9" id="linearGradientF8FBFEEDF5FCDEEDFAD4E7F8E2E5E9_452358406" x1="0" y1="285.0" x2="0" y2="391.0" gradientUnits="userSpaceOnUse" xlink:type="simple" xlink:actuate="onLoad" xlink:show="other" /><linearGradient xmlns:xlink="http://www.w3.org/1999/xlink" xlink:href="#linearGradientF8FBFEEDF5FCDEEDFAD4E7F8E2E5E9" id="linearGradientF8FBFEEDF5FCDEEDFAD4E7F8E2E5E9_1112355801" x1="0" y1="50.0" x2="0" y2="156.0" gradientUnits="userSpaceOnUse" xlink:type="simple" xlink:actuate="onLoad" xlink:show="other" /><linearGradient xmlns:xlink="http://www.w3.org/1999/xlink" xlink:href="#linearGradientF8FBFEEDF5FCDEEDFAD4E7F8E2E5E9" id="linearGradientF8FBFEEDF5FCDEEDFAD4E7F8E2E5E9_1591682983" x1="0" y1="280.0" x2="0" y2="386.0" gradientUnits="userSpaceOnUse" xlink:type="simple" xlink:actuate="onLoad" xlink:show="other" /></defs></svg>
