<?xml version="1.0" encoding="UTF-8"?>
<svg xmlns="http://www.w3.org/2000/svg" style="stroke-dasharray:none; shape-rendering:auto; font-family:'Arial'; text-rendering:auto; fill-opacity:1; color-interpolation:auto; color-rendering:auto; font-size:12; fill:black; stroke:black; image-rendering:auto; stroke-miterlimit:10; stroke-linecap:square; stroke-linejoin:miter; font-style:normal; stroke-width:1; stroke-dashoffset:0; font-weight:normal; stroke-opacity:1;" contentScriptType="text/ecmascript" preserveAspectRatio="xMidYMid meet" zoomAndPan="magnify" version="1.0" contentStyleType="text/css" xml:xlink="http://www.w3.org/1999/xlink" width="1501" height="1301"><rect x="10" y="10" width="1491" height="1291" ry="0" rx="0" style="stroke:#000000; fill:#FFFFFF" /><rect x="40" y="784" width="1461" height="258" ry="0" rx="0" style="stroke:#000000; fill:#ADC9AC" /><g componentSequence="30"><text x="-913" y="47" transform="rotate(270)" text-anchor="middle" style="font-weight:bold;font-size:10px;stroke:none; fill:#434343"><tspan dy="14" x="-913">Diretor Financeiro</tspan></text></g><rect x="40" y="1042" width="1461" height="259" ry="0" rx="0" style="stroke:#000000; fill:#D0DAAE" /><g componentSequence="41"><text x="-1171" y="47" transform="rotate(270)" text-anchor="middle" style="font-weight:bold;font-size:10px;stroke:none; fill:#434343"><tspan dy="14" x="-1171">Comitê de compras</tspan></text></g><rect x="40" y="268" width="1461" height="258" ry="0" rx="0" style="stroke:#000000; fill:#82B0B7" /><g componentSequence="9"><text x="-397" y="47" transform="rotate(270)" text-anchor="middle" style="font-weight:bold;font-size:10px;stroke:none; fill:#434343"><tspan dy="14" x="-397">Tesouraria</tspan></text></g><rect x="40" y="526" width="1461" height="258" ry="0" rx="0" style="stroke:#000000; fill:#C0C0C0" /><g componentSequence="3"><text x="-655" y="47" transform="rotate(270)" text-anchor="middle" style="font-weight:bold;font-size:10px;stroke:none; fill:#434343"><tspan dy="14" x="-655">Gerente de ADM</tspan></text></g><rect x="40" y="10" width="1461" height="258" ry="0" rx="0" style="stroke:#000000; fill:#9F9F9F" /><g componentSequence="2"><text x="-139" y="47" transform="rotate(270)" text-anchor="middle" style="font-weight:bold;font-size:10px;stroke:none; fill:#434343"><tspan dy="14" x="-139">Comprador</tspan></text></g><g componentSequence="1"><text x="-655" y="17" transform="rotate(270)" text-anchor="middle" style="font-weight:bold;font-size:10px;stroke:none; fill:#434343"><tspan dy="14" x="-655">Solicitação de Adiantamento ao Fornecedor</tspan></text></g><g sequence="4"><ellipse cx="167" cy="99" rx="17" ry="17" stroke-width="1" style="fill:url(#linearGradient66FF6696FF96B6FFB6_1988562260);" stroke="336633" /></g><g sequence="5"><rect x="430" y="860" width="106" height="56" ry="5" rx="5" style="fill:url(#linearGradientF8FBFEEDF5FCDEEDFAD4E7F8E2E5E9_2017525236);" stroke="191970" /></g><g componentSequence="5"><text x="483" y="877" text-anchor="middle" style="font-weight:bold;font-size:10px;stroke:none; fill:#333399"><tspan dy="14" x="483">Aprovar ADF</tspan></text></g><rect x="210" y="20" width="105" height="55" ry="5" rx="5" style="stroke:none; fill:#FFFFE0" /><g componentSequence="7"><text x="220" y="33" text-anchor="left" style="font-weight:bold;font-size:10px;stroke:none; fill:#000000"><tspan dy="14" x="220">Start</tspan></text></g><path style="fill:none; stroke-width:1; stroke:#000000;" d="M230.0 20.0 L210.0 20.0 L210.0 75.0 L230.0 75.0" /><g sequence="10"><rect x="1190" y="360" width="106" height="70" ry="5" rx="5" style="fill:url(#linearGradientF8FBFEEDF5FCDEEDFAD4E7F8E2E5E9_2088724004);" stroke="191970" /></g><g componentSequence="10"><text x="1243" y="375" text-anchor="middle" style="font-weight:bold;font-size:10px;stroke:none; fill:#333399"><tspan dy="14" x="1243">Gerar</tspan><tspan dy="14" x="1243">adiantamento</tspan></text></g><g sequence="24"><rect x="960" y="80" width="106" height="98" ry="5" rx="5" style="fill:url(#linearGradientF8FBFEEDF5FCDEEDFAD4E7F8E2E5E9_964556751);" stroke="191970" /></g><g componentSequence="24"><text x="1013" y="95" text-anchor="middle" style="font-weight:bold;font-size:10px;stroke:none; fill:#333399"><tspan dy="14" x="1013">Gerar</tspan><tspan dy="14" x="1013">adiantamento de</tspan><tspan dy="14" x="1013">cartão de</tspan><tspan dy="14" x="1013">credito</tspan></text></g><g sequence="26"><ellipse cx="1297" cy="124" rx="17" ry="17" stroke-width="3" style="fill:url(#linearGradientFF6666FF9696FFB6B6_2011078681);" stroke="993333" /></g><g sequence="31"><rect x="230" y="640" width="106" height="56" ry="5" rx="5" style="fill:url(#linearGradientF8FBFEEDF5FCDEEDFAD4E7F8E2E5E9_143543371);" stroke="191970" /></g><g componentSequence="31"><text x="283" y="657" text-anchor="middle" style="font-weight:bold;font-size:10px;stroke:none; fill:#333399"><tspan dy="14" x="283">Aprovar ADF</tspan></text></g><g sequence="36"><ellipse cx="387" cy="587" rx="17" ry="17" stroke-width="3" style="fill:url(#linearGradientFF6666FF9696FFB6B6_264717624);" stroke="993333" /></g><g sequence="40"><ellipse cx="1447" cy="447" rx="17" ry="17" stroke-width="3" style="fill:url(#linearGradientFF6666FF9696FFB6B6_1498548352);" stroke="993333" /></g><g sequence="40"><polygon points=" 1438 443 1443 438 1448 443 1453 438 1458 443 1453 448 1458 453 1453 458 1448 453 1443 458 1438 453 1443 448" style="stroke:none; fill:#993333" /></g><g sequence="46"><rect x="1360" y="1090" width="106" height="70" ry="5" rx="5" style="fill:url(#linearGradientF8FBFEEDF5FCDEEDFAD4E7F8E2E5E9_1536079323);" stroke="191970" /></g><g componentSequence="46"><text x="1413" y="1105" text-anchor="middle" style="font-weight:bold;font-size:10px;stroke:none; fill:#333399"><tspan dy="14" x="1413">Diretoria</tspan><tspan dy="14" x="1413">Nacional</tspan></text></g><g sequence="48"><rect x="590" y="1090" width="106" height="70" ry="5" rx="5" style="fill:url(#linearGradientF8FBFEEDF5FCDEEDFAD4E7F8E2E5E9_555239157);" stroke="191970" /></g><g componentSequence="48"><text x="643" y="1105" text-anchor="middle" style="font-weight:bold;font-size:10px;stroke:none; fill:#333399"><tspan dy="14" x="643">Diretoria</tspan><tspan dy="14" x="643">Marketing</tspan></text></g><g sequence="50"><rect x="760" y="1090" width="106" height="70" ry="5" rx="5" style="fill:url(#linearGradientF8FBFEEDF5FCDEEDFAD4E7F8E2E5E9_348334443);" stroke="191970" /></g><g componentSequence="50"><text x="813" y="1114" text-anchor="middle" style="font-weight:bold;font-size:10px;stroke:none; fill:#333399"><tspan dy="14" x="813">Diretoria Suporte</tspan></text></g><g sequence="52"><rect x="920" y="1090" width="106" height="70" ry="5" rx="5" style="fill:url(#linearGradientF8FBFEEDF5FCDEEDFAD4E7F8E2E5E9_1562129787);" stroke="191970" /></g><g componentSequence="52"><text x="973" y="1105" text-anchor="middle" style="font-weight:bold;font-size:10px;stroke:none; fill:#333399"><tspan dy="14" x="973">Diretoria</tspan><tspan dy="14" x="973">Advocacy</tspan></text></g><g sequence="54"><rect x="1080" y="1090" width="106" height="70" ry="5" rx="5" style="fill:url(#linearGradientF8FBFEEDF5FCDEEDFAD4E7F8E2E5E9_1930584942);" stroke="191970" /></g><g componentSequence="54"><text x="1133" y="1105" text-anchor="middle" style="font-weight:bold;font-size:10px;stroke:none; fill:#333399"><tspan dy="14" x="1133">Diretoria</tspan><tspan dy="14" x="1133">Ministério</tspan></text></g><g sequence="57"><ellipse cx="1407" cy="1247" rx="17" ry="17" stroke-width="3" style="fill:url(#linearGradientFF6666FF9696FFB6B6_283032599);" stroke="993333" /></g><g sequence="59"><ellipse cx="637" cy="1267" rx="17" ry="17" stroke-width="3" style="fill:url(#linearGradientFF6666FF9696FFB6B6_492521238);" stroke="993333" /></g><g sequence="61"><ellipse cx="817" cy="1257" rx="17" ry="17" stroke-width="3" style="fill:url(#linearGradientFF6666FF9696FFB6B6_567287339);" stroke="993333" /></g><g sequence="63"><ellipse cx="977" cy="1257" rx="17" ry="17" stroke-width="3" style="fill:url(#linearGradientFF6666FF9696FFB6B6_1102643308);" stroke="993333" /></g><g sequence="65"><ellipse cx="1137" cy="1257" rx="17" ry="17" stroke-width="3" style="fill:url(#linearGradientFF6666FF9696FFB6B6_610415176);" stroke="993333" /></g><g sequence="67"><ellipse cx="477" cy="987" rx="17" ry="17" stroke-width="3" style="fill:url(#linearGradientFF6666FF9696FFB6B6_1673966117);" stroke="993333" /></g><g sequence="75"><polygon points=" 450 650 480 620 510 650 480 680 450 650" style="fill:url(#linearGradientFAFBFCFFFFCC_1111939376);" stroke="000000" /></g><g componentSequence="75"><text x="480" y="690" text-anchor="middle" style="font-weight:bold;font-size:10px;stroke:none; fill:#333399"><tspan dy="14" x="480">Aprovad</tspan><tspan dy="14" x="480">o</tspan></text></g><g sequence="79"><ellipse cx="1437" cy="337" rx="17" ry="17" stroke-width="3" style="fill:url(#linearGradientFF6666FF9696FFB6B6_1265965940);" stroke="993333" /></g><g sequence="81"><polygon points=" 610 870 640 840 670 870 640 900 610 870" style="fill:url(#linearGradientFAFBFCFFFFCC_2117111840);" stroke="000000" /></g><g componentSequence="81"><text x="640" y="910" text-anchor="middle" style="font-weight:bold;font-size:10px;stroke:none; fill:#333399"><tspan dy="14" x="640">Aprovad</tspan><tspan dy="14" x="640">o</tspan></text></g><g sequence="90"><polygon points=" 1240 1110 1270 1080 1300 1110 1270 1140 1240 1110" style="fill:url(#linearGradientFAFBFCFFFFCC_674316889);" stroke="000000" /></g><g componentSequence="90"><text x="1270" y="1150" text-anchor="middle" style="font-weight:bold;font-size:10px;stroke:none; fill:#333399"><tspan dy="14" x="1270">Aprovad</tspan><tspan dy="14" x="1270">o</tspan></text></g><g sequence="94"><polygon points=" 980 380 1010 350 1040 380 1010 410 980 380" style="fill:url(#linearGradientFAFBFCFFFFCC_1548386614);" stroke="000000" /></g><g componentSequence="94"><text x="1010" y="420" text-anchor="middle" style="font-weight:bold;font-size:10px;stroke:none; fill:#333399"><tspan dy="14" x="1010">Aprovad</tspan><tspan dy="14" x="1010">o</tspan></text></g><g sequence="99"><polygon points=" 140 190 170 160 200 190 170 220 140 190" style="fill:url(#linearGradientFAFBFCFFFFCC_1057464176);" stroke="000000" /></g><g componentSequence="99"><text x="170" y="230" text-anchor="middle" style="font-weight:bold;font-size:10px;stroke:none; fill:#333399"><tspan dy="14" x="170">Verifica</tspan><tspan dy="14" x="170">orçada</tspan></text></g><g componentSequence="8"><text x="182" y="48" style="font-size:10px;font-weight:none;stroke:none; fill:#333399" text-anchor="left" /></g><g componentSequence="27"><text x="1183" y="126" style="font-size:10px;font-weight:none;stroke:none; fill:#333399" text-anchor="left" /></g><g componentSequence="39"><text x="1373" y="425" style="font-size:10px;font-weight:none;stroke:none; fill:#333399" text-anchor="left" /></g><g componentSequence="58"><text x="1420" y="1195" style="font-size:10px;font-weight:none;stroke:none; fill:#333399" text-anchor="left" /></g><g componentSequence="60"><text x="650" y="1205" style="font-size:10px;font-weight:none;stroke:none; fill:#333399" text-anchor="left" /></g><g componentSequence="62"><text x="825" y="1200" style="font-size:10px;font-weight:none;stroke:none; fill:#333399" text-anchor="left" /></g><g componentSequence="68"><text x="490" y="943" style="font-size:10px;font-weight:none;stroke:none; fill:#333399" text-anchor="left" /></g><g componentSequence="74"><text x="354" y="620" style="font-size:10px;font-weight:none;stroke:none; fill:#333399" text-anchor="left" /></g><g componentSequence="76"><text x="403" y="669" style="font-size:10px;font-weight:none;stroke:none; fill:#333399" text-anchor="left" /></g><g componentSequence="77"><text x="491" y="791" style="font-size:10px;font-weight:none;stroke:none; fill:#333399" text-anchor="left" /></g><g componentSequence="80"><text x="1368" y="361" style="font-size:10px;font-weight:none;stroke:none; fill:#333399" text-anchor="left" /></g><g componentSequence="82"><text x="583" y="890" style="font-size:10px;font-weight:none;stroke:none; fill:#333399" text-anchor="left" /></g><g componentSequence="83"><text x="835" y="646" style="font-size:10px;font-weight:none;stroke:none; fill:#333399" text-anchor="left" /></g><g componentSequence="84"><text x="651" y="1016" style="font-size:10px;font-weight:none;stroke:none; fill:#333399" text-anchor="left" /></g><g componentSequence="85"><text x="738" y="1125" style="font-size:10px;font-weight:none;stroke:none; fill:#333399" text-anchor="left" /></g><g componentSequence="86"><text x="903" y="1125" style="font-size:10px;font-weight:none;stroke:none; fill:#333399" text-anchor="left" /></g><g componentSequence="87"><text x="1145" y="1200" style="font-size:10px;font-weight:none;stroke:none; fill:#333399" text-anchor="left" /></g><g componentSequence="88"><text x="985" y="1200" style="font-size:10px;font-weight:none;stroke:none; fill:#333399" text-anchor="left" /></g><g componentSequence="89"><text x="1063" y="1125" style="font-size:10px;font-weight:none;stroke:none; fill:#333399" text-anchor="left" /></g><g componentSequence="91"><text x="1223" y="1128" style="font-size:10px;font-weight:none;stroke:none; fill:#333399" text-anchor="left" /></g><g componentSequence="92"><text x="1340" y="1128" style="font-size:10px;font-weight:none;stroke:none; fill:#333399" text-anchor="left" /></g><g componentSequence="93"><text x="1150" y="766" style="font-size:10px;font-weight:none;stroke:none; fill:#333399" text-anchor="left" /></g><g componentSequence="95"><text x="635" y="407" style="font-size:10px;font-weight:none;stroke:none; fill:#333399" text-anchor="left" /></g><g componentSequence="96"><text x="1125" y="398" style="font-size:10px;font-weight:none;stroke:none; fill:#333399" text-anchor="left" /></g><g componentSequence="97"><text x="1021" y="264" style="font-size:10px;font-weight:none;stroke:none; fill:#333399" text-anchor="left" /></g><g componentSequence="98"><text x="1226" y="771" style="font-size:10px;font-weight:none;stroke:none; fill:#333399" text-anchor="left" /></g><g componentSequence="100"><text x="178" y="138" style="font-size:10px;font-weight:none;stroke:none; fill:#333399" text-anchor="left" /></g><g componentSequence="101"><text x="291" y="383" style="font-size:10px;font-weight:none;stroke:none; fill:#333399" text-anchor="left" /></g><g componentSequence="102"><text x="178" y="704" style="font-size:10px;font-weight:none;stroke:none; fill:#333399" text-anchor="left" /></g><path style="fill:none; stroke:#000000;stroke-width:1" d="M167.0 116.0 L168.0 159.0" /><polygon style="fill:#000000; stroke:#000000;" points=" 173 149 168 159 163 149 168 151" /><path style="fill:none; stroke:#000000;stroke-dasharray:2" d="M209.0 48.0 L167.0 48.0 L167.0 81.0" /><path style="fill:none; stroke:#000000;stroke-width:1" d="M481.0 916.0 L478.0 970.0" /><polygon style="fill:#000000; stroke:#000000;" points=" 484 960 478 970 474 960 478 962" /><path style="fill:none; stroke:#000000;stroke-width:1" d="M536.0 889.0 L609.0 890.0" /><polygon style="fill:#000000; stroke:#000000;" points=" 599 885 609 890 599 895 601 890" /><polygon style="fill:#000000; stroke:#000000;" points=" 541 884 551 894" /><path style="fill:none; stroke:#000000;stroke-width:1" d="M480.0 722.0 L482.0 859.0" /><polygon style="fill:#000000; stroke:#000000;" points=" 487 849 482 859 477 849 482 851" /><path style="fill:none; stroke:#000000;stroke-width:1" d="M169.0 262.0 L168.0 885.0 L429.0 887.0" /><polygon style="fill:#000000; stroke:#000000;" points=" 419 882 429 887 419 892 421 887" /><path style="fill:none; stroke:#000000;stroke-width:1" d="M1296.0 408.0 L1430.0 443.0" /><polygon style="fill:#000000; stroke:#000000;" points=" 1422 436 1430 443 1419 445 1422 441" /><path style="fill:none; stroke:#000000;stroke-width:1" d="M1296.0 379.0 L1420.0 342.0" /><polygon style="fill:#000000; stroke:#000000;" points=" 1409 340 1420 342 1412 350 1412 344" /><polygon style="fill:#000000; stroke:#000000;" points=" 1299 373 1312 380" /><path style="fill:none; stroke:#000000;stroke-width:1" d="M1040.0 400.0 L1189.0 396.0" /><polygon style="fill:#000000; stroke:#000000;" points=" 1179 391 1189 396 1179 401 1181 396" /><path style="fill:none; stroke:#000000;stroke-width:1" d="M1066.0 128.0 L1280.0 124.0" /><polygon style="fill:#000000; stroke:#000000;" points=" 1270 119 1280 124 1270 129 1272 124" /><path style="fill:none; stroke:#000000;stroke-width:1" d="M1010.0 349.0 L1012.0 178.0" /><polygon style="fill:#000000; stroke:#000000;" points=" 1007 188 1012 178 1017 188 1012 186" /><path style="fill:none; stroke:#000000;stroke-width:1" d="M319.0 639.0 L373.0 598.0" /><polygon style="fill:#000000; stroke:#000000;" points=" 362 600 373 598 368 608 367 603" /><path style="fill:none; stroke:#000000;stroke-width:1" d="M336.0 668.0 L449.0 670.0" /><polygon style="fill:#000000; stroke:#000000;" points=" 439 665 449 670 439 675 441 670" /><polygon style="fill:#000000; stroke:#000000;" points=" 341 663 351 673" /><path style="fill:none; stroke:#000000;stroke-width:1" d="M200.0 210.0 L280.0 208.0 L282.0 639.0" /><polygon style="fill:#000000; stroke:#000000;" points=" 287 629 282 639 277 629 282 631" /><path style="fill:none; stroke:#000000;stroke-width:1" d="M1411.0 1160.0 L1407.0 1230.0" /><polygon style="fill:#000000; stroke:#000000;" points=" 1413 1220 1407 1230 1403 1220 1407 1222" /><path style="fill:none; stroke:#000000;stroke-width:1" d="M1393.0 1089.0 L1038.0 452.0" /><polygon style="fill:#000000; stroke:#000000;" points=" 1039 463 1038 452 1047 458 1042 459" /><polygon style="fill:#000000; stroke:#000000;" points=" 1386 1087 1390 1073" /><path style="fill:none; stroke:#000000;stroke-width:1" d="M1300.0 1129.0 L1359.0 1127.0" /><polygon style="fill:#000000; stroke:#000000;" points=" 1349 1122 1359 1127 1349 1132 1351 1127" /><path style="fill:none; stroke:#000000;stroke-width:1" d="M641.0 1160.0 L637.0 1250.0" /><polygon style="fill:#000000; stroke:#000000;" points=" 642 1240 637 1250 632 1240 637 1242" /><path style="fill:none; stroke:#000000;stroke-width:1" d="M696.0 1125.0 L759.0 1125.0" /><polygon style="fill:#000000; stroke:#000000;" points=" 749 1120 759 1125 749 1130 751 1125" /><polygon style="fill:#000000; stroke:#000000;" points=" 701 1120 711 1130" /><path style="fill:none; stroke:#000000;stroke-width:1" d="M640.0 942.0 L642.0 1089.0" /><polygon style="fill:#000000; stroke:#000000;" points=" 647 1079 642 1089 637 1079 642 1081" /><path style="fill:none; stroke:#000000;stroke-width:1" d="M814.0 1160.0 L817.0 1240.0" /><polygon style="fill:#000000; stroke:#000000;" points=" 822 1230 817 1240 812 1230 817 1232" /><path style="fill:none; stroke:#000000;stroke-width:1" d="M866.0 1125.0 L919.0 1125.0" /><polygon style="fill:#000000; stroke:#000000;" points=" 909 1120 919 1125 909 1130 911 1125" /><polygon style="fill:#000000; stroke:#000000;" points=" 871 1120 881 1130" /><path style="fill:none; stroke:#000000;stroke-width:1" d="M974.0 1160.0 L977.0 1240.0" /><polygon style="fill:#000000; stroke:#000000;" points=" 982 1230 977 1240 972 1230 977 1232" /><path style="fill:none; stroke:#000000;stroke-width:1" d="M1026.0 1125.0 L1079.0 1125.0" /><polygon style="fill:#000000; stroke:#000000;" points=" 1069 1120 1079 1125 1069 1130 1071 1125" /><polygon style="fill:#000000; stroke:#000000;" points=" 1031 1120 1041 1130" /><path style="fill:none; stroke:#000000;stroke-width:1" d="M1134.0 1160.0 L1137.0 1240.0" /><polygon style="fill:#000000; stroke:#000000;" points=" 1142 1230 1137 1240 1132 1230 1137 1232" /><path style="fill:none; stroke:#000000;stroke-width:1" d="M1186.0 1127.0 L1239.0 1129.0" /><polygon style="fill:#000000; stroke:#000000;" points=" 1229 1124 1239 1129 1229 1134 1231 1129" /><polygon style="fill:#000000; stroke:#000000;" points=" 1191 1122 1201 1133" /><path style="fill:none; stroke:#000000;stroke-width:1" d="M480.0 619.0 L480.0 409.0 L979.0 401.0" /><polygon style="fill:#000000; stroke:#000000;" points=" 969 396 979 401 969 406 971 401" /><path style="fill:none; stroke:#000000;stroke-width:1" d="M670.0 850.0 L979.0 441.0" /><polygon style="fill:#000000; stroke:#000000;" points=" 969 446 979 441 977 452 974 447" /><path style="fill:none; stroke:#000000;stroke-width:1" d="M1251.0 1079.0 L1028.0 452.0" /><polygon style="fill:#000000; stroke:#000000;" points=" 1027 463 1028 452 1036 460 1031 460" /><defs><linearGradient xmlns:xlink="http://www.w3.org/1999/xlink" xlink:href="#linearGradient66FF6696FF96B6FFB6" id="linearGradient66FF6696FF96B6FFB6_1988562260" x1="0" y1="82.0" x2="0" y2="117.0" gradientUnits="userSpaceOnUse" xlink:type="simple" xlink:actuate="onLoad" xlink:show="other" /><linearGradient id="linearGradient66FF6696FF96B6FFB6"><stop style="stop-color:#66FF66;stop-opacity:1;" offset="0.0" id="stop66FF66" /><stop style="stop-color:#96FF96;stop-opacity:1;" offset="0.5" id="stop96FF96" /><stop style="stop-color:#B6FFB6;stop-opacity:1;" offset="1.0" id="stopB6FFB6" /></linearGradient><linearGradient xmlns:xlink="http://www.w3.org/1999/xlink" xlink:href="#linearGradientF8FBFEEDF5FCDEEDFAD4E7F8E2E5E9" id="linearGradientF8FBFEEDF5FCDEEDFAD4E7F8E2E5E9_2017525236" x1="0" y1="860.0" x2="0" y2="966.0" gradientUnits="userSpaceOnUse" xlink:type="simple" xlink:actuate="onLoad" xlink:show="other" /><linearGradient id="linearGradientF8FBFEEDF5FCDEEDFAD4E7F8E2E5E9"><stop style="stop-color:#F8FBFE;stop-opacity:1;" offset="0.0" id="stopF8FBFE" /><stop style="stop-color:#EDF5FC;stop-opacity:1;" offset="0.25" id="stopEDF5FC" /><stop style="stop-color:#DEEDFA;stop-opacity:1;" offset="0.5" id="stopDEEDFA" /><stop style="stop-color:#D4E7F8;stop-opacity:1;" offset="0.75" id="stopD4E7F8" /><stop style="stop-color:#E2E5E9;stop-opacity:1;" offset="1.0" id="stopE2E5E9" /></linearGradient><linearGradient xmlns:xlink="http://www.w3.org/1999/xlink" xlink:href="#linearGradientF8FBFEEDF5FCDEEDFAD4E7F8E2E5E9" id="linearGradientF8FBFEEDF5FCDEEDFAD4E7F8E2E5E9_2088724004" x1="0" y1="360.0" x2="0" y2="466.0" gradientUnits="userSpaceOnUse" xlink:type="simple" xlink:actuate="onLoad" xlink:show="other" /><linearGradient xmlns:xlink="http://www.w3.org/1999/xlink" xlink:href="#linearGradientF8FBFEEDF5FCDEEDFAD4E7F8E2E5E9" id="linearGradientF8FBFEEDF5FCDEEDFAD4E7F8E2E5E9_964556751" x1="0" y1="80.0" x2="0" y2="186.0" gradientUnits="userSpaceOnUse" xlink:type="simple" xlink:actuate="onLoad" xlink:show="other" /><linearGradient xmlns:xlink="http://www.w3.org/1999/xlink" xlink:href="#linearGradientFF6666FF9696FFB6B6" id="linearGradientFF6666FF9696FFB6B6_2011078681" x1="0" y1="107.0" x2="0" y2="142.0" gradientUnits="userSpaceOnUse" xlink:type="simple" xlink:actuate="onLoad" xlink:show="other" /><linearGradient id="linearGradientFF6666FF9696FFB6B6"><stop style="stop-color:#FF6666;stop-opacity:1;" offset="0.0" id="stopFF6666" /><stop style="stop-color:#FF9696;stop-opacity:1;" offset="0.5" id="stopFF9696" /><stop style="stop-color:#FFB6B6;stop-opacity:1;" offset="1.0" id="stopFFB6B6" /></linearGradient><linearGradient xmlns:xlink="http://www.w3.org/1999/xlink" xlink:href="#linearGradientF8FBFEEDF5FCDEEDFAD4E7F8E2E5E9" id="linearGradientF8FBFEEDF5FCDEEDFAD4E7F8E2E5E9_143543371" x1="0" y1="640.0" x2="0" y2="746.0" gradientUnits="userSpaceOnUse" xlink:type="simple" xlink:actuate="onLoad" xlink:show="other" /><linearGradient xmlns:xlink="http://www.w3.org/1999/xlink" xlink:href="#linearGradientFF6666FF9696FFB6B6" id="linearGradientFF6666FF9696FFB6B6_264717624" x1="0" y1="570.0" x2="0" y2="605.0" gradientUnits="userSpaceOnUse" xlink:type="simple" xlink:actuate="onLoad" xlink:show="other" /><linearGradient xmlns:xlink="http://www.w3.org/1999/xlink" xlink:href="#linearGradientFF6666FF9696FFB6B6" id="linearGradientFF6666FF9696FFB6B6_1498548352" x1="0" y1="430.0" x2="0" y2="465.0" gradientUnits="userSpaceOnUse" xlink:type="simple" xlink:actuate="onLoad" xlink:show="other" /><linearGradient xmlns:xlink="http://www.w3.org/1999/xlink" xlink:href="#linearGradientF8FBFEEDF5FCDEEDFAD4E7F8E2E5E9" id="linearGradientF8FBFEEDF5FCDEEDFAD4E7F8E2E5E9_1536079323" x1="0" y1="1090.0" x2="0" y2="1196.0" gradientUnits="userSpaceOnUse" xlink:type="simple" xlink:actuate="onLoad" xlink:show="other" /><linearGradient xmlns:xlink="http://www.w3.org/1999/xlink" xlink:href="#linearGradientF8FBFEEDF5FCDEEDFAD4E7F8E2E5E9" id="linearGradientF8FBFEEDF5FCDEEDFAD4E7F8E2E5E9_555239157" x1="0" y1="1090.0" x2="0" y2="1196.0" gradientUnits="userSpaceOnUse" xlink:type="simple" xlink:actuate="onLoad" xlink:show="other" /><linearGradient xmlns:xlink="http://www.w3.org/1999/xlink" xlink:href="#linearGradientF8FBFEEDF5FCDEEDFAD4E7F8E2E5E9" id="linearGradientF8FBFEEDF5FCDEEDFAD4E7F8E2E5E9_348334443" x1="0" y1="1090.0" x2="0" y2="1196.0" gradientUnits="userSpaceOnUse" xlink:type="simple" xlink:actuate="onLoad" xlink:show="other" /><linearGradient xmlns:xlink="http://www.w3.org/1999/xlink" xlink:href="#linearGradientF8FBFEEDF5FCDEEDFAD4E7F8E2E5E9" id="linearGradientF8FBFEEDF5FCDEEDFAD4E7F8E2E5E9_1562129787" x1="0" y1="1090.0" x2="0" y2="1196.0" gradientUnits="userSpaceOnUse" xlink:type="simple" xlink:actuate="onLoad" xlink:show="other" /><linearGradient xmlns:xlink="http://www.w3.org/1999/xlink" xlink:href="#linearGradientF8FBFEEDF5FCDEEDFAD4E7F8E2E5E9" id="linearGradientF8FBFEEDF5FCDEEDFAD4E7F8E2E5E9_1930584942" x1="0" y1="1090.0" x2="0" y2="1196.0" gradientUnits="userSpaceOnUse" xlink:type="simple" xlink:actuate="onLoad" xlink:show="other" /><linearGradient xmlns:xlink="http://www.w3.org/1999/xlink" xlink:href="#linearGradientFF6666FF9696FFB6B6" id="linearGradientFF6666FF9696FFB6B6_283032599" x1="0" y1="1230.0" x2="0" y2="1265.0" gradientUnits="userSpaceOnUse" xlink:type="simple" xlink:actuate="onLoad" xlink:show="other" /><linearGradient xmlns:xlink="http://www.w3.org/1999/xlink" xlink:href="#linearGradientFF6666FF9696FFB6B6" id="linearGradientFF6666FF9696FFB6B6_492521238" x1="0" y1="1250.0" x2="0" y2="1285.0" gradientUnits="userSpaceOnUse" xlink:type="simple" xlink:actuate="onLoad" xlink:show="other" /><linearGradient xmlns:xlink="http://www.w3.org/1999/xlink" xlink:href="#linearGradientFF6666FF9696FFB6B6" id="linearGradientFF6666FF9696FFB6B6_567287339" x1="0" y1="1240.0" x2="0" y2="1275.0" gradientUnits="userSpaceOnUse" xlink:type="simple" xlink:actuate="onLoad" xlink:show="other" /><linearGradient xmlns:xlink="http://www.w3.org/1999/xlink" xlink:href="#linearGradientFF6666FF9696FFB6B6" id="linearGradientFF6666FF9696FFB6B6_1102643308" x1="0" y1="1240.0" x2="0" y2="1275.0" gradientUnits="userSpaceOnUse" xlink:type="simple" xlink:actuate="onLoad" xlink:show="other" /><linearGradient xmlns:xlink="http://www.w3.org/1999/xlink" xlink:href="#linearGradientFF6666FF9696FFB6B6" id="linearGradientFF6666FF9696FFB6B6_610415176" x1="0" y1="1240.0" x2="0" y2="1275.0" gradientUnits="userSpaceOnUse" xlink:type="simple" xlink:actuate="onLoad" xlink:show="other" /><linearGradient xmlns:xlink="http://www.w3.org/1999/xlink" xlink:href="#linearGradientFF6666FF9696FFB6B6" id="linearGradientFF6666FF9696FFB6B6_1673966117" x1="0" y1="970.0" x2="0" y2="1005.0" gradientUnits="userSpaceOnUse" xlink:type="simple" xlink:actuate="onLoad" xlink:show="other" /><linearGradient xmlns:xlink="http://www.w3.org/1999/xlink" xlink:href="#linearGradientFAFBFCFFFFCC" id="linearGradientFAFBFCFFFFCC_1111939376" x1="0" y1="620.0" x2="0" y2="680.0" gradientUnits="userSpaceOnUse" xlink:type="simple" xlink:actuate="onLoad" xlink:show="other" /><linearGradient id="linearGradientFAFBFCFFFFCC"><stop style="stop-color:#FAFBFC;stop-opacity:1;" offset="0.0" id="stopFAFBFC" /><stop style="stop-color:#FFFFCC;stop-opacity:1;" offset="1.0" id="stopFFFFCC" /></linearGradient><linearGradient xmlns:xlink="http://www.w3.org/1999/xlink" xlink:href="#linearGradientFF6666FF9696FFB6B6" id="linearGradientFF6666FF9696FFB6B6_1265965940" x1="0" y1="320.0" x2="0" y2="355.0" gradientUnits="userSpaceOnUse" xlink:type="simple" xlink:actuate="onLoad" xlink:show="other" /><linearGradient xmlns:xlink="http://www.w3.org/1999/xlink" xlink:href="#linearGradientFAFBFCFFFFCC" id="linearGradientFAFBFCFFFFCC_2117111840" x1="0" y1="840.0" x2="0" y2="900.0" gradientUnits="userSpaceOnUse" xlink:type="simple" xlink:actuate="onLoad" xlink:show="other" /><linearGradient xmlns:xlink="http://www.w3.org/1999/xlink" xlink:href="#linearGradientFAFBFCFFFFCC" id="linearGradientFAFBFCFFFFCC_674316889" x1="0" y1="1080.0" x2="0" y2="1140.0" gradientUnits="userSpaceOnUse" xlink:type="simple" xlink:actuate="onLoad" xlink:show="other" /><linearGradient xmlns:xlink="http://www.w3.org/1999/xlink" xlink:href="#linearGradientFAFBFCFFFFCC" id="linearGradientFAFBFCFFFFCC_1548386614" x1="0" y1="350.0" x2="0" y2="410.0" gradientUnits="userSpaceOnUse" xlink:type="simple" xlink:actuate="onLoad" xlink:show="other" /><linearGradient xmlns:xlink="http://www.w3.org/1999/xlink" xlink:href="#linearGradientFAFBFCFFFFCC" id="linearGradientFAFBFCFFFFCC_1057464176" x1="0" y1="160.0" x2="0" y2="220.0" gradientUnits="userSpaceOnUse" xlink:type="simple" xlink:actuate="onLoad" xlink:show="other" /></defs></svg>
